<svg version="1.1" id="Layer_1" xmlns="http://www.w3.org/2000/svg" xmlns:xlink="http://www.w3.org/1999/xlink" x="0px" y="0px"
	 width="100%" viewBox="0 0 500 500" disable-background="new 0 0 500 500" xml:space="preserve">
<path fill="none" opacity="1.000000" stroke="none" 
	d="
M1.000000,177.000000
	C1.000000,118.014610 1.000000,59.529213 1.000000,1.021910
	C167.610443,1.021910 334.220886,1.021910 500.915649,1.021910
	C500.915649,167.568787 500.915649,334.137634 500.915649,500.853241
	C334.333435,500.853241 167.666733,500.853241 1.000000,500.853241
	C1.000000,393.112305 1.000000,285.306152 1.000000,177.000000
M318.067230,202.548248
	C318.374725,202.723511 318.682251,202.898773 318.926758,203.043503
	C318.926758,203.043503 318.920105,203.113617 318.988403,203.838470
	C322.743195,207.009048 324.261505,211.090057 324.542664,215.961182
	C325.000366,223.891815 326.593475,231.981598 318.842804,237.751938
	C318.298248,238.157364 318.213470,239.180374 317.986511,239.941605
	C317.986511,239.941605 318.010590,239.869522 317.353729,239.967728
	C316.852386,240.296768 316.351074,240.625809 315.208374,241.275513
	C308.956177,245.456604 301.903229,245.377991 294.864807,244.862640
	C286.612885,244.258438 280.151978,248.517151 275.507843,255.498901
	C271.951233,260.845703 273.093811,266.491486 271.279205,272.290985
	C269.892517,275.177612 269.199432,278.867889 266.976929,280.786133
	C262.120026,284.978149 256.588470,288.436523 251.096100,291.809662
	C249.758286,292.631287 246.984787,292.710907 245.763351,291.856537
	C239.745895,287.647461 233.166092,283.741669 228.512665,278.261597
	C225.479858,274.690002 224.428787,268.654510 224.199417,263.644501
	C223.706787,252.884933 211.858749,240.339493 201.307037,240.939011
	C196.210434,241.228592 191.174118,241.936737 185.957031,240.161880
	C179.338104,237.910065 176.384613,233.706772 177.909012,226.809174
	C178.505875,224.108398 179.260254,221.209549 178.860947,218.564224
	C177.546921,209.858505 173.716797,202.814896 165.833969,197.805969
	C157.680588,192.625107 149.885437,191.515045 141.122299,195.788986
	C139.482285,196.588852 136.561752,196.173370 134.868088,195.205688
	C128.018112,191.291977 124.237450,185.377365 123.951088,177.220428
	C123.496620,164.275345 112.038757,155.210815 100.964264,157.261993
	C93.685074,158.610199 88.211716,156.847595 83.977928,151.800735
	C81.196671,148.485352 78.054169,143.570648 78.580070,139.870575
	C79.220154,135.367249 79.087563,131.368713 77.924202,127.271957
	C72.885384,109.527794 51.634758,100.636963 34.996746,113.260124
	C28.119329,118.477982 25.126945,125.421051 24.633595,134.595291
	C24.051834,145.413620 30.473377,151.899887 36.918026,157.463287
	C42.128635,161.961365 50.117527,163.161407 57.715973,160.745743
	C63.087688,159.038025 69.080147,158.301010 73.104271,162.943207
	C77.242867,167.717438 81.065994,173.097916 81.078011,180.082901
	C81.103661,194.990601 97.183968,201.641953 108.068260,199.917953
	C117.061310,198.493515 126.559792,206.115036 124.786667,214.845413
	C122.483627,226.184860 127.238953,234.379639 134.964798,241.230896
	C138.411667,244.287552 143.320145,247.297638 147.616608,247.372253
	C152.527206,247.457535 158.325317,248.959198 162.929291,245.109573
	C163.203003,244.880722 163.910477,245.050903 164.372360,245.185486
	C168.616043,246.421982 174.299927,254.053040 175.049850,258.705353
	C176.006302,264.638855 175.565781,270.968628 179.075851,276.277863
	C183.022919,282.248108 187.202133,287.916748 195.485580,288.048309
	C200.417465,288.126678 205.349258,288.589417 210.266357,289.040039
	C212.359085,289.231842 214.928925,289.186462 216.402054,290.356567
	C225.412552,297.513611 230.114792,306.642120 227.964264,318.476776
	C225.147507,333.977692 222.341553,349.480591 219.484711,364.974121
	C218.100266,372.482361 216.470428,379.947632 215.205383,387.475006
	C213.763855,396.052429 212.718857,404.696320 211.289764,413.276062
	C210.006348,420.981201 208.172913,428.600433 207.052353,436.325745
	C205.269623,448.616272 203.774582,460.951691 202.366547,473.291962
	C201.717499,478.980408 202.173203,485.125793 206.835297,488.717194
	C212.723267,493.252930 219.847763,493.367035 227.070038,491.011414
	C235.237503,488.347473 241.059006,481.324768 242.048813,472.743073
	C243.247238,462.352600 244.615616,451.975128 246.211685,441.638550
	C249.021942,423.438629 252.190430,405.293701 254.959259,387.087799
	C256.876709,374.479889 258.155548,361.773926 260.128174,349.175690
	C261.790375,338.559937 263.995880,328.027496 266.051727,317.475922
	C266.975708,312.733582 267.252869,307.600677 269.347870,303.406372
	C273.640564,294.812164 282.444916,292.816925 291.617950,291.126678
	C294.253448,291.346619 296.967468,292.083771 299.510986,291.697693
	C311.044250,289.947235 318.837250,280.029755 319.148834,268.169098
	C319.255554,264.107025 321.070831,260.089874 322.715454,255.721436
	C326.666656,247.349808 333.662384,244.290497 343.226715,244.741028
	C348.696838,244.998703 354.477417,245.535416 359.941406,242.167755
	C371.044678,235.324448 375.554260,225.289505 371.799713,213.406952
	C368.791168,203.885437 356.047455,196.591003 345.172272,198.375748
	C338.819336,199.418350 333.424805,197.546341 328.370575,193.892853
	C327.129578,192.995773 325.541382,192.579025 324.018616,191.332169
	C323.713654,190.856125 323.408691,190.380081 322.917603,189.403870
	C322.611694,189.242508 322.305817,189.081161 322.048370,188.967194
	C322.048370,188.967194 322.089661,188.913467 322.025391,188.263962
	C321.387573,187.476715 320.749756,186.689453 320.016266,185.409195
	C319.968262,185.248810 319.920288,185.088440 319.942535,184.469727
	C319.801270,184.156677 319.559143,183.991867 319.027161,183.474991
	C318.972687,183.305252 318.918182,183.135513 318.909912,182.451065
	C318.633484,182.264999 318.357025,182.078934 318.018402,180.980911
	C318.011963,178.151749 318.389832,175.254822 317.905762,172.509888
	C317.240631,168.738297 316.760101,164.517471 314.718414,161.487961
	C309.751312,154.117630 303.043091,151.306229 293.343567,151.576157
	C278.261932,151.995880 269.705719,167.043900 271.886108,178.077194
	C274.188568,189.728180 286.502960,199.050339 298.324158,197.005936
	C304.649780,195.911957 310.508881,196.602997 315.993469,200.787155
	C316.625061,201.215790 317.256622,201.644409 317.949554,202.073868
	C317.949554,202.073868 317.931519,202.015244 318.067230,202.548248
M334.967712,64.052513
	C334.967712,64.052513 334.902191,64.066307 335.285339,64.718132
	C342.130188,66.840523 349.140961,66.376816 355.145050,63.068401
	C367.256195,56.394863 374.580017,46.731487 372.131592,31.656691
	C371.054199,25.023294 367.407410,19.589214 362.815338,16.314068
	C354.529602,10.404493 344.558807,8.032322 333.343536,10.045741
	C330.768402,11.363335 328.140411,12.587937 325.628113,14.016078
	C318.319763,18.170622 313.818604,24.727875 312.483826,32.714474
	C311.590607,38.058922 312.719543,43.763710 313.124390,49.294018
	C313.354828,52.442417 313.257904,55.277550 309.463593,57.024555
	C309.285370,57.303963 309.107117,57.583374 308.373016,58.154827
	C308.201721,58.748161 308.030426,59.341496 307.213531,60.234478
	C303.206482,64.954559 297.635132,65.156128 292.214172,64.905273
	C285.167511,64.579178 279.787750,68.471809 276.356171,73.163460
	C271.537384,79.751724 270.851166,88.092567 276.202423,95.105850
	C280.569275,100.828972 286.188171,104.849586 294.395203,104.022400
	C301.770447,103.279060 306.805420,99.508102 311.743347,93.653595
	C312.496918,89.221710 313.036926,84.738785 314.079681,80.376030
	C314.766174,77.503662 315.495392,74.152054 317.401855,72.160057
	C321.704590,67.664246 326.870361,64.127350 333.572388,64.053787
	C333.720367,64.052162 333.866821,63.912857 334.484344,63.996639
	C334.484344,63.996639 334.965363,64.119438 334.967712,64.052513
M417.745697,97.248573
	C416.833313,94.386200 415.159210,91.519417 415.175781,88.662430
	C415.205292,83.571594 415.348175,78.290413 412.269135,74.319237
	C409.184570,70.340927 405.114655,65.234985 400.807861,64.490150
	C391.870148,62.944439 382.368195,62.409939 375.539276,71.652832
	C371.203827,77.520851 369.175018,89.560524 373.241699,95.846626
	C379.131226,104.950378 387.796570,108.984566 398.109131,106.723625
	C404.742615,105.269295 408.879089,108.776634 413.990753,111.741859
	C416.297760,114.818810 420.367859,117.784645 420.570129,120.994232
	C421.105225,129.484848 423.312622,138.716431 415.799103,146.643036
	C411.455170,150.859955 406.440430,152.561661 400.243988,152.151657
	C395.570343,151.842407 390.721313,152.553253 386.092957,153.504120
	C373.651611,156.060165 365.592102,174.405441 375.793915,187.606766
	C381.373352,194.826630 388.914642,197.397568 396.990295,195.671982
	C405.155823,193.927200 412.046173,188.786850 413.895142,179.812302
	C415.422241,172.399963 415.713440,164.714920 420.751953,158.006409
	C427.043945,152.231506 434.670837,151.177872 442.717834,152.040649
	C448.196625,152.628067 452.881714,151.268768 457.336853,148.001022
	C463.887024,143.196579 468.437775,132.331894 466.030670,125.294930
	C463.286407,117.272423 458.681335,110.617188 449.702789,109.018234
	C445.519653,108.273285 440.986359,109.505798 436.798462,108.773804
	C429.365387,107.474579 422.605225,104.454987 417.745697,97.248573
M421.813568,251.967133
	C426.121735,249.935272 430.297394,249.649536 435.005951,251.309738
	C438.147125,252.417297 441.986755,252.425720 445.326447,251.846298
	C448.829163,251.238556 452.121765,249.374741 455.482269,248.001358
	C463.096588,244.889496 469.571228,233.085541 468.530212,224.950104
	C467.089294,213.689331 460.271698,206.574005 450.603149,202.128021
	C441.289032,197.845032 427.078094,202.084213 421.407745,210.457077
	C419.743713,212.914124 419.202667,216.131699 417.763977,219.744522
	C417.474915,223.737122 417.229248,227.733459 416.885712,231.721359
	C416.465302,236.601715 414.682098,240.369873 410.366608,243.513443
	C405.601898,246.984207 400.644257,246.971436 395.371399,247.022568
	C389.398438,247.080490 381.142212,251.976074 380.230591,256.894897
	C378.989014,263.593933 377.997253,270.078369 384.126740,276.162689
	C388.461395,280.465393 392.424316,281.259491 397.869019,281.179260
	C403.924896,281.090027 410.220886,277.705414 412.001068,271.991821
	C413.256958,267.960938 413.583160,263.588013 415.209961,259.742401
	C416.416290,256.890778 419.045776,254.641220 421.813568,251.967133
M216.460129,146.994232
	C211.791260,148.802246 207.602020,151.857758 202.037521,151.005203
	C191.270447,149.355530 183.643082,151.956161 178.536087,160.781281
	C172.642944,170.964905 175.132645,184.578964 185.181152,190.984756
	C192.982529,195.958023 201.693329,196.137741 209.241028,191.590607
	C215.922623,187.565231 221.252441,181.149948 219.946945,172.249527
	C218.239395,160.607971 230.453613,149.294830 242.132233,150.124084
	C244.333893,150.280411 246.769821,152.345230 248.588318,151.807358
	C257.431152,149.191895 266.153687,146.273300 269.538483,136.033920
	C275.008270,119.487221 262.241272,104.798111 245.635025,105.940170
	C242.032852,106.187897 238.260300,106.050667 234.757660,105.251610
	C225.167007,103.063721 220.019180,96.191811 220.023193,86.364426
	C220.023804,84.864960 220.091812,83.359497 219.985214,81.867050
	C219.472855,74.694595 215.956192,68.339310 210.209717,65.204666
	C205.278076,62.514496 198.499252,61.996788 192.695404,62.467587
	C187.115402,62.920223 182.596603,66.506729 179.126755,71.778481
	C174.499390,78.808914 173.584885,85.968010 177.188232,92.913010
	C181.343735,100.922226 188.040680,106.520737 197.962448,105.885544
	C201.055679,105.687515 204.554001,103.415100 207.082565,104.309540
	C216.144424,107.515045 223.658356,112.655296 226.081421,123.096619
	C227.431168,128.912811 226.865433,134.061264 223.557556,138.871902
	C221.630905,141.673798 219.354309,144.235092 216.460129,146.994232
M176.939285,53.318241
	C177.635651,52.225441 178.473495,51.197342 179.007233,50.030170
	C187.331665,31.826817 178.519272,9.673619 157.798569,6.013466
	C145.204895,3.788892 133.038528,9.194285 126.160866,19.126974
	C120.970238,26.623247 122.922150,34.860146 122.458138,42.880573
	C122.346451,44.811104 123.090584,46.887985 122.623383,48.684956
	C120.120377,58.312241 112.477585,64.003479 102.485069,64.001823
	C91.151443,63.999954 84.995537,69.394592 81.812439,80.551857
	C80.243446,86.051384 81.356575,91.434692 84.045296,94.946098
	C89.333138,101.851913 96.634064,106.007675 106.401215,104.181786
	C113.592896,102.837364 123.273819,94.331459 122.732536,87.185997
	C122.122322,79.130539 123.943138,73.316208 130.679962,68.016350
	C135.126465,64.518295 139.111801,63.305676 143.926086,64.565697
	C149.921555,66.134865 156.003754,66.426193 161.402756,63.959808
	C166.837646,61.477028 171.521851,57.350990 176.939285,53.318241
M123.071007,261.215424
	C122.444359,260.151245 121.992195,258.337891 121.162674,258.144684
	C115.847412,256.906677 110.452995,255.237991 105.077568,255.212784
	C97.385132,255.176727 88.991425,246.169769 89.921623,238.723434
	C90.457779,234.431503 90.228333,229.517166 88.627373,225.580978
	C83.201912,212.241669 73.179604,206.796982 58.979271,209.223953
	C52.190773,210.384171 46.403366,214.587631 42.860023,221.190353
	C40.458172,225.665985 39.234959,229.838882 39.532883,235.280807
	C39.941170,242.738632 44.627083,253.584427 51.015316,256.550171
	C58.880547,260.201599 66.748627,261.247833 75.156746,258.130066
	C80.502594,256.147797 90.084053,262.649841 91.015060,268.292114
	C91.568901,271.648560 91.620537,275.231171 92.894066,278.298553
	C96.608940,287.246094 104.921638,291.134094 114.405457,289.340149
	C119.391052,288.397034 122.039673,285.470032 124.560616,281.248657
	C129.150223,273.563202 129.216507,268.178833 123.071007,261.215424
M325.872284,136.537338
	C327.751923,139.039688 329.727051,141.476685 331.492920,144.056900
	C336.427856,151.267471 344.143616,152.126282 351.376251,150.987076
	C361.879150,149.332794 368.684937,139.643188 369.918884,132.257904
	C371.509766,122.736549 366.426758,112.977852 358.042053,107.968857
	C350.694946,103.579735 339.298615,103.852592 331.970703,111.127594
	C324.498749,118.545593 321.975708,126.153046 325.872284,136.537338
M251.172531,242.337936
	C254.823746,241.010468 258.916901,240.337906 262.041260,238.229660
	C270.555756,232.484329 273.194427,220.588867 269.573425,210.897629
	C266.263092,202.037933 255.654984,194.784821 244.589035,196.813599
	C235.408722,198.496689 228.510223,203.308640 226.485825,211.747711
	C224.225342,221.171082 224.990372,231.513687 234.444611,237.517670
	C239.081070,240.462082 245.160034,241.135056 251.172531,242.337936
M162.894485,111.351036
	C158.622421,109.921074 154.091309,106.800972 150.131454,107.407921
	C141.502792,108.730476 132.815918,110.998047 128.646729,120.680290
	C126.102356,126.589180 126.663849,137.905396 130.490494,143.138962
	C135.757065,150.341858 142.443832,153.556381 151.467667,153.274399
	C158.281509,153.061462 169.295792,146.769363 170.753983,140.365128
	C173.173416,129.739090 173.295471,119.459488 162.894485,111.351036
z"/>
<path fill="#05EB6E" opacity="1.000000" stroke="none"
	d="
M290.959137,290.843506
	C282.444916,292.816925 273.640564,294.812164 269.347870,303.406372
	C267.252869,307.600677 266.975708,312.733582 266.051727,317.475922
	C263.995880,328.027496 261.790375,338.559937 260.128174,349.175690
	C258.155548,361.773926 256.876709,374.479889 254.959259,387.087799
	C252.190430,405.293701 249.021942,423.438629 246.211685,441.638550
	C244.615616,451.975128 243.247238,462.352600 242.048813,472.743073
	C241.059006,481.324768 235.237503,488.347473 227.070038,491.011414
	C219.847763,493.367035 212.723267,493.252930 206.835297,488.717194
	C202.173203,485.125793 201.717499,478.980408 202.366547,473.291962
	C203.774582,460.951691 205.269623,448.616272 207.052353,436.325745
	C208.172913,428.600433 210.006348,420.981201 211.289764,413.276062
	C212.718857,404.696320 213.763855,396.052429 215.205383,387.475006
	C216.470428,379.947632 218.100266,372.482361 219.484711,364.974121
	C222.341553,349.480591 225.147507,333.977692 227.964264,318.476776
	C230.114792,306.642120 225.412552,297.513611 216.402054,290.356567
	C214.928925,289.186462 212.359085,289.231842 210.266357,289.040039
	C205.349258,288.589417 200.417465,288.126678 195.485580,288.048309
	C187.202133,287.916748 183.022919,282.248108 179.075851,276.277863
	C175.565781,270.968628 176.006302,264.638855 175.049850,258.705353
	C174.299927,254.053040 168.616043,246.421982 164.372360,245.185486
	C163.910477,245.050903 163.203003,244.880722 162.929291,245.109573
	C158.325317,248.959198 152.527206,247.457535 147.616608,247.372253
	C143.320145,247.297638 138.411667,244.287552 134.964798,241.230896
	C127.238953,234.379639 122.483627,226.184860 124.786667,214.845413
	C126.559792,206.115036 117.061310,198.493515 108.068260,199.917953
	C97.183968,201.641953 81.103661,194.990601 81.078011,180.082901
	C81.065994,173.097916 77.242867,167.717438 73.104271,162.943207
	C69.080147,158.301010 63.087688,159.038025 57.715973,160.745743
	C50.117527,163.161407 42.128635,161.961365 36.918026,157.463287
	C30.473377,151.899887 24.051834,145.413620 24.633595,134.595291
	C25.126945,125.421051 28.119329,118.477982 34.996746,113.260124
	C51.634758,100.636963 72.885384,109.527794 77.924202,127.271957
	C79.087563,131.368713 79.220154,135.367249 78.580070,139.870575
	C78.054169,143.570648 81.196671,148.485352 83.977928,151.800735
	C88.211716,156.847595 93.685074,158.610199 100.964264,157.261993
	C112.038757,155.210815 123.496620,164.275345 123.951088,177.220428
	C124.237450,185.377365 128.018112,191.291977 134.868088,195.205688
	C136.561752,196.173370 139.482285,196.588852 141.122299,195.788986
	C149.885437,191.515045 157.680588,192.625107 165.833969,197.805969
	C173.716797,202.814896 177.546921,209.858505 178.860947,218.564224
	C179.260254,221.209549 178.505875,224.108398 177.909012,226.809174
	C176.384613,233.706772 179.338104,237.910065 185.957031,240.161880
	C191.174118,241.936737 196.210434,241.228592 201.307037,240.939011
	C211.858749,240.339493 223.706787,252.884933 224.199417,263.644501
	C224.428787,268.654510 225.479858,274.690002 228.512665,278.261597
	C233.166092,283.741669 239.745895,287.647461 245.763351,291.856537
	C246.984787,292.710907 249.758286,292.631287 251.096100,291.809662
	C256.588470,288.436523 262.120026,284.978149 266.976929,280.786133
	C269.199432,278.867889 269.892517,275.177612 271.914185,272.253601
	C276.945526,280.145294 282.204651,287.221680 290.959137,290.843506
z"/>
<path fill="#05EB6E" opacity="1.000000" stroke="none"
	d="
M216.847641,146.949432
	C219.354309,144.235092 221.630905,141.673798 223.557556,138.871902
	C226.865433,134.061264 227.431168,128.912811 226.081421,123.096619
	C223.658356,112.655296 216.144424,107.515045 207.082565,104.309540
	C204.554001,103.415100 201.055679,105.687515 197.962448,105.885544
	C188.040680,106.520737 181.343735,100.922226 177.188232,92.913010
	C173.584885,85.968010 174.499390,78.808914 179.126755,71.778481
	C182.596603,66.506729 187.115402,62.920223 192.695404,62.467587
	C198.499252,61.996788 205.278076,62.514496 210.209717,65.204666
	C215.956192,68.339310 219.472855,74.694595 219.985214,81.867050
	C220.091812,83.359497 220.023804,84.864960 220.023193,86.364426
	C220.019180,96.191811 225.167007,103.063721 234.757660,105.251610
	C238.260300,106.050667 242.032852,106.187897 245.635025,105.940170
	C262.241272,104.798111 275.008270,119.487221 269.538483,136.033920
	C266.153687,146.273300 257.431152,149.191895 248.588318,151.807358
	C246.769821,152.345230 244.333893,150.280411 242.132233,150.124084
	C230.453613,149.294830 218.239395,160.607971 219.946945,172.249527
	C221.252441,181.149948 215.922623,187.565231 209.241028,191.590607
	C201.693329,196.137741 192.982529,195.958023 185.181152,190.984756
	C175.132645,184.578964 172.642944,170.964905 178.536087,160.781281
	C183.643082,151.956161 191.270447,149.355530 202.037521,151.005203
	C207.602020,151.857758 211.791260,148.802246 216.847641,146.949432
z"/>
<path fill="#05EB6E" opacity="1.000000" stroke="none"
	d="
M176.737122,53.631615
	C171.521851,57.350990 166.837646,61.477028 161.402756,63.959808
	C156.003754,66.426193 149.921555,66.134865 143.926086,64.565697
	C139.111801,63.305676 135.126465,64.518295 130.679962,68.016350
	C123.943138,73.316208 122.122322,79.130539 122.732536,87.185997
	C123.273819,94.331459 113.592896,102.837364 106.401215,104.181786
	C96.634064,106.007675 89.333138,101.851913 84.045296,94.946098
	C81.356575,91.434692 80.243446,86.051384 81.812439,80.551857
	C84.995537,69.394592 91.151443,63.999954 102.485069,64.001823
	C112.477585,64.003479 120.120377,58.312241 122.623383,48.684956
	C123.090584,46.887985 122.346451,44.811104 122.458138,42.880573
	C122.922150,34.860146 120.970238,26.623247 126.160866,19.126974
	C133.038528,9.194285 145.204895,3.788892 157.798569,6.013466
	C178.519272,9.673619 187.331665,31.826817 179.007233,50.030170
	C178.473495,51.197342 177.635651,52.225441 176.737122,53.631615
z"/>
<path fill="#05EB6E" opacity="1.000000" stroke="none"
	d="
M123.249077,261.558289
	C129.216507,268.178833 129.150223,273.563202 124.560616,281.248657
	C122.039673,285.470032 119.391052,288.397034 114.405457,289.340149
	C104.921638,291.134094 96.608940,287.246094 92.894066,278.298553
	C91.620537,275.231171 91.568901,271.648560 91.015060,268.292114
	C90.084053,262.649841 80.502594,256.147797 75.156746,258.130066
	C66.748627,261.247833 58.880547,260.201599 51.015316,256.550171
	C44.627083,253.584427 39.941170,242.738632 39.532883,235.280807
	C39.234959,229.838882 40.458172,225.665985 42.860023,221.190353
	C46.403366,214.587631 52.190773,210.384171 58.979271,209.223953
	C73.179604,206.796982 83.201912,212.241669 88.627373,225.580978
	C90.228333,229.517166 90.457779,234.431503 89.921623,238.723434
	C88.991425,246.169769 97.385132,255.176727 105.077568,255.212784
	C110.452995,255.237991 115.847412,256.906677 121.162674,258.144684
	C121.992195,258.337891 122.444359,260.151245 123.249077,261.558289
z"/>
<path fill="#04E387" opacity="1.000000" stroke="none"
	d="
M324.112793,191.941452
	C325.541382,192.579025 327.129578,192.995773 328.370575,193.892853
	C333.424805,197.546341 338.819336,199.418350 345.172272,198.375748
	C356.047455,196.591003 368.791168,203.885437 371.799713,213.406952
	C375.554260,225.289505 371.044678,235.324448 359.941406,242.167755
	C354.477417,245.535416 348.696838,244.998703 343.226715,244.741028
	C333.662384,244.290497 326.666656,247.349808 322.253784,255.586700
	C322.171906,252.367981 322.656403,249.292374 322.903870,246.197830
	C323.187927,242.645844 322.209595,239.917175 317.914917,239.916183
	C318.213470,239.180374 318.298248,238.157364 318.842804,237.751938
	C326.593475,231.981598 325.000366,223.891815 324.542664,215.961182
	C324.261505,211.090057 322.743195,207.009048 319.329590,203.378235
	C320.446289,201.313934 321.314453,199.746872 321.973633,198.096344
	C322.778381,196.081329 323.407623,193.996231 324.112793,191.941452
z"/>
<path fill="#01DC9E" opacity="1.000000" stroke="none"
	d="
M418.146912,219.000717
	C419.202667,216.131699 419.743713,212.914124 421.407745,210.457077
	C427.078094,202.084213 441.289032,197.845032 450.603149,202.128021
	C460.271698,206.574005 467.089294,213.689331 468.530212,224.950104
	C469.571228,233.085541 463.096588,244.889496 455.482269,248.001358
	C452.121765,249.374741 448.829163,251.238556 445.326447,251.846298
	C441.986755,252.425720 438.147125,252.417297 435.005951,251.309738
	C430.297394,249.649536 426.121735,249.935272 421.419220,251.568848
	C421.014587,242.086792 421.145660,232.998657 420.865906,223.923218
	C420.814514,222.256027 419.095947,220.640228 418.146912,219.000717
z"/>
<path fill="#03DC9E" opacity="1.000000" stroke="none"
	d="
M416.159790,146.002396
	C423.312622,138.716431 421.105225,129.484848 420.570129,120.994232
	C420.367859,117.784645 416.297760,114.818810 414.299866,111.453346
	C417.896576,112.223808 419.222290,110.838936 418.955200,107.605217
	C418.688568,104.377922 418.345428,101.156944 418.035858,97.933197
	C422.605225,104.454987 429.365387,107.474579 436.798462,108.773804
	C440.986359,109.505798 445.519653,108.273285 449.702789,109.018234
	C458.681335,110.617188 463.286407,117.272423 466.030670,125.294930
	C468.437775,132.331894 463.887024,143.196579 457.336853,148.001022
	C452.881714,151.268768 448.196625,152.628067 442.717834,152.040649
	C434.670837,151.177872 427.043945,152.231506 420.349976,157.643463
	C419.626740,154.830063 419.568024,152.303497 418.887878,149.957062
	C418.464905,148.497849 417.101257,147.311310 416.159790,146.002396
z"/>
<path fill="#04E67C" opacity="1.000000" stroke="none"
	d="
M317.950684,239.928894
	C322.209595,239.917175 323.187927,242.645844 322.903870,246.197830
	C322.656403,249.292374 322.171906,252.367981 321.948822,255.752075
	C321.070831,260.089874 319.255554,264.107025 319.148834,268.169098
	C318.837250,280.029755 311.044250,289.947235 299.510986,291.697693
	C296.967468,292.083771 294.253448,291.346619 291.288544,290.985107
	C282.204651,287.221680 276.945526,280.145294 272.226624,272.081970
	C273.093811,266.491486 271.951233,260.845703 275.507843,255.498901
	C280.151978,248.517151 286.612885,244.258438 294.864807,244.862640
	C301.903229,245.377991 308.956177,245.456604 315.827087,241.044632
	C316.967407,240.499008 317.489014,240.184280 318.010590,239.869537
	C318.010590,239.869522 317.986511,239.941605 317.950684,239.928894
z"/>
<path fill="#05E67C" opacity="1.000000" stroke="none"
	d="
M324.065704,191.636810
	C323.407623,193.996231 322.778381,196.081329 321.973633,198.096344
	C321.314453,199.746872 320.446289,201.313934 319.295441,203.015808
	C318.920105,203.113617 318.926758,203.043503 318.792725,202.871460
	C318.430908,202.455841 318.188507,202.227768 317.931519,202.015244
	C317.931519,202.015244 317.949554,202.073868 317.891388,201.819214
	C317.205078,201.080231 316.576965,200.595901 315.948822,200.111588
	C310.508881,196.602997 304.649780,195.911957 298.324158,197.005936
	C286.502960,199.050339 274.188568,189.728180 271.886108,178.077194
	C269.705719,167.043900 278.261932,151.995880 293.343567,151.576157
	C303.043091,151.306229 309.751312,154.117630 314.718414,161.487961
	C316.760101,164.517471 317.240631,168.738297 317.905762,172.509888
	C318.389832,175.254822 318.011963,178.151749 318.159485,181.629303
	C318.459869,182.530350 318.647552,182.759705 318.863708,182.965775
	C318.918182,183.135513 318.972687,183.305252 319.196533,183.902496
	C319.497772,184.560608 319.666565,184.759949 319.872284,184.928055
	C319.920288,185.088440 319.968262,185.248810 320.076965,185.986221
	C320.788361,187.346664 321.438995,188.130066 322.089661,188.913467
	C322.089661,188.913467 322.048370,188.967194 322.196289,189.121887
	C322.577942,189.509262 322.831085,189.718414 323.103699,189.904037
	C323.408691,190.380081 323.713654,190.856125 324.065704,191.636810
z"/>
<path fill="#03DF93" opacity="1.000000" stroke="none"
	d="
M415.979431,146.322723
	C417.101257,147.311310 418.464905,148.497849 418.887878,149.957062
	C419.568024,152.303497 419.626740,154.830063 419.993530,157.699890
	C415.713440,164.714920 415.422241,172.399963 413.895142,179.812302
	C412.046173,188.786850 405.155823,193.927200 396.990295,195.671982
	C388.914642,197.397568 381.373352,194.826630 375.793915,187.606766
	C365.592102,174.405441 373.651611,156.060165 386.092957,153.504120
	C390.721313,152.553253 395.570343,151.842407 400.243988,152.151657
	C406.440430,152.561661 411.455170,150.859955 415.979431,146.322723
z"/>
<path fill="#03DF93" opacity="1.000000" stroke="none"
	d="
M417.890778,97.590881
	C418.345428,101.156944 418.688568,104.377922 418.955200,107.605217
	C419.222290,110.838936 417.896576,112.223808 414.245667,111.101944
	C408.879089,108.776634 404.742615,105.269295 398.109131,106.723625
	C387.796570,108.984566 379.131226,104.950378 373.241699,95.846626
	C369.175018,89.560524 371.203827,77.520851 375.539276,71.652832
	C382.368195,62.409939 391.870148,62.944439 400.807861,64.490150
	C405.114655,65.234985 409.184570,70.340927 412.269135,74.319237
	C415.348175,78.290413 415.205292,83.571594 415.175781,88.662430
	C415.159210,91.519417 416.833313,94.386200 417.890778,97.590881
z"/>
<path fill="#05E388" opacity="1.000000" stroke="none"
	d="
M325.610046,136.226440
	C321.975708,126.153046 324.498749,118.545593 331.970703,111.127594
	C339.298615,103.852592 350.694946,103.579735 358.042053,107.968857
	C366.426758,112.977852 371.509766,122.736549 369.918884,132.257904
	C368.684937,139.643188 361.879150,149.332794 351.376251,150.987076
	C344.143616,152.126282 336.427856,151.267471 331.492920,144.056900
	C329.727051,141.476685 327.751923,139.039688 325.610046,136.226440
z"/>
<path fill="#06EA72" opacity="1.000000" stroke="none"
	d="
M250.879333,242.586975
	C245.160034,241.135056 239.081070,240.462082 234.444611,237.517670
	C224.990372,231.513687 224.225342,221.171082 226.485825,211.747711
	C228.510223,203.308640 235.408722,198.496689 244.589035,196.813599
	C255.654984,194.784821 266.263092,202.037933 269.573425,210.897629
	C273.194427,220.588867 270.555756,232.484329 262.041260,238.229660
	C258.916901,240.337906 254.823746,241.010468 250.879333,242.586975
z"/>
<path fill="#05EB6E" opacity="1.000000" stroke="none"
	d="
M163.143082,111.629471
	C173.295471,119.459488 173.173416,129.739090 170.753983,140.365128
	C169.295792,146.769363 158.281509,153.061462 151.467667,153.274399
	C142.443832,153.556381 135.757065,150.341858 130.490494,143.138962
	C126.663849,137.905396 126.102356,126.589180 128.646729,120.680290
	C132.815918,110.998047 141.502792,108.730476 150.131454,107.407921
	C154.091309,106.800972 158.622421,109.921074 163.143082,111.629471
z"/>
<path fill="#03E482" opacity="1.000000" stroke="none"
	d="
M307.859192,59.934830
	C308.030426,59.341496 308.201721,58.748161 308.816956,58.033295
	C309.490540,57.561241 309.720215,57.210716 309.949890,56.860191
	C313.257904,55.277550 313.354828,52.442417 313.124390,49.294018
	C312.719543,43.763710 311.590607,38.058922 312.483826,32.714474
	C313.818604,24.727875 318.319763,18.170622 325.628113,14.016078
	C328.140411,12.587937 330.768402,11.363335 333.972595,10.320561
	C337.251221,12.213430 340.130402,13.305235 340.067017,17.461290
	C339.856293,31.278694 339.943329,45.101482 340.011841,58.921730
	C340.029633,62.514145 338.424622,64.157722 334.902191,64.066307
	C334.902191,64.066307 334.967712,64.052513 334.870789,63.988800
	C334.539673,63.760242 334.286377,63.731140 334.014008,63.837776
	C333.866821,63.912857 333.720367,64.052162 333.572388,64.053787
	C326.870361,64.127350 321.704590,67.664246 317.401855,72.160057
	C315.495392,74.152054 314.766174,77.503662 314.079681,80.376030
	C313.036926,84.738785 312.496918,89.221710 311.180634,93.594521
	C310.282410,92.300659 309.654297,91.064651 309.659454,89.831299
	C309.690125,82.533607 310.067719,75.231697 309.891602,67.941757
	C309.826752,65.257988 308.571472,62.602962 307.859192,59.934830
z"/>
<path fill="#03E388" opacity="1.000000" stroke="none"
	d="
M335.093750,64.392220
	C338.424622,64.157722 340.029633,62.514145 340.011841,58.921730
	C339.943329,45.101482 339.856293,31.278694 340.067017,17.461290
	C340.130402,13.305235 337.251221,12.213430 334.343781,10.380325
	C344.558807,8.032322 354.529602,10.404493 362.815338,16.314068
	C367.407410,19.589214 371.054199,25.023294 372.131592,31.656691
	C374.580017,46.731487 367.256195,56.394863 355.145050,63.068401
	C349.140961,66.376816 342.130188,66.840523 335.093750,64.392220
z"/>
<path fill="#04E67C" opacity="1.000000" stroke="none"
	d="
M307.536377,60.084656
	C308.571472,62.602962 309.826752,65.257988 309.891602,67.941757
	C310.067719,75.231697 309.690125,82.533607 309.659454,89.831299
	C309.654297,91.064651 310.282410,92.300659 310.857056,93.794319
	C306.805420,99.508102 301.770447,103.279060 294.395203,104.022400
	C286.188171,104.849586 280.569275,100.828972 276.202423,95.105850
	C270.851166,88.092567 271.537384,79.751724 276.356171,73.163460
	C279.787750,68.471809 285.167511,64.579178 292.214172,64.905273
	C297.635132,65.156128 303.206482,64.954559 307.536377,60.084656
z"/>
<path fill="#03DF93" opacity="1.000000" stroke="none"
	d="
M417.955444,219.372620
	C419.095947,220.640228 420.814514,222.256027 420.865906,223.923218
	C421.145660,232.998657 421.014587,242.086792 421.033081,251.647003
	C419.045776,254.641220 416.416290,256.890778 415.209961,259.742401
	C413.583160,263.588013 413.256958,267.960938 412.001068,271.991821
	C410.220886,277.705414 403.924896,281.090027 397.869019,281.179260
	C392.424316,281.259491 388.461395,280.465393 384.126740,276.162689
	C377.997253,270.078369 378.989014,263.593933 380.230591,256.894897
	C381.142212,251.976074 389.398438,247.080490 395.371399,247.022568
	C400.644257,246.971436 405.601898,246.984207 410.366608,243.513443
	C414.682098,240.369873 416.465302,236.601715 416.885712,231.721359
	C417.229248,227.733459 417.474915,223.737122 417.955444,219.372620
z"/>
<path fill="#04E387" opacity="1.000000" stroke="none"
	d="
M322.057526,188.588715
	C321.438995,188.130066 320.788361,187.346664 320.124817,186.232727
	C320.749756,186.689453 321.387573,187.476715 322.057526,188.588715
z"/>
<path fill="#04E387" opacity="1.000000" stroke="none"
	d="
M315.971130,200.449371
	C316.576965,200.595901 317.205078,201.080231 317.860718,201.818802
	C317.256622,201.644409 316.625061,201.215790 315.971130,200.449371
z"/>
<path fill="#04E67C" opacity="1.000000" stroke="none"
	d="
M309.706726,56.942375
	C309.720215,57.210716 309.490540,57.561241 309.094849,57.887276
	C309.107117,57.583374 309.285370,57.303963 309.706726,56.942375
z"/>
<path fill="#04E387" opacity="1.000000" stroke="none"
	d="
M317.682159,239.918640
	C317.489014,240.184280 316.967407,240.499008 316.147766,240.884293
	C316.351074,240.625809 316.852386,240.296768 317.682159,239.918640
z"/>
<path fill="#04E387" opacity="1.000000" stroke="none"
	d="
M323.010651,189.653961
	C322.831085,189.718414 322.577942,189.509262 322.172058,189.098190
	C322.305817,189.081161 322.611694,189.242508 323.010651,189.653961
z"/>
<path fill="#04E387" opacity="1.000000" stroke="none"
	d="
M317.999390,202.281738
	C318.188507,202.227768 318.430908,202.455841 318.824219,202.886749
	C318.682251,202.898773 318.374725,202.723511 317.999390,202.281738
z"/>
<path fill="#04E387" opacity="1.000000" stroke="none"
	d="
M319.907410,184.698883
	C319.666565,184.759949 319.497772,184.560608 319.291016,184.152649
	C319.559143,183.991867 319.801270,184.156677 319.907410,184.698883
z"/>
<path fill="#04E387" opacity="1.000000" stroke="none"
	d="
M318.886810,182.708420
	C318.647552,182.759705 318.459869,182.530350 318.190613,182.085297
	C318.357025,182.078934 318.633484,182.264999 318.886810,182.708420
z"/>
<path fill="#03E388" opacity="1.000000" stroke="none"
	d="
M334.249176,63.917206
	C334.286377,63.731140 334.539673,63.760242 334.869629,64.022263
	C334.965363,64.119438 334.484344,63.996639 334.249176,63.917206
z"/>
</svg>
