<svg xmlns="http://www.w3.org/2000/svg" xmlns:xlink="http://www.w3.org/1999/xlink" width="40" zoomAndPan="magnify" viewBox="0 0 30 30.000001" height="40" preserveAspectRatio="xMidYMid meet" version="1.0"><defs><filter x="0%" y="0%" width="100%" height="100%" id="e4c12a9cf3"><feColorMatrix values="0 0 0 0 1 0 0 0 0 1 0 0 0 0 1 0 0 0 1 0" color-interpolation-filters="sRGB"/></filter><clipPath id="8fedea0873"><path d="M 7 15 L 29 15 L 29 27 L 7 27 Z M 7 15 " clip-rule="nonzero"/></clipPath><clipPath id="4596a56a80"><path d="M 28.546875 15.5625 L 19.070312 20.757812 C 19.03125 20.785156 18.988281 20.8125 18.941406 20.832031 C 18.554688 21.019531 18.167969 21.019531 17.78125 20.832031 C 17.738281 20.8125 17.695312 20.785156 17.65625 20.757812 L 8.191406 15.5625 C 8 15.457031 7.90625 15.296875 7.90625 15.078125 L 7.90625 25.566406 C 7.910156 25.738281 7.945312 25.90625 8.015625 26.0625 C 8.082031 26.222656 8.179688 26.359375 8.308594 26.476562 C 8.433594 26.597656 8.578125 26.6875 8.738281 26.746094 C 8.902344 26.808594 9.066406 26.835938 9.242188 26.828125 L 27.523438 26.828125 C 27.699219 26.835938 27.863281 26.808594 28.027344 26.746094 C 28.1875 26.6875 28.332031 26.597656 28.457031 26.476562 C 28.582031 26.359375 28.679688 26.222656 28.75 26.0625 C 28.820312 25.90625 28.855469 25.738281 28.859375 25.566406 L 28.859375 15.078125 C 28.859375 15.296875 28.765625 15.457031 28.574219 15.5625 Z M 28.546875 15.5625 " clip-rule="nonzero"/></clipPath><linearGradient x1="-112.71634" gradientTransform="matrix(16.015306, 0, 0, -9.002791, 1835.559254, 4455.273342)" y1="493.055677" x2="-114.235491" gradientUnits="userSpaceOnUse" y2="492.076686" id="e24be34236"><stop stop-opacity="1" stop-color="rgb(20.799255%, 72.198486%, 94.499207%)" offset="0"/><stop stop-opacity="1" stop-color="rgb(20.799255%, 72.198486%, 94.499207%)" offset="0.125"/><stop stop-opacity="1" stop-color="rgb(20.799255%, 72.198486%, 94.499207%)" offset="0.1875"/><stop stop-opacity="1" stop-color="rgb(20.741272%, 72.077942%, 94.40155%)" offset="0.203125"/><stop stop-opacity="1" stop-color="rgb(20.545959%, 71.669006%, 94.068909%)" offset="0.207031"/><stop stop-opacity="1" stop-color="rgb(20.40863%, 71.379089%, 93.835449%)" offset="0.210937"/><stop stop-opacity="1" stop-color="rgb(20.269775%, 71.087646%, 93.600464%)" offset="0.214844"/><stop stop-opacity="1" stop-color="rgb(20.132446%, 70.797729%, 93.365479%)" offset="0.21875"/><stop stop-opacity="1" stop-color="rgb(19.993591%, 70.507812%, 93.130493%)" offset="0.222656"/><stop stop-opacity="1" stop-color="rgb(19.856262%, 70.217896%, 92.895508%)" offset="0.226562"/><stop stop-opacity="1" stop-color="rgb(19.717407%, 69.927979%, 92.660522%)" offset="0.230469"/><stop stop-opacity="1" stop-color="rgb(19.580078%, 69.638062%, 92.427063%)" offset="0.234375"/><stop stop-opacity="1" stop-color="rgb(19.441223%, 69.348145%, 92.192078%)" offset="0.238281"/><stop stop-opacity="1" stop-color="rgb(19.303894%, 69.058228%, 91.957092%)" offset="0.242187"/><stop stop-opacity="1" stop-color="rgb(19.166565%, 68.766785%, 91.722107%)" offset="0.246094"/><stop stop-opacity="1" stop-color="rgb(19.029236%, 68.476868%, 91.487122%)" offset="0.25"/><stop stop-opacity="1" stop-color="rgb(18.890381%, 68.186951%, 91.252136%)" offset="0.253906"/><stop stop-opacity="1" stop-color="rgb(18.753052%, 67.897034%, 91.018677%)" offset="0.257812"/><stop stop-opacity="1" stop-color="rgb(18.614197%, 67.607117%, 90.783691%)" offset="0.261719"/><stop stop-opacity="1" stop-color="rgb(18.476868%, 67.3172%, 90.548706%)" offset="0.265625"/><stop stop-opacity="1" stop-color="rgb(18.338013%, 67.027283%, 90.313721%)" offset="0.269531"/><stop stop-opacity="1" stop-color="rgb(18.200684%, 66.737366%, 90.078735%)" offset="0.273438"/><stop stop-opacity="1" stop-color="rgb(18.061829%, 66.445923%, 89.84375%)" offset="0.277344"/><stop stop-opacity="1" stop-color="rgb(17.9245%, 66.156006%, 89.610291%)" offset="0.28125"/><stop stop-opacity="1" stop-color="rgb(17.785645%, 65.866089%, 89.375305%)" offset="0.285156"/><stop stop-opacity="1" stop-color="rgb(17.648315%, 65.576172%, 89.14032%)" offset="0.289062"/><stop stop-opacity="1" stop-color="rgb(17.50946%, 65.286255%, 88.905334%)" offset="0.292969"/><stop stop-opacity="1" stop-color="rgb(17.372131%, 64.996338%, 88.670349%)" offset="0.296875"/><stop stop-opacity="1" stop-color="rgb(17.233276%, 64.704895%, 88.435364%)" offset="0.300781"/><stop stop-opacity="1" stop-color="rgb(17.095947%, 64.414978%, 88.201904%)" offset="0.304688"/><stop stop-opacity="1" stop-color="rgb(16.957092%, 64.125061%, 87.966919%)" offset="0.308594"/><stop stop-opacity="1" stop-color="rgb(16.819763%, 63.835144%, 87.731934%)" offset="0.3125"/><stop stop-opacity="1" stop-color="rgb(16.680908%, 63.545227%, 87.496948%)" offset="0.316406"/><stop stop-opacity="1" stop-color="rgb(16.543579%, 63.25531%, 87.261963%)" offset="0.320312"/><stop stop-opacity="1" stop-color="rgb(16.404724%, 62.965393%, 87.026978%)" offset="0.324219"/><stop stop-opacity="1" stop-color="rgb(16.267395%, 62.675476%, 86.793518%)" offset="0.328125"/><stop stop-opacity="1" stop-color="rgb(16.12854%, 62.384033%, 86.558533%)" offset="0.332031"/><stop stop-opacity="1" stop-color="rgb(15.991211%, 62.094116%, 86.323547%)" offset="0.335938"/><stop stop-opacity="1" stop-color="rgb(15.853882%, 61.804199%, 86.088562%)" offset="0.339844"/><stop stop-opacity="1" stop-color="rgb(15.716553%, 61.514282%, 85.855103%)" offset="0.34375"/><stop stop-opacity="1" stop-color="rgb(15.577698%, 61.224365%, 85.620117%)" offset="0.347656"/><stop stop-opacity="1" stop-color="rgb(15.440369%, 60.934448%, 85.385132%)" offset="0.351562"/><stop stop-opacity="1" stop-color="rgb(15.301514%, 60.644531%, 85.150146%)" offset="0.355469"/><stop stop-opacity="1" stop-color="rgb(15.164185%, 60.354614%, 84.915161%)" offset="0.359375"/><stop stop-opacity="1" stop-color="rgb(15.02533%, 60.063171%, 84.680176%)" offset="0.363281"/><stop stop-opacity="1" stop-color="rgb(14.888%, 59.773254%, 84.446716%)" offset="0.367188"/><stop stop-opacity="1" stop-color="rgb(14.749146%, 59.483337%, 84.211731%)" offset="0.371094"/><stop stop-opacity="1" stop-color="rgb(14.611816%, 59.19342%, 83.976746%)" offset="0.375"/><stop stop-opacity="1" stop-color="rgb(14.472961%, 58.903503%, 83.74176%)" offset="0.378906"/><stop stop-opacity="1" stop-color="rgb(14.335632%, 58.613586%, 83.506775%)" offset="0.382812"/><stop stop-opacity="1" stop-color="rgb(14.196777%, 58.323669%, 83.27179%)" offset="0.386719"/><stop stop-opacity="1" stop-color="rgb(14.059448%, 58.033752%, 83.03833%)" offset="0.390625"/><stop stop-opacity="1" stop-color="rgb(13.920593%, 57.74231%, 82.803345%)" offset="0.394531"/><stop stop-opacity="1" stop-color="rgb(13.783264%, 57.452393%, 82.568359%)" offset="0.398437"/><stop stop-opacity="1" stop-color="rgb(13.644409%, 57.162476%, 82.333374%)" offset="0.402344"/><stop stop-opacity="1" stop-color="rgb(13.50708%, 56.872559%, 82.098389%)" offset="0.40625"/><stop stop-opacity="1" stop-color="rgb(13.368225%, 56.582642%, 81.863403%)" offset="0.410156"/><stop stop-opacity="1" stop-color="rgb(13.230896%, 56.292725%, 81.629944%)" offset="0.414062"/><stop stop-opacity="1" stop-color="rgb(13.092041%, 56.002808%, 81.394958%)" offset="0.417969"/><stop stop-opacity="1" stop-color="rgb(12.954712%, 55.712891%, 81.159973%)" offset="0.421875"/><stop stop-opacity="1" stop-color="rgb(12.817383%, 55.421448%, 80.924988%)" offset="0.425781"/><stop stop-opacity="1" stop-color="rgb(12.680054%, 55.131531%, 80.690002%)" offset="0.429687"/><stop stop-opacity="1" stop-color="rgb(12.541199%, 54.841614%, 80.455017%)" offset="0.433594"/><stop stop-opacity="1" stop-color="rgb(12.40387%, 54.551697%, 80.221558%)" offset="0.4375"/><stop stop-opacity="1" stop-color="rgb(12.265015%, 54.26178%, 79.986572%)" offset="0.441406"/><stop stop-opacity="1" stop-color="rgb(12.127686%, 53.971863%, 79.751587%)" offset="0.445312"/><stop stop-opacity="1" stop-color="rgb(11.988831%, 53.681946%, 79.516602%)" offset="0.449219"/><stop stop-opacity="1" stop-color="rgb(11.851501%, 53.392029%, 79.281616%)" offset="0.453125"/><stop stop-opacity="1" stop-color="rgb(11.712646%, 53.100586%, 79.046631%)" offset="0.457031"/><stop stop-opacity="1" stop-color="rgb(11.575317%, 52.810669%, 78.813171%)" offset="0.460937"/><stop stop-opacity="1" stop-color="rgb(11.436462%, 52.520752%, 78.578186%)" offset="0.464844"/><stop stop-opacity="1" stop-color="rgb(11.299133%, 52.230835%, 78.343201%)" offset="0.46875"/><stop stop-opacity="1" stop-color="rgb(11.160278%, 51.940918%, 78.108215%)" offset="0.472656"/><stop stop-opacity="1" stop-color="rgb(11.022949%, 51.651001%, 77.87323%)" offset="0.476562"/><stop stop-opacity="1" stop-color="rgb(10.884094%, 51.359558%, 77.638245%)" offset="0.480469"/><stop stop-opacity="1" stop-color="rgb(10.746765%, 51.069641%, 77.404785%)" offset="0.484375"/><stop stop-opacity="1" stop-color="rgb(10.60791%, 50.779724%, 77.1698%)" offset="0.488281"/><stop stop-opacity="1" stop-color="rgb(10.470581%, 50.489807%, 76.934814%)" offset="0.492188"/><stop stop-opacity="1" stop-color="rgb(10.331726%, 50.19989%, 76.699829%)" offset="0.496094"/><stop stop-opacity="1" stop-color="rgb(10.194397%, 49.909973%, 76.464844%)" offset="0.5"/><stop stop-opacity="1" stop-color="rgb(10.055542%, 49.620056%, 76.229858%)" offset="0.503906"/><stop stop-opacity="1" stop-color="rgb(9.918213%, 49.330139%, 75.996399%)" offset="0.507812"/><stop stop-opacity="1" stop-color="rgb(9.780884%, 49.038696%, 75.761414%)" offset="0.511719"/><stop stop-opacity="1" stop-color="rgb(9.643555%, 48.748779%, 75.526428%)" offset="0.515625"/><stop stop-opacity="1" stop-color="rgb(9.5047%, 48.458862%, 75.291443%)" offset="0.519531"/><stop stop-opacity="1" stop-color="rgb(9.367371%, 48.168945%, 75.056458%)" offset="0.523438"/><stop stop-opacity="1" stop-color="rgb(9.228516%, 47.879028%, 74.821472%)" offset="0.527344"/><stop stop-opacity="1" stop-color="rgb(9.091187%, 47.589111%, 74.588013%)" offset="0.53125"/><stop stop-opacity="1" stop-color="rgb(8.952332%, 47.299194%, 74.353027%)" offset="0.535156"/><stop stop-opacity="1" stop-color="rgb(8.815002%, 47.009277%, 74.118042%)" offset="0.539062"/><stop stop-opacity="1" stop-color="rgb(8.676147%, 46.717834%, 73.883057%)" offset="0.542969"/><stop stop-opacity="1" stop-color="rgb(8.538818%, 46.427917%, 73.648071%)" offset="0.546875"/><stop stop-opacity="1" stop-color="rgb(8.399963%, 46.138%, 73.413086%)" offset="0.550781"/><stop stop-opacity="1" stop-color="rgb(8.262634%, 45.848083%, 73.179626%)" offset="0.554688"/><stop stop-opacity="1" stop-color="rgb(8.123779%, 45.558167%, 72.944641%)" offset="0.558594"/><stop stop-opacity="1" stop-color="rgb(7.98645%, 45.26825%, 72.709656%)" offset="0.5625"/><stop stop-opacity="1" stop-color="rgb(7.847595%, 44.978333%, 72.47467%)" offset="0.566406"/><stop stop-opacity="1" stop-color="rgb(7.710266%, 44.688416%, 72.239685%)" offset="0.570312"/><stop stop-opacity="1" stop-color="rgb(7.571411%, 44.396973%, 72.0047%)" offset="0.574219"/><stop stop-opacity="1" stop-color="rgb(7.434082%, 44.107056%, 71.77124%)" offset="0.578125"/><stop stop-opacity="1" stop-color="rgb(7.295227%, 43.817139%, 71.536255%)" offset="0.582031"/><stop stop-opacity="1" stop-color="rgb(7.157898%, 43.527222%, 71.30127%)" offset="0.585937"/><stop stop-opacity="1" stop-color="rgb(7.019043%, 43.237305%, 71.066284%)" offset="0.589844"/><stop stop-opacity="1" stop-color="rgb(6.881714%, 42.947388%, 70.831299%)" offset="0.59375"/><stop stop-opacity="1" stop-color="rgb(6.742859%, 42.657471%, 70.596313%)" offset="0.597656"/><stop stop-opacity="1" stop-color="rgb(6.60553%, 42.367554%, 70.362854%)" offset="0.601562"/><stop stop-opacity="1" stop-color="rgb(6.468201%, 42.076111%, 70.127869%)" offset="0.605469"/><stop stop-opacity="1" stop-color="rgb(6.330872%, 41.786194%, 69.892883%)" offset="0.609375"/><stop stop-opacity="1" stop-color="rgb(6.192017%, 41.496277%, 69.657898%)" offset="0.613281"/><stop stop-opacity="1" stop-color="rgb(6.054688%, 41.20636%, 69.422913%)" offset="0.617187"/><stop stop-opacity="1" stop-color="rgb(5.915833%, 40.916443%, 69.187927%)" offset="0.621094"/><stop stop-opacity="1" stop-color="rgb(5.778503%, 40.626526%, 68.954468%)" offset="0.625"/><stop stop-opacity="1" stop-color="rgb(5.639648%, 40.336609%, 68.719482%)" offset="0.628906"/><stop stop-opacity="1" stop-color="rgb(5.502319%, 40.046692%, 68.484497%)" offset="0.632812"/><stop stop-opacity="1" stop-color="rgb(5.363464%, 39.755249%, 68.249512%)" offset="0.636719"/><stop stop-opacity="1" stop-color="rgb(5.226135%, 39.465332%, 68.014526%)" offset="0.640625"/><stop stop-opacity="1" stop-color="rgb(5.162048%, 39.332581%, 67.906189%)" offset="0.65625"/><stop stop-opacity="1" stop-color="rgb(5.099487%, 39.199829%, 67.799377%)" offset="0.6875"/><stop stop-opacity="1" stop-color="rgb(5.099487%, 39.199829%, 67.799377%)" offset="0.75"/><stop stop-opacity="1" stop-color="rgb(5.099487%, 39.199829%, 67.799377%)" offset="1"/></linearGradient><mask id="ac0843a387"><g filter="url(#e4c12a9cf3)"><rect x="-3" width="36" fill="#000000" y="-3" height="36.000001" fill-opacity="0.6667"/></g></mask><clipPath id="dfb0d3cafe"><path d="M 2 1 L 10.507812 1 L 10.507812 16 L 2 16 Z M 2 1 " clip-rule="nonzero"/></clipPath><clipPath id="43fb8dbcaa"><path d="M 1 0.433594 L 9 0.433594 L 9 15 L 1 15 Z M 1 0.433594 " clip-rule="nonzero"/></clipPath><clipPath id="a460b71f1e"><rect x="0" width="11" y="0" height="18"/></clipPath><clipPath id="d649cd625f"><path d="M 0.628906 8 L 15 8 L 15 22 L 0.628906 22 Z M 0.628906 8 " clip-rule="nonzero"/></clipPath><clipPath id="588cb37f52"><path d="M 3 10 L 13 10 L 13 20 L 3 20 Z M 3 10 " clip-rule="nonzero"/></clipPath><clipPath id="36aeb42c6b"><path d="M 4.257812 12.976562 C 4.578125 12.3125 5.0625 11.796875 5.703125 11.429688 C 6.425781 11.042969 7.195312 10.867188 8.011719 10.894531 C 8.773438 10.878906 9.484375 11.058594 10.148438 11.429688 C 10.765625 11.777344 11.238281 12.265625 11.5625 12.894531 C 11.90625 13.582031 12.070312 14.304688 12.058594 15.070312 C 12.070312 15.871094 11.898438 16.628906 11.542969 17.34375 C 11.214844 18 10.730469 18.511719 10.089844 18.871094 C 9.398438 19.230469 8.664062 19.40625 7.890625 19.40625 C 7.113281 19.40625 6.378906 19.230469 5.691406 18.871094 C 5.070312 18.515625 4.59375 18.023438 4.261719 17.390625 C 3.917969 16.714844 3.75 16 3.761719 15.242188 C 3.75 14.453125 3.914062 13.703125 4.257812 12.988281 Z M 5.816406 16.605469 C 5.988281 17.023438 6.257812 17.359375 6.632812 17.617188 C 7.015625 17.878906 7.441406 18.003906 7.90625 17.992188 C 8.390625 18.007812 8.835938 17.878906 9.242188 17.609375 C 9.609375 17.351562 9.875 17.011719 10.035156 16.589844 C 10.210938 16.132812 10.292969 15.660156 10.289062 15.171875 C 10.296875 14.675781 10.214844 14.195312 10.046875 13.730469 C 9.898438 13.300781 9.648438 12.949219 9.289062 12.675781 C 8.886719 12.390625 8.441406 12.257812 7.953125 12.277344 C 7.480469 12.261719 7.046875 12.386719 6.652344 12.648438 C 6.273438 12.910156 5.996094 13.25 5.816406 13.667969 C 5.425781 14.648438 5.425781 15.625 5.816406 16.605469 Z M 5.816406 16.605469 " clip-rule="nonzero"/></clipPath><linearGradient x1="-109.230003" gradientTransform="matrix(6.346065, 0, 0, -6.515354, 700.841636, 3175.009751)" y1="485.644235" x2="-109.230003" gradientUnits="userSpaceOnUse" y2="484.333198" id="b420918b62"><stop stop-opacity="1" stop-color="rgb(94.898987%, 94.898987%, 94.898987%)" offset="0"/><stop stop-opacity="1" stop-color="rgb(94.898987%, 94.898987%, 94.898987%)" offset="0.125"/><stop stop-opacity="1" stop-color="rgb(94.960022%, 94.960022%, 94.960022%)" offset="0.1875"/><stop stop-opacity="1" stop-color="rgb(95.181274%, 95.181274%, 95.181274%)" offset="0.25"/><stop stop-opacity="1" stop-color="rgb(95.500183%, 95.500183%, 95.500183%)" offset="0.3125"/><stop stop-opacity="1" stop-color="rgb(95.819092%, 95.819092%, 95.819092%)" offset="0.375"/><stop stop-opacity="1" stop-color="rgb(96.138%, 96.138%, 96.138%)" offset="0.4375"/><stop stop-opacity="1" stop-color="rgb(96.456909%, 96.456909%, 96.456909%)" offset="0.5"/><stop stop-opacity="1" stop-color="rgb(96.775818%, 96.775818%, 96.775818%)" offset="0.5625"/><stop stop-opacity="1" stop-color="rgb(97.094727%, 97.094727%, 97.094727%)" offset="0.625"/><stop stop-opacity="1" stop-color="rgb(97.413635%, 97.413635%, 97.413635%)" offset="0.6875"/><stop stop-opacity="1" stop-color="rgb(97.732544%, 97.732544%, 97.732544%)" offset="0.75"/><stop stop-opacity="1" stop-color="rgb(98.051453%, 98.051453%, 98.051453%)" offset="0.8125"/><stop stop-opacity="1" stop-color="rgb(98.370361%, 98.370361%, 98.370361%)" offset="0.875"/><stop stop-opacity="1" stop-color="rgb(98.68927%, 98.68927%, 98.68927%)" offset="0.9375"/><stop stop-opacity="1" stop-color="rgb(99.009705%, 99.009705%, 99.009705%)" offset="1"/></linearGradient><linearGradient x1="-109.230003" gradientTransform="matrix(6.346065, 0, 0, -6.515354, 700.841636, 3175.009751)" y1="485.644235" x2="-109.230003" gradientUnits="userSpaceOnUse" y2="484.333198" id="64e6d94ea2"><stop stop-opacity="1" stop-color="rgb(94.898987%, 94.898987%, 94.898987%)" offset="0"/><stop stop-opacity="1" stop-color="rgb(94.898987%, 94.898987%, 94.898987%)" offset="0.125"/><stop stop-opacity="1" stop-color="rgb(94.960022%, 94.960022%, 94.960022%)" offset="0.1875"/><stop stop-opacity="1" stop-color="rgb(95.181274%, 95.181274%, 95.181274%)" offset="0.25"/><stop stop-opacity="1" stop-color="rgb(95.500183%, 95.500183%, 95.500183%)" offset="0.3125"/><stop stop-opacity="1" stop-color="rgb(95.819092%, 95.819092%, 95.819092%)" offset="0.375"/><stop stop-opacity="1" stop-color="rgb(96.138%, 96.138%, 96.138%)" offset="0.4375"/><stop stop-opacity="1" stop-color="rgb(96.456909%, 96.456909%, 96.456909%)" offset="0.5"/><stop stop-opacity="1" stop-color="rgb(96.775818%, 96.775818%, 96.775818%)" offset="0.5625"/><stop stop-opacity="1" stop-color="rgb(97.094727%, 97.094727%, 97.094727%)" offset="0.625"/><stop stop-opacity="1" stop-color="rgb(97.413635%, 97.413635%, 97.413635%)" offset="0.6875"/><stop stop-opacity="1" stop-color="rgb(97.732544%, 97.732544%, 97.732544%)" offset="0.75"/><stop stop-opacity="1" stop-color="rgb(98.051453%, 98.051453%, 98.051453%)" offset="0.8125"/><stop stop-opacity="1" stop-color="rgb(98.370361%, 98.370361%, 98.370361%)" offset="0.875"/><stop stop-opacity="1" stop-color="rgb(98.68927%, 98.68927%, 98.68927%)" offset="0.9375"/><stop stop-opacity="1" stop-color="rgb(99.009705%, 99.009705%, 99.009705%)" offset="1"/></linearGradient></defs><path fill="#123b6d" d="M 28.832031 15.191406 C 28.832031 15.390625 28.761719 15.5625 28.621094 15.703125 C 28.476562 15.847656 28.304688 15.917969 28.105469 15.917969 C 27.90625 15.917969 27.734375 15.847656 27.589844 15.703125 C 27.449219 15.5625 27.378906 15.390625 27.378906 15.191406 C 27.378906 14.988281 27.449219 14.816406 27.589844 14.675781 C 27.734375 14.535156 27.90625 14.464844 28.105469 14.464844 C 28.304688 14.464844 28.476562 14.535156 28.621094 14.675781 C 28.761719 14.816406 28.832031 14.988281 28.832031 15.191406 Z M 28.832031 15.191406 " fill-opacity="1" fill-rule="nonzero"/><path fill="#123b6d" d="M 9.347656 15.078125 C 9.347656 15.316406 9.261719 15.523438 9.089844 15.695312 C 8.921875 15.863281 8.714844 15.949219 8.472656 15.949219 C 8.230469 15.949219 8.027344 15.863281 7.855469 15.695312 C 7.683594 15.523438 7.597656 15.316406 7.597656 15.078125 C 7.597656 14.835938 7.683594 14.628906 7.855469 14.457031 C 8.027344 14.289062 8.230469 14.203125 8.472656 14.203125 C 8.714844 14.203125 8.921875 14.289062 9.089844 14.457031 C 9.261719 14.628906 9.347656 14.835938 9.347656 15.078125 Z M 9.347656 15.078125 " fill-opacity="1" fill-rule="nonzero"/><path fill="#123b6d" d="M 18.363281 15.078125 L 8.179688 15.078125 L 8.179688 15.5625 L 17.65625 20.765625 L 17.78125 20.832031 C 18.167969 21.019531 18.554688 21.019531 18.941406 20.832031 L 19.070312 20.765625 L 28.546875 15.5625 L 28.546875 15.078125 L 18.363281 15.078125 " fill-opacity="1" fill-rule="nonzero"/><path fill="#123b6d" d="M 18.363281 15.078125 L 8.179688 15.078125 L 8.179688 14.589844 L 17.65625 9.386719 L 17.78125 9.320312 C 18.167969 9.132812 18.554688 9.132812 18.941406 9.320312 L 19.070312 9.386719 L 28.503906 14.597656 L 28.503906 15.078125 L 18.363281 15.078125 " fill-opacity="1" fill-rule="nonzero"/><path fill="#28a8ea" d="M 10.890625 3.347656 L 25.855469 3.347656 C 26.019531 3.347656 26.175781 3.378906 26.328125 3.441406 C 26.476562 3.503906 26.609375 3.589844 26.726562 3.707031 C 26.839844 3.820312 26.929688 3.953125 26.992188 4.105469 C 27.054688 4.253906 27.085938 4.410156 27.085938 4.574219 L 27.085938 23.867188 C 27.085938 24.027344 27.054688 24.183594 26.992188 24.335938 C 26.929688 24.484375 26.839844 24.617188 26.726562 24.734375 C 26.609375 24.847656 26.476562 24.9375 26.328125 25 C 26.175781 25.0625 26.019531 25.09375 25.855469 25.09375 L 10.890625 25.09375 C 10.726562 25.09375 10.570312 25.0625 10.417969 25 C 10.269531 24.9375 10.136719 24.847656 10.019531 24.734375 C 9.90625 24.617188 9.816406 24.484375 9.753906 24.335938 C 9.691406 24.183594 9.660156 24.027344 9.660156 23.867188 L 9.660156 4.574219 C 9.660156 4.410156 9.691406 4.253906 9.753906 4.105469 C 9.816406 3.953125 9.90625 3.820312 10.019531 3.707031 C 10.136719 3.589844 10.269531 3.503906 10.417969 3.441406 C 10.570312 3.378906 10.726562 3.347656 10.890625 3.347656 Z M 10.890625 3.347656 " fill-opacity="1" fill-rule="nonzero"/><path fill="#14447d" d="M 9.660156 15.917969 L 16.613281 15.917969 L 16.613281 21.160156 L 9.660156 21.160156 Z M 9.660156 15.917969 " fill-opacity="1" fill-rule="nonzero"/><path fill="#0364b8" d="M 15.746094 15.917969 L 21.851562 15.917969 L 21.851562 21.160156 L 15.746094 21.160156 Z M 15.746094 15.917969 " fill-opacity="1" fill-rule="nonzero"/><path fill="#0664b2" d="M 9.660156 10.867188 L 15.746094 10.867188 L 15.746094 15.917969 L 9.660156 15.917969 Z M 9.660156 10.867188 " fill-opacity="1" fill-rule="nonzero"/><path fill="#0078d4" d="M 21.851562 15.917969 L 27.089844 15.917969 L 27.089844 21.160156 L 21.851562 21.160156 Z M 15.746094 10.867188 L 21.851562 10.867188 L 21.851562 15.917969 L 15.746094 15.917969 Z M 9.660156 5.828125 L 15.746094 5.828125 L 15.746094 10.867188 L 9.660156 10.867188 Z M 9.660156 5.828125 " fill-opacity="1" fill-rule="nonzero"/><path fill="#50d9ff" d="M 21.851562 5.828125 L 27.089844 5.828125 L 27.089844 10.867188 L 21.851562 10.867188 Z M 21.851562 5.828125 " fill-opacity="1" fill-rule="nonzero"/><path fill="#0358a7" d="M 10.890625 3.347656 L 25.835938 3.347656 C 26.171875 3.347656 26.460938 3.460938 26.703125 3.691406 C 26.941406 3.921875 27.0625 4.199219 27.0625 4.527344 L 27.0625 5.859375 L 9.660156 5.859375 L 9.660156 4.527344 C 9.664062 4.367188 9.699219 4.214844 9.761719 4.066406 C 9.828125 3.921875 9.917969 3.792969 10.03125 3.683594 C 10.144531 3.574219 10.277344 3.488281 10.425781 3.429688 C 10.574219 3.371094 10.730469 3.34375 10.890625 3.347656 Z M 10.890625 3.347656 " fill-opacity="1" fill-rule="nonzero"/><g clip-path="url(#8fedea0873)"><g clip-path="url(#4596a56a80)"><path fill="url(#e24be34236)" d="M 7.90625 26.835938 L 7.90625 15.078125 L 28.859375 15.078125 L 28.859375 26.835938 Z M 7.90625 26.835938 " fill-rule="nonzero"/></g></g><path fill="#0a2767" d="M 18.363281 20.964844 C 18.160156 20.964844 17.964844 20.921875 17.78125 20.832031 L 8.238281 15.597656 L 8.667969 14.863281 C 8.667969 14.863281 18.007812 20.011719 18.1875 20.085938 C 18.3125 20.136719 18.433594 20.136719 18.554688 20.085938 L 28.097656 14.84375 L 28.503906 15.5625 L 18.941406 20.832031 C 18.761719 20.921875 18.566406 20.964844 18.363281 20.964844 Z M 18.363281 20.964844 " fill-opacity="0.498" fill-rule="nonzero"/><path fill="#28a8ea" d="M 9.199219 26.847656 L 27.523438 26.847656 C 27.808594 26.847656 28.066406 26.765625 28.300781 26.605469 L 17.78125 20.832031 C 17.738281 20.8125 17.695312 20.785156 17.65625 20.757812 L 8.191406 15.5625 L 7.898438 15.402344 L 7.898438 25.566406 C 7.898438 25.738281 7.933594 25.902344 8 26.0625 C 8.066406 26.21875 8.160156 26.359375 8.28125 26.480469 C 8.402344 26.597656 8.542969 26.691406 8.703125 26.753906 C 8.863281 26.820312 9.027344 26.851562 9.199219 26.847656 Z M 9.199219 26.847656 " fill-opacity="1" fill-rule="nonzero"/><g mask="url(#ac0843a387)"><g transform="matrix(1, 0, 0, 1, 6, 7)"><g clip-path="url(#a460b71f1e)"><g clip-path="url(#dfb0d3cafe)"><path fill="#000000" d="M 9.914062 1.347656 L 2.847656 1.347656 C 2.8125 1.40625 2.792969 1.46875 2.792969 1.535156 L 2.792969 14.625 C 2.796875 14.746094 2.839844 14.84375 2.925781 14.929688 C 3.011719 15.011719 3.113281 15.050781 3.234375 15.050781 L 9.3125 15.050781 C 9.550781 15.054688 9.753906 14.976562 9.925781 14.808594 C 10.097656 14.644531 10.183594 14.441406 10.1875 14.207031 L 10.1875 1.953125 C 10.1875 1.710938 10.09375 1.507812 9.914062 1.347656 Z M 9.914062 1.347656 " fill-opacity="0.0471" fill-rule="nonzero"/></g><path fill="#000000" d="M 7.710938 3.320312 L 1.894531 3.320312 L 1.894531 16.820312 L 7.710938 16.820312 C 7.859375 16.824219 8.003906 16.800781 8.144531 16.746094 C 8.285156 16.695312 8.40625 16.617188 8.515625 16.515625 C 8.625 16.414062 8.710938 16.292969 8.773438 16.160156 C 8.835938 16.023438 8.867188 15.882812 8.871094 15.730469 L 8.871094 4.394531 C 8.867188 4.246094 8.832031 4.105469 8.769531 3.972656 C 8.707031 3.839844 8.621094 3.722656 8.511719 3.621094 C 8.402344 3.519531 8.28125 3.445312 8.140625 3.394531 C 8.003906 3.339844 7.859375 3.316406 7.710938 3.320312 Z M 7.710938 3.320312 " fill-opacity="0.098" fill-rule="nonzero"/><path fill="#000000" d="M 7.710938 2.5625 L 1.894531 2.5625 L 1.894531 16.039062 L 7.710938 16.039062 C 7.859375 16.042969 8.003906 16.019531 8.144531 15.96875 C 8.28125 15.914062 8.40625 15.839844 8.515625 15.738281 C 8.625 15.636719 8.707031 15.519531 8.769531 15.382812 C 8.832031 15.25 8.867188 15.105469 8.871094 14.957031 L 8.871094 3.621094 C 8.863281 3.476562 8.828125 3.335938 8.765625 3.203125 C 8.703125 3.070312 8.617188 2.953125 8.507812 2.855469 C 8.398438 2.757812 8.277344 2.683594 8.136719 2.632812 C 8 2.582031 7.859375 2.558594 7.710938 2.5625 Z M 7.710938 2.5625 " fill-opacity="0.2" fill-rule="nonzero"/><path fill="#000000" d="M 8.964844 1.375 L 2.886719 1.375 C 2.769531 1.371094 2.667969 1.414062 2.582031 1.496094 C 2.496094 1.578125 2.449219 1.675781 2.445312 1.792969 L 2.445312 14.890625 C 2.449219 15.011719 2.496094 15.109375 2.582031 15.191406 C 2.667969 15.273438 2.769531 15.3125 2.886719 15.3125 L 8.964844 15.3125 C 9.199219 15.3125 9.402344 15.230469 9.566406 15.066406 C 9.734375 14.902344 9.820312 14.707031 9.828125 14.472656 L 9.828125 2.214844 C 9.820312 1.980469 9.734375 1.78125 9.566406 1.621094 C 9.402344 1.457031 9.199219 1.375 8.964844 1.375 Z M 8.964844 1.375 " fill-opacity="0.098" fill-rule="nonzero"/><path fill="#000000" d="M 8.953125 1.722656 L 2.875 1.722656 C 2.753906 1.71875 2.652344 1.757812 2.566406 1.839844 C 2.480469 1.921875 2.4375 2.023438 2.433594 2.140625 L 2.433594 15.105469 C 2.4375 15.222656 2.480469 15.324219 2.566406 15.40625 C 2.652344 15.488281 2.753906 15.527344 2.875 15.527344 L 8.878906 15.625 C 9.128906 15.605469 9.34375 15.503906 9.523438 15.328125 C 9.703125 15.148438 9.804688 14.9375 9.828125 14.683594 L 9.828125 2.5625 C 9.820312 2.324219 9.734375 2.125 9.5625 1.960938 C 9.394531 1.796875 9.1875 1.71875 8.953125 1.722656 Z M 8.953125 1.722656 " fill-opacity="0.098" fill-rule="nonzero"/><path fill="#000000" d="M 1.894531 1.347656 L 1.894531 11.722656 L 1.820312 11.722656 L 1.820312 13.445312 C 1.820312 13.5625 1.863281 13.664062 1.949219 13.746094 C 2.035156 13.828125 2.136719 13.867188 2.253906 13.863281 L 7.085938 13.011719 C 7.566406 13.011719 8.859375 12.613281 8.859375 12.144531 L 8.859375 1.574219 C 8.855469 1.496094 8.839844 1.421875 8.8125 1.347656 Z M 1.894531 1.347656 " fill-opacity="0.0078" fill-rule="nonzero"/><path fill="#000000" d="M 7.710938 2.914062 L 1.894531 2.914062 L 1.894531 16.414062 L 7.710938 16.414062 C 7.859375 16.417969 8.003906 16.394531 8.144531 16.339844 C 8.285156 16.289062 8.40625 16.210938 8.515625 16.109375 C 8.625 16.007812 8.710938 15.886719 8.773438 15.753906 C 8.835938 15.617188 8.867188 15.472656 8.871094 15.324219 L 8.871094 3.988281 C 8.867188 3.839844 8.832031 3.699219 8.769531 3.566406 C 8.707031 3.433594 8.621094 3.316406 8.511719 3.214844 C 8.402344 3.113281 8.28125 3.039062 8.140625 2.984375 C 8.003906 2.933594 7.859375 2.910156 7.710938 2.914062 Z M 7.710938 2.914062 " fill-opacity="0.2" fill-rule="nonzero"/><path fill="#000000" d="M 7.710938 1.726562 L 1.894531 1.726562 L 1.894531 14.945312 L 7.710938 14.945312 C 7.859375 14.949219 8.003906 14.925781 8.144531 14.871094 C 8.28125 14.820312 8.40625 14.742188 8.515625 14.640625 C 8.625 14.539062 8.707031 14.417969 8.769531 14.285156 C 8.832031 14.148438 8.867188 14.007812 8.871094 13.859375 L 8.871094 2.816406 C 8.867188 2.667969 8.832031 2.523438 8.769531 2.390625 C 8.707031 2.253906 8.625 2.136719 8.515625 2.035156 C 8.40625 1.933594 8.28125 1.855469 8.144531 1.800781 C 8.003906 1.75 7.859375 1.722656 7.710938 1.726562 Z M 7.710938 1.726562 " fill-opacity="0.298" fill-rule="nonzero"/><path fill="#000000" d="M 7.710938 1.726562 L 1.894531 1.726562 L 1.894531 14.878906 L 7.710938 14.878906 C 7.859375 14.882812 8.003906 14.859375 8.144531 14.804688 C 8.285156 14.753906 8.40625 14.675781 8.515625 14.574219 C 8.625 14.472656 8.710938 14.355469 8.773438 14.21875 C 8.835938 14.082031 8.867188 13.941406 8.871094 13.792969 L 8.871094 2.816406 C 8.867188 2.667969 8.832031 2.523438 8.769531 2.390625 C 8.707031 2.253906 8.625 2.136719 8.515625 2.035156 C 8.40625 1.933594 8.28125 1.855469 8.144531 1.800781 C 8.003906 1.75 7.859375 1.722656 7.710938 1.726562 Z M 7.710938 1.726562 " fill-opacity="0.298" fill-rule="nonzero"/><path fill="#000000" d="M 7.710938 2 L 1.894531 2 L 1.894531 15.5 L 7.710938 15.5 C 7.859375 15.503906 8.003906 15.476562 8.144531 15.425781 C 8.28125 15.371094 8.40625 15.292969 8.515625 15.191406 C 8.625 15.089844 8.707031 14.972656 8.769531 14.835938 C 8.832031 14.703125 8.867188 14.558594 8.871094 14.410156 L 8.871094 3.074219 C 8.867188 2.925781 8.832031 2.785156 8.769531 2.652344 C 8.707031 2.519531 8.621094 2.402344 8.511719 2.300781 C 8.402344 2.199219 8.28125 2.125 8.140625 2.074219 C 8.003906 2.019531 7.859375 1.996094 7.710938 2 Z M 7.710938 2 " fill-opacity="0.298" fill-rule="nonzero"/><path fill="#000000" d="M 7.710938 2.253906 L 1.894531 2.253906 L 1.894531 15.753906 L 7.710938 15.753906 C 7.859375 15.757812 8.003906 15.734375 8.144531 15.679688 C 8.285156 15.628906 8.40625 15.550781 8.515625 15.449219 C 8.625 15.347656 8.710938 15.226562 8.773438 15.09375 C 8.835938 14.957031 8.867188 14.8125 8.871094 14.664062 L 8.871094 3.328125 C 8.867188 3.179688 8.832031 3.039062 8.769531 2.90625 C 8.707031 2.773438 8.621094 2.65625 8.511719 2.554688 C 8.402344 2.453125 8.28125 2.378906 8.140625 2.324219 C 8.003906 2.273438 7.859375 2.25 7.710938 2.253906 Z M 7.710938 2.253906 " fill-opacity="0.2" fill-rule="nonzero"/><path fill="#000000" d="M 8.804688 2.109375 L 2.726562 2.109375 C 2.609375 2.105469 2.507812 2.144531 2.421875 2.226562 C 2.339844 2.308594 2.292969 2.410156 2.292969 2.527344 L 2.292969 14.824219 C 2.292969 14.941406 2.339844 15.042969 2.421875 15.125 C 2.507812 15.207031 2.609375 15.246094 2.726562 15.246094 L 8.804688 15.246094 C 9.042969 15.25 9.246094 15.171875 9.417969 15.007812 C 9.589844 14.84375 9.675781 14.640625 9.679688 14.40625 L 9.679688 2.949219 C 9.675781 2.710938 9.585938 2.511719 9.417969 2.347656 C 9.246094 2.183594 9.042969 2.105469 8.804688 2.109375 Z M 8.804688 2.109375 " fill-opacity="0.098" fill-rule="nonzero"/><path fill="#000000" d="M 8.140625 2.109375 L 2.054688 2.109375 C 1.996094 2.109375 1.945312 2.121094 1.894531 2.140625 L 1.894531 14.9375 C 1.945312 14.949219 2 14.949219 2.054688 14.9375 L 8.140625 14.9375 C 8.375 14.941406 8.578125 14.863281 8.746094 14.699219 C 8.914062 14.535156 9.003906 14.335938 9.007812 14.097656 L 9.007812 2.949219 C 9.003906 2.710938 8.914062 2.511719 8.746094 2.347656 C 8.578125 2.183594 8.375 2.105469 8.140625 2.109375 Z M 8.140625 2.109375 " fill-opacity="0.2" fill-rule="nonzero"/><path fill="#000000" d="M 6.609375 1.382812 L 2.179688 1.382812 C 2.0625 1.378906 1.960938 1.417969 1.875 1.5 C 1.789062 1.582031 1.746094 1.683594 1.746094 1.800781 L 1.746094 14.097656 C 1.746094 14.214844 1.789062 14.316406 1.875 14.398438 C 1.960938 14.480469 2.0625 14.519531 2.179688 14.519531 L 8.265625 14.519531 C 8.507812 14.53125 8.714844 14.453125 8.890625 14.289062 C 9.066406 14.121094 9.15625 13.917969 9.160156 13.679688 L 9.160156 2.59375 C 9.160156 2.09375 7.980469 1.820312 7.824219 1.675781 C 7.445312 1.480469 7.039062 1.382812 6.609375 1.382812 Z M 6.609375 1.382812 " fill-opacity="0.298" fill-rule="nonzero"/><path fill="#000000" d="M 8.492188 2.714844 L 2.433594 2.714844 C 2.316406 2.714844 2.214844 2.753906 2.128906 2.835938 C 2.042969 2.917969 2 3.015625 2 3.136719 L 2 15.433594 C 2 15.550781 2.042969 15.648438 2.128906 15.730469 C 2.214844 15.8125 2.316406 15.855469 2.433594 15.851562 L 8.492188 15.851562 C 8.730469 15.855469 8.933594 15.777344 9.101562 15.613281 C 9.273438 15.449219 9.359375 15.25 9.367188 15.011719 L 9.367188 3.554688 C 9.359375 3.320312 9.273438 3.117188 9.101562 2.957031 C 8.933594 2.792969 8.730469 2.710938 8.492188 2.714844 Z M 8.492188 2.714844 " fill-opacity="0.098" fill-rule="nonzero"/><g clip-path="url(#43fb8dbcaa)"><path fill="#000000" d="M 7.972656 0.96875 L 3.632812 0.96875 L 3.632812 4.707031 L 1.894531 4.707031 L 1.894531 11.957031 L 1.820312 11.957031 L 1.820312 13.683594 C 1.820312 13.804688 1.863281 13.902344 1.949219 13.984375 C 2.035156 14.066406 2.136719 14.105469 2.253906 14.105469 L 7.070312 13.230469 C 7.550781 13.230469 8.847656 12.824219 8.847656 12.363281 L 8.847656 1.808594 C 8.839844 1.570312 8.753906 1.371094 8.582031 1.207031 C 8.410156 1.042969 8.207031 0.964844 7.972656 0.96875 Z M 7.972656 0.96875 " fill-opacity="0.098" fill-rule="nonzero"/></g><path fill="#000000" d="M 7.972656 1.175781 L 3.632812 1.175781 L 3.632812 4.707031 L 1.894531 4.707031 L 1.894531 12.171875 L 1.820312 12.171875 L 1.820312 13.898438 C 1.820312 14.015625 1.863281 14.117188 1.949219 14.199219 C 2.035156 14.28125 2.136719 14.320312 2.253906 14.320312 L 7.085938 13.464844 C 7.566406 13.464844 8.859375 13.066406 8.859375 12.597656 L 8.859375 2.019531 C 8.855469 1.78125 8.765625 1.578125 8.59375 1.414062 C 8.417969 1.246094 8.210938 1.167969 7.972656 1.175781 Z M 7.972656 1.175781 " fill-opacity="0.149" fill-rule="nonzero"/></g></g></g><g clip-path="url(#d649cd625f)"><path fill="#0078d4" d="M 2.074219 8.347656 L 13.710938 8.347656 C 13.863281 8.34375 14.007812 8.371094 14.148438 8.425781 C 14.289062 8.480469 14.414062 8.5625 14.523438 8.667969 C 14.632812 8.773438 14.71875 8.894531 14.777344 9.035156 C 14.839844 9.171875 14.871094 9.316406 14.871094 9.46875 L 14.871094 20.683594 C 14.871094 20.996094 14.757812 21.257812 14.53125 21.472656 C 14.304688 21.695312 14.03125 21.804688 13.710938 21.804688 L 2.074219 21.804688 C 1.753906 21.804688 1.480469 21.695312 1.253906 21.472656 C 1.023438 21.257812 0.910156 20.996094 0.90625 20.683594 L 0.90625 9.46875 C 0.910156 9.316406 0.941406 9.171875 1.003906 9.03125 C 1.0625 8.894531 1.148438 8.773438 1.257812 8.667969 C 1.367188 8.5625 1.492188 8.480469 1.632812 8.425781 C 1.777344 8.371094 1.921875 8.34375 2.074219 8.347656 Z M 2.074219 8.347656 " fill-opacity="1" fill-rule="nonzero"/></g><path fill="#ffffff" d="M 4.257812 12.976562 C 4.578125 12.3125 5.0625 11.796875 5.703125 11.429688 C 6.425781 11.042969 7.195312 10.867188 8.011719 10.894531 C 8.773438 10.878906 9.484375 11.058594 10.148438 11.429688 C 10.765625 11.777344 11.238281 12.265625 11.5625 12.894531 C 11.90625 13.582031 12.070312 14.304688 12.058594 15.070312 C 12.070312 15.871094 11.898438 16.628906 11.542969 17.34375 C 11.214844 18 10.730469 18.511719 10.089844 18.871094 C 9.398438 19.230469 8.664062 19.40625 7.890625 19.40625 C 7.113281 19.40625 6.378906 19.230469 5.691406 18.871094 C 5.070312 18.515625 4.59375 18.023438 4.261719 17.390625 C 3.917969 16.714844 3.75 16 3.761719 15.242188 C 3.75 14.453125 3.914062 13.703125 4.257812 12.988281 Z M 5.816406 16.605469 C 5.988281 17.023438 6.257812 17.359375 6.632812 17.617188 C 7.015625 17.878906 7.441406 18.003906 7.90625 17.992188 C 8.390625 18.007812 8.835938 17.878906 9.242188 17.609375 C 9.609375 17.351562 9.875 17.011719 10.035156 16.589844 C 10.210938 16.132812 10.292969 15.660156 10.289062 15.171875 C 10.296875 14.675781 10.214844 14.195312 10.046875 13.730469 C 9.898438 13.300781 9.648438 12.949219 9.289062 12.675781 C 8.886719 12.390625 8.441406 12.257812 7.953125 12.277344 C 7.480469 12.261719 7.046875 12.386719 6.652344 12.648438 C 6.273438 12.910156 5.996094 13.25 5.816406 13.667969 C 5.425781 14.648438 5.425781 15.625 5.816406 16.605469 Z M 5.816406 16.605469 " fill-opacity="1" fill-rule="nonzero"/><path fill="#ffffff" d="M 4.257812 12.976562 C 4.578125 12.3125 5.0625 11.796875 5.703125 11.429688 C 6.425781 11.042969 7.195312 10.867188 8.011719 10.894531 C 8.773438 10.878906 9.484375 11.058594 10.148438 11.429688 C 10.765625 11.777344 11.238281 12.265625 11.5625 12.894531 C 11.90625 13.582031 12.070312 14.304688 12.058594 15.070312 C 12.070312 15.871094 11.898438 16.628906 11.542969 17.34375 C 11.214844 18 10.730469 18.511719 10.089844 18.871094 C 9.398438 19.230469 8.664062 19.40625 7.890625 19.40625 C 7.113281 19.40625 6.378906 19.230469 5.691406 18.871094 C 5.070312 18.515625 4.59375 18.023438 4.261719 17.390625 C 3.917969 16.714844 3.75 16 3.761719 15.242188 C 3.75 14.453125 3.914062 13.703125 4.257812 12.988281 Z M 5.816406 16.605469 C 5.988281 17.023438 6.257812 17.359375 6.632812 17.617188 C 7.015625 17.878906 7.441406 18.003906 7.90625 17.992188 C 8.390625 18.007812 8.835938 17.878906 9.242188 17.609375 C 9.609375 17.351562 9.875 17.011719 10.035156 16.589844 C 10.210938 16.132812 10.292969 15.660156 10.289062 15.171875 C 10.296875 14.675781 10.214844 14.195312 10.046875 13.730469 C 9.898438 13.300781 9.648438 12.949219 9.289062 12.675781 C 8.886719 12.390625 8.441406 12.257812 7.953125 12.277344 C 7.480469 12.261719 7.046875 12.386719 6.652344 12.648438 C 6.273438 12.910156 5.996094 13.25 5.816406 13.667969 C 5.425781 14.648438 5.425781 15.625 5.816406 16.605469 Z M 5.816406 16.605469 " fill-opacity="0.4" fill-rule="nonzero"/><g clip-path="url(#588cb37f52)"><g clip-path="url(#36aeb42c6b)"><path fill="url(#b420918b62)" d="M 3.75 19.40625 L 3.75 10.867188 L 12.070312 10.867188 L 12.070312 19.40625 Z M 3.75 19.40625 " fill-rule="nonzero"/><path fill="url(#64e6d94ea2)" d="M 3.75 19.40625 L 3.75 10.867188 L 12.070312 10.867188 L 12.070312 19.40625 Z M 3.75 19.40625 " fill-rule="nonzero"/></g></g></svg>