<svg xmlns="http://www.w3.org/2000/svg" xmlns:xlink="http://www.w3.org/1999/xlink" width="40" zoomAndPan="magnify" viewBox="0 0 30 30.000001" height="40" preserveAspectRatio="xMidYMid meet" version="1.0"><defs><clipPath id="56f1452715"><path d="M 7 4.324219 L 24 4.324219 L 24 14 L 7 14 Z M 7 4.324219 " clip-rule="nonzero"/></clipPath><clipPath id="10dbe76336"><path d="M 0.484375 8 L 18 8 L 18 21 L 0.484375 21 Z M 0.484375 8 " clip-rule="nonzero"/></clipPath><clipPath id="889ac01efb"><path d="M 17 11 L 29.515625 11 L 29.515625 21 L 17 21 Z M 17 11 " clip-rule="nonzero"/></clipPath><clipPath id="6f3b7dc3d9"><path d="M 1 13 L 29 13 L 29 23.195312 L 1 23.195312 Z M 1 13 " clip-rule="nonzero"/></clipPath></defs><g clip-path="url(#56f1452715)"><path fill="#0364b8" d="M 11.515625 9.855469 L 17.570312 13.515625 L 21.226562 12 C 21.96875 11.679688 22.746094 11.519531 23.558594 11.515625 L 23.953125 11.515625 C 23.734375 10.667969 23.398438 9.871094 22.949219 9.121094 C 22.5 8.375 21.953125 7.703125 21.3125 7.113281 C 20.667969 6.523438 19.953125 6.035156 19.167969 5.652344 C 18.382812 5.269531 17.5625 5.007812 16.699219 4.863281 C 15.839844 4.71875 14.976562 4.699219 14.109375 4.808594 C 13.246094 4.914062 12.410156 5.144531 11.609375 5.492188 C 10.8125 5.84375 10.078125 6.296875 9.410156 6.863281 C 8.742188 7.425781 8.167969 8.070312 7.6875 8.800781 L 7.78125 8.800781 C 9.125 8.800781 10.371094 9.152344 11.515625 9.855469 Z M 11.515625 9.855469 " fill-opacity="1" fill-rule="nonzero"/></g><g clip-path="url(#10dbe76336)"><path fill="#0078d4" d="M 11.515625 9.855469 C 10.363281 9.144531 9.105469 8.789062 7.753906 8.777344 L 7.65625 8.777344 C 7 8.78125 6.359375 8.875 5.726562 9.058594 C 5.097656 9.238281 4.503906 9.5 3.945312 9.84375 C 3.386719 10.1875 2.882812 10.601562 2.4375 11.082031 C 1.988281 11.5625 1.617188 12.097656 1.316406 12.679688 C 1.015625 13.261719 0.796875 13.875 0.664062 14.519531 C 0.53125 15.164062 0.484375 15.8125 0.527344 16.46875 C 0.570312 17.121094 0.703125 17.761719 0.917969 18.378906 C 1.136719 19 1.433594 19.578125 1.808594 20.117188 L 7.144531 17.871094 L 9.550781 16.894531 L 14.835938 14.699219 L 17.59375 13.535156 Z M 11.515625 9.855469 " fill-opacity="1" fill-rule="nonzero"/></g><g clip-path="url(#889ac01efb)"><path fill="#1490df" d="M 23.894531 11.5 L 23.5 11.5 C 22.691406 11.5 21.917969 11.660156 21.175781 11.976562 L 17.570312 13.5 L 18.617188 14.128906 L 22.042969 16.164062 L 23.507812 17.058594 L 28.621094 20.132812 C 28.738281 19.917969 28.84375 19.695312 28.929688 19.46875 C 29.019531 19.238281 29.09375 19.007812 29.152344 18.769531 C 29.214844 18.53125 29.257812 18.292969 29.289062 18.050781 C 29.316406 17.804688 29.332031 17.5625 29.332031 17.316406 C 29.332031 17.074219 29.316406 16.828125 29.285156 16.585938 C 29.25 16.34375 29.207031 16.105469 29.144531 15.867188 C 29.082031 15.628906 29.007812 15.398438 28.917969 15.171875 C 28.828125 14.945312 28.722656 14.722656 28.605469 14.507812 C 28.484375 14.292969 28.355469 14.089844 28.210938 13.890625 C 28.066406 13.691406 27.910156 13.503906 27.746094 13.328125 C 27.578125 13.148438 27.398438 12.980469 27.210938 12.824219 C 27.023438 12.667969 26.824219 12.527344 26.617188 12.394531 C 26.414062 12.261719 26.199219 12.144531 25.976562 12.039062 C 25.757812 11.9375 25.53125 11.847656 25.296875 11.769531 C 25.066406 11.695312 24.828125 11.632812 24.589844 11.585938 C 24.351562 11.539062 24.109375 11.507812 23.863281 11.492188 Z M 23.894531 11.5 " fill-opacity="1" fill-rule="nonzero"/></g><g clip-path="url(#6f3b7dc3d9)"><path fill="#28a8ea" d="M 23.535156 17.070312 L 22.074219 16.171875 L 18.644531 14.113281 L 17.597656 13.484375 L 14.84375 14.648438 L 9.558594 16.84375 L 7.183594 17.839844 L 1.847656 20.09375 C 2.519531 21.066406 3.378906 21.824219 4.421875 22.371094 C 5.46875 22.917969 6.582031 23.191406 7.761719 23.191406 L 23.5 23.191406 C 24.027344 23.191406 24.546875 23.121094 25.054688 22.980469 C 25.566406 22.839844 26.046875 22.632812 26.5 22.363281 C 26.953125 22.089844 27.363281 21.765625 27.730469 21.382812 C 28.09375 21 28.402344 20.574219 28.652344 20.109375 Z M 23.535156 17.070312 " fill-opacity="1" fill-rule="nonzero"/></g></svg>