<svg xmlns="http://www.w3.org/2000/svg" xmlns:xlink="http://www.w3.org/1999/xlink" width="40" zoomAndPan="magnify" viewBox="0 0 30 30.000001" height="40" preserveAspectRatio="xMidYMid meet" version="1.0"><defs><filter x="0%" y="0%" width="100%" height="100%" id="22e510d06c"><feColorMatrix values="0 0 0 0 1 0 0 0 0 1 0 0 0 0 1 0 0 0 1 0" color-interpolation-filters="sRGB"/></filter><clipPath id="c57c050d16"><path d="M 7 2 L 29.515625 2 L 29.515625 27 L 7 27 Z M 7 2 " clip-rule="nonzero"/></clipPath><clipPath id="570ada4ec2"><path d="M 7 20 L 29.515625 20 L 29.515625 27 L 7 27 Z M 7 20 " clip-rule="nonzero"/></clipPath><clipPath id="5ca6c74dbe"><path d="M 7 14 L 29.515625 14 L 29.515625 21 L 7 21 Z M 7 14 " clip-rule="nonzero"/></clipPath><clipPath id="e87f830eea"><path d="M 7 8 L 29.515625 8 L 29.515625 15 L 7 15 Z M 7 8 " clip-rule="nonzero"/></clipPath><mask id="7e592bf4b7"><g filter="url(#22e510d06c)"><rect x="-3" width="36" fill="#000000" y="-3" height="36.000001" fill-opacity="0.6667"/></g></mask><clipPath id="e02758ab40"><path d="M 2 1 L 10.507812 1 L 10.507812 16 L 2 16 Z M 2 1 " clip-rule="nonzero"/></clipPath><clipPath id="44d2ce02e1"><path d="M 1 0.503906 L 9 0.503906 L 9 15 L 1 15 Z M 1 0.503906 " clip-rule="nonzero"/></clipPath><clipPath id="c9a130d3cc"><path d="M 1 0.503906 L 9 0.503906 L 9 15 L 1 15 Z M 1 0.503906 " clip-rule="nonzero"/></clipPath><clipPath id="f794d9e4b5"><rect x="0" width="11" y="0" height="19"/></clipPath><clipPath id="01a6c1b1f9"><path d="M 0.484375 7 L 15 7 L 15 22 L 0.484375 22 Z M 0.484375 7 " clip-rule="nonzero"/></clipPath></defs><g clip-path="url(#c57c050d16)"><path fill="#41a5ee" d="M 8.796875 2.070312 L 27.863281 2.070312 C 28.019531 2.066406 28.171875 2.097656 28.316406 2.15625 C 28.464844 2.214844 28.59375 2.300781 28.703125 2.410156 C 28.816406 2.519531 28.902344 2.648438 28.964844 2.792969 C 29.027344 2.9375 29.058594 3.085938 29.058594 3.246094 L 29.058594 25.402344 C 29.058594 25.558594 29.027344 25.710938 28.964844 25.855469 C 28.902344 26 28.816406 26.125 28.703125 26.234375 C 28.589844 26.34375 28.464844 26.429688 28.316406 26.488281 C 28.171875 26.546875 28.019531 26.574219 27.863281 26.570312 L 8.796875 26.570312 C 8.46875 26.570312 8.1875 26.457031 7.949219 26.230469 C 7.71875 26.003906 7.601562 25.726562 7.601562 25.402344 L 7.601562 3.246094 C 7.601562 2.917969 7.714844 2.640625 7.949219 2.410156 C 8.191406 2.191406 8.472656 2.078125 8.796875 2.070312 Z M 8.796875 2.070312 " fill-opacity="1" fill-rule="nonzero"/></g><g clip-path="url(#570ada4ec2)"><path fill="#103f91" d="M 29.058594 20.453125 L 7.601562 20.453125 L 7.601562 25.402344 C 7.605469 25.558594 7.636719 25.710938 7.699219 25.855469 C 7.757812 26 7.847656 26.125 7.957031 26.234375 C 8.070312 26.34375 8.199219 26.429688 8.34375 26.488281 C 8.492188 26.546875 8.640625 26.574219 8.796875 26.570312 L 27.863281 26.570312 C 28.019531 26.574219 28.171875 26.546875 28.316406 26.488281 C 28.464844 26.429688 28.589844 26.34375 28.703125 26.234375 C 28.816406 26.125 28.902344 26 28.964844 25.855469 C 29.027344 25.710938 29.058594 25.558594 29.058594 25.402344 Z M 29.058594 20.453125 " fill-opacity="1" fill-rule="nonzero"/></g><g clip-path="url(#5ca6c74dbe)"><path fill="#185abd" d="M 7.601562 14.328125 L 29.058594 14.328125 L 29.058594 20.453125 L 7.601562 20.453125 Z M 7.601562 14.328125 " fill-opacity="1" fill-rule="nonzero"/></g><g clip-path="url(#e87f830eea)"><path fill="#2b7cd3" d="M 7.601562 8.203125 L 29.058594 8.203125 L 29.058594 14.328125 L 7.601562 14.328125 Z M 7.601562 8.203125 " fill-opacity="1" fill-rule="nonzero"/></g><g mask="url(#7e592bf4b7)"><g transform="matrix(1, 0, 0, 1, 6, 6)"><g clip-path="url(#f794d9e4b5)"><g clip-path="url(#e02758ab40)"><path fill="#000000" d="M 9.210938 1.078125 L 2.988281 1.078125 C 2.863281 1.074219 2.761719 1.117188 2.671875 1.199219 C 2.585938 1.285156 2.539062 1.390625 2.539062 1.511719 L 2.539062 15.148438 C 2.542969 15.269531 2.589844 15.371094 2.675781 15.457031 C 2.761719 15.539062 2.867188 15.582031 2.988281 15.585938 L 9.210938 15.585938 C 9.453125 15.585938 9.660156 15.5 9.832031 15.328125 C 10.003906 15.15625 10.09375 14.949219 10.09375 14.707031 L 10.09375 1.984375 C 10.097656 1.738281 10.011719 1.53125 9.835938 1.359375 C 9.664062 1.1875 9.453125 1.101562 9.210938 1.105469 Z M 9.210938 1.078125 " fill-opacity="0.0471" fill-rule="nonzero"/></g><path fill="#000000" d="M 7.546875 3.378906 L 1.601562 3.378906 L 1.601562 17.429688 L 7.546875 17.429688 C 7.703125 17.433594 7.851562 17.40625 7.992188 17.351562 C 8.136719 17.292969 8.265625 17.214844 8.375 17.105469 C 8.488281 17 8.574219 16.878906 8.636719 16.738281 C 8.699219 16.597656 8.734375 16.449219 8.738281 16.296875 L 8.738281 4.472656 C 8.730469 4.324219 8.691406 4.179688 8.628906 4.042969 C 8.5625 3.90625 8.476562 3.785156 8.367188 3.683594 C 8.253906 3.582031 8.128906 3.503906 7.988281 3.449219 C 7.84375 3.398438 7.699219 3.375 7.546875 3.378906 Z M 7.546875 3.378906 " fill-opacity="0.098" fill-rule="nonzero"/><path fill="#000000" d="M 7.546875 2.570312 L 1.601562 2.570312 L 1.601562 16.617188 L 7.546875 16.617188 C 7.703125 16.617188 7.851562 16.59375 7.992188 16.535156 C 8.136719 16.480469 8.265625 16.402344 8.375 16.292969 C 8.488281 16.1875 8.574219 16.066406 8.636719 15.925781 C 8.699219 15.785156 8.734375 15.636719 8.738281 15.484375 L 8.738281 3.695312 C 8.734375 3.542969 8.699219 3.398438 8.636719 3.257812 C 8.574219 3.117188 8.488281 2.992188 8.375 2.886719 C 8.265625 2.785156 8.136719 2.703125 7.992188 2.648438 C 7.851562 2.59375 7.703125 2.566406 7.546875 2.570312 Z M 7.546875 2.570312 " fill-opacity="0.2" fill-rule="nonzero"/><path fill="#000000" d="M 8.855469 1.351562 L 2.632812 1.351562 C 2.511719 1.351562 2.40625 1.390625 2.320312 1.476562 C 2.234375 1.5625 2.1875 1.667969 2.1875 1.789062 L 2.1875 15.417969 C 2.1875 15.539062 2.234375 15.644531 2.320312 15.730469 C 2.40625 15.8125 2.511719 15.855469 2.632812 15.855469 L 8.855469 15.855469 C 9.097656 15.855469 9.304688 15.773438 9.480469 15.601562 C 9.652344 15.433594 9.742188 15.226562 9.746094 14.984375 L 9.746094 2.222656 C 9.742188 1.980469 9.652344 1.773438 9.480469 1.605469 C 9.304688 1.433594 9.097656 1.351562 8.855469 1.351562 Z M 8.855469 1.351562 " fill-opacity="0.098" fill-rule="nonzero"/><path fill="#000000" d="M 8.832031 1.714844 L 2.617188 1.714844 C 2.496094 1.714844 2.390625 1.753906 2.300781 1.839844 C 2.214844 1.925781 2.167969 2.027344 2.167969 2.152344 L 2.167969 15.644531 C 2.167969 15.765625 2.210938 15.871094 2.300781 15.957031 C 2.386719 16.042969 2.496094 16.082031 2.617188 16.078125 L 8.832031 16.078125 C 9.078125 16.085938 9.289062 16.003906 9.464844 15.832031 C 9.640625 15.660156 9.730469 15.453125 9.730469 15.207031 L 9.730469 2.585938 C 9.726562 2.339844 9.636719 2.132812 9.460938 1.964844 C 9.285156 1.792969 9.078125 1.710938 8.832031 1.714844 Z M 8.832031 1.714844 " fill-opacity="0.098" fill-rule="nonzero"/><g clip-path="url(#44d2ce02e1)"><path fill="#000000" d="M 7.832031 0.683594 L 1.617188 0.683594 L 1.617188 12.144531 L 1.53125 12.144531 L 1.53125 13.9375 C 1.53125 14.058594 1.574219 14.164062 1.660156 14.25 C 1.746094 14.332031 1.851562 14.375 1.972656 14.375 L 6.945312 13.480469 C 7.441406 13.480469 8.765625 13.066406 8.765625 12.582031 L 8.765625 1.554688 C 8.765625 1.308594 8.675781 1.101562 8.496094 0.929688 C 8.320312 0.757812 8.105469 0.675781 7.859375 0.683594 Z M 7.832031 0.683594 " fill-opacity="0.0078" fill-rule="nonzero"/></g><path fill="#000000" d="M 7.546875 2.957031 L 1.601562 2.957031 L 1.601562 17 L 7.546875 17 C 7.703125 17.003906 7.851562 16.980469 7.992188 16.925781 C 8.136719 16.871094 8.265625 16.789062 8.375 16.683594 C 8.488281 16.578125 8.574219 16.457031 8.636719 16.316406 C 8.699219 16.175781 8.734375 16.027344 8.738281 15.875 L 8.738281 4.082031 C 8.734375 3.929688 8.699219 3.78125 8.636719 3.640625 C 8.574219 3.5 8.488281 3.378906 8.375 3.273438 C 8.265625 3.167969 8.136719 3.085938 7.992188 3.03125 C 7.851562 2.976562 7.703125 2.953125 7.546875 2.957031 Z M 7.546875 2.957031 " fill-opacity="0.2" fill-rule="nonzero"/><path fill="#000000" d="M 7.546875 1.722656 L 1.601562 1.722656 L 1.601562 15.511719 L 7.546875 15.511719 C 7.707031 15.519531 7.863281 15.492188 8.011719 15.433594 C 8.164062 15.375 8.292969 15.292969 8.40625 15.179688 C 8.523438 15.066406 8.609375 14.933594 8.667969 14.785156 C 8.730469 14.636719 8.757812 14.484375 8.753906 14.324219 L 8.753906 2.847656 C 8.746094 2.691406 8.714844 2.546875 8.648438 2.402344 C 8.585938 2.261719 8.496094 2.140625 8.382812 2.035156 C 8.273438 1.929688 8.140625 1.847656 7.996094 1.792969 C 7.851562 1.742188 7.703125 1.714844 7.546875 1.722656 Z M 7.546875 1.722656 " fill-opacity="0.298" fill-rule="nonzero"/><path fill="#000000" d="M 7.546875 1.722656 L 1.601562 1.722656 L 1.601562 15.417969 L 7.546875 15.417969 C 7.699219 15.421875 7.847656 15.398438 7.988281 15.347656 C 8.132812 15.292969 8.261719 15.21875 8.371094 15.113281 C 8.484375 15.011719 8.574219 14.894531 8.640625 14.757812 C 8.707031 14.617188 8.742188 14.472656 8.753906 14.324219 L 8.753906 2.847656 C 8.746094 2.691406 8.714844 2.546875 8.648438 2.402344 C 8.585938 2.261719 8.496094 2.140625 8.382812 2.035156 C 8.273438 1.929688 8.140625 1.847656 7.996094 1.792969 C 7.851562 1.742188 7.703125 1.714844 7.546875 1.722656 Z M 7.546875 1.722656 " fill-opacity="0.298" fill-rule="nonzero"/><path fill="#000000" d="M 7.546875 1.984375 L 1.601562 1.984375 L 1.601562 16.050781 L 7.546875 16.050781 C 7.703125 16.054688 7.851562 16.027344 7.992188 15.972656 C 8.136719 15.917969 8.265625 15.839844 8.375 15.734375 C 8.488281 15.628906 8.574219 15.503906 8.636719 15.363281 C 8.699219 15.226562 8.734375 15.078125 8.738281 14.925781 L 8.738281 3.128906 C 8.734375 2.976562 8.703125 2.828125 8.644531 2.683594 C 8.582031 2.542969 8.496094 2.417969 8.382812 2.308594 C 8.269531 2.199219 8.144531 2.117188 8 2.0625 C 7.855469 2.007812 7.703125 1.980469 7.546875 1.984375 Z M 7.546875 1.984375 " fill-opacity="0.298" fill-rule="nonzero"/><path fill="#000000" d="M 7.546875 2.265625 L 1.601562 2.265625 L 1.601562 16.320312 L 7.546875 16.320312 C 7.703125 16.320312 7.851562 16.296875 7.992188 16.238281 C 8.136719 16.183594 8.265625 16.101562 8.375 15.996094 C 8.488281 15.890625 8.574219 15.769531 8.636719 15.628906 C 8.699219 15.488281 8.734375 15.339844 8.738281 15.1875 L 8.738281 3.433594 C 8.738281 3.277344 8.710938 3.128906 8.648438 2.980469 C 8.589844 2.835938 8.503906 2.710938 8.390625 2.597656 C 8.277344 2.488281 8.148438 2.40625 8.003906 2.347656 C 7.855469 2.289062 7.707031 2.261719 7.546875 2.265625 Z M 7.546875 2.265625 " fill-opacity="0.2" fill-rule="nonzero"/><path fill="#000000" d="M 8.695312 2.113281 L 2.472656 2.113281 C 2.351562 2.113281 2.246094 2.152344 2.15625 2.238281 C 2.070312 2.324219 2.023438 2.425781 2.023438 2.550781 L 2.023438 15.351562 C 2.023438 15.476562 2.070312 15.578125 2.15625 15.664062 C 2.246094 15.75 2.351562 15.789062 2.472656 15.789062 L 8.695312 15.789062 C 8.9375 15.789062 9.144531 15.707031 9.320312 15.535156 C 9.492188 15.363281 9.578125 15.15625 9.578125 14.910156 L 9.578125 2.992188 C 9.578125 2.75 9.488281 2.542969 9.316406 2.371094 C 9.144531 2.199219 8.9375 2.113281 8.695312 2.113281 Z M 8.695312 2.113281 " fill-opacity="0.098" fill-rule="nonzero"/><path fill="#000000" d="M 8 2.113281 L 1.785156 2.113281 C 1.726562 2.101562 1.671875 2.101562 1.617188 2.113281 L 1.617188 15.484375 C 1.671875 15.492188 1.726562 15.492188 1.785156 15.484375 L 8 15.484375 C 8.242188 15.484375 8.453125 15.402344 8.625 15.230469 C 8.800781 15.058594 8.886719 14.851562 8.890625 14.605469 L 8.890625 2.992188 C 8.886719 2.75 8.800781 2.539062 8.625 2.367188 C 8.453125 2.195312 8.242188 2.113281 8 2.113281 Z M 8 2.113281 " fill-opacity="0.2" fill-rule="nonzero"/><path fill="#000000" d="M 6.433594 1.359375 L 1.914062 1.359375 C 1.792969 1.359375 1.6875 1.402344 1.601562 1.484375 C 1.515625 1.570312 1.46875 1.671875 1.464844 1.796875 L 1.464844 14.589844 C 1.464844 14.714844 1.511719 14.816406 1.597656 14.902344 C 1.6875 14.988281 1.792969 15.027344 1.914062 15.027344 L 8.128906 15.027344 C 8.371094 15.027344 8.578125 14.945312 8.753906 14.773438 C 8.929688 14.605469 9.015625 14.398438 9.019531 14.15625 L 9.019531 2.621094 C 9.019531 2.101562 7.816406 1.824219 7.679688 1.664062 C 7.289062 1.464844 6.871094 1.363281 6.433594 1.359375 Z M 6.433594 1.359375 " fill-opacity="0.298" fill-rule="nonzero"/><path fill="#000000" d="M 8.390625 2.746094 L 2.175781 2.746094 C 2.054688 2.746094 1.949219 2.789062 1.863281 2.871094 C 1.773438 2.957031 1.730469 3.058594 1.726562 3.179688 L 1.726562 15.984375 C 1.730469 16.105469 1.773438 16.210938 1.863281 16.292969 C 1.949219 16.378906 2.054688 16.421875 2.175781 16.421875 L 8.390625 16.421875 C 8.632812 16.421875 8.84375 16.335938 9.015625 16.164062 C 9.191406 15.996094 9.28125 15.785156 9.28125 15.542969 L 9.28125 3.625 C 9.28125 3.382812 9.191406 3.175781 9.019531 3.003906 C 8.847656 2.832031 8.640625 2.746094 8.398438 2.746094 Z M 8.390625 2.746094 " fill-opacity="0.098" fill-rule="nonzero"/><g clip-path="url(#c9a130d3cc)"><path fill="#000000" d="M 7.832031 0.925781 L 1.617188 0.925781 L 1.617188 12.371094 L 1.53125 12.371094 L 1.53125 14.164062 C 1.53125 14.285156 1.574219 14.386719 1.660156 14.472656 C 1.746094 14.558594 1.851562 14.601562 1.972656 14.597656 L 6.945312 13.710938 C 7.441406 13.710938 8.765625 13.292969 8.765625 12.804688 L 8.765625 1.789062 C 8.757812 1.542969 8.664062 1.335938 8.488281 1.167969 C 8.308594 1 8.097656 0.917969 7.851562 0.925781 Z M 7.832031 0.925781 " fill-opacity="0.098" fill-rule="nonzero"/></g><path fill="#000000" d="M 7.832031 1.171875 L 1.617188 1.171875 L 1.617188 12.585938 L 1.53125 12.585938 L 1.53125 14.378906 C 1.53125 14.503906 1.574219 14.605469 1.660156 14.691406 C 1.746094 14.777344 1.851562 14.816406 1.972656 14.816406 L 6.945312 13.929688 C 7.441406 13.929688 8.765625 13.507812 8.765625 13.023438 L 8.765625 2.019531 C 8.757812 1.773438 8.660156 1.566406 8.480469 1.402344 C 8.296875 1.234375 8.085938 1.160156 7.839844 1.171875 Z M 7.832031 1.171875 " fill-opacity="0.149" fill-rule="nonzero"/></g></g></g><g clip-path="url(#01a6c1b1f9)"><path fill="#185abd" d="M 1.640625 7.324219 L 13.546875 7.324219 C 13.703125 7.324219 13.855469 7.351562 14 7.410156 C 14.144531 7.46875 14.273438 7.550781 14.382812 7.664062 C 14.496094 7.773438 14.582031 7.898438 14.644531 8.042969 C 14.703125 8.1875 14.734375 8.335938 14.738281 8.492188 L 14.738281 20.15625 C 14.738281 20.3125 14.707031 20.464844 14.644531 20.609375 C 14.585938 20.753906 14.5 20.878906 14.386719 20.988281 C 14.273438 21.101562 14.148438 21.183594 14 21.242188 C 13.855469 21.304688 13.707031 21.332031 13.546875 21.332031 L 1.640625 21.332031 C 1.316406 21.324219 1.035156 21.207031 0.800781 20.984375 C 0.566406 20.757812 0.449219 20.480469 0.453125 20.15625 L 0.453125 8.484375 C 0.453125 8.328125 0.488281 8.179688 0.546875 8.035156 C 0.609375 7.894531 0.695312 7.769531 0.808594 7.660156 C 0.917969 7.550781 1.046875 7.46875 1.191406 7.410156 C 1.335938 7.351562 1.484375 7.324219 1.640625 7.324219 Z M 1.640625 7.324219 " fill-opacity="1" fill-rule="nonzero"/></g><path fill="#ffffff" d="M 11.265625 18.703125 L 9.660156 18.703125 L 7.785156 12.664062 L 5.816406 18.703125 L 4.207031 18.703125 L 2.417969 9.949219 L 4.027344 9.949219 L 5.273438 16.078125 L 7.152344 10.125 L 8.492188 10.125 L 10.285156 16.078125 L 11.53125 9.949219 L 13.054688 9.949219 Z M 11.265625 18.703125 " fill-opacity="1" fill-rule="nonzero"/></svg>