<svg xmlns="http://www.w3.org/2000/svg" xmlns:xlink="http://www.w3.org/1999/xlink" width="40" zoomAndPan="magnify" viewBox="0 0 30 30.000001" height="40" preserveAspectRatio="xMidYMid meet" version="1.0"><defs><filter x="0%" y="0%" width="100%" height="100%" id="79dbb82b85"><feColorMatrix values="0 0 0 0 1 0 0 0 0 1 0 0 0 0 1 0 0 0 1 0" color-interpolation-filters="sRGB"/></filter><mask id="729ed0c3ca"><g filter="url(#79dbb82b85)"><rect x="-3" width="36" fill="#000000" y="-3" height="36.000001" fill-opacity="0.6667"/></g></mask><clipPath id="6be396969e"><path d="M 1 1 L 9.972656 1 L 9.972656 17 L 1 17 Z M 1 1 " clip-rule="nonzero"/></clipPath><clipPath id="1e5897f21a"><path d="M 1 4 L 9 4 L 9 18.851562 L 1 18.851562 Z M 1 4 " clip-rule="nonzero"/></clipPath><clipPath id="26dae70d0f"><path d="M 1 3 L 9 3 L 9 18.851562 L 1 18.851562 Z M 1 3 " clip-rule="nonzero"/></clipPath><clipPath id="a175a77c0b"><path d="M 0.453125 2 L 9 2 L 9 17 L 0.453125 17 Z M 0.453125 2 " clip-rule="nonzero"/></clipPath><clipPath id="630f6c5f44"><rect x="0" width="10" y="0" height="19"/></clipPath></defs><path fill="#ffffff" d="M 15.167969 4.527344 L 24.234375 4.527344 L 24.234375 21.902344 L 15.167969 21.902344 Z M 12.714844 8.332031 L 10.023438 13.722656 L 12.785156 19.203125 L 9.707031 19.015625 L 8.414062 15.980469 L 7.183594 18.84375 L 4.378906 18.6875 L 6.847656 13.777344 L 4.527344 8.863281 L 7.390625 8.691406 L 8.476562 11.492188 L 9.75 8.554688 Z M 12.714844 8.332031 " fill-opacity="1" fill-rule="nonzero"/><path fill="#21a366" d="M 9.25 2.78125 L 27.660156 2.78125 C 27.984375 2.777344 28.257812 2.894531 28.476562 3.132812 C 28.699219 3.371094 28.8125 3.65625 28.8125 3.984375 L 28.8125 26.839844 C 28.8125 27.167969 28.699219 27.453125 28.476562 27.695312 C 28.257812 27.929688 27.984375 28.046875 27.660156 28.042969 L 9.25 28.042969 C 9.09375 28.042969 8.945312 28.007812 8.804688 27.945312 C 8.660156 27.882812 8.535156 27.796875 8.429688 27.683594 C 8.320312 27.574219 8.238281 27.445312 8.183594 27.300781 C 8.128906 27.152344 8.101562 27.003906 8.105469 26.847656 L 8.105469 3.984375 C 8.101562 3.828125 8.128906 3.679688 8.183594 3.535156 C 8.238281 3.390625 8.320312 3.261719 8.425781 3.148438 C 8.53125 3.035156 8.65625 2.945312 8.796875 2.882812 C 8.941406 2.820312 9.089844 2.785156 9.242188 2.78125 Z M 9.25 2.78125 " fill-opacity="1" fill-rule="nonzero"/><path fill="#185c37" d="M 8.105469 15.414062 L 8.105469 26.875 C 8.097656 27.03125 8.121094 27.183594 8.171875 27.328125 C 8.226562 27.476562 8.304688 27.605469 8.410156 27.722656 C 8.511719 27.835938 8.636719 27.925781 8.777344 27.992188 C 8.917969 28.058594 9.066406 28.09375 9.222656 28.101562 L 27.660156 28.101562 C 27.816406 28.097656 27.96875 28.066406 28.109375 28.003906 C 28.253906 27.941406 28.378906 27.851562 28.488281 27.738281 C 28.59375 27.628906 28.675781 27.496094 28.734375 27.351562 C 28.789062 27.207031 28.816406 27.054688 28.8125 26.898438 L 28.8125 15.433594 Z M 8.105469 15.414062 " fill-opacity="1" fill-rule="nonzero"/><path fill="#107c41" d="M 8.105469 9.101562 L 28.8125 9.101562 L 28.8125 15.417969 L 8.105469 15.417969 Z M 8.105469 9.101562 " fill-opacity="1" fill-rule="nonzero"/><path fill="#33c481" d="M 27.660156 2.78125 L 18.460938 2.78125 L 18.460938 21.730469 L 28.8125 21.730469 L 28.8125 3.984375 C 28.8125 3.65625 28.699219 3.371094 28.476562 3.132812 C 28.257812 2.894531 27.984375 2.777344 27.660156 2.78125 Z M 27.660156 2.78125 " fill-opacity="1" fill-rule="nonzero"/><path fill="#21a366" d="M 18.460938 9.101562 L 28.820312 9.101562 L 28.820312 15.417969 L 18.460938 15.417969 Z M 18.460938 9.101562 " fill-opacity="1" fill-rule="nonzero"/><path fill="#107c41" d="M 18.460938 15.414062 L 28.820312 15.414062 L 28.820312 21.730469 L 18.460938 21.730469 Z M 18.460938 15.414062 " fill-opacity="1" fill-rule="nonzero"/><g mask="url(#729ed0c3ca)"><g transform="matrix(1, 0, 0, 1, 7, 6)"><g clip-path="url(#630f6c5f44)"><g clip-path="url(#6be396969e)"><path fill="#000000" d="M 8.433594 1.941406 L 2.414062 1.941406 C 2.292969 1.945312 2.191406 1.988281 2.109375 2.078125 C 2.023438 2.164062 1.984375 2.269531 1.984375 2.390625 L 1.984375 16.441406 C 1.980469 16.5625 2.019531 16.671875 2.105469 16.761719 C 2.1875 16.847656 2.292969 16.894531 2.414062 16.898438 L 8.433594 16.898438 C 8.675781 16.894531 8.882812 16.804688 9.046875 16.625 C 9.214844 16.449219 9.296875 16.242188 9.292969 15.996094 L 9.292969 2.84375 C 9.296875 2.597656 9.214844 2.390625 9.046875 2.210938 C 8.882812 2.035156 8.675781 1.945312 8.433594 1.941406 Z M 8.433594 1.941406 " fill-opacity="0.0471" fill-rule="nonzero"/></g><g clip-path="url(#1e5897f21a)"><path fill="#000000" d="M 6.851562 4.3125 L 1.125 4.3125 L 1.125 18.8125 L 6.851562 18.8125 C 7.003906 18.8125 7.152344 18.78125 7.296875 18.722656 C 7.4375 18.664062 7.5625 18.578125 7.671875 18.46875 C 7.78125 18.359375 7.863281 18.234375 7.921875 18.089844 C 7.980469 17.949219 8.011719 17.800781 8.011719 17.644531 L 8.011719 5.464844 C 8.007812 5.3125 7.976562 5.164062 7.917969 5.023438 C 7.859375 4.882812 7.773438 4.757812 7.667969 4.652344 C 7.558594 4.542969 7.433594 4.460938 7.292969 4.402344 C 7.152344 4.34375 7.003906 4.3125 6.851562 4.3125 Z M 6.851562 4.3125 " fill-opacity="0.098" fill-rule="nonzero"/></g><path fill="#000000" d="M 6.851562 3.472656 L 1.125 3.472656 L 1.125 17.960938 L 6.851562 17.960938 C 7.003906 17.960938 7.152344 17.929688 7.292969 17.871094 C 7.433594 17.8125 7.558594 17.726562 7.667969 17.617188 C 7.777344 17.511719 7.859375 17.382812 7.921875 17.242188 C 7.980469 17.101562 8.007812 16.953125 8.011719 16.800781 L 8.011719 4.621094 C 8.007812 4.46875 7.976562 4.320312 7.917969 4.179688 C 7.855469 4.039062 7.773438 3.917969 7.664062 3.808594 C 7.554688 3.703125 7.429688 3.621094 7.289062 3.5625 C 7.148438 3.503906 7.003906 3.472656 6.851562 3.472656 Z M 6.851562 3.472656 " fill-opacity="0.2" fill-rule="nonzero"/><path fill="#000000" d="M 8.097656 2.226562 L 2.085938 2.226562 C 1.964844 2.230469 1.863281 2.273438 1.78125 2.359375 C 1.699219 2.449219 1.65625 2.550781 1.65625 2.671875 L 1.65625 16.726562 C 1.652344 16.851562 1.691406 16.957031 1.777344 17.042969 C 1.859375 17.132812 1.964844 17.175781 2.085938 17.179688 L 8.097656 17.179688 C 8.339844 17.175781 8.546875 17.085938 8.71875 16.910156 C 8.886719 16.730469 8.96875 16.523438 8.960938 16.277344 L 8.960938 3.121094 C 8.96875 2.878906 8.890625 2.667969 8.722656 2.492188 C 8.550781 2.316406 8.347656 2.226562 8.101562 2.226562 Z M 8.097656 2.226562 " fill-opacity="0.098" fill-rule="nonzero"/><path fill="#000000" d="M 8.089844 2.589844 L 2.070312 2.589844 C 1.949219 2.59375 1.84375 2.640625 1.761719 2.730469 C 1.679688 2.820312 1.636719 2.925781 1.640625 3.050781 L 1.640625 16.957031 C 1.640625 17.078125 1.683594 17.183594 1.765625 17.269531 C 1.847656 17.355469 1.949219 17.402344 2.070312 17.410156 L 8.089844 17.410156 C 8.332031 17.398438 8.539062 17.304688 8.703125 17.121094 C 8.867188 16.941406 8.941406 16.730469 8.925781 16.484375 L 8.925781 3.496094 C 8.933594 3.253906 8.855469 3.046875 8.695312 2.871094 C 8.53125 2.695312 8.328125 2.601562 8.089844 2.589844 Z M 8.089844 2.589844 " fill-opacity="0.098" fill-rule="nonzero"/><path fill="#000000" d="M 7.117188 1.53125 L 1.105469 1.53125 L 1.105469 13.324219 L 1.019531 13.324219 L 1.019531 15.171875 C 1.015625 15.292969 1.058594 15.398438 1.140625 15.484375 C 1.226562 15.570312 1.328125 15.617188 1.449219 15.617188 L 6.230469 14.699219 C 6.707031 14.699219 7.980469 14.269531 7.980469 13.777344 L 7.980469 2.433594 C 7.988281 2.1875 7.90625 1.976562 7.738281 1.800781 C 7.566406 1.625 7.359375 1.535156 7.117188 1.53125 Z M 7.117188 1.53125 " fill-opacity="0.0078" fill-rule="nonzero"/><g clip-path="url(#26dae70d0f)"><path fill="#000000" d="M 6.851562 3.875 L 1.125 3.875 L 1.125 18.363281 L 6.851562 18.363281 C 7.003906 18.359375 7.152344 18.332031 7.292969 18.273438 C 7.433594 18.210938 7.558594 18.128906 7.667969 18.019531 C 7.777344 17.910156 7.859375 17.785156 7.921875 17.644531 C 7.980469 17.503906 8.007812 17.355469 8.011719 17.199219 L 8.011719 5.019531 C 8.007812 4.867188 7.976562 4.722656 7.917969 4.582031 C 7.855469 4.441406 7.773438 4.316406 7.664062 4.210938 C 7.554688 4.105469 7.429688 4.019531 7.289062 3.964844 C 7.148438 3.90625 7.003906 3.875 6.851562 3.875 Z M 6.851562 3.875 " fill-opacity="0.2" fill-rule="nonzero"/></g><path fill="#000000" d="M 6.859375 2.605469 L 1.132812 2.605469 L 1.132812 16.777344 L 6.859375 16.777344 C 7.011719 16.777344 7.160156 16.746094 7.300781 16.6875 C 7.441406 16.628906 7.566406 16.542969 7.671875 16.4375 C 7.78125 16.328125 7.863281 16.203125 7.921875 16.058594 C 7.980469 15.917969 8.011719 15.769531 8.011719 15.617188 L 8.011719 3.765625 C 8.011719 3.613281 7.980469 3.464844 7.921875 3.324219 C 7.863281 3.183594 7.78125 3.058594 7.671875 2.949219 C 7.566406 2.839844 7.441406 2.753906 7.300781 2.695312 C 7.160156 2.636719 7.011719 2.605469 6.859375 2.605469 Z M 6.859375 2.605469 " fill-opacity="0.298" fill-rule="nonzero"/><path fill="#000000" d="M 6.851562 2.605469 L 1.125 2.605469 L 1.125 16.734375 L 6.851562 16.734375 C 7.003906 16.734375 7.152344 16.707031 7.292969 16.648438 C 7.4375 16.589844 7.5625 16.503906 7.671875 16.394531 C 7.78125 16.285156 7.863281 16.160156 7.921875 16.019531 C 7.980469 15.875 8.011719 15.726562 8.011719 15.574219 L 8.011719 3.765625 C 8.011719 3.613281 7.980469 3.464844 7.921875 3.324219 C 7.863281 3.179688 7.78125 3.054688 7.671875 2.945312 C 7.5625 2.835938 7.4375 2.753906 7.292969 2.695312 C 7.152344 2.636719 7.003906 2.605469 6.851562 2.605469 Z M 6.851562 2.605469 " fill-opacity="0.298" fill-rule="nonzero"/><path fill="#000000" d="M 6.851562 2.890625 L 1.125 2.890625 L 1.125 17.378906 L 6.851562 17.378906 C 7.003906 17.382812 7.152344 17.351562 7.296875 17.292969 C 7.4375 17.234375 7.5625 17.152344 7.671875 17.042969 C 7.78125 16.933594 7.867188 16.808594 7.925781 16.664062 C 7.984375 16.523438 8.011719 16.375 8.011719 16.21875 L 8.011719 4.039062 C 8.007812 3.886719 7.976562 3.742188 7.917969 3.601562 C 7.855469 3.460938 7.773438 3.335938 7.664062 3.230469 C 7.554688 3.121094 7.429688 3.039062 7.289062 2.980469 C 7.148438 2.921875 7.003906 2.894531 6.851562 2.890625 Z M 6.851562 2.890625 " fill-opacity="0.298" fill-rule="nonzero"/><path fill="#000000" d="M 6.851562 3.164062 L 1.125 3.164062 L 1.125 17.652344 L 6.851562 17.652344 C 7.003906 17.652344 7.152344 17.621094 7.296875 17.558594 C 7.4375 17.5 7.5625 17.414062 7.671875 17.304688 C 7.78125 17.191406 7.863281 17.066406 7.921875 16.921875 C 7.980469 16.78125 8.011719 16.632812 8.011719 16.476562 L 8.011719 4.296875 C 8.007812 4.144531 7.972656 4 7.914062 3.863281 C 7.855469 3.722656 7.769531 3.601562 7.660156 3.496094 C 7.550781 3.390625 7.429688 3.308594 7.289062 3.25 C 7.148438 3.191406 7.003906 3.164062 6.851562 3.164062 Z M 6.851562 3.164062 " fill-opacity="0.2" fill-rule="nonzero"/><path fill="#000000" d="M 7.945312 3.050781 L 1.933594 3.050781 C 1.8125 3.050781 1.707031 3.09375 1.621094 3.183594 C 1.535156 3.273438 1.496094 3.378906 1.5 3.5 L 1.5 16.664062 C 1.496094 16.785156 1.539062 16.890625 1.625 16.980469 C 1.707031 17.066406 1.8125 17.113281 1.933594 17.113281 L 7.945312 17.113281 C 8.1875 17.109375 8.394531 17.019531 8.5625 16.84375 C 8.730469 16.664062 8.8125 16.457031 8.804688 16.210938 L 8.804688 3.917969 C 8.800781 3.679688 8.71875 3.476562 8.550781 3.308594 C 8.382812 3.140625 8.183594 3.054688 7.945312 3.050781 Z M 7.945312 3.050781 " fill-opacity="0.098" fill-rule="nonzero"/><path fill="#000000" d="M 7.28125 3.050781 L 1.277344 3.050781 C 1.222656 3.03125 1.171875 3.03125 1.121094 3.050781 L 1.121094 16.777344 C 1.171875 16.785156 1.222656 16.785156 1.277344 16.777344 L 7.292969 16.777344 C 7.539062 16.773438 7.742188 16.679688 7.910156 16.503906 C 8.078125 16.328125 8.160156 16.117188 8.152344 15.875 L 8.152344 3.917969 C 8.160156 3.671875 8.082031 3.460938 7.914062 3.285156 C 7.746094 3.109375 7.539062 3.019531 7.292969 3.015625 Z M 7.28125 3.050781 " fill-opacity="0.2" fill-rule="nonzero"/><g clip-path="url(#a175a77c0b)"><path fill="#000000" d="M 5.769531 2.234375 L 1.390625 2.234375 C 1.269531 2.234375 1.167969 2.28125 1.082031 2.367188 C 1 2.457031 0.957031 2.5625 0.960938 2.683594 L 0.960938 15.867188 C 0.960938 15.988281 1.003906 16.089844 1.085938 16.175781 C 1.171875 16.265625 1.273438 16.308594 1.390625 16.3125 L 7.410156 16.3125 C 7.652344 16.308594 7.855469 16.214844 8.023438 16.042969 C 8.191406 15.867188 8.273438 15.660156 8.269531 15.417969 L 8.269531 3.53125 C 8.269531 3 7.101562 2.707031 6.972656 2.542969 C 6.597656 2.339844 6.195312 2.234375 5.769531 2.234375 Z M 5.769531 2.234375 " fill-opacity="0.298" fill-rule="nonzero"/></g><path fill="#000000" d="M 7.660156 3.660156 L 1.640625 3.660156 C 1.523438 3.664062 1.421875 3.710938 1.335938 3.796875 C 1.253906 3.886719 1.210938 3.988281 1.210938 4.109375 L 1.210938 17.300781 C 1.207031 17.425781 1.25 17.53125 1.332031 17.621094 C 1.417969 17.710938 1.519531 17.757812 1.640625 17.761719 L 7.660156 17.761719 C 7.902344 17.753906 8.105469 17.660156 8.269531 17.488281 C 8.4375 17.3125 8.519531 17.105469 8.519531 16.863281 L 8.519531 4.5625 C 8.523438 4.320312 8.445312 4.109375 8.277344 3.933594 C 8.113281 3.757812 7.910156 3.667969 7.667969 3.660156 Z M 7.660156 3.660156 " fill-opacity="0.098" fill-rule="nonzero"/><path fill="#000000" d="M 7.117188 1.78125 L 1.105469 1.78125 L 1.105469 13.582031 L 1.019531 13.582031 L 1.019531 15.429688 C 1.015625 15.554688 1.054688 15.660156 1.140625 15.746094 C 1.222656 15.835938 1.328125 15.878906 1.449219 15.882812 L 6.230469 14.957031 C 6.707031 14.957031 7.980469 14.527344 7.980469 14.035156 L 7.980469 2.683594 C 7.988281 2.441406 7.90625 2.230469 7.738281 2.050781 C 7.566406 1.875 7.359375 1.785156 7.117188 1.78125 Z M 7.117188 1.78125 " fill-opacity="0.098" fill-rule="nonzero"/><path fill="#000000" d="M 7.117188 2.011719 L 1.105469 2.011719 L 1.105469 13.796875 L 1.019531 13.796875 L 1.019531 15.640625 C 1.015625 15.761719 1.054688 15.867188 1.140625 15.953125 C 1.222656 16.042969 1.328125 16.089844 1.449219 16.089844 L 6.230469 15.171875 C 6.707031 15.171875 7.980469 14.742188 7.980469 14.25 L 7.980469 2.914062 C 7.988281 2.667969 7.90625 2.457031 7.738281 2.28125 C 7.566406 2.105469 7.359375 2.015625 7.117188 2.011719 Z M 7.117188 2.011719 " fill-opacity="0.149" fill-rule="nonzero"/></g></g></g><path fill="#107c41" d="M 2.351562 8.191406 L 13.859375 8.191406 C 14.015625 8.195312 14.164062 8.230469 14.308594 8.292969 C 14.449219 8.355469 14.574219 8.445312 14.683594 8.558594 C 14.789062 8.671875 14.871094 8.800781 14.929688 8.949219 C 14.984375 9.09375 15.011719 9.246094 15.011719 9.402344 L 15.011719 21.429688 C 15.015625 21.585938 14.992188 21.738281 14.9375 21.886719 C 14.882812 22.035156 14.804688 22.164062 14.699219 22.28125 C 14.59375 22.394531 14.46875 22.488281 14.328125 22.554688 C 14.183594 22.621094 14.035156 22.65625 13.878906 22.664062 L 2.351562 22.664062 C 2.195312 22.660156 2.046875 22.628906 1.902344 22.566406 C 1.761719 22.503906 1.632812 22.414062 1.527344 22.300781 C 1.417969 22.1875 1.335938 22.058594 1.277344 21.914062 C 1.222656 21.765625 1.195312 21.617188 1.199219 21.460938 L 1.199219 9.402344 C 1.199219 9.246094 1.222656 9.09375 1.28125 8.949219 C 1.335938 8.800781 1.421875 8.671875 1.527344 8.558594 C 1.636719 8.445312 1.761719 8.355469 1.902344 8.292969 C 2.046875 8.230469 2.195312 8.195312 2.351562 8.191406 Z M 2.351562 8.191406 " fill-opacity="1" fill-rule="nonzero"/><path fill="#ffffff" d="M 4.335938 19.925781 L 7.046875 15.5 L 4.554688 11.128906 L 6.558594 11.128906 L 7.914062 13.921875 C 8.007812 14.125 8.09375 14.328125 8.167969 14.539062 C 8.253906 14.332031 8.355469 14.117188 8.457031 13.921875 L 9.886719 11.148438 L 11.726562 11.148438 L 9.199219 15.5 L 11.8125 19.917969 L 9.851562 19.917969 L 8.277344 16.875 C 8.207031 16.742188 8.140625 16.605469 8.082031 16.464844 C 8.035156 16.605469 7.972656 16.734375 7.898438 16.859375 L 6.289062 19.933594 Z M 4.335938 19.925781 " fill-opacity="1" fill-rule="nonzero"/></svg>