<svg xmlns="http://www.w3.org/2000/svg" xmlns:xlink="http://www.w3.org/1999/xlink" width="40" zoomAndPan="magnify" viewBox="0 0 30 30.000001" height="40" preserveAspectRatio="xMidYMid meet" version="1.0"><defs><filter x="0%" y="0%" width="100%" height="100%" id="47cfd5abb7"><feColorMatrix values="0 0 0 0 1 0 0 0 0 1 0 0 0 0 1 0 0 0 1 0" color-interpolation-filters="sRGB"/></filter><clipPath id="d85aa7906c"><path d="M 4 2 L 29.515625 2 L 29.515625 28 L 4 28 Z M 4 2 " clip-rule="nonzero"/></clipPath><clipPath id="efda99958e"><path d="M 16 2 L 29.515625 2 L 29.515625 16 L 16 16 Z M 16 2 " clip-rule="nonzero"/></clipPath><mask id="13bf76dea2"><g filter="url(#47cfd5abb7)"><rect x="-3" width="36" fill="#000000" y="-3" height="36.000001" fill-opacity="0.6667"/></g></mask><clipPath id="334c3eb118"><path d="M 0.199219 1 L 12.507812 1 L 12.507812 17 L 0.199219 17 Z M 0.199219 1 " clip-rule="nonzero"/></clipPath><clipPath id="11f3844b54"><path d="M 0.199219 4 L 12 4 L 12 19 L 0.199219 19 Z M 0.199219 4 " clip-rule="nonzero"/></clipPath><clipPath id="c4a1eb9637"><path d="M 0.199219 3 L 12 3 L 12 18 L 0.199219 18 Z M 0.199219 3 " clip-rule="nonzero"/></clipPath><clipPath id="7128dce88f"><path d="M 0.199219 2 L 12.507812 2 L 12.507812 17 L 0.199219 17 Z M 0.199219 2 " clip-rule="nonzero"/></clipPath><clipPath id="2227c21206"><path d="M 0.199219 2 L 12 2 L 12 18 L 0.199219 18 Z M 0.199219 2 " clip-rule="nonzero"/></clipPath><clipPath id="56943c1203"><path d="M 0.199219 1 L 12 1 L 12 16 L 0.199219 16 Z M 0.199219 1 " clip-rule="nonzero"/></clipPath><clipPath id="5993e333b7"><path d="M 0.199219 3 L 12 3 L 12 18 L 0.199219 18 Z M 0.199219 3 " clip-rule="nonzero"/></clipPath><clipPath id="b5a8b78d87"><path d="M 0.199219 2 L 12 2 L 12 17 L 0.199219 17 Z M 0.199219 2 " clip-rule="nonzero"/></clipPath><clipPath id="a58a4b9b05"><path d="M 0.199219 2 L 12 2 L 12 18 L 0.199219 18 Z M 0.199219 2 " clip-rule="nonzero"/></clipPath><clipPath id="5cdba7f559"><path d="M 0.199219 3 L 12 3 L 12 18 L 0.199219 18 Z M 0.199219 3 " clip-rule="nonzero"/></clipPath><clipPath id="899265b8f1"><path d="M 0.199219 2 L 12 2 L 12 17 L 0.199219 17 Z M 0.199219 2 " clip-rule="nonzero"/></clipPath><clipPath id="c4265f549b"><path d="M 0.199219 2 L 12 2 L 12 16 L 0.199219 16 Z M 0.199219 2 " clip-rule="nonzero"/></clipPath><clipPath id="68a1fedf50"><path d="M 0.199219 3 L 12 3 L 12 18 L 0.199219 18 Z M 0.199219 3 " clip-rule="nonzero"/></clipPath><clipPath id="84c2cc7886"><path d="M 0.199219 1 L 12 1 L 12 16 L 0.199219 16 Z M 0.199219 1 " clip-rule="nonzero"/></clipPath><clipPath id="421618fb25"><rect x="0" width="13" y="0" height="20"/></clipPath><clipPath id="38221ae8f5"><path d="M 0.484375 8 L 16 8 L 16 23 L 0.484375 23 Z M 0.484375 8 " clip-rule="nonzero"/></clipPath></defs><path fill="#ffffff" d="M 12.179688 11.5625 C 12.179688 11.945312 12.128906 12.320312 12.027344 12.691406 C 11.847656 13.425781 11.460938 14.03125 10.875 14.503906 C 10.570312 14.75 10.238281 14.9375 9.871094 15.066406 C 9.539062 15.183594 9.199219 15.25 8.847656 15.269531 L 7.800781 15.332031 L 7.800781 18.765625 L 5.226562 18.464844 L 5.226562 8.308594 L 7.027344 8.179688 C 7.640625 8.136719 8.226562 8.113281 8.839844 8.113281 C 9.816406 8.039062 10.652344 8.34375 11.355469 9.023438 C 11.96875 9.757812 12.242188 10.605469 12.179688 11.5625 Z M 12.992188 5.265625 L 24.660156 5.265625 L 24.660156 21.566406 L 13.007812 21.566406 Z M 12.992188 5.265625 " fill-opacity="1" fill-rule="nonzero"/><g clip-path="url(#d85aa7906c)"><path fill="#d35230" d="M 16.945312 2.777344 C 17.765625 2.773438 18.574219 2.851562 19.375 3.011719 C 20.175781 3.167969 20.957031 3.40625 21.710938 3.714844 C 22.464844 4.027344 23.183594 4.410156 23.863281 4.863281 C 24.542969 5.3125 25.171875 5.828125 25.75 6.402344 C 26.328125 6.980469 26.84375 7.605469 27.300781 8.285156 C 27.753906 8.960938 28.136719 9.679688 28.449219 10.429688 C 28.761719 11.183594 29 11.960938 29.160156 12.757812 C 29.316406 13.558594 29.398438 14.367188 29.398438 15.183594 C 29.398438 15.996094 29.320312 16.804688 29.160156 17.605469 C 29 18.402344 28.765625 19.179688 28.453125 19.933594 C 28.140625 20.6875 27.757812 21.402344 27.304688 22.082031 C 26.847656 22.757812 26.332031 23.386719 25.753906 23.964844 C 25.179688 24.539062 24.550781 25.054688 23.871094 25.507812 C 23.191406 25.960938 22.472656 26.34375 21.71875 26.65625 C 20.960938 26.96875 20.183594 27.203125 19.382812 27.363281 C 18.582031 27.523438 17.773438 27.601562 16.953125 27.601562 C 16.136719 27.601562 15.328125 27.523438 14.527344 27.363281 C 13.722656 27.203125 12.945312 26.96875 12.191406 26.65625 C 11.4375 26.34375 10.71875 25.960938 10.039062 25.507812 C 9.359375 25.054688 8.730469 24.539062 8.152344 23.964844 C 7.574219 23.386719 7.058594 22.757812 6.605469 22.082031 C 6.152344 21.402344 5.769531 20.6875 5.457031 19.933594 C 5.144531 19.179688 4.90625 18.402344 4.75 17.605469 C 4.589844 16.804688 4.511719 15.996094 4.511719 15.183594 C 4.511719 14.367188 4.589844 13.5625 4.75 12.761719 C 4.910156 11.964844 5.148438 11.1875 5.460938 10.433594 C 5.773438 9.683594 6.15625 8.96875 6.609375 8.292969 C 7.0625 7.613281 7.578125 6.988281 8.15625 6.410156 C 8.734375 5.835938 9.359375 5.320312 10.039062 4.867188 C 10.71875 4.417969 11.433594 4.035156 12.1875 3.722656 C 12.941406 3.410156 13.722656 3.175781 14.519531 3.015625 C 15.320312 2.855469 16.128906 2.777344 16.945312 2.777344 Z M 16.945312 2.777344 " fill-opacity="1" fill-rule="nonzero"/></g><path fill="#ed6c47" d="M 16.945312 2.777344 C 16.128906 2.777344 15.320312 2.859375 14.519531 3.019531 C 13.71875 3.179688 12.941406 3.414062 12.1875 3.726562 C 11.433594 4.039062 10.71875 4.421875 10.039062 4.875 C 9.359375 5.328125 8.730469 5.839844 8.15625 6.417969 C 7.578125 6.992188 7.0625 7.621094 6.609375 8.296875 C 6.152344 8.976562 5.769531 9.691406 5.457031 10.441406 C 5.144531 11.195312 4.90625 11.96875 4.746094 12.769531 C 4.585938 13.566406 4.503906 14.375 4.503906 15.1875 L 16.945312 15.1875 Z M 16.945312 2.777344 " fill-opacity="1" fill-rule="nonzero"/><g clip-path="url(#efda99958e)"><path fill="#ff8f6b" d="M 16.945312 2.777344 C 17.765625 2.777344 18.574219 2.859375 19.375 3.019531 C 20.175781 3.175781 20.953125 3.414062 21.707031 3.726562 C 22.460938 4.039062 23.179688 4.421875 23.855469 4.875 C 24.535156 5.328125 25.164062 5.839844 25.742188 6.417969 C 26.320312 6.992188 26.835938 7.621094 27.289062 8.296875 C 27.746094 8.972656 28.128906 9.6875 28.441406 10.441406 C 28.753906 11.195312 28.992188 11.96875 29.152344 12.769531 C 29.316406 13.566406 29.394531 14.375 29.398438 15.1875 L 16.945312 15.1875 Z M 16.945312 2.777344 " fill-opacity="1" fill-rule="nonzero"/></g><g mask="url(#13bf76dea2)"><g transform="matrix(1, 0, 0, 1, 4, 6)"><g clip-path="url(#421618fb25)"><g clip-path="url(#334c3eb118)"><path fill="#000000" d="M 2.914062 16.542969 L 11.527344 16.542969 C 11.652344 16.550781 11.773438 16.535156 11.890625 16.496094 C 12.007812 16.457031 12.113281 16.394531 12.207031 16.308594 C 12.296875 16.226562 12.371094 16.128906 12.421875 16.015625 C 12.476562 15.902344 12.503906 15.78125 12.507812 15.65625 L 12.507812 2.707031 C 12.5 2.453125 12.402344 2.238281 12.21875 2.066406 C 12.035156 1.894531 11.816406 1.8125 11.5625 1.820312 L 2.90625 1.820312 C 1.808594 3.285156 1.074219 4.914062 0.707031 6.707031 L 0.707031 11.644531 C 1.070312 13.453125 1.808594 15.097656 2.914062 16.578125 Z M 2.914062 16.542969 " fill-opacity="0.0471" fill-rule="nonzero"/></g><g clip-path="url(#11f3844b54)"><path fill="#000000" d="M 4.652344 18.40625 L 9.832031 18.40625 C 10.550781 18.40625 11.070312 16.917969 11.070312 16.25 L 11.070312 5.316406 C 11.058594 5.160156 11.019531 5.011719 10.953125 4.871094 C 10.882812 4.730469 10.792969 4.609375 10.675781 4.503906 C 10.5625 4.394531 10.429688 4.316406 10.285156 4.257812 C 10.140625 4.199219 9.988281 4.171875 9.832031 4.171875 L 1.578125 4.171875 C 1.3125 4.769531 1.097656 5.378906 0.929688 6.007812 C 0.761719 6.636719 0.644531 7.273438 0.578125 7.921875 C 0.511719 8.570312 0.496094 9.21875 0.53125 9.867188 C 0.566406 10.515625 0.65625 11.160156 0.792969 11.792969 C 0.929688 12.429688 1.117188 13.050781 1.355469 13.65625 C 1.59375 14.265625 1.875 14.847656 2.207031 15.410156 C 2.535156 15.972656 2.90625 16.503906 3.320312 17.003906 C 3.734375 17.507812 4.183594 17.976562 4.671875 18.40625 Z M 4.652344 18.40625 " fill-opacity="0.098" fill-rule="nonzero"/></g><g clip-path="url(#c4a1eb9637)"><path fill="#000000" d="M 3.851562 17.585938 L 9.867188 17.585938 C 10.183594 17.578125 10.457031 17.464844 10.683594 17.246094 C 10.914062 17.03125 11.039062 16.765625 11.0625 16.449219 L 11.0625 4.496094 C 11.050781 4.339844 11.011719 4.191406 10.945312 4.050781 C 10.875 3.910156 10.785156 3.789062 10.667969 3.683594 C 10.554688 3.574219 10.421875 3.496094 10.277344 3.4375 C 10.132812 3.378906 9.980469 3.351562 9.824219 3.351562 L 1.976562 3.351562 C 1.671875 3.917969 1.417969 4.5 1.207031 5.105469 C 0.996094 5.710938 0.832031 6.328125 0.71875 6.957031 C 0.601562 7.585938 0.539062 8.21875 0.523438 8.859375 C 0.503906 9.5 0.539062 10.136719 0.625 10.769531 C 0.707031 11.40625 0.839844 12.027344 1.019531 12.640625 C 1.199219 13.253906 1.429688 13.851562 1.703125 14.429688 C 1.976562 15.007812 2.292969 15.5625 2.652344 16.09375 C 3.015625 16.621094 3.414062 17.121094 3.851562 17.585938 Z M 3.851562 17.585938 " fill-opacity="0.2" fill-rule="nonzero"/></g><g clip-path="url(#7128dce88f)"><path fill="#000000" d="M 3.164062 16.824219 L 11.203125 16.824219 C 11.457031 16.832031 11.675781 16.75 11.859375 16.578125 C 12.046875 16.40625 12.144531 16.191406 12.152344 15.9375 L 12.152344 2.984375 C 12.148438 2.730469 12.050781 2.515625 11.867188 2.339844 C 11.683594 2.160156 11.464844 2.074219 11.207031 2.078125 L 2.738281 2.078125 C 2.359375 2.621094 2.023438 3.1875 1.734375 3.78125 C 1.445312 4.375 1.203125 4.988281 1.011719 5.621094 C 0.820312 6.25 0.683594 6.894531 0.597656 7.550781 C 0.507812 8.203125 0.476562 8.863281 0.496094 9.523438 C 0.511719 10.183594 0.585938 10.835938 0.710938 11.484375 C 0.835938 12.132812 1.011719 12.769531 1.238281 13.390625 C 1.464844 14.007812 1.738281 14.609375 2.0625 15.183594 C 2.386719 15.761719 2.753906 16.308594 3.164062 16.824219 Z M 3.164062 16.824219 " fill-opacity="0.098" fill-rule="nonzero"/></g><g clip-path="url(#2227c21206)"><path fill="#000000" d="M 3.128906 17.054688 L 10.976562 17.054688 C 11.503906 17.054688 11.921875 15.894531 11.921875 15.398438 L 11.921875 3.375 C 11.914062 3.121094 11.820312 2.910156 11.632812 2.738281 C 11.449219 2.5625 11.230469 2.480469 10.976562 2.488281 L 2.320312 2.488281 C 1.964844 3.035156 1.65625 3.605469 1.390625 4.203125 C 1.125 4.796875 0.90625 5.410156 0.738281 6.039062 C 0.570312 6.667969 0.453125 7.308594 0.386719 7.957031 C 0.320312 8.605469 0.304688 9.253906 0.339844 9.902344 C 0.375 10.554688 0.460938 11.199219 0.601562 11.835938 C 0.738281 12.472656 0.925781 13.09375 1.164062 13.699219 C 1.398438 14.308594 1.683594 14.890625 2.011719 15.453125 C 2.34375 16.015625 2.714844 16.550781 3.128906 17.054688 Z M 3.128906 17.054688 " fill-opacity="0.098" fill-rule="nonzero"/></g><g clip-path="url(#56943c1203)"><path fill="#000000" d="M 2.019531 15.109375 L 9.144531 14.390625 C 9.664062 14.390625 11.0625 13.96875 11.0625 13.476562 L 11.0625 2.332031 C 11.054688 2.078125 10.960938 1.863281 10.777344 1.691406 C 10.59375 1.515625 10.371094 1.433594 10.121094 1.4375 L 3.253906 1.4375 C 2.480469 2.390625 1.867188 3.429688 1.40625 4.5625 C 0.945312 5.695312 0.660156 6.871094 0.546875 8.085938 C 0.4375 9.304688 0.507812 10.511719 0.757812 11.707031 C 1.007812 12.902344 1.425781 14.039062 2.011719 15.109375 Z M 2.019531 15.109375 " fill-opacity="0.0078" fill-rule="nonzero"/></g><g clip-path="url(#5993e333b7)"><path fill="#000000" d="M 4.183594 17.984375 L 9.832031 17.984375 C 9.988281 17.980469 10.136719 17.953125 10.28125 17.898438 C 10.425781 17.839844 10.554688 17.757812 10.667969 17.652344 C 10.785156 17.546875 10.875 17.425781 10.941406 17.285156 C 11.011719 17.148438 11.050781 17 11.0625 16.84375 L 11.0625 4.871094 C 11.050781 4.714844 11.011719 4.566406 10.945312 4.425781 C 10.875 4.285156 10.785156 4.160156 10.667969 4.054688 C 10.554688 3.949219 10.421875 3.867188 10.277344 3.8125 C 10.132812 3.753906 9.980469 3.726562 9.824219 3.726562 L 1.789062 3.726562 C 1.5 4.304688 1.261719 4.898438 1.066406 5.515625 C 0.875 6.128906 0.730469 6.753906 0.636719 7.394531 C 0.542969 8.03125 0.5 8.671875 0.503906 9.316406 C 0.511719 9.960938 0.566406 10.597656 0.675781 11.234375 C 0.78125 11.871094 0.9375 12.492188 1.140625 13.105469 C 1.347656 13.714844 1.597656 14.304688 1.894531 14.878906 C 2.195312 15.449219 2.535156 15.992188 2.917969 16.511719 C 3.300781 17.03125 3.722656 17.515625 4.183594 17.96875 Z M 4.183594 17.984375 " fill-opacity="0.2" fill-rule="nonzero"/></g><g clip-path="url(#b5a8b78d87)"><path fill="#000000" d="M 2.871094 16.433594 L 9.832031 16.433594 C 9.988281 16.433594 10.136719 16.40625 10.28125 16.347656 C 10.429688 16.292969 10.558594 16.210938 10.671875 16.105469 C 10.785156 15.996094 10.878906 15.875 10.945312 15.734375 C 11.011719 15.59375 11.050781 15.445312 11.0625 15.292969 L 11.0625 3.632812 C 11.050781 3.476562 11.011719 3.332031 10.941406 3.191406 C 10.875 3.050781 10.78125 2.929688 10.667969 2.824219 C 10.550781 2.71875 10.421875 2.636719 10.277344 2.582031 C 10.128906 2.523438 9.980469 2.496094 9.824219 2.496094 L 2.515625 2.496094 C 2.175781 3.015625 1.878906 3.554688 1.621094 4.121094 C 1.367188 4.683594 1.152344 5.261719 0.984375 5.859375 C 0.816406 6.453125 0.691406 7.058594 0.617188 7.675781 C 0.539062 8.289062 0.507812 8.90625 0.527344 9.523438 C 0.542969 10.144531 0.605469 10.757812 0.714844 11.367188 C 0.824219 11.976562 0.980469 12.574219 1.179688 13.160156 C 1.382812 13.746094 1.625 14.3125 1.910156 14.863281 C 2.199219 15.410156 2.523438 15.933594 2.890625 16.433594 Z M 2.871094 16.433594 " fill-opacity="0.298" fill-rule="nonzero"/><path fill="#000000" d="M 2.820312 16.371094 L 9.832031 16.371094 C 9.988281 16.371094 10.140625 16.339844 10.285156 16.285156 C 10.429688 16.226562 10.5625 16.144531 10.675781 16.039062 C 10.792969 15.929688 10.882812 15.804688 10.953125 15.664062 C 11.019531 15.523438 11.058594 15.375 11.070312 15.21875 L 11.070312 3.632812 C 11.058594 3.476562 11.019531 3.332031 10.949219 3.191406 C 10.882812 3.050781 10.789062 2.929688 10.675781 2.824219 C 10.558594 2.71875 10.429688 2.636719 10.285156 2.582031 C 10.136719 2.523438 9.988281 2.496094 9.832031 2.496094 L 2.515625 2.496094 C 1.839844 3.535156 1.328125 4.648438 0.988281 5.839844 C 0.648438 7.03125 0.492188 8.246094 0.519531 9.484375 C 0.550781 10.71875 0.761719 11.925781 1.15625 13.101562 C 1.550781 14.273438 2.109375 15.363281 2.832031 16.371094 Z M 2.820312 16.371094 " fill-opacity="0.298" fill-rule="nonzero"/></g><g clip-path="url(#a58a4b9b05)"><path fill="#000000" d="M 3.308594 17.019531 L 9.800781 17.019531 C 9.960938 17.019531 10.113281 16.996094 10.261719 16.941406 C 10.410156 16.882812 10.542969 16.804688 10.660156 16.695312 C 10.777344 16.589844 10.871094 16.464844 10.941406 16.324219 C 11.011719 16.183594 11.050781 16.03125 11.0625 15.875 L 11.0625 3.929688 C 11.050781 3.773438 11.011719 3.625 10.945312 3.484375 C 10.875 3.339844 10.785156 3.21875 10.671875 3.109375 C 10.554688 3.003906 10.425781 2.921875 10.277344 2.863281 C 10.132812 2.808594 9.980469 2.777344 9.824219 2.777344 L 2.3125 2.777344 C 1.984375 3.320312 1.695312 3.886719 1.449219 4.472656 C 1.207031 5.058594 1.007812 5.660156 0.859375 6.277344 C 0.707031 6.894531 0.605469 7.523438 0.550781 8.15625 C 0.496094 8.789062 0.492188 9.421875 0.535156 10.054688 C 0.582031 10.691406 0.675781 11.316406 0.816406 11.9375 C 0.957031 12.554688 1.144531 13.160156 1.378906 13.753906 C 1.617188 14.34375 1.894531 14.910156 2.21875 15.460938 C 2.542969 16.007812 2.90625 16.527344 3.308594 17.019531 Z M 3.308594 17.019531 " fill-opacity="0.298" fill-rule="nonzero"/></g><g clip-path="url(#5cdba7f559)"><path fill="#000000" d="M 3.546875 17.285156 L 9.832031 17.285156 C 9.988281 17.285156 10.136719 17.257812 10.28125 17.199219 C 10.425781 17.144531 10.558594 17.0625 10.671875 16.957031 C 10.785156 16.851562 10.878906 16.730469 10.945312 16.589844 C 11.011719 16.449219 11.050781 16.300781 11.0625 16.148438 L 11.0625 4.195312 C 11.050781 4.039062 11.011719 3.890625 10.945312 3.75 C 10.875 3.609375 10.785156 3.484375 10.667969 3.378906 C 10.554688 3.273438 10.421875 3.191406 10.277344 3.136719 C 10.132812 3.078125 9.980469 3.050781 9.824219 3.050781 L 2.15625 3.050781 C 1.835938 3.601562 1.5625 4.175781 1.332031 4.769531 C 1.101562 5.363281 0.917969 5.972656 0.78125 6.597656 C 0.648438 7.21875 0.5625 7.847656 0.523438 8.484375 C 0.488281 9.121094 0.5 9.757812 0.5625 10.390625 C 0.625 11.023438 0.734375 11.652344 0.894531 12.269531 C 1.054688 12.882812 1.261719 13.484375 1.511719 14.070312 C 1.765625 14.65625 2.0625 15.21875 2.40625 15.757812 C 2.746094 16.296875 3.128906 16.804688 3.546875 17.285156 Z M 3.546875 17.285156 " fill-opacity="0.2" fill-rule="nonzero"/></g><g clip-path="url(#899265b8f1)"><path fill="#000000" d="M 2.925781 16.78125 L 10.863281 16.78125 C 11.390625 16.78125 11.808594 15.917969 11.808594 15.429688 L 11.808594 3.828125 C 11.800781 3.574219 11.703125 3.363281 11.519531 3.191406 C 11.335938 3.015625 11.117188 2.933594 10.863281 2.941406 L 2.070312 2.941406 C 1.429688 4.003906 0.964844 5.136719 0.667969 6.339844 C 0.375 7.539062 0.265625 8.757812 0.34375 9.996094 C 0.421875 11.230469 0.679688 12.425781 1.121094 13.582031 C 1.558594 14.742188 2.164062 15.804688 2.925781 16.78125 Z M 2.925781 16.78125 " fill-opacity="0.098" fill-rule="nonzero"/><path fill="#000000" d="M 2.890625 16.457031 L 10.34375 16.457031 C 10.59375 16.46875 10.8125 16.386719 11 16.214844 C 11.183594 16.042969 11.28125 15.832031 11.289062 15.578125 L 11.289062 3.785156 C 11.28125 3.53125 11.183594 3.320312 11 3.148438 C 10.816406 2.972656 10.597656 2.890625 10.34375 2.898438 L 2.269531 2.898438 C 1.644531 3.933594 1.183594 5.035156 0.886719 6.207031 C 0.589844 7.378906 0.46875 8.566406 0.523438 9.773438 C 0.578125 10.976562 0.808594 12.152344 1.210938 13.289062 C 1.613281 14.429688 2.175781 15.484375 2.890625 16.457031 Z M 2.890625 16.457031 " fill-opacity="0.2" fill-rule="nonzero"/></g><g clip-path="url(#c4265f549b)"><path fill="#000000" d="M 2.558594 15.980469 L 10.429688 15.980469 C 10.683594 15.988281 10.902344 15.90625 11.085938 15.734375 C 11.269531 15.5625 11.367188 15.347656 11.375 15.097656 L 11.375 3.375 C 11.375 2.847656 10.097656 2.554688 9.933594 2.402344 C 9.519531 2.199219 9.082031 2.09375 8.617188 2.09375 L 2.710938 2.09375 C 2 3.109375 1.457031 4.207031 1.078125 5.386719 C 0.699219 6.566406 0.503906 7.777344 0.492188 9.015625 C 0.476562 10.253906 0.648438 11.464844 1 12.652344 C 1.351562 13.839844 1.871094 14.949219 2.558594 15.980469 Z M 2.558594 15.980469 " fill-opacity="0.298" fill-rule="nonzero"/></g><g clip-path="url(#68a1fedf50)"><path fill="#000000" d="M 3.640625 17.390625 L 10.710938 17.390625 C 10.964844 17.398438 11.183594 17.3125 11.363281 17.140625 C 11.546875 16.964844 11.644531 16.753906 11.648438 16.5 L 11.648438 4.417969 C 11.640625 4.167969 11.546875 3.957031 11.363281 3.789062 C 11.183594 3.617188 10.96875 3.535156 10.71875 3.539062 L 1.894531 3.539062 C 1.609375 4.089844 1.367188 4.660156 1.164062 5.246094 C 0.964844 5.832031 0.808594 6.429688 0.699219 7.039062 C 0.589844 7.652344 0.527344 8.265625 0.511719 8.886719 C 0.496094 9.503906 0.527344 10.121094 0.605469 10.738281 C 0.683594 11.351562 0.804688 11.957031 0.972656 12.554688 C 1.144531 13.152344 1.359375 13.730469 1.613281 14.296875 C 1.871094 14.859375 2.171875 15.402344 2.511719 15.921875 C 2.851562 16.441406 3.226562 16.929688 3.640625 17.390625 Z M 3.640625 17.390625 " fill-opacity="0.098" fill-rule="nonzero"/></g><g clip-path="url(#84c2cc7886)"><path fill="#000000" d="M 2.164062 15.339844 L 9.144531 14.621094 C 9.664062 14.621094 11.0625 14.199219 11.0625 13.707031 L 11.0625 2.582031 C 11.0625 2.460938 11.039062 2.339844 10.988281 2.226562 C 10.941406 2.113281 10.871094 2.015625 10.785156 1.929688 C 10.695312 1.84375 10.59375 1.777344 10.476562 1.730469 C 10.363281 1.6875 10.242188 1.667969 10.121094 1.667969 L 3.066406 1.667969 C 2.316406 2.636719 1.726562 3.6875 1.292969 4.828125 C 0.863281 5.972656 0.605469 7.152344 0.523438 8.367188 C 0.445312 9.585938 0.542969 10.789062 0.824219 11.976562 C 1.101562 13.164062 1.546875 14.285156 2.164062 15.339844 Z M 2.164062 15.339844 " fill-opacity="0.098" fill-rule="nonzero"/><path fill="#000000" d="M 2.292969 15.550781 L 9.144531 14.832031 C 9.664062 14.832031 11.0625 14.40625 11.0625 13.917969 L 11.0625 3.84375 C 11.0625 3.347656 10.175781 1.886719 9.203125 1.886719 L 2.898438 1.886719 C 2.167969 2.863281 1.601562 3.925781 1.191406 5.078125 C 0.78125 6.226562 0.546875 7.410156 0.492188 8.625 C 0.4375 9.84375 0.5625 11.042969 0.867188 12.226562 C 1.171875 13.40625 1.640625 14.515625 2.277344 15.558594 Z M 2.292969 15.550781 " fill-opacity="0.149" fill-rule="nonzero"/></g></g></g></g><g clip-path="url(#38221ae8f5)"><path fill="#c43e1c" d="M 2.128906 8.09375 L 13.980469 8.09375 C 14.140625 8.09375 14.292969 8.125 14.4375 8.183594 C 14.582031 8.246094 14.710938 8.328125 14.824219 8.441406 C 14.9375 8.550781 15.023438 8.679688 15.082031 8.828125 C 15.140625 8.972656 15.171875 9.125 15.171875 9.28125 L 15.171875 21.105469 C 15.171875 21.261719 15.140625 21.414062 15.082031 21.558594 C 15.019531 21.703125 14.933594 21.832031 14.824219 21.941406 C 14.710938 22.050781 14.582031 22.136719 14.4375 22.195312 C 14.292969 22.257812 14.140625 22.285156 13.980469 22.285156 L 2.128906 22.285156 C 1.972656 22.285156 1.820312 22.257812 1.675781 22.195312 C 1.53125 22.136719 1.402344 22.050781 1.292969 21.941406 C 1.179688 21.828125 1.09375 21.703125 1.035156 21.558594 C 0.976562 21.410156 0.945312 21.261719 0.949219 21.105469 L 0.949219 9.28125 C 0.945312 9.125 0.976562 8.972656 1.035156 8.828125 C 1.09375 8.683594 1.179688 8.554688 1.292969 8.441406 C 1.402344 8.332031 1.53125 8.246094 1.675781 8.183594 C 1.820312 8.125 1.972656 8.09375 2.128906 8.09375 Z M 2.128906 8.09375 " fill-opacity="1" fill-rule="nonzero"/></g><path fill="#f9f7f7" d="M 8.089844 10.757812 C 9.003906 10.691406 9.828125 10.929688 10.5625 11.476562 C 11.179688 12.027344 11.464844 12.714844 11.414062 13.539062 C 11.425781 14.066406 11.285156 14.546875 10.988281 14.980469 C 10.691406 15.445312 10.296875 15.792969 9.796875 16.03125 C 9.230469 16.292969 8.628906 16.417969 8.003906 16.40625 L 6.300781 16.40625 L 6.300781 19.613281 L 4.5625 19.613281 L 4.5625 10.757812 Z M 6.277344 14.910156 L 7.777344 14.910156 C 8.269531 14.9375 8.710938 14.808594 9.105469 14.511719 C 9.433594 14.296875 9.582031 13.996094 9.554688 13.605469 C 9.554688 12.621094 8.984375 12.167969 7.835938 12.167969 L 6.277344 12.167969 Z M 6.277344 14.910156 " fill-opacity="1" fill-rule="nonzero"/></svg>