<svg xmlns="http://www.w3.org/2000/svg" xmlns:xlink="http://www.w3.org/1999/xlink" width="40" zoomAndPan="magnify" viewBox="0 0 30 30.000001" height="40" preserveAspectRatio="xMidYMid meet" version="1.0"><defs><filter x="0%" y="0%" width="100%" height="100%" id="50bbbe8dcf"><feColorMatrix values="0 0 0 0 1 0 0 0 0 1 0 0 0 0 1 0 0 0 1 0" color-interpolation-filters="sRGB"/></filter><clipPath id="a1f6dc519e"><path d="M 20 10 L 29.515625 10 L 29.515625 24 L 20 24 Z M 20 10 " clip-rule="nonzero"/></clipPath><mask id="54edf4c30f"><g filter="url(#50bbbe8dcf)"><rect x="-3" width="36" fill="#000000" y="-3" height="36.000001" fill-opacity="0.6667"/></g></mask><clipPath id="665f4a61f3"><path d="M 0.148438 4 L 8 4 L 8 17.921875 L 0.148438 17.921875 Z M 0.148438 4 " clip-rule="nonzero"/></clipPath><clipPath id="edbb5c70ac"><path d="M 0.148438 4 L 8 4 L 8 17 L 0.148438 17 Z M 0.148438 4 " clip-rule="nonzero"/></clipPath><clipPath id="a20e532637"><path d="M 0.148438 4 L 9 4 L 9 17 L 0.148438 17 Z M 0.148438 4 " clip-rule="nonzero"/></clipPath><clipPath id="ef856a5eab"><path d="M 0.148438 4 L 9 4 L 9 17 L 0.148438 17 Z M 0.148438 4 " clip-rule="nonzero"/></clipPath><clipPath id="02e5df5f70"><path d="M 3 0.0390625 L 8 0.0390625 L 8 4 L 3 4 Z M 3 0.0390625 " clip-rule="nonzero"/></clipPath><clipPath id="f7df758366"><path d="M 0.148438 4 L 8 4 L 8 15 L 0.148438 15 Z M 0.148438 4 " clip-rule="nonzero"/></clipPath><clipPath id="71fafc1bfb"><path d="M 0.148438 4 L 8 4 L 8 17.921875 L 0.148438 17.921875 Z M 0.148438 4 " clip-rule="nonzero"/></clipPath><clipPath id="cc81de8051"><path d="M 0.148438 4 L 8 4 L 8 16 L 0.148438 16 Z M 0.148438 4 " clip-rule="nonzero"/></clipPath><clipPath id="e918b6e3db"><path d="M 0.148438 4 L 8 4 L 8 16 L 0.148438 16 Z M 0.148438 4 " clip-rule="nonzero"/></clipPath><clipPath id="c0b25c8762"><path d="M 0.148438 4 L 8 4 L 8 17 L 0.148438 17 Z M 0.148438 4 " clip-rule="nonzero"/></clipPath><clipPath id="0d668982c1"><path d="M 0.148438 4 L 8 4 L 8 17 L 0.148438 17 Z M 0.148438 4 " clip-rule="nonzero"/></clipPath><clipPath id="fa0e6ca454"><path d="M 0.148438 4 L 9 4 L 9 16 L 0.148438 16 Z M 0.148438 4 " clip-rule="nonzero"/></clipPath><clipPath id="e65148ce8b"><path d="M 0.148438 4 L 8 4 L 8 16 L 0.148438 16 Z M 0.148438 4 " clip-rule="nonzero"/></clipPath><clipPath id="31802bdf2a"><path d="M 0.148438 4 L 8 4 L 8 16 L 0.148438 16 Z M 0.148438 4 " clip-rule="nonzero"/></clipPath><clipPath id="6ca7eb1acd"><path d="M 0.148438 4 L 8 4 L 8 17 L 0.148438 17 Z M 0.148438 4 " clip-rule="nonzero"/></clipPath><clipPath id="1d9fd379b5"><path d="M 0.148438 4 L 8 4 L 8 15 L 0.148438 15 Z M 0.148438 4 " clip-rule="nonzero"/></clipPath><clipPath id="ad929508b2"><path d="M 4 0.0390625 L 8 0.0390625 L 8 4 L 4 4 Z M 4 0.0390625 " clip-rule="nonzero"/></clipPath><clipPath id="ec49ec499d"><path d="M 0.148438 4 L 8 4 L 8 15 L 0.148438 15 Z M 0.148438 4 " clip-rule="nonzero"/></clipPath><clipPath id="a4a9c2f5dd"><rect x="0" width="10" y="0" height="18"/></clipPath></defs><g clip-path="url(#a1f6dc519e)"><path fill="#5059c9" d="M 28.089844 10.710938 L 21.199219 10.710938 C 20.46875 10.710938 20.636719 11.335938 20.636719 12.066406 L 20.636719 18.777344 C 20.636719 19.066406 20.664062 19.351562 20.71875 19.636719 C 20.777344 19.917969 20.859375 20.195312 20.96875 20.460938 C 21.078125 20.726562 21.214844 20.980469 21.375 21.21875 C 21.535156 21.457031 21.714844 21.679688 21.921875 21.882812 C 22.125 22.089844 22.34375 22.269531 22.585938 22.429688 C 22.824219 22.589844 23.078125 22.726562 23.34375 22.835938 C 23.609375 22.945312 23.882812 23.03125 24.164062 23.085938 C 24.449219 23.144531 24.734375 23.171875 25.023438 23.171875 C 25.308594 23.171875 25.59375 23.144531 25.878906 23.085938 C 26.160156 23.03125 26.433594 22.945312 26.699219 22.835938 C 26.964844 22.726562 27.21875 22.589844 27.457031 22.429688 C 27.699219 22.269531 27.917969 22.089844 28.121094 21.882812 C 28.328125 21.679688 28.507812 21.457031 28.667969 21.21875 C 28.828125 20.980469 28.964844 20.726562 29.074219 20.460938 C 29.183594 20.195312 29.265625 19.917969 29.324219 19.636719 C 29.378906 19.351562 29.40625 19.066406 29.40625 18.777344 L 29.40625 12.066406 C 29.410156 11.890625 29.378906 11.71875 29.3125 11.554688 C 29.25 11.386719 29.152344 11.242188 29.03125 11.117188 C 28.90625 10.988281 28.765625 10.890625 28.601562 10.820312 C 28.4375 10.75 28.269531 10.714844 28.089844 10.710938 L 28.054688 10.710938 Z M 28.089844 10.710938 " fill-opacity="1" fill-rule="nonzero"/></g><path fill="#5059c9" d="M 27.945312 6.445312 C 27.945312 6.84375 27.871094 7.226562 27.722656 7.597656 C 27.574219 7.964844 27.359375 8.289062 27.085938 8.570312 C 26.808594 8.855469 26.492188 9.070312 26.132812 9.222656 C 25.769531 9.375 25.398438 9.453125 25.007812 9.453125 C 24.617188 9.453125 24.242188 9.375 23.882812 9.222656 C 23.523438 9.070312 23.203125 8.855469 22.929688 8.570312 C 22.652344 8.289062 22.441406 7.964844 22.292969 7.597656 C 22.144531 7.226562 22.070312 6.84375 22.070312 6.445312 C 22.070312 6.046875 22.144531 5.660156 22.292969 5.292969 C 22.441406 4.925781 22.652344 4.597656 22.929688 4.316406 C 23.203125 4.035156 23.523438 3.816406 23.882812 3.664062 C 24.242188 3.511719 24.617188 3.4375 25.007812 3.4375 C 25.398438 3.4375 25.769531 3.511719 26.132812 3.664062 C 26.492188 3.816406 26.808594 4.035156 27.085938 4.316406 C 27.359375 4.597656 27.574219 4.925781 27.722656 5.292969 C 27.871094 5.660156 27.945312 6.046875 27.945312 6.445312 Z M 27.945312 6.445312 " fill-opacity="1" fill-rule="nonzero"/><path fill="#7b83eb" d="M 10.175781 10.710938 L 21.628906 10.710938 C 21.808594 10.714844 21.976562 10.75 22.140625 10.820312 C 22.304688 10.890625 22.449219 10.988281 22.570312 11.113281 C 22.695312 11.242188 22.789062 11.386719 22.855469 11.554688 C 22.921875 11.71875 22.953125 11.890625 22.953125 12.066406 L 22.953125 20.28125 C 22.957031 20.75 22.917969 21.214844 22.832031 21.675781 C 22.742188 22.136719 22.613281 22.582031 22.4375 23.019531 C 22.265625 23.453125 22.046875 23.867188 21.792969 24.257812 C 21.535156 24.652344 21.246094 25.015625 20.917969 25.351562 C 20.589844 25.6875 20.234375 25.984375 19.847656 26.25 C 19.460938 26.515625 19.050781 26.738281 18.621094 26.921875 C 18.191406 27.109375 17.746094 27.246094 17.289062 27.34375 C 16.832031 27.441406 16.367188 27.492188 15.898438 27.496094 C 15.429688 27.492188 14.96875 27.441406 14.511719 27.34375 C 14.054688 27.25 13.609375 27.109375 13.179688 26.925781 C 12.75 26.738281 12.339844 26.515625 11.957031 26.25 C 11.570312 25.988281 11.210938 25.6875 10.886719 25.351562 C 10.558594 25.019531 10.265625 24.65625 10.011719 24.261719 C 9.753906 23.871094 9.539062 23.457031 9.367188 23.023438 C 9.191406 22.585938 9.0625 22.140625 8.976562 21.679688 C 8.886719 21.21875 8.847656 20.753906 8.851562 20.285156 L 8.851562 12.066406 C 8.847656 11.890625 8.878906 11.71875 8.945312 11.554688 C 9.011719 11.386719 9.105469 11.242188 9.230469 11.117188 C 9.351562 10.988281 9.496094 10.890625 9.660156 10.820312 C 9.820312 10.75 9.992188 10.714844 10.167969 10.710938 Z M 10.175781 10.710938 " fill-opacity="1" fill-rule="nonzero"/><path fill="#7b83eb" d="M 20.015625 5.246094 C 20.015625 5.519531 19.988281 5.792969 19.933594 6.066406 C 19.882812 6.335938 19.804688 6.597656 19.699219 6.855469 C 19.597656 7.109375 19.472656 7.351562 19.320312 7.582031 C 19.171875 7.8125 19 8.023438 18.808594 8.21875 C 18.617188 8.414062 18.410156 8.589844 18.183594 8.742188 C 17.960938 8.898438 17.722656 9.027344 17.472656 9.132812 C 17.222656 9.238281 16.96875 9.320312 16.703125 9.371094 C 16.4375 9.425781 16.167969 9.453125 15.898438 9.453125 C 15.628906 9.453125 15.359375 9.425781 15.097656 9.371094 C 14.832031 9.320312 14.574219 9.238281 14.324219 9.132812 C 14.074219 9.027344 13.835938 8.898438 13.613281 8.742188 C 13.386719 8.589844 13.179688 8.414062 12.988281 8.21875 C 12.796875 8.023438 12.628906 7.8125 12.476562 7.582031 C 12.328125 7.351562 12.199219 7.109375 12.097656 6.855469 C 11.992188 6.597656 11.914062 6.335938 11.863281 6.066406 C 11.808594 5.792969 11.785156 5.519531 11.785156 5.246094 C 11.785156 4.96875 11.808594 4.695312 11.863281 4.421875 C 11.914062 4.152344 11.992188 3.890625 12.097656 3.632812 C 12.199219 3.378906 12.328125 3.136719 12.476562 2.90625 C 12.628906 2.675781 12.796875 2.464844 12.988281 2.269531 C 13.179688 2.074219 13.386719 1.898438 13.613281 1.746094 C 13.835938 1.589844 14.074219 1.460938 14.324219 1.355469 C 14.574219 1.25 14.832031 1.171875 15.097656 1.117188 C 15.359375 1.0625 15.628906 1.035156 15.898438 1.035156 C 16.167969 1.035156 16.4375 1.0625 16.703125 1.117188 C 16.96875 1.171875 17.222656 1.25 17.472656 1.355469 C 17.722656 1.460938 17.960938 1.589844 18.183594 1.746094 C 18.410156 1.898438 18.617188 2.074219 18.808594 2.269531 C 19 2.464844 19.171875 2.675781 19.320312 2.90625 C 19.472656 3.136719 19.597656 3.378906 19.699219 3.632812 C 19.804688 3.890625 19.882812 4.152344 19.933594 4.421875 C 19.988281 4.695312 20.015625 4.96875 20.015625 5.246094 Z M 20.015625 5.246094 " fill-opacity="1" fill-rule="nonzero"/><g mask="url(#54edf4c30f)"><g transform="matrix(1, 0, 0, 1, 8, 6)"><g clip-path="url(#a4a9c2f5dd)"><g clip-path="url(#665f4a61f3)"><path fill="#000000" d="M 2.175781 4.710938 C 2 4.714844 1.828125 4.75 1.664062 4.816406 C 1.503906 4.886719 1.359375 4.984375 1.234375 5.109375 C 1.109375 5.238281 1.015625 5.382812 0.949219 5.546875 C 0.882812 5.710938 0.851562 5.882812 0.851562 6.058594 L 0.851562 14.273438 C 0.84375 15.460938 1.117188 16.578125 1.664062 17.632812 L 6.128906 17.632812 C 6.285156 17.632812 6.433594 17.605469 6.578125 17.546875 C 6.722656 17.492188 6.851562 17.40625 6.960938 17.300781 C 7.074219 17.191406 7.160156 17.066406 7.21875 16.921875 C 7.28125 16.78125 7.3125 16.632812 7.3125 16.476562 L 7.3125 4.710938 Z M 2.175781 4.710938 " fill-opacity="0.098" fill-rule="nonzero"/></g><g clip-path="url(#edbb5c70ac)"><path fill="#000000" d="M 2.175781 4.710938 C 2 4.714844 1.828125 4.75 1.664062 4.816406 C 1.503906 4.886719 1.359375 4.984375 1.234375 5.109375 C 1.109375 5.238281 1.015625 5.382812 0.949219 5.546875 C 0.882812 5.710938 0.851562 5.882812 0.851562 6.058594 L 0.851562 14.273438 C 0.851562 15.136719 1 15.972656 1.296875 16.78125 L 6.128906 16.78125 C 6.285156 16.785156 6.433594 16.757812 6.578125 16.699219 C 6.722656 16.640625 6.851562 16.558594 6.960938 16.449219 C 7.074219 16.34375 7.160156 16.214844 7.21875 16.074219 C 7.28125 15.929688 7.3125 15.78125 7.3125 15.625 L 7.3125 4.710938 Z M 2.175781 4.710938 " fill-opacity="0.2" fill-rule="nonzero"/></g><path fill="#000000" d="M 7.292969 3.386719 C 7.265625 3.085938 7.140625 2.832031 6.917969 2.628906 C 6.695312 2.425781 6.433594 2.324219 6.128906 2.324219 L 5.121094 2.324219 C 5.734375 2.910156 6.457031 3.265625 7.292969 3.386719 Z M 7.292969 3.386719 " fill-opacity="0.2" fill-rule="nonzero"/><g clip-path="url(#a20e532637)"><path fill="#000000" d="M 2.175781 4.710938 C 2 4.714844 1.828125 4.75 1.664062 4.816406 C 1.503906 4.886719 1.359375 4.984375 1.234375 5.109375 C 1.109375 5.238281 1.015625 5.382812 0.949219 5.546875 C 0.882812 5.710938 0.851562 5.882812 0.851562 6.058594 L 0.851562 14.273438 C 0.855469 14.863281 0.925781 15.445312 1.066406 16.023438 L 7.410156 16.023438 C 7.65625 16.019531 7.863281 15.925781 8.035156 15.75 C 8.207031 15.574219 8.289062 15.359375 8.285156 15.113281 L 8.285156 4.710938 Z M 2.175781 4.710938 " fill-opacity="0.098" fill-rule="nonzero"/></g><path fill="#000000" d="M 4.207031 1.066406 C 4.535156 1.785156 5.03125 2.355469 5.691406 2.785156 C 6.351562 3.214844 7.074219 3.4375 7.863281 3.445312 C 7.992188 3.453125 8.121094 3.441406 8.25 3.410156 L 8.25 1.980469 C 8.25 1.738281 8.167969 1.527344 7.996094 1.351562 C 7.824219 1.175781 7.617188 1.085938 7.371094 1.082031 Z M 4.207031 1.066406 " fill-opacity="0.098" fill-rule="nonzero"/><path fill="#000000" d="M 4.414062 1.449219 C 4.777344 2.066406 5.269531 2.554688 5.890625 2.910156 C 6.511719 3.265625 7.183594 3.445312 7.898438 3.445312 C 8.027344 3.453125 8.152344 3.441406 8.277344 3.410156 L 8.277344 2.371094 C 8.28125 2.125 8.195312 1.914062 8.027344 1.738281 C 7.855469 1.5625 7.648438 1.472656 7.402344 1.46875 L 4.414062 1.46875 Z M 4.414062 1.449219 " fill-opacity="0.098" fill-rule="nonzero"/><g clip-path="url(#ef856a5eab)"><path fill="#000000" d="M 2.175781 4.710938 C 2 4.714844 1.828125 4.75 1.664062 4.816406 C 1.503906 4.886719 1.359375 4.984375 1.234375 5.109375 C 1.109375 5.238281 1.015625 5.382812 0.949219 5.546875 C 0.882812 5.710938 0.851562 5.882812 0.851562 6.058594 L 0.851562 14.273438 C 0.851562 14.949219 0.941406 15.617188 1.121094 16.269531 L 7.292969 16.351562 C 7.558594 16.328125 7.785156 16.222656 7.972656 16.035156 C 8.160156 15.84375 8.261719 15.613281 8.277344 15.347656 L 8.277344 4.683594 Z M 2.175781 4.710938 " fill-opacity="0.098" fill-rule="nonzero"/></g><g clip-path="url(#02e5df5f70)"><path fill="#000000" d="M 7.285156 3.386719 L 7.285156 1.277344 C 7.285156 1.03125 7.203125 0.820312 7.027344 0.644531 C 6.855469 0.46875 6.648438 0.378906 6.402344 0.378906 L 3.960938 0.378906 C 4.0625 0.765625 4.214844 1.125 4.421875 1.464844 C 4.632812 1.804688 4.882812 2.109375 5.175781 2.375 C 5.472656 2.644531 5.800781 2.863281 6.15625 3.035156 C 6.515625 3.207031 6.890625 3.324219 7.285156 3.386719 Z M 7.285156 3.386719 " fill-opacity="0.0078" fill-rule="nonzero"/></g><g clip-path="url(#f7df758366)"><path fill="#000000" d="M 2.175781 4.710938 C 2 4.714844 1.828125 4.75 1.664062 4.816406 C 1.503906 4.886719 1.359375 4.984375 1.234375 5.109375 C 1.109375 5.238281 1.015625 5.382812 0.949219 5.546875 C 0.882812 5.710938 0.851562 5.882812 0.851562 6.058594 L 0.851562 14.226562 L 5.496094 13.597656 C 5.984375 13.597656 7.285156 13.167969 7.285156 12.667969 L 7.285156 4.710938 Z M 2.175781 4.710938 " fill-opacity="0.0078" fill-rule="nonzero"/></g><g clip-path="url(#71fafc1bfb)"><path fill="#000000" d="M 2.175781 4.710938 C 2 4.714844 1.828125 4.75 1.664062 4.816406 C 1.503906 4.886719 1.359375 4.984375 1.234375 5.109375 C 1.109375 5.238281 1.015625 5.382812 0.949219 5.546875 C 0.882812 5.710938 0.851562 5.882812 0.851562 6.058594 L 0.851562 14.273438 C 0.855469 15.292969 1.0625 16.269531 1.472656 17.199219 L 6.152344 17.199219 C 6.308594 17.203125 6.457031 17.171875 6.601562 17.113281 C 6.742188 17.054688 6.871094 16.972656 6.980469 16.863281 C 7.089844 16.753906 7.175781 16.628906 7.238281 16.484375 C 7.296875 16.339844 7.328125 16.191406 7.328125 16.035156 L 7.328125 4.710938 Z M 2.175781 4.710938 " fill-opacity="0.2" fill-rule="nonzero"/></g><path fill="#000000" d="M 7.183594 3.371094 C 6.957031 2.953125 6.605469 2.742188 6.128906 2.742188 L 5.597656 2.742188 C 6.078125 3.070312 6.605469 3.28125 7.183594 3.371094 Z M 7.183594 3.371094 " fill-opacity="0.2" fill-rule="nonzero"/><g clip-path="url(#cc81de8051)"><path fill="#000000" d="M 2.175781 4.710938 C 2 4.714844 1.828125 4.75 1.664062 4.816406 C 1.503906 4.886719 1.359375 4.984375 1.234375 5.109375 C 1.109375 5.238281 1.015625 5.382812 0.949219 5.546875 C 0.882812 5.710938 0.851562 5.882812 0.851562 6.058594 L 0.851562 14.273438 C 0.851562 14.726562 0.890625 15.179688 0.976562 15.625 L 6.136719 15.625 C 6.292969 15.625 6.441406 15.597656 6.585938 15.539062 C 6.726562 15.480469 6.855469 15.394531 6.964844 15.285156 C 7.074219 15.175781 7.160156 15.050781 7.21875 14.910156 C 7.28125 14.765625 7.3125 14.617188 7.3125 14.460938 L 7.3125 4.710938 Z M 2.175781 4.710938 " fill-opacity="0.298" fill-rule="nonzero"/></g><path fill="#000000" d="M 7.3125 3.394531 L 7.3125 2.613281 C 7.3125 2.457031 7.28125 2.308594 7.21875 2.167969 C 7.160156 2.023438 7.074219 1.898438 6.964844 1.789062 C 6.855469 1.683594 6.726562 1.597656 6.582031 1.539062 C 6.441406 1.484375 6.292969 1.453125 6.136719 1.453125 L 4.417969 1.453125 C 4.734375 1.980469 5.152344 2.414062 5.664062 2.753906 C 6.175781 3.09375 6.734375 3.308594 7.34375 3.394531 Z M 7.3125 3.394531 " fill-opacity="0.298" fill-rule="nonzero"/><g clip-path="url(#e918b6e3db)"><path fill="#000000" d="M 2.175781 4.710938 C 2 4.714844 1.828125 4.75 1.664062 4.816406 C 1.503906 4.886719 1.359375 4.984375 1.234375 5.109375 C 1.109375 5.238281 1.015625 5.382812 0.949219 5.546875 C 0.882812 5.710938 0.851562 5.882812 0.851562 6.058594 L 0.851562 14.273438 C 0.855469 14.699219 0.894531 15.125 0.96875 15.546875 L 6.136719 15.546875 C 6.292969 15.546875 6.441406 15.519531 6.585938 15.460938 C 6.730469 15.402344 6.859375 15.316406 6.96875 15.207031 C 7.082031 15.101562 7.167969 14.972656 7.226562 14.832031 C 7.289062 14.6875 7.320312 14.539062 7.320312 14.382812 L 7.320312 4.710938 Z M 2.175781 4.710938 " fill-opacity="0.298" fill-rule="nonzero"/></g><path fill="#000000" d="M 7.3125 3.394531 L 7.3125 2.613281 C 7.3125 2.457031 7.28125 2.308594 7.21875 2.164062 C 7.160156 2.023438 7.074219 1.894531 6.960938 1.789062 C 6.851562 1.679688 6.722656 1.597656 6.578125 1.539062 C 6.433594 1.480469 6.285156 1.453125 6.128906 1.453125 L 4.417969 1.453125 C 4.734375 1.980469 5.144531 2.410156 5.648438 2.75 C 6.15625 3.089844 6.710938 3.304688 7.3125 3.394531 Z M 7.3125 3.394531 " fill-opacity="0.298" fill-rule="nonzero"/><g clip-path="url(#c0b25c8762)"><path fill="#000000" d="M 2.175781 4.710938 C 2 4.714844 1.828125 4.75 1.664062 4.816406 C 1.503906 4.886719 1.359375 4.984375 1.234375 5.109375 C 1.109375 5.238281 1.015625 5.382812 0.949219 5.546875 C 0.882812 5.710938 0.851562 5.882812 0.851562 6.058594 L 0.851562 14.273438 C 0.851562 14.933594 0.941406 15.582031 1.117188 16.21875 L 6.128906 16.21875 C 6.285156 16.21875 6.433594 16.191406 6.578125 16.132812 C 6.71875 16.074219 6.847656 15.988281 6.957031 15.878906 C 7.066406 15.769531 7.152344 15.644531 7.214844 15.503906 C 7.273438 15.359375 7.304688 15.210938 7.308594 15.054688 L 7.308594 4.710938 Z M 2.175781 4.710938 " fill-opacity="0.298" fill-rule="nonzero"/></g><path fill="#000000" d="M 7.3125 3.394531 L 7.3125 2.910156 C 7.3125 2.753906 7.28125 2.605469 7.21875 2.460938 C 7.160156 2.320312 7.074219 2.191406 6.960938 2.082031 C 6.851562 1.972656 6.722656 1.886719 6.578125 1.828125 C 6.4375 1.769531 6.285156 1.742188 6.128906 1.742188 L 4.625 1.742188 C 5.292969 2.667969 6.1875 3.21875 7.3125 3.394531 Z M 7.3125 3.394531 " fill-opacity="0.298" fill-rule="nonzero"/><g clip-path="url(#0d668982c1)"><path fill="#000000" d="M 2.175781 4.710938 C 2 4.714844 1.828125 4.75 1.664062 4.816406 C 1.503906 4.886719 1.359375 4.984375 1.234375 5.109375 C 1.109375 5.238281 1.015625 5.382812 0.949219 5.546875 C 0.882812 5.710938 0.851562 5.882812 0.851562 6.058594 L 0.851562 14.273438 C 0.847656 15.023438 0.960938 15.753906 1.195312 16.46875 L 6.128906 16.46875 C 6.285156 16.46875 6.4375 16.441406 6.582031 16.382812 C 6.726562 16.324219 6.851562 16.242188 6.964844 16.132812 C 7.074219 16.023438 7.160156 15.898438 7.222656 15.753906 C 7.28125 15.609375 7.3125 15.460938 7.3125 15.304688 L 7.3125 4.710938 Z M 2.175781 4.710938 " fill-opacity="0.2" fill-rule="nonzero"/></g><path fill="#000000" d="M 7.3125 3.394531 L 7.3125 3.175781 C 7.3125 3.019531 7.28125 2.871094 7.21875 2.730469 C 7.160156 2.585938 7.074219 2.460938 6.964844 2.355469 C 6.855469 2.246094 6.726562 2.164062 6.582031 2.105469 C 6.441406 2.046875 6.292969 2.015625 6.136719 2.019531 L 4.828125 2.019531 C 5.488281 2.785156 6.316406 3.242188 7.3125 3.394531 Z M 7.3125 3.394531 " fill-opacity="0.2" fill-rule="nonzero"/><path fill="#000000" d="M 7.898438 3.445312 L 8.125 3.445312 L 8.125 2.78125 C 8.128906 2.535156 8.042969 2.324219 7.871094 2.148438 C 7.703125 1.972656 7.492188 1.882812 7.25 1.878906 L 4.703125 1.878906 C 5.085938 2.378906 5.554688 2.765625 6.117188 3.046875 C 6.679688 3.324219 7.273438 3.464844 7.898438 3.46875 Z M 7.898438 3.445312 " fill-opacity="0.098" fill-rule="nonzero"/><g clip-path="url(#fa0e6ca454)"><path fill="#000000" d="M 8.125 4.710938 L 2.175781 4.710938 C 2 4.714844 1.828125 4.75 1.664062 4.816406 C 1.503906 4.886719 1.359375 4.984375 1.234375 5.109375 C 1.109375 5.238281 1.015625 5.382812 0.949219 5.546875 C 0.882812 5.710938 0.851562 5.882812 0.851562 6.058594 L 0.851562 14.273438 C 0.851562 14.839844 0.917969 15.398438 1.050781 15.949219 L 7.25 15.949219 C 7.492188 15.949219 7.703125 15.863281 7.875 15.6875 C 8.046875 15.515625 8.132812 15.308594 8.132812 15.0625 Z M 8.125 4.710938 " fill-opacity="0.098" fill-rule="nonzero"/></g><g clip-path="url(#e65148ce8b)"><path fill="#000000" d="M 2.175781 4.710938 C 2 4.714844 1.828125 4.75 1.664062 4.816406 C 1.503906 4.886719 1.359375 4.984375 1.234375 5.109375 C 1.109375 5.238281 1.015625 5.382812 0.949219 5.546875 C 0.882812 5.710938 0.851562 5.882812 0.851562 6.058594 L 0.851562 14.273438 C 0.851562 14.734375 0.894531 15.195312 0.984375 15.648438 L 6.570312 15.648438 C 6.8125 15.648438 7.023438 15.558594 7.195312 15.382812 C 7.367188 15.210938 7.453125 15 7.453125 14.753906 L 7.453125 4.710938 Z M 2.175781 4.710938 " fill-opacity="0.2" fill-rule="nonzero"/></g><path fill="#000000" d="M 7.453125 3.402344 L 7.453125 2.78125 C 7.457031 2.53125 7.371094 2.320312 7.199219 2.144531 C 7.023438 1.964844 6.816406 1.875 6.570312 1.871094 L 4.683594 1.871094 C 5.390625 2.773438 6.316406 3.28125 7.453125 3.402344 Z M 7.453125 3.402344 " fill-opacity="0.2" fill-rule="nonzero"/><path fill="#000000" d="M 7.546875 3.417969 L 7.546875 2.371094 C 7.546875 1.84375 6.355469 1.542969 6.226562 1.390625 C 5.832031 1.171875 5.414062 1.066406 4.96875 1.074219 L 4.164062 1.074219 C 4.476562 1.742188 4.9375 2.285156 5.539062 2.703125 C 6.144531 3.121094 6.816406 3.359375 7.546875 3.417969 Z M 7.546875 3.417969 " fill-opacity="0.298" fill-rule="nonzero"/><g clip-path="url(#31802bdf2a)"><path fill="#000000" d="M 2.175781 4.710938 C 2 4.714844 1.828125 4.75 1.664062 4.816406 C 1.503906 4.886719 1.359375 4.984375 1.234375 5.109375 C 1.109375 5.238281 1.015625 5.382812 0.949219 5.546875 C 0.882812 5.710938 0.851562 5.882812 0.851562 6.058594 L 0.851562 14.273438 C 0.851562 14.570312 0.867188 14.867188 0.902344 15.164062 L 6.699219 15.164062 C 6.945312 15.164062 7.152344 15.074219 7.324219 14.902344 C 7.496094 14.726562 7.578125 14.515625 7.578125 14.273438 L 7.578125 4.710938 Z M 2.175781 4.710938 " fill-opacity="0.298" fill-rule="nonzero"/></g><path fill="#000000" d="M 7.832031 3.4375 C 7.835938 3.195312 7.75 2.988281 7.582031 2.8125 C 7.414062 2.636719 7.207031 2.550781 6.964844 2.546875 L 5.355469 2.546875 C 6.082031 3.152344 6.917969 3.460938 7.863281 3.476562 Z M 7.832031 3.4375 " fill-opacity="0.098" fill-rule="nonzero"/><g clip-path="url(#6ca7eb1acd)"><path fill="#000000" d="M 2.175781 4.710938 C 2 4.714844 1.828125 4.75 1.664062 4.816406 C 1.503906 4.886719 1.359375 4.984375 1.234375 5.109375 C 1.109375 5.238281 1.015625 5.382812 0.949219 5.546875 C 0.882812 5.710938 0.851562 5.882812 0.851562 6.058594 L 0.851562 14.273438 C 0.847656 15.070312 0.972656 15.847656 1.234375 16.601562 L 6.957031 16.601562 C 7.199219 16.597656 7.40625 16.511719 7.578125 16.335938 C 7.75 16.160156 7.835938 15.953125 7.832031 15.707031 L 7.832031 4.726562 Z M 2.175781 4.710938 " fill-opacity="0.098" fill-rule="nonzero"/></g><g clip-path="url(#1d9fd379b5)"><path fill="#000000" d="M 2.175781 4.710938 C 2 4.714844 1.828125 4.75 1.664062 4.816406 C 1.503906 4.886719 1.359375 4.984375 1.234375 5.109375 C 1.109375 5.238281 1.015625 5.382812 0.949219 5.546875 C 0.882812 5.710938 0.851562 5.882812 0.851562 6.058594 L 0.851562 14.449219 L 5.488281 13.820312 C 5.976562 13.820312 7.277344 13.386719 7.277344 12.890625 L 7.277344 4.734375 Z M 2.175781 4.710938 " fill-opacity="0.098" fill-rule="nonzero"/></g><g clip-path="url(#ad929508b2)"><path fill="#000000" d="M 7.285156 3.386719 L 7.285156 1.542969 C 7.289062 1.296875 7.207031 1.085938 7.035156 0.90625 C 6.863281 0.730469 6.652344 0.640625 6.40625 0.636719 L 4.03125 0.636719 C 4.277344 1.359375 4.691406 1.96875 5.277344 2.464844 C 5.859375 2.957031 6.53125 3.265625 7.285156 3.386719 Z M 7.285156 3.386719 " fill-opacity="0.098" fill-rule="nonzero"/><path fill="#000000" d="M 7.285156 3.386719 L 7.285156 1.761719 C 7.285156 1.515625 7.203125 1.308594 7.03125 1.132812 C 6.859375 0.957031 6.652344 0.867188 6.40625 0.863281 L 4.105469 0.863281 C 4.378906 1.53125 4.796875 2.09375 5.363281 2.542969 C 5.929688 2.992188 6.570312 3.273438 7.285156 3.386719 Z M 7.285156 3.386719 " fill-opacity="0.149" fill-rule="nonzero"/></g><g clip-path="url(#ec49ec499d)"><path fill="#000000" d="M 2.175781 4.710938 C 2 4.714844 1.828125 4.75 1.664062 4.816406 C 1.503906 4.886719 1.359375 4.984375 1.234375 5.109375 C 1.109375 5.238281 1.015625 5.382812 0.949219 5.546875 C 0.882812 5.710938 0.851562 5.882812 0.851562 6.058594 L 0.851562 14.667969 L 5.472656 14.046875 C 5.960938 14.046875 7.269531 13.605469 7.269531 13.117188 L 7.269531 4.710938 Z M 2.175781 4.710938 " fill-opacity="0.149" fill-rule="nonzero"/></g></g></g></g><path fill="#4b53bc" d="M 2.390625 7.046875 L 14.144531 7.046875 C 14.300781 7.046875 14.453125 7.078125 14.597656 7.140625 C 14.742188 7.203125 14.871094 7.289062 14.980469 7.402344 C 15.089844 7.515625 15.175781 7.644531 15.234375 7.789062 C 15.292969 7.9375 15.324219 8.085938 15.320312 8.246094 L 15.320312 20.28125 C 15.324219 20.4375 15.292969 20.589844 15.234375 20.734375 C 15.175781 20.882812 15.089844 21.011719 14.980469 21.121094 C 14.871094 21.234375 14.742188 21.324219 14.597656 21.382812 C 14.453125 21.445312 14.300781 21.476562 14.144531 21.480469 L 2.390625 21.480469 C 2.234375 21.480469 2.082031 21.449219 1.9375 21.386719 C 1.792969 21.324219 1.664062 21.238281 1.554688 21.125 C 1.441406 21.011719 1.359375 20.882812 1.300781 20.734375 C 1.242188 20.589844 1.210938 20.4375 1.214844 20.28125 L 1.214844 8.246094 C 1.210938 8.085938 1.242188 7.9375 1.300781 7.789062 C 1.359375 7.644531 1.445312 7.515625 1.554688 7.402344 C 1.664062 7.289062 1.792969 7.203125 1.9375 7.140625 C 2.082031 7.078125 2.234375 7.046875 2.390625 7.046875 Z M 2.390625 7.046875 " fill-opacity="1" fill-rule="nonzero"/><path fill="#ffffff" d="M 11.761719 11.53125 L 9.128906 11.53125 L 9.128906 18.773438 L 7.398438 18.773438 L 7.398438 11.53125 L 4.757812 11.53125 L 4.757812 9.753906 L 11.761719 9.753906 Z M 11.761719 11.53125 " fill-opacity="1" fill-rule="nonzero"/></svg>