<svg xmlns="http://www.w3.org/2000/svg" xmlns:xlink="http://www.w3.org/1999/xlink" width="100" zoomAndPan="magnify" viewBox="0 0 75 74.999997" height="100" preserveAspectRatio="xMidYMid meet" version="1.0"><path fill="#35225e" d="M 49.085938 21.289062 C 44.421875 21.289062 41.378906 22.753906 41.378906 27.519531 C 41.378906 30.144531 42.765625 32.085938 49.113281 32.347656 C 52.957031 32.507812 56.203125 33.085938 58.855469 34.894531 C 62.121094 37.128906 63.488281 40.800781 63.542969 44.238281 C 63.613281 48.6875 61.613281 54.304688 53.644531 57.011719 C 49.132812 58.539062 43.910156 58.671875 38.511719 58.671875 C 37.855469 58.671875 37.195312 58.613281 36.535156 58.613281 C 31.125 58.585938 27.417969 57.585938 27.417969 57.585938 C 23.765625 56.851562 18.871094 55.230469 15.945312 51.449219 C 11.152344 45.265625 11.019531 36.894531 11.152344 32.410156 C 11.179688 31.386719 11.25 30.316406 11.359375 29.226562 C 12.109375 21.761719 14.882812 13.320312 18.816406 6.644531 C 8.542969 12.972656 1.695312 24.316406 1.695312 37.261719 C 1.695312 57.109375 17.785156 73.195312 37.632812 73.195312 C 57.480469 73.195312 73.566406 57.109375 73.566406 37.261719 C 73.566406 34.609375 73.277344 32.03125 72.734375 29.539062 C 72.328125 29.277344 60.71875 21.289062 49.078125 21.289062 Z M 49.085938 21.289062 " fill-opacity="1" fill-rule="nonzero"/><path fill="#35225e" d="M 23.113281 9.941406 C 20.90625 15.46875 19.398438 20.5625 18.589844 26.472656 C 17.699219 32.917969 18.152344 37.433594 18.691406 39.417969 C 21.230469 48.671875 24.804688 51.058594 38.511719 51.058594 C 52.222656 51.058594 55.941406 49.339844 55.941406 43.984375 C 55.941406 42.527344 54.890625 39.488281 47.683594 39.445312 C 43.121094 39.417969 33.109375 38.113281 33.773438 26.507812 C 34.175781 19.488281 39.796875 14.851562 46.332031 14.875 C 60.609375 14.9375 69.835938 22.78125 70.898438 23.613281 C 65.527344 10.53125 52.660156 1.324219 37.644531 1.324219 C 33.800781 1.324219 30.097656 1.929688 26.621094 3.050781 C 26.28125 3.539062 24.8125 5.6875 23.113281 9.941406 Z M 23.113281 9.941406 " fill-opacity="1" fill-rule="nonzero"/></svg>