<svg xmlns="http://www.w3.org/2000/svg" xmlns:xlink="http://www.w3.org/1999/xlink" width="256" zoomAndPan="magnify" viewBox="0 0 192 44.999999" height="60" preserveAspectRatio="xMidYMid meet" version="1.0"><path fill="#d9d9d9" d="M 159.976562 16.148438 C 157.628906 16.148438 155.464844 16.484375 154.082031 16.855469 C 153.332031 17.0625 153.027344 17.464844 153.027344 18.0625 L 153.027344 20.050781 C 153.027344 20.894531 153.527344 21.246094 154.351562 21.128906 C 155.820312 20.921875 157.589844 20.683594 159.488281 20.683594 C 162.125 20.683594 162.535156 21.421875 162.535156 22.847656 L 162.535156 23.644531 C 160.617188 23.574219 158.296875 23.574219 156.484375 23.945312 C 153.253906 24.601562 151.253906 26.484375 151.253906 30.375 C 151.253906 34.84375 153.816406 36.746094 159.664062 36.746094 C 162.816406 36.730469 165.382812 36.519531 167.132812 36.136719 C 167.707031 36.015625 168.144531 35.417969 168.144531 34.640625 L 168.144531 23.164062 C 168.144531 19.378906 167.476562 16.148438 159.976562 16.148438 M 162.535156 32.265625 C 162.09375 32.347656 160.402344 32.4375 159.78125 32.4375 C 157.570312 32.4375 156.695312 31.734375 156.695312 29.941406 C 156.695312 28.371094 157.765625 27.792969 159.078125 27.597656 C 159.988281 27.460938 161.386719 27.480469 162.535156 27.554688 Z M 134.234375 17.601562 L 127.140625 17.601562 L 127.140625 24.820312 L 134.234375 24.820312 C 136.058594 24.820312 136.9375 24.070312 136.9375 21.214844 C 136.9375 18.355469 136.058594 17.601562 134.234375 17.601562 M 145.023438 7.960938 L 117.757812 7.960938 C 116.101562 7.960938 114.742188 9.320312 114.742188 10.984375 L 114.742188 38.339844 C 114.742188 40 116.101562 41.355469 117.757812 41.355469 L 145.023438 41.355469 C 146.671875 41.355469 148.03125 40 148.03125 38.339844 L 148.03125 10.984375 C 148.03125 9.320312 146.671875 7.960938 145.023438 7.960938 M 139.0625 29.125 C 137.953125 29.566406 136.597656 29.617188 134.933594 29.617188 L 127.140625 29.617188 L 127.140625 35.332031 C 127.140625 35.980469 126.609375 36.511719 125.957031 36.511719 L 122.527344 36.511719 C 121.886719 36.511719 121.355469 35.980469 121.355469 35.332031 L 121.355469 13.984375 C 121.355469 13.335938 121.886719 12.800781 122.527344 12.800781 L 134.933594 12.800781 C 136.597656 12.800781 137.953125 12.859375 139.0625 13.289062 C 141.445312 14.25 142.769531 16.820312 142.769531 21.214844 C 142.769531 25.605469 141.445312 28.167969 139.0625 29.125 M 189.613281 34.914062 C 189.613281 41.175781 187.050781 44.042969 180.492188 44.042969 C 178.066406 44.042969 175.824219 43.722656 174.234375 43.210938 C 173.492188 42.996094 173.191406 42.574219 173.191406 41.90625 L 173.191406 39.941406 C 173.191406 39.257812 173.617188 38.808594 174.339844 38.953125 C 176.0625 39.292969 178.144531 39.5 180.140625 39.5 C 183.324219 39.5 183.828125 38.730469 183.828125 36.183594 C 182.65625 36.394531 181.398438 36.546875 180.152344 36.546875 C 174.28125 36.546875 171.921875 34.636719 171.921875 29.359375 L 171.921875 17.597656 C 171.921875 16.941406 172.445312 16.414062 173.097656 16.414062 L 176.507812 16.414062 C 177.160156 16.414062 177.6875 16.941406 177.6875 17.597656 L 177.6875 29.449219 C 177.6875 31.339844 178.699219 32.074219 181.035156 32.074219 C 182.011719 32.074219 183.054688 31.851562 183.832031 31.660156 L 183.824219 17.597656 C 183.824219 16.941406 184.355469 16.414062 185.003906 16.414062 L 188.433594 16.414062 C 189.078125 16.414062 189.609375 16.941406 189.609375 17.597656 L 189.609375 34.914062 Z M 106.984375 23.339844 L 106.984375 35.335938 C 106.984375 35.988281 106.453125 36.511719 105.804688 36.511719 L 102.390625 36.511719 C 101.742188 36.511719 101.222656 35.988281 101.222656 35.335938 L 101.214844 23.519531 C 101.214844 22.015625 101.011719 21.101562 98.109375 21.101562 C 96.597656 21.101562 95.808594 21.277344 94.757812 21.453125 L 94.757812 35.335938 C 94.757812 35.988281 94.222656 36.511719 93.578125 36.511719 L 90.152344 36.511719 C 89.503906 36.511719 88.976562 35.988281 88.976562 35.335938 L 88.976562 18.519531 C 88.976562 18.152344 89.007812 17.546875 89.800781 17.292969 C 91.191406 16.855469 94.453125 16.179688 97.742188 16.179688 C 104.628906 16.179688 106.984375 18.792969 106.984375 23.339844 " fill-opacity="1" fill-rule="nonzero"/><path fill="#d9d9d9" d="M 81.777344 36.511719 L 77.421875 36.511719 C 76.695312 36.511719 76.203125 35.960938 75.972656 35.640625 L 71.03125 28.890625 L 71.03125 35.304688 C 71.03125 35.960938 70.472656 36.511719 69.804688 36.511719 L 66.480469 36.511719 C 65.816406 36.511719 65.253906 35.960938 65.253906 35.304688 L 65.253906 10.960938 C 65.253906 10.308594 65.796875 9.773438 66.480469 9.773438 L 69.804688 9.773438 C 70.480469 9.773438 71.03125 10.308594 71.03125 10.960938 L 71.03125 23.808594 L 76.492188 17.027344 C 76.851562 16.589844 77.207031 16.441406 77.710938 16.441406 L 81.601562 16.441406 C 82.484375 16.441406 82.925781 17.015625 82.308594 17.886719 L 75.40625 26.019531 L 82.453125 35.269531 C 83.027344 36.0625 82.519531 36.511719 81.777344 36.511719 M 56.570312 21 C 58.207031 20.933594 60.035156 21.136719 61.015625 21.230469 C 61.917969 21.304688 62.21875 20.984375 62.21875 20.222656 L 62.21875 18.027344 C 62.21875 17.238281 61.902344 16.855469 61.128906 16.65625 C 60.617188 16.523438 59.09375 16.1875 56.570312 16.203125 C 48.742188 16.234375 48.265625 23.4375 48.15625 24.789062 C 48.050781 26.019531 48.070312 27.035156 48.15625 28.199219 C 48.25 29.550781 48.742188 36.753906 56.570312 36.789062 C 59.09375 36.796875 60.707031 36.445312 61.128906 36.335938 C 61.90625 36.148438 62.21875 35.757812 62.21875 34.960938 L 62.21875 32.769531 C 62.21875 31.929688 61.824219 31.664062 60.925781 31.761719 C 59.738281 31.894531 57.820312 32.03125 56.570312 31.988281 C 54.765625 31.925781 53.851562 30.886719 53.667969 28.0625 C 53.597656 27.035156 53.597656 25.949219 53.667969 24.925781 C 53.851562 22.097656 54.765625 21.074219 56.570312 21 M 44.921875 17.59375 C 44.921875 16.9375 44.390625 16.414062 43.746094 16.414062 L 40.320312 16.414062 C 39.671875 16.414062 39.140625 16.9375 39.140625 17.59375 L 39.140625 35.335938 C 39.140625 35.988281 39.671875 36.511719 40.320312 36.511719 L 43.746094 36.511719 C 44.390625 36.511719 44.921875 35.988281 44.921875 35.335938 Z M 35.667969 10.984375 L 35.667969 38.339844 C 35.667969 40 34.316406 41.355469 32.664062 41.355469 L 5.394531 41.355469 C 3.742188 41.355469 2.386719 40 2.386719 38.339844 L 2.386719 10.984375 C 2.386719 9.320312 3.742188 7.960938 5.394531 7.960938 L 32.664062 7.960938 C 34.316406 7.960938 35.667969 9.320312 35.667969 10.984375 M 30.410156 21.210938 C 30.410156 16.820312 29.085938 14.25 26.699219 13.289062 C 25.597656 12.859375 24.242188 12.796875 22.574219 12.796875 L 10.167969 12.796875 C 9.523438 12.796875 9 13.335938 9 13.984375 L 9 35.332031 C 9 35.980469 9.523438 36.511719 10.167969 36.511719 L 13.605469 36.511719 C 14.246094 36.511719 14.78125 35.980469 14.78125 35.332031 L 14.78125 29.617188 L 22.574219 29.617188 C 24.242188 29.617188 25.597656 29.566406 26.699219 29.125 C 29.085938 28.167969 30.410156 25.605469 30.410156 21.210938 M 24.585938 21.210938 C 24.585938 24.070312 23.695312 24.820312 21.882812 24.820312 L 14.78125 24.820312 L 14.78125 17.601562 L 21.882812 17.601562 C 23.695312 17.601562 24.585938 18.355469 24.585938 21.210938 " fill-opacity="1" fill-rule="nonzero"/></svg>