<svg xmlns="http://www.w3.org/2000/svg" xmlns:xlink="http://www.w3.org/1999/xlink" width="256" zoomAndPan="magnify" viewBox="0 0 192 44.999999" height="60" preserveAspectRatio="xMidYMid meet" version="1.0"><path fill="#d9d9d9" d="M 1.601562 13.839844 C 2.480469 11.960938 4.875 10.949219 6.828125 11.675781 C 7.824219 12.035156 8.589844 12.859375 9.019531 13.808594 C 11.957031 19.949219 14.886719 26.09375 17.820312 32.234375 C 20.9375 28.257812 24.078125 24.277344 27.6875 20.730469 C 30.65625 17.84375 33.949219 15.1875 37.769531 13.515625 C 40.730469 12.214844 44.046875 11.625 47.257812 12.15625 C 51.59375 12.855469 55.726562 15.296875 58.109375 19.035156 C 58.628906 19.835938 59.070312 20.746094 59.050781 21.726562 C 59.074219 22.894531 58.417969 23.996094 57.492188 24.671875 C 56.632812 25.320312 55.546875 25.695312 54.464844 25.636719 C 53.8125 25.597656 53.144531 25.371094 52.695312 24.878906 C 52.445312 24.605469 52.238281 24.296875 52.003906 24.011719 C 51.152344 22.964844 50.191406 21.988281 49.042969 21.265625 C 47.5 20.261719 45.589844 19.835938 43.765625 20.113281 C 42.207031 20.347656 40.742188 21.003906 39.390625 21.792969 C 37.046875 23.171875 34.984375 24.972656 33.039062 26.855469 C 28.738281 31.109375 25.019531 35.90625 21.484375 40.804688 C 21.015625 41.425781 20.621094 42.121094 20.011719 42.625 C 19.113281 43.390625 17.929688 43.835938 16.746094 43.777344 C 15.613281 43.742188 14.527344 43.171875 13.824219 42.289062 C 13.398438 41.789062 13.132812 41.183594 12.84375 40.601562 C 9.089844 32.832031 5.402344 25.03125 1.699219 17.238281 C 1.183594 16.191406 1.089844 14.90625 1.601562 13.839844 Z M 1.601562 13.839844 " fill-opacity="1" fill-rule="nonzero"/><path fill="#d9d9d9" d="M 65.945312 14.1875 C 66.628906 12.339844 68.714844 11.113281 70.664062 11.492188 C 71.652344 11.679688 72.515625 12.316406 73.089844 13.128906 C 73.96875 14.390625 74.84375 15.652344 75.71875 16.914062 C 79.308594 15.109375 82.960938 13.398438 86.761719 12.089844 C 87.738281 11.785156 88.722656 11.378906 89.765625 11.460938 C 90.898438 11.523438 91.957031 12.164062 92.589844 13.09375 C 93.4375 14.316406 93.652344 15.996094 93 17.355469 C 92.53125 18.363281 91.5625 19.074219 90.507812 19.375 C 86.964844 20.382812 83.550781 21.808594 80.257812 23.457031 C 83.519531 28.148438 86.777344 32.839844 90.03125 37.535156 C 90.59375 38.390625 90.871094 39.464844 90.648438 40.476562 C 90.214844 42.59375 87.9375 44.117188 85.816406 43.71875 C 84.761719 43.535156 83.855469 42.839844 83.269531 41.964844 C 79.910156 37.125 76.550781 32.285156 73.191406 27.449219 C 67.558594 30.96875 62.253906 34.980469 57.105469 39.164062 C 55.992188 40.085938 54.835938 40.964844 53.585938 41.695312 C 52.035156 42.601562 50.332031 43.273438 48.558594 43.578125 C 45.347656 44.121094 41.964844 43.675781 39.019531 42.265625 C 36.167969 40.898438 33.738281 38.664062 32.121094 35.941406 C 31.585938 35.03125 31.351562 33.910156 31.644531 32.882812 C 32.160156 31.042969 34.078125 29.785156 35.957031 29.859375 C 36.945312 29.898438 37.914062 30.410156 38.464844 31.238281 C 39.300781 32.527344 40.351562 33.707031 41.664062 34.523438 C 42.996094 35.367188 44.585938 35.78125 46.160156 35.730469 C 47.398438 35.6875 48.59375 35.265625 49.652344 34.644531 C 51.066406 33.828125 52.265625 32.71875 53.464844 31.628906 C 55.757812 29.507812 58.238281 27.597656 60.792969 25.808594 C 63.324219 24.042969 65.929688 22.386719 68.589844 20.824219 C 68.035156 20.023438 67.480469 19.226562 66.925781 18.425781 C 66.582031 17.925781 66.195312 17.433594 65.984375 16.855469 C 65.644531 16.011719 65.625 15.039062 65.945312 14.1875 Z M 65.945312 14.1875 " fill-opacity="1" fill-rule="nonzero"/><path fill="#d9d9d9" d="M 92.730469 25.148438 C 93.691406 24.898438 94.785156 25.136719 95.5 25.835938 C 96.535156 26.84375 96.617188 28.640625 95.703125 29.75 C 94.929688 30.730469 93.488281 31.019531 92.351562 30.554688 C 91.679688 30.285156 91.140625 29.722656 90.886719 29.046875 C 90.570312 28.199219 90.617188 27.203125 91.066406 26.410156 C 91.414062 25.78125 92.035156 25.320312 92.730469 25.148438 M 93.074219 25.675781 C 92.777344 25.734375 92.492188 25.851562 92.246094 26.035156 C 91.300781 26.726562 91.089844 28.152344 91.671875 29.144531 C 91.996094 29.726562 92.621094 30.121094 93.285156 30.179688 C 93.992188 30.257812 94.730469 29.957031 95.164062 29.386719 C 95.839844 28.519531 95.8125 27.175781 95.085938 26.339844 C 94.601562 25.777344 93.800781 25.527344 93.074219 25.675781 Z M 93.074219 25.675781 " fill-opacity="1" fill-rule="nonzero"/><path fill="#d9d9d9" d="M 92.5 26.265625 C 93.015625 26.289062 93.574219 26.179688 94.058594 26.417969 C 94.515625 26.632812 94.628906 27.289062 94.320312 27.671875 C 94.203125 27.828125 94.023438 27.917969 93.859375 28.011719 C 94.226562 28.46875 94.511719 28.980469 94.804688 29.484375 C 94.566406 29.488281 94.332031 29.488281 94.097656 29.488281 C 93.863281 29.113281 93.664062 28.714844 93.414062 28.351562 C 93.347656 28.238281 93.222656 28.1875 93.113281 28.132812 C 93.097656 28.585938 93.105469 29.035156 93.105469 29.488281 C 92.902344 29.488281 92.699219 29.484375 92.5 29.484375 C 92.5 28.414062 92.5 27.339844 92.5 26.265625 M 93.105469 26.777344 C 93.105469 27.085938 93.105469 27.394531 93.105469 27.707031 C 93.300781 27.679688 93.519531 27.6875 93.6875 27.566406 C 93.917969 27.414062 93.929688 27.019531 93.695312 26.867188 C 93.519531 26.757812 93.300781 26.792969 93.105469 26.777344 Z M 93.105469 26.777344 " fill-opacity="1" fill-rule="nonzero"/><path fill="#d9d9d9" d="M 123.992188 24.460938 C 124.511719 24.285156 125.1875 24.386719 125.507812 24.871094 C 125.71875 25.164062 125.707031 25.539062 125.679688 25.878906 C 125.304688 30.15625 124.929688 34.429688 124.558594 38.707031 C 124.507812 39.507812 124.613281 40.425781 125.230469 41.007812 C 125.558594 41.347656 126.128906 41.324219 126.398438 41.742188 C 126.929688 42.503906 126.398438 43.691406 125.511719 43.882812 C 125.046875 43.996094 124.582031 43.804688 124.171875 43.609375 C 123.234375 43.140625 122.542969 42.257812 122.214844 41.269531 C 121.914062 40.390625 121.851562 39.445312 121.933594 38.527344 C 122.308594 34.246094 122.679688 29.964844 123.058594 25.683594 C 123.089844 25.136719 123.464844 24.625 123.992188 24.460938 Z M 123.992188 24.460938 " fill-opacity="1" fill-rule="nonzero"/><path fill="#d9d9d9" d="M 100.839844 26.816406 C 100.894531 26.183594 101.429688 25.640625 102.058594 25.585938 C 102.523438 25.515625 103.054688 25.683594 103.308594 26.101562 C 103.46875 26.359375 103.496094 26.675781 103.460938 26.96875 C 103.378906 27.886719 103.300781 28.804688 103.21875 29.722656 C 103.929688 29.730469 104.644531 29.710938 105.355469 29.734375 C 105.726562 29.738281 106.113281 29.890625 106.320312 30.210938 C 106.746094 30.863281 106.480469 31.839844 105.800781 32.207031 C 105.550781 32.34375 105.261719 32.382812 104.980469 32.382812 C 104.316406 32.382812 103.652344 32.378906 102.988281 32.382812 C 102.820312 34.371094 102.632812 36.355469 102.472656 38.339844 C 102.421875 39.101562 102.507812 39.964844 103.085938 40.519531 C 103.714844 41.101562 104.625 41.191406 105.441406 41.199219 C 105.839844 41.183594 106.253906 41.351562 106.46875 41.699219 C 106.945312 42.457031 106.488281 43.605469 105.609375 43.796875 C 105.03125 43.882812 104.445312 43.820312 103.871094 43.742188 C 102.613281 43.554688 101.351562 42.960938 100.628906 41.875 C 99.902344 40.828125 99.75 39.496094 99.839844 38.25 C 100.007812 36.292969 100.179688 34.335938 100.355469 32.382812 C 99.839844 32.382812 99.226562 32.453125 98.835938 32.042969 C 98.292969 31.453125 98.476562 30.410156 99.125 29.976562 C 99.550781 29.671875 100.09375 29.734375 100.585938 29.71875 C 100.667969 28.75 100.75 27.78125 100.839844 26.816406 Z M 100.839844 26.816406 " fill-opacity="1" fill-rule="nonzero"/><path fill="#d9d9d9" d="M 169.597656 31.085938 C 169.34375 30.160156 170.269531 29.171875 171.203125 29.308594 C 171.652344 29.375 171.980469 29.722656 172.277344 30.035156 C 172.796875 30.601562 173.109375 31.335938 173.242188 32.089844 C 174.207031 31.03125 175.398438 30.132812 176.78125 29.714844 C 177.828125 29.402344 179.03125 29.40625 179.996094 29.972656 C 180.863281 30.464844 181.417969 31.359375 181.726562 32.289062 C 182.753906 31.105469 184.058594 30.09375 185.589844 29.675781 C 186.558594 29.421875 187.648438 29.425781 188.546875 29.914062 C 189.394531 30.355469 189.988281 31.183594 190.304688 32.074219 C 190.695312 33.195312 190.746094 34.410156 190.640625 35.589844 C 190.433594 37.945312 190.226562 40.304688 190.023438 42.664062 C 190 43.078125 189.816406 43.503906 189.464844 43.746094 C 188.941406 44.132812 188.101562 44.140625 187.648438 43.640625 C 187.398438 43.371094 187.355469 42.988281 187.386719 42.636719 C 187.589844 40.285156 187.800781 37.929688 188.003906 35.578125 C 188.078125 34.765625 188.078125 33.917969 187.789062 33.144531 C 187.589844 32.609375 187.132812 32.121094 186.535156 32.085938 C 185.679688 32.019531 184.914062 32.523438 184.289062 33.054688 C 183.109375 34.117188 182.28125 35.558594 181.859375 37.085938 C 181.6875 38.757812 181.5625 40.429688 181.410156 42.101562 C 181.363281 42.566406 181.386719 43.089844 181.078125 43.476562 C 180.597656 44.136719 179.457031 44.246094 178.941406 43.578125 C 178.683594 43.261719 178.699219 42.828125 178.742188 42.445312 C 178.894531 40.765625 179.035156 39.085938 179.183594 37.40625 C 179.25 36.40625 179.414062 35.40625 179.371094 34.402344 C 179.324219 33.679688 179.175781 32.875 178.59375 32.382812 C 178.167969 32.015625 177.546875 32.019531 177.039062 32.1875 C 176.199219 32.472656 175.511719 33.082031 174.933594 33.742188 C 174.121094 34.710938 173.511719 35.867188 173.195312 37.09375 C 173.011719 38.988281 172.867188 40.882812 172.691406 42.777344 C 172.640625 43.296875 172.277344 43.765625 171.785156 43.9375 C 171.332031 44.085938 170.777344 44.058594 170.410156 43.722656 C 170.132812 43.476562 170.023438 43.089844 170.058594 42.730469 C 170.277344 40.234375 170.496094 37.734375 170.714844 35.238281 C 170.789062 34.25 170.964844 33.179688 170.503906 32.261719 C 170.289062 31.796875 169.726562 31.597656 169.597656 31.085938 Z M 169.597656 31.085938 " fill-opacity="1" fill-rule="nonzero"/><path fill="#d9d9d9" d="M 110.855469 30.585938 C 112.355469 29.574219 114.25 29.242188 116.015625 29.558594 C 117.199219 29.761719 118.328125 30.371094 119.074219 31.328125 C 120.117188 32.667969 120.46875 34.476562 120.175781 36.132812 C 120.082031 36.75 119.550781 37.25 118.933594 37.320312 C 117.296875 37.507812 115.660156 37.675781 114.023438 37.863281 C 113.597656 37.910156 113.113281 37.972656 112.757812 37.679688 C 112.078125 37.144531 112.214844 35.960938 112.921875 35.511719 C 113.210938 35.308594 113.570312 35.269531 113.914062 35.238281 C 115.148438 35.105469 116.378906 34.964844 117.613281 34.832031 C 117.539062 34.085938 117.25 33.324219 116.671875 32.828125 C 115.929688 32.179688 114.886719 32 113.9375 32.121094 C 112.867188 32.246094 111.871094 32.828125 111.199219 33.671875 C 110.382812 34.691406 109.996094 36.027344 110.046875 37.328125 C 110.113281 38.753906 110.976562 40.105469 112.25 40.75 C 113.683594 41.5 115.488281 41.3125 116.824219 40.433594 C 117.160156 40.199219 117.574219 40.023438 117.988281 40.125 C 118.542969 40.246094 118.957031 40.789062 118.941406 41.355469 C 118.964844 41.835938 118.671875 42.277344 118.277344 42.527344 C 117 43.386719 115.46875 43.878906 113.925781 43.859375 C 112.453125 43.859375 110.976562 43.367188 109.824219 42.445312 C 108.507812 41.40625 107.640625 39.828125 107.445312 38.160156 C 107.125 35.277344 108.429688 32.207031 110.855469 30.585938 Z M 110.855469 30.585938 " fill-opacity="1" fill-rule="nonzero"/><path fill="#d9d9d9" d="M 130.703125 30.644531 C 132.230469 29.578125 134.1875 29.226562 136 29.566406 C 137.152344 29.777344 138.25 30.371094 138.984375 31.300781 C 140.015625 32.597656 140.378906 34.351562 140.136719 35.976562 C 140.085938 36.414062 139.875 36.84375 139.496094 37.085938 C 139.121094 37.347656 138.644531 37.339844 138.207031 37.394531 C 136.710938 37.558594 135.214844 37.722656 133.714844 37.886719 C 133.355469 37.929688 132.945312 37.914062 132.664062 37.65625 C 132.074219 37.160156 132.136719 36.148438 132.6875 35.644531 C 132.933594 35.402344 133.277344 35.292969 133.613281 35.261719 C 134.925781 35.125 136.234375 34.972656 137.542969 34.835938 C 137.480469 34.078125 137.175781 33.308594 136.585938 32.8125 C 135.855469 32.183594 134.835938 32.003906 133.902344 32.117188 C 132.828125 32.234375 131.824219 32.8125 131.148438 33.65625 C 130.324219 34.679688 129.925781 36.027344 129.980469 37.339844 C 130.050781 38.746094 130.898438 40.085938 132.148438 40.730469 C 133.597656 41.507812 135.4375 41.316406 136.789062 40.414062 C 137.15625 40.148438 137.652344 39.992188 138.089844 40.179688 C 138.597656 40.367188 138.921875 40.917969 138.875 41.453125 C 138.859375 41.886719 138.589844 42.273438 138.238281 42.507812 C 136.941406 43.390625 135.378906 43.886719 133.808594 43.859375 C 132.109375 43.847656 130.40625 43.175781 129.210938 41.953125 C 128.082031 40.835938 127.421875 39.277344 127.339844 37.695312 C 127.210938 34.988281 128.457031 32.191406 130.703125 30.644531 Z M 130.703125 30.644531 " fill-opacity="1" fill-rule="nonzero"/><path fill="#d9d9d9" d="M 148.453125 29.519531 C 150.058594 29.285156 151.757812 29.59375 153.132812 30.476562 C 153.476562 30.695312 153.863281 30.929688 153.996094 31.34375 C 154.304688 32.28125 153.375 33.355469 152.410156 33.191406 C 152.050781 33.132812 151.78125 32.867188 151.480469 32.691406 C 150.617188 32.171875 149.566406 31.980469 148.574219 32.144531 C 146.902344 32.394531 145.414062 33.5625 144.726562 35.105469 C 144.246094 36.171875 144.148438 37.425781 144.5625 38.53125 C 144.992188 39.746094 146.035156 40.710938 147.273438 41.050781 C 148.589844 41.4375 150.046875 41.136719 151.175781 40.375 C 151.542969 40.113281 152.050781 39.996094 152.472656 40.203125 C 152.976562 40.417969 153.265625 41 153.191406 41.535156 C 153.148438 41.9375 152.890625 42.289062 152.5625 42.507812 C 151.292969 43.371094 149.765625 43.871094 148.226562 43.859375 C 146.6875 43.863281 145.136719 43.34375 143.957031 42.339844 C 143.03125 41.570312 142.339844 40.527344 141.976562 39.378906 C 141.4375 37.699219 141.59375 35.828125 142.308594 34.226562 C 143.394531 31.753906 145.78125 29.890625 148.453125 29.519531 Z M 148.453125 29.519531 " fill-opacity="1" fill-rule="nonzero"/><path fill="#d9d9d9" d="M 160.859375 29.515625 C 162.355469 29.308594 163.929688 29.554688 165.246094 30.316406 C 166.65625 31.109375 167.726562 32.472656 168.1875 34.027344 C 168.867188 36.265625 168.316406 38.78125 166.914062 40.628906 C 165.40625 42.667969 162.902344 43.964844 160.355469 43.855469 C 158.667969 43.800781 157 43.097656 155.832031 41.863281 C 154.9375 40.929688 154.339844 39.714844 154.136719 38.433594 C 153.824219 36.566406 154.296875 34.597656 155.351562 33.035156 C 156.589844 31.160156 158.632812 29.824219 160.859375 29.515625 M 160.855469 32.160156 C 158.746094 32.519531 156.976562 34.351562 156.722656 36.488281 C 156.527344 37.882812 157.070312 39.375 158.164062 40.265625 C 159.070312 41.019531 160.300781 41.34375 161.460938 41.179688 C 162.554688 41.03125 163.59375 40.5 164.367188 39.703125 C 165.347656 38.734375 165.914062 37.335938 165.824219 35.949219 C 165.746094 34.792969 165.175781 33.664062 164.25 32.960938 C 163.304688 32.214844 162.03125 31.9375 160.855469 32.160156 Z M 160.855469 32.160156 " fill-opacity="1" fill-rule="nonzero"/></svg>