<svg xmlns="http://www.w3.org/2000/svg" xmlns:xlink="http://www.w3.org/1999/xlink" width="256" zoomAndPan="magnify" viewBox="0 0 192 44.999999" height="60" preserveAspectRatio="xMidYMid meet" version="1.0"><defs><clipPath id="97e4078bfd"><path d="M 132 1.160156 L 191 1.160156 L 191 44.660156 L 132 44.660156 Z M 132 1.160156 " clip-rule="nonzero"/></clipPath><clipPath id="3e61a017cc"><path d="M 0 1.160156 L 130 1.160156 L 130 44.660156 L 0 44.660156 Z M 0 1.160156 " clip-rule="nonzero"/></clipPath></defs><g clip-path="url(#97e4078bfd)"><path fill="#d9d9d9" d="M 132.132812 1.957031 L 145.476562 1.957031 L 160.960938 20.109375 L 175.96875 1.957031 L 190.382812 1.957031 L 190.382812 44.523438 L 174.09375 44.523438 L 173.953125 20.535156 L 157.261719 39.183594 L 140.121094 21.8125 L 140.121094 44.523438 L 132.273438 44.523438 L 132.132812 1.957031 " fill-opacity="1" fill-rule="nonzero"/></g><g clip-path="url(#3e61a017cc)"><path fill="#d9d9d9" d="M 74.277344 1.957031 L 111.835938 1.957031 C 128.976562 6.308594 130.542969 25.097656 111.835938 29.941406 C 111.835938 29.941406 123.117188 35.785156 129.96875 44.53125 L 109.273438 44.53125 C 108.976562 44.15625 108.65625 43.789062 108.3125 43.429688 C 106.40625 41.785156 104.5 40.277344 102.59375 38.898438 C 97.164062 35.460938 91.277344 33.34375 91.277344 33.34375 L 91.28125 44.523438 L 74.28125 44.523438 L 74.28125 26.675781 C 69.664062 25.890625 65.167969 25.660156 60.847656 25.84375 L 72.714844 44.523438 L 51.304688 44.523438 L 41.226562 29.484375 C 27.898438 33.820312 17.898438 41.390625 14.847656 43.742188 L 14.136719 44.667969 L 0.804688 44.667969 L 1.207031 43.996094 L 29.902344 1.957031 L 45.671875 1.957031 L 55.296875 17.109375 C 49.160156 18.179688 43.238281 20.371094 37.367188 23.722656 L 32.742188 16.824219 L 17.734375 39.28125 L 17.875 39.167969 C 20.765625 36.847656 64.15625 3.296875 109.417969 41.449219 C 97.535156 28.390625 85.855469 20.757812 74.28125 17.816406 Z M 91.277344 22.894531 C 115.273438 26.511719 114.847656 6.449219 91.277344 9.496094 L 91.277344 22.894531 " fill-opacity="1" fill-rule="nonzero"/></g></svg>