<svg xmlns="http://www.w3.org/2000/svg" xmlns:xlink="http://www.w3.org/1999/xlink" width="256" zoomAndPan="magnify" viewBox="0 0 192 44.999999" height="60" preserveAspectRatio="xMidYMid meet" version="1.0"><path fill="#d9d9d9" d="M 26.414062 34.578125 L 15.628906 34.578125 L 21.023438 15.988281 Z M 39.101562 43.875 L 26.828125 6.691406 L 15.222656 6.691406 L 2.941406 43.875 Z M 39.101562 43.875 " fill-opacity="1" fill-rule="nonzero"/><path fill="#d9d9d9" d="M 71.542969 19.90625 C 68.507812 6.714844 55.347656 6.691406 50.613281 6.691406 C 45.246094 6.691406 41.363281 6.796875 41.363281 6.796875 L 41.363281 43.855469 L 50.664062 43.855469 C 50.664062 43.855469 63.832031 44.574219 69.554688 35.675781 L 62.796875 23.894531 C 62.84375 24.363281 62.886719 24.84375 62.886719 25.371094 C 62.886719 35.882812 50.648438 34.519531 50.648438 34.519531 L 50.648438 16.027344 C 52.34375 16.027344 58.730469 15.351562 61.539062 19.90625 Z M 71.542969 19.90625 " fill-opacity="1" fill-rule="nonzero"/><path fill="#d9d9d9" d="M 86.050781 39.53125 L 86.050781 43.875 L 95.515625 43.875 L 95.515625 23.039062 Z M 123.683594 16.007812 L 123.683594 6.691406 L 76.535156 6.691406 L 76.535156 16.007812 L 86.050781 16.007812 L 86.050781 19.90625 L 95.515625 19.90625 L 95.515625 16.007812 Z M 123.683594 16.007812 " fill-opacity="1" fill-rule="nonzero"/><path fill="#d9d9d9" d="M 121.703125 29.984375 L 121.703125 20.691406 L 100 20.691406 L 100 43.875 L 123.828125 43.875 L 123.828125 34.539062 L 109.429688 34.539062 L 109.429688 29.984375 Z M 121.703125 29.984375 " fill-opacity="1" fill-rule="nonzero"/><path fill="#d9d9d9" d="M 151.539062 7.152344 C 149.453125 6.34375 147.1875 6.691406 144.816406 6.691406 C 134.546875 6.691406 126.21875 15.015625 126.21875 25.28125 C 126.21875 35.550781 134.546875 43.875 144.816406 43.875 C 147.1875 43.875 149.453125 43.425781 151.539062 42.617188 L 151.539062 31.90625 C 149.800781 33.558594 147.421875 34.578125 144.789062 34.578125 C 139.472656 34.578125 135.160156 30.417969 135.160156 25.28125 C 135.160156 20.148438 139.472656 15.988281 144.789062 15.988281 C 147.421875 15.988281 149.800781 16.210938 151.539062 17.863281 Z M 151.539062 7.152344 " fill-opacity="1" fill-rule="nonzero"/><path fill="#d9d9d9" d="M 179.878906 6.65625 L 179.878906 20.691406 L 165.640625 20.691406 L 165.640625 6.65625 L 156.1875 6.65625 L 156.1875 43.835938 L 165.640625 43.835938 L 165.640625 30.007812 L 179.878906 30.007812 L 179.878906 43.835938 L 189.234375 43.835938 L 189.234375 6.65625 Z M 179.878906 6.65625 " fill-opacity="1" fill-rule="nonzero"/><path fill="#d9d9d9" d="M 68.523438 23.207031 C 68.523438 23.207031 67.234375 23.207031 67.847656 24.339844 L 78.304688 43.554688 C 78.304688 43.554688 78.921875 44.683594 79.535156 43.554688 L 89.992188 24.339844 C 89.992188 24.339844 90.609375 23.207031 89.320312 23.207031 Z M 68.523438 23.207031 " fill-opacity="1" fill-rule="nonzero"/></svg>