<svg xmlns="http://www.w3.org/2000/svg" xmlns:xlink="http://www.w3.org/1999/xlink" width="256" zoomAndPan="magnify" viewBox="0 0 192 44.999999" height="60" preserveAspectRatio="xMidYMid meet" version="1.0"><defs><clipPath id="32698b10b3"><path d="M 8.078125 1.039062 L 183.578125 1.039062 L 183.578125 45 L 8.078125 45 Z M 8.078125 1.039062 " clip-rule="nonzero"/></clipPath></defs><g clip-path="url(#32698b10b3)"><path fill="#d9d9d9" d="M 73.398438 44.582031 L 73.398438 1.390625 C 71.972656 1.152344 70.582031 1.039062 69.203125 1.039062 C 67.855469 1.039062 66.464844 1.152344 65.050781 1.390625 L 65.050781 40.15625 C 65.050781 46.136719 71.589844 45.058594 73.398438 44.582031 M 133.660156 35.582031 C 133.074219 37.503906 132.164062 39.171875 130.949219 40.605469 C 129.726562 42.027344 128.203125 43.144531 126.351562 43.949219 C 124.507812 44.75 122.339844 45.15625 119.875 45.15625 C 117.402344 45.15625 115.242188 44.75 113.414062 43.949219 C 111.597656 43.144531 110.074219 42.035156 108.886719 40.605469 C 107.679688 39.179688 106.789062 37.511719 106.167969 35.582031 C 105.566406 33.667969 105.257812 31.597656 105.257812 29.375 C 105.257812 27.144531 105.566406 25.0625 106.167969 23.097656 C 106.78125 21.148438 107.679688 19.457031 108.886719 18.027344 C 110.074219 16.601562 111.597656 15.480469 113.414062 14.652344 C 115.242188 13.832031 117.390625 13.425781 119.875 13.425781 C 122.347656 13.425781 124.507812 13.839844 126.351562 14.652344 C 128.203125 15.472656 129.726562 16.601562 130.949219 18.027344 C 132.164062 19.457031 133.074219 21.148438 133.660156 23.097656 C 134.246094 25.0625 134.542969 27.144531 134.542969 29.375 C 134.542969 31.597656 134.246094 33.667969 133.660156 35.582031 M 125.566406 25.25 C 125.566406 22.128906 123.03125 19.613281 119.902344 19.613281 C 116.769531 19.613281 114.226562 22.136719 114.226562 25.25 L 114.226562 33.316406 C 114.226562 36.429688 116.769531 38.949219 119.902344 38.949219 C 123.03125 38.949219 125.566406 36.429688 125.566406 33.316406 Z M 60.914062 27.929688 C 60.914062 25.882812 60.617188 23.96875 60.03125 22.171875 C 59.4375 20.382812 58.5625 18.839844 57.382812 17.535156 C 56.222656 16.238281 54.804688 15.214844 53.144531 14.464844 C 51.484375 13.71875 49.585938 13.347656 47.445312 13.347656 C 44.988281 13.347656 42.847656 13.769531 41.011719 14.617188 C 39.167969 15.460938 37.628906 16.617188 36.386719 18.0625 C 35.136719 19.527344 34.191406 21.246094 33.5625 23.203125 C 32.925781 25.179688 32.621094 27.269531 32.621094 29.535156 C 32.621094 31.808594 32.925781 33.90625 33.546875 35.847656 C 34.15625 37.777344 35.101562 39.433594 36.394531 40.84375 C 37.671875 42.230469 39.339844 43.332031 41.378906 44.117188 C 43.414062 44.910156 45.855469 45.296875 48.703125 45.296875 C 52.585938 45.296875 56.0625 44.707031 59.148438 43.523438 C 59.113281 42.265625 58.929688 41.082031 58.617188 39.980469 C 58.300781 38.871094 57.925781 37.9375 57.488281 37.140625 C 56.222656 37.609375 54.882812 37.980469 53.484375 38.234375 C 52.078125 38.492188 50.707031 38.613281 49.359375 38.613281 C 46.902344 38.613281 44.925781 38.078125 43.421875 37.019531 C 41.921875 35.960938 41.089844 34.25 40.933594 31.886719 L 60.625 31.886719 C 60.714844 31.457031 60.773438 30.875 60.835938 30.140625 C 60.890625 29.417969 60.914062 28.679688 60.914062 27.929688 M 52.960938 26.035156 L 40.976562 26.035156 C 41.175781 24.03125 41.789062 22.472656 42.820312 21.371094 C 43.851562 20.265625 45.347656 19.710938 47.324219 19.710938 C 49.070312 19.710938 50.425781 20.300781 51.394531 21.449219 C 52.355469 22.628906 52.882812 24.15625 52.960938 26.035156 M 183.238281 44.574219 L 183.238281 25.152344 C 183.238281 21.097656 182.417969 18.117188 180.78125 16.203125 C 179.140625 14.296875 176.578125 13.335938 173.097656 13.335938 C 170.878906 13.335938 169.050781 13.875 167.609375 14.96875 C 166.167969 16.042969 165.050781 17.3125 164.253906 18.777344 C 162.917969 15.144531 159.839844 13.335938 155.058594 13.335938 C 153.949219 13.335938 152.949219 13.488281 152.058594 13.789062 C 151.167969 14.078125 150.363281 14.457031 149.65625 14.933594 C 148.949219 15.410156 148.335938 15.9375 147.820312 16.527344 C 147.304688 17.121094 146.882812 17.710938 146.570312 18.300781 C 146.527344 18.027344 146.484375 17.691406 146.421875 17.296875 C 146.367188 16.910156 146.289062 16.503906 146.210938 16.078125 C 146.132812 15.675781 146.046875 15.269531 145.949219 14.898438 C 145.851562 14.527344 145.75 14.238281 145.625 14.042969 C 145.066406 13.929688 144.542969 13.839844 144.027344 13.789062 C 143.511719 13.726562 142.917969 13.691406 142.242188 13.691406 C 141.570312 13.691406 140.957031 13.726562 140.40625 13.789062 C 139.847656 13.839844 139.296875 13.929688 138.738281 14.042969 L 138.738281 44.566406 C 140.164062 44.804688 141.570312 44.917969 142.949219 44.917969 C 144.339844 44.917969 145.75 44.804688 147.171875 44.566406 L 147.171875 28.582031 C 147.171875 26.925781 147.320312 25.582031 147.644531 24.570312 C 147.960938 23.546875 148.378906 22.753906 148.921875 22.179688 C 149.453125 21.617188 150.050781 21.226562 150.722656 21.035156 C 151.394531 20.832031 152.066406 20.734375 152.742188 20.734375 C 154.367188 20.734375 155.433594 21.300781 155.976562 22.4375 C 156.515625 23.582031 156.769531 25.214844 156.769531 27.339844 L 156.769531 44.574219 C 158.195312 44.8125 159.601562 44.925781 160.984375 44.925781 C 162.375 44.925781 163.773438 44.8125 165.199219 44.574219 L 165.199219 28.105469 C 165.199219 26.570312 165.363281 25.328125 165.703125 24.359375 C 166.046875 23.386719 166.484375 22.648438 167.015625 22.117188 C 167.550781 21.582031 168.144531 21.226562 168.789062 21.035156 C 169.445312 20.832031 170.101562 20.734375 170.773438 20.734375 C 172.390625 20.734375 173.476562 21.300781 174.007812 22.4375 C 174.542969 23.582031 174.8125 25.214844 174.8125 27.339844 L 174.8125 44.574219 C 176.230469 44.8125 177.636719 44.925781 179.027344 44.925781 C 180.414062 44.9375 181.816406 44.8125 183.238281 44.574219 M 96.554688 28.167969 L 104.386719 14.050781 C 102.960938 13.824219 101.492188 13.699219 99.996094 13.699219 C 98.414062 13.699219 96.851562 13.824219 95.304688 14.050781 L 87.707031 28.582031 L 96.605469 44.582031 C 98.152344 44.820312 99.601562 44.9375 100.992188 44.9375 C 102.496094 44.9375 104.0625 44.820312 105.6875 44.582031 Z M 82.425781 44.9375 C 83.851562 44.9375 85.25 44.820312 86.640625 44.582031 L 86.640625 1.417969 C 85.25 1.179688 83.851562 1.054688 82.425781 1.054688 C 81.003906 1.054688 79.613281 1.171875 78.273438 1.417969 L 78.273438 44.574219 C 79.621094 44.8125 81.003906 44.9375 82.425781 44.9375 M 28.117188 9.449219 L 28.117188 44.574219 C 27.410156 44.652344 26.691406 44.722656 25.984375 44.785156 C 25.277344 44.847656 24.578125 44.875 23.90625 44.875 C 23.230469 44.875 22.515625 44.855469 21.746094 44.8125 C 20.976562 44.777344 20.199219 44.6875 19.394531 44.574219 L 19.394531 9.449219 L 8.773438 9.449219 C 8.539062 8.269531 8.414062 7.035156 8.414062 5.738281 C 8.414062 4.511719 8.539062 3.3125 8.773438 2.125 L 38.738281 2.125 C 38.972656 3.3125 39.097656 4.511719 39.097656 5.738281 C 39.097656 7.035156 38.972656 8.269531 38.738281 9.449219 Z M 28.117188 9.449219 " fill-opacity="1" fill-rule="nonzero"/></g></svg>