<svg xmlns="http://www.w3.org/2000/svg" xmlns:xlink="http://www.w3.org/1999/xlink" width="256" zoomAndPan="magnify" viewBox="0 0 192 44.999999" height="60" preserveAspectRatio="xMidYMid meet" version="1.0"><defs><clipPath id="b99d25af24"><path d="M 0 8.34375 L 192 8.34375 L 192 45 L 0 45 Z M 0 8.34375 " clip-rule="nonzero"/></clipPath></defs><g clip-path="url(#b99d25af24)"><path fill="#d9d9d9" d="M 146.757812 35.691406 C 146.734375 35.496094 146.722656 35.285156 146.722656 35.054688 L 146.722656 35.007812 C 146.722656 34.980469 146.726562 34.964844 146.726562 34.9375 C 146.71875 33.773438 147.207031 32.046875 147.347656 31.664062 L 147.371094 31.589844 C 147.828125 30.332031 148.015625 29.808594 148.632812 28.898438 C 149.664062 27.375 150.128906 26.886719 151.242188 26.136719 C 152.230469 25.472656 153.570312 25.328125 153.671875 25.3125 L 153.699219 25.308594 C 153.867188 25.285156 154.171875 25.269531 154.511719 25.269531 C 154.910156 25.269531 155.269531 25.296875 155.4375 25.328125 L 155.464844 25.332031 C 155.582031 25.335938 156.625 25.441406 157.566406 26.355469 C 158.5625 27.320312 159.121094 28.625 159.230469 30.234375 C 159.289062 31.054688 159.234375 31.738281 159.035156 32.855469 C 158.679688 34.839844 157.957031 36.191406 157.425781 36.976562 C 156.585938 38.195312 155.878906 39.027344 154.753906 39.660156 C 154.203125 39.976562 153.171875 40.554688 151.46875 40.554688 C 151.035156 40.554688 150.578125 40.515625 150.105469 40.441406 C 149.5625 40.355469 148.816406 39.875 148.761719 39.84375 C 148.714844 39.8125 148.441406 39.585938 148.324219 39.472656 C 147.445312 38.597656 146.949219 37.398438 146.757812 35.691406 Z M 165.160156 24.480469 C 162.1875 21.539062 157.746094 21.097656 155.359375 21.097656 C 154.085938 21.097656 153.246094 21.222656 153.152344 21.234375 C 147.390625 22.089844 143.148438 24.265625 140.539062 27.691406 C 137.878906 31.1875 137.957031 34.660156 138.042969 35.636719 C 138.476562 40.519531 141.367188 43.425781 146.636719 44.269531 L 146.636719 44.285156 C 146.699219 44.300781 148.261719 44.582031 150.535156 44.582031 C 153.242188 44.582031 155.710938 44.191406 157.863281 43.414062 C 160.144531 42.628906 161.65625 41.398438 161.71875 41.351562 L 161.71875 41.347656 C 164.625 39.242188 165.890625 36.867188 165.949219 36.765625 C 167.761719 33.308594 169.109375 28.375 165.199219 24.515625 Z M 170.566406 22.335938 C 170.429688 22.410156 170.144531 22.507812 169.878906 22.5625 C 169.773438 22.578125 169.675781 22.59375 169.59375 22.601562 C 169.320312 22.613281 169.101562 22.542969 168.945312 22.40625 C 168.519531 22.011719 168.652344 21.511719 168.796875 21.277344 C 170.28125 19.078125 169.9375 15.773438 169.5 14.164062 L 169.488281 14.132812 L 169.492188 14.117188 L 169.476562 13.949219 C 169.386719 13.558594 169.34375 13.179688 169.339844 12.824219 C 169.332031 11.078125 170.398438 10.410156 170.519531 10.335938 C 170.550781 10.308594 170.632812 10.265625 170.8125 10.179688 L 170.816406 10.171875 L 170.890625 10.144531 C 170.941406 10.125 171.109375 10.054688 171.253906 10.003906 C 171.339844 9.972656 171.414062 9.957031 171.453125 9.945312 C 171.480469 9.941406 171.523438 9.929688 171.570312 9.917969 C 171.59375 9.914062 171.628906 9.902344 171.691406 9.898438 C 172.199219 9.808594 173 9.769531 173.847656 10.121094 C 173.90625 10.148438 173.957031 10.167969 174.011719 10.199219 C 174.417969 10.410156 174.792969 10.703125 175.113281 11.078125 C 175.398438 11.457031 175.609375 11.90625 175.730469 12.425781 C 175.894531 13.117188 175.925781 13.929688 175.824219 14.859375 C 175.824219 14.863281 175.6875 15.992188 175.425781 16.746094 L 175.171875 17.519531 C 174.945312 18.101562 174.808594 18.394531 174.511719 18.890625 C 174.484375 18.949219 174.421875 19.039062 174.332031 19.167969 C 174.285156 19.238281 174.238281 19.3125 174.199219 19.375 C 173.941406 19.75 173.832031 19.90625 173.472656 20.289062 C 173.40625 20.363281 173.304688 20.464844 173.195312 20.570312 L 173.074219 20.691406 C 172.863281 20.894531 172.597656 21.113281 172.28125 21.347656 C 171.53125 21.898438 170.9375 22.1875 170.566406 22.332031 Z M 192 36.882812 C 192.03125 38.5 191.148438 40.269531 189.640625 41.628906 C 188.269531 42.867188 186.296875 43.8125 184.09375 44.285156 C 183.5625 44.402344 181.644531 44.777344 179.246094 44.777344 C 177.453125 44.777344 175.820312 44.570312 174.386719 44.15625 L 174.398438 44.171875 L 173.957031 44.039062 C 172.6875 43.632812 171.660156 43.085938 170.917969 42.414062 C 170.75 42.269531 170.617188 42.136719 170.515625 42.015625 C 170.503906 42 170.484375 41.976562 170.46875 41.957031 C 169.457031 40.75 169.308594 39.277344 170.058594 37.90625 C 170.523438 37.054688 171.21875 36.410156 172.011719 36.089844 C 173.386719 35.542969 174.683594 35.515625 175.113281 35.507812 L 175.203125 35.507812 C 175.257812 35.503906 175.308594 35.503906 175.371094 35.503906 C 175.933594 35.503906 177.007812 35.65625 177.4375 36.230469 C 177.601562 36.449219 177.65625 36.710938 177.601562 36.988281 C 177.566406 37.148438 177.449219 37.382812 177.085938 37.570312 C 176.085938 38.09375 175.390625 38.546875 175.253906 39.050781 C 175.191406 39.28125 175.242188 39.542969 175.421875 39.84375 C 175.773438 40.441406 176.972656 40.789062 178.707031 40.808594 L 178.796875 40.808594 C 180.5625 40.808594 181.988281 40.332031 182.703125 39.503906 C 183.027344 39.128906 183.179688 38.703125 183.140625 38.277344 C 183.132812 38.152344 183.085938 38 183 37.8125 C 182.207031 36.246094 180.023438 34.230469 176.128906 31.460938 C 175.996094 31.371094 175.875 31.273438 175.75 31.183594 C 173.347656 29.46875 173.410156 28.035156 173.433594 27.566406 L 173.4375 27.507812 C 173.441406 27.476562 173.441406 27.460938 173.445312 27.441406 C 173.4375 26.832031 173.621094 26.449219 173.628906 26.433594 L 173.660156 26.371094 C 174.609375 23.195312 178.25 22.257812 180.351562 21.984375 C 181.121094 21.882812 181.734375 21.855469 182.046875 21.851562 L 182.164062 21.847656 C 182.511719 21.835938 182.855469 21.832031 183.199219 21.832031 C 184.925781 21.832031 186.222656 22.007812 186.8125 22.15625 C 187.148438 22.242188 187.453125 22.289062 187.71875 22.289062 C 188.546875 22.289062 188.851562 21.859375 189.121094 21.488281 L 189.167969 21.421875 C 189.371094 21.125 189.832031 20.769531 190.417969 20.824219 L 190.5 20.828125 C 191.144531 20.871094 191.476562 21.171875 191.414062 22.636719 C 191.371094 23.65625 191.09375 26.8125 191.03125 27.433594 C 190.980469 28 190.835938 28.371094 190.613281 28.53125 C 190.488281 28.625 190.207031 28.78125 189.800781 28.742188 C 189.21875 28.683594 188.75 27.875 188.664062 27.683594 L 188.660156 27.683594 C 188.347656 26.839844 187.085938 25.855469 184.566406 25.855469 L 184.414062 25.855469 C 183.125 25.882812 182.675781 26.105469 182.523438 26.292969 C 182.433594 26.402344 182.4375 26.511719 182.457031 26.671875 L 182.460938 26.703125 C 182.503906 27.09375 183.222656 27.578125 183.804688 27.964844 C 184.027344 28.113281 184.234375 28.253906 184.417969 28.390625 C 185.683594 29.34375 186.675781 30.058594 187.476562 30.636719 C 188.359375 31.269531 189.003906 31.738281 189.539062 32.171875 C 190.382812 32.867188 191.941406 34.144531 192 36.882812 Z M 113.792969 33.542969 C 113.820312 32.9375 113.90625 32.386719 114.042969 31.855469 L 114.0625 31.785156 C 114.242188 31.121094 114.523438 30.511719 114.910156 29.902344 C 117.367188 25.691406 122.035156 25.4375 122.09375 25.4375 C 122.5 25.390625 122.878906 25.367188 123.230469 25.367188 C 125.539062 25.367188 126.148438 26.359375 126.304688 26.8125 C 126.316406 26.933594 126.320312 27.046875 126.324219 27.148438 C 126.335938 27.589844 125.855469 31.863281 125.519531 33.683594 C 125.386719 34.40625 125.074219 35.785156 124.46875 36.9375 C 124.242188 37.347656 123.996094 37.695312 123.734375 37.960938 C 122.242188 39.492188 121.164062 40.058594 119.3125 40.296875 C 119.097656 40.324219 118.863281 40.355469 118.59375 40.355469 C 117.675781 40.355469 116.800781 40.019531 115.925781 39.332031 C 114.800781 38.457031 113.652344 36.472656 113.792969 33.542969 Z M 135.675781 38.1875 C 135.523438 38.140625 135.375 38.125 135.222656 38.125 L 135.175781 38.125 C 134.679688 38.125 134.3125 38.355469 133.988281 38.558594 C 133.691406 38.742188 133.433594 38.902344 133.109375 38.902344 C 133.050781 38.898438 133 38.875 132.957031 38.816406 C 132.574219 38.34375 132.859375 36.5625 132.964844 35.890625 L 132.992188 35.707031 C 133.152344 34.714844 133.324219 33.535156 133.535156 32.011719 C 133.660156 31.230469 133.78125 30.457031 133.894531 29.734375 C 134.1875 27.847656 134.898438 24.039062 135.332031 22.039062 C 136.503906 16.625 137.847656 13.054688 138.492188 11.335938 C 138.800781 10.511719 138.902344 10.246094 138.898438 10.089844 C 138.890625 9.820312 138.867188 8.992188 138.171875 8.617188 C 138.050781 8.554688 137.90625 8.519531 137.742188 8.519531 C 136.945312 8.519531 135.730469 9.324219 135.078125 9.800781 C 129.921875 13.585938 127.851562 20.199219 127.117188 22.671875 C 127.046875 22.640625 126.96875 22.597656 126.890625 22.558594 C 126.804688 22.515625 126.714844 22.464844 126.621094 22.421875 C 124.550781 21.488281 121.78125 21.3125 121.667969 21.304688 C 121.652344 21.304688 121.269531 21.265625 120.625 21.265625 L 120.554688 21.265625 C 120.042969 21.265625 119.519531 21.28125 118.988281 21.324219 C 116.316406 21.503906 114.472656 22.121094 113.976562 22.308594 C 113.414062 22.519531 112.695312 22.796875 112.125 23.085938 C 109.03125 24.570312 106.789062 26.878906 105.449219 29.953125 C 105.164062 30.695312 102.835938 37.335938 108.0625 41.605469 C 108.15625 41.683594 108.253906 41.761719 108.347656 41.835938 L 108.46875 41.921875 C 108.628906 42.039062 108.785156 42.152344 108.945312 42.257812 L 109.101562 42.355469 C 109.171875 42.402344 109.238281 42.441406 109.304688 42.480469 C 109.929688 42.867188 110.570312 43.1875 111.265625 43.480469 L 111.308594 43.5 C 111.863281 43.730469 112.71875 43.976562 113.71875 44.195312 C 114.390625 44.34375 115.851562 44.460938 116.441406 44.460938 L 116.605469 44.460938 C 119.992188 44.351562 122.191406 43.539062 123.503906 42.796875 L 123.503906 42.808594 L 123.851562 42.59375 C 124.632812 42.101562 125.132812 41.621094 125.421875 41.289062 C 125.480469 41.421875 125.527344 41.507812 125.5625 41.570312 L 125.558594 41.570312 C 126.003906 42.34375 127.53125 43.824219 130.160156 43.882812 C 130.546875 43.894531 130.960938 43.867188 131.367188 43.820312 C 132.878906 43.628906 135.535156 42.902344 136.359375 40.191406 C 136.464844 39.835938 136.605469 39.164062 136.335938 38.675781 C 136.195312 38.429688 135.976562 38.265625 135.675781 38.1875 Z M 37.332031 15.894531 L 32.769531 42.34375 C 32.742188 42.523438 32.59375 43.351562 32.59375 43.359375 C 32.460938 44.042969 31.742188 44.503906 31.15625 44.503906 L 31.101562 44.503906 C 29.660156 44.503906 28.011719 42.339844 27.945312 42.25 L 27.773438 42.003906 C 25.984375 39.699219 16.042969 24.304688 14.132812 21.34375 L 11.359375 37.585938 C 11.347656 37.625 10.828125 40.046875 12.183594 40.636719 C 14.292969 41.554688 14.277344 42.316406 14.09375 42.957031 C 14.011719 43.253906 13.808594 43.667969 13.042969 43.785156 C 12.992188 43.796875 12.917969 43.8125 12.851562 43.8125 C 12.828125 43.816406 12.816406 43.816406 12.800781 43.816406 L 12.742188 43.8125 C 12.558594 43.8125 12.355469 43.785156 12.144531 43.753906 C 11.960938 43.730469 11.769531 43.707031 11.570312 43.695312 L 11.414062 43.679688 C 10.902344 43.640625 9.351562 43.523438 7.085938 43.523438 C 5.542969 43.523438 3.949219 43.65625 2.898438 43.742188 C 2.414062 43.785156 2.027344 43.816406 1.769531 43.824219 L 1.734375 43.835938 C 1.734375 43.835938 1.640625 43.851562 1.492188 43.851562 C 1.214844 43.851562 0.695312 43.792969 0.34375 43.40625 C 0.0742188 43.109375 -0.0390625 42.6875 0.0117188 42.152344 C 0.0859375 41.386719 1.046875 41.152344 1.96875 40.925781 L 2.058594 40.90625 C 3.988281 40.433594 4.648438 38.164062 4.84375 37.210938 C 4.847656 37.183594 4.855469 37.167969 4.859375 37.148438 C 5.234375 34.949219 6.109375 29.550781 6.878906 24.785156 C 7.59375 20.351562 8.214844 16.519531 8.371094 15.652344 C 8.636719 14.164062 8.1875 13.078125 7.003906 12.332031 L 6.960938 12.316406 C 6.398438 12.054688 6.144531 11.933594 5.617188 11.585938 C 5.269531 11.359375 4.902344 10.789062 4.921875 10.339844 C 4.949219 9.859375 5.289062 9.449219 5.738281 9.328125 L 5.738281 9.324219 L 5.808594 9.3125 C 5.832031 9.308594 5.847656 9.308594 5.871094 9.296875 L 5.894531 9.292969 C 5.914062 9.289062 6.289062 9.230469 6.921875 9.167969 L 6.957031 9.167969 L 6.957031 9.164062 L 6.984375 9.164062 C 7.792969 9.085938 8.625 9.046875 9.457031 9.046875 C 9.722656 9.046875 9.996094 9.050781 10.277344 9.058594 C 10.507812 9.058594 10.734375 9.0625 10.929688 9.070312 L 11.023438 9.070312 C 11.273438 9.070312 11.679688 9.085938 12.199219 9.160156 C 12.433594 9.183594 12.542969 9.207031 12.542969 9.207031 C 16.253906 9.804688 19.625 12.949219 23.472656 19.390625 C 24.878906 21.746094 26.621094 24.5625 28.019531 26.820312 C 28.515625 27.625 28.960938 28.34375 29.316406 28.921875 L 31.535156 15.6875 C 31.539062 15.660156 31.917969 12.914062 30.027344 12.136719 C 28.941406 11.691406 28.324219 10.976562 28.417969 10.253906 C 28.515625 9.421875 29.160156 8.976562 30.097656 9.109375 L 30.152344 9.125 C 30.265625 9.136719 30.378906 9.148438 30.5 9.167969 C 30.683594 9.195312 30.875 9.214844 31.074219 9.230469 L 31.226562 9.242188 C 31.738281 9.28125 33.285156 9.402344 35.5625 9.402344 C 37.105469 9.402344 38.699219 9.269531 39.753906 9.179688 C 40.347656 9.132812 40.777344 9.09375 41.015625 9.09375 C 41.105469 9.09375 41.164062 9.097656 41.21875 9.109375 L 41.222656 9.109375 C 41.648438 9.109375 42.015625 9.367188 42.164062 9.753906 L 42.179688 9.761719 L 42.21875 9.882812 C 42.421875 10.988281 41.648438 11.777344 39.914062 12.21875 C 37.742188 12.773438 37.375 15.734375 37.371094 15.765625 L 37.355469 15.882812 Z M 102.285156 31.644531 L 102.285156 31.785156 C 102.308594 32.464844 102.046875 35.484375 100.40625 37.890625 C 98.550781 40.609375 96.125 42.265625 94.414062 43.179688 C 94.238281 43.273438 94.0625 43.367188 93.890625 43.464844 C 92.816406 44.046875 91.707031 44.65625 90.355469 44.90625 C 90.273438 44.917969 90.175781 44.921875 90.117188 44.921875 C 90.039062 44.921875 89.78125 44.917969 89.613281 44.847656 L 89.574219 44.835938 C 89.316406 44.730469 88.964844 44.589844 88.949219 44.054688 C 88.945312 43.933594 89 43.757812 89.285156 43.25 C 90.089844 42.171875 92.71875 38.277344 93.398438 32.636719 C 93.78125 29.5 93.441406 27.316406 92.382812 26.164062 C 91.707031 25.417969 90.710938 25.0625 89.351562 25.0625 C 89.171875 25.0625 88.992188 25.066406 88.804688 25.078125 C 85.195312 25.304688 83.511719 28.722656 83.125 30.5 C 82.757812 32.578125 82.25 35.535156 81.898438 37.683594 C 81.828125 38.367188 81.785156 40.027344 82.949219 40.4375 C 84.0625 40.832031 84.605469 41.542969 84.441406 42.375 C 84.316406 43.019531 83.863281 43.402344 83.203125 43.425781 C 82.28125 43.453125 81.378906 43.410156 80.519531 43.363281 C 79.996094 43.335938 79.5 43.304688 79.019531 43.300781 C 78.09375 43.289062 77.148438 43.277344 76.207031 43.277344 C 75.761719 43.277344 75.34375 43.28125 74.972656 43.28125 C 74.835938 43.285156 74.703125 43.285156 74.585938 43.285156 C 74.363281 43.285156 74.195312 43.289062 74.035156 43.289062 C 73.863281 43.292969 73.699219 43.292969 73.46875 43.292969 C 73.363281 43.292969 73.21875 43.296875 73.035156 43.304688 C 72.617188 43.324219 72.042969 43.351562 71.488281 43.320312 C 70.851562 43.300781 70.570312 43.234375 70.378906 43.058594 C 70.050781 42.808594 70.03125 42.355469 70.035156 42.175781 C 70.046875 41.710938 70.203125 41.304688 70.496094 40.988281 C 70.8125 40.640625 71.210938 40.535156 71.59375 40.4375 C 72.300781 40.253906 73.035156 40.058594 73.492188 38.214844 C 73.769531 36.570312 74.136719 34.230469 74.492188 31.96875 C 74.835938 29.804688 75.15625 27.761719 75.351562 26.625 C 75.351562 26.578125 75.363281 26.515625 75.375 26.449219 C 75.386719 26.375 75.40625 26.253906 75.378906 26.226562 C 75.359375 26.203125 75.21875 26.160156 74.945312 26.183594 C 74.785156 26.1875 72.695312 26.296875 72.296875 25.148438 C 71.796875 23.710938 72.800781 23.359375 73.28125 23.183594 L 73.402344 23.140625 C 73.917969 22.945312 79.171875 21.4375 80.207031 21.351562 C 80.332031 21.339844 80.460938 21.320312 80.585938 21.308594 C 80.78125 21.28125 80.984375 21.25 81.175781 21.25 C 81.484375 21.25 81.722656 21.324219 81.90625 21.476562 C 82.695312 22.125 82.660156 23.105469 82.628906 23.898438 C 83.988281 22.617188 86.144531 21.210938 89.171875 20.96875 L 89.171875 20.972656 C 89.378906 20.925781 89.792969 20.894531 90.636719 20.894531 C 90.714844 20.894531 90.789062 20.894531 90.855469 20.898438 C 91.875 20.929688 92.816406 21.0625 93.085938 21.097656 C 96.125 21.519531 98.273438 22.679688 100.054688 24.859375 C 101.101562 26.140625 102.335938 28.351562 102.285156 31.625 Z M 58.625 27.113281 C 58.632812 27.546875 58.160156 31.75 57.828125 33.539062 C 57.660156 34.445312 57.152344 36.675781 56.023438 37.832031 C 54.546875 39.347656 53.488281 39.910156 51.65625 40.148438 C 51.441406 40.175781 51.210938 40.207031 50.949219 40.207031 C 50.042969 40.207031 49.179688 39.875 48.316406 39.195312 C 47.210938 38.324219 46.074219 36.359375 46.214844 33.460938 C 46.246094 32.863281 46.324219 32.316406 46.460938 31.789062 L 46.480469 31.71875 C 46.65625 31.066406 46.929688 30.460938 47.316406 29.855469 C 49.742188 25.683594 54.347656 25.429688 54.40625 25.425781 C 54.804688 25.382812 55.179688 25.359375 55.527344 25.359375 C 58.542969 25.371094 58.621094 27.046875 58.625 27.113281 Z M 67.8125 38.058594 C 67.660156 38.015625 67.507812 38 67.363281 38 C 66.878906 38 66.507812 38.230469 66.1875 38.429688 C 65.898438 38.613281 65.644531 38.773438 65.332031 38.773438 L 65.28125 38.773438 C 65.214844 38.769531 65.171875 38.742188 65.128906 38.691406 C 64.75 38.226562 65.027344 36.453125 65.132812 35.785156 L 65.160156 35.601562 C 65.433594 33.890625 65.707031 31.871094 65.941406 30.160156 L 65.949219 30.171875 L 66.074219 29.238281 C 66.214844 28.222656 66.472656 26.328125 66.484375 25.878906 C 66.503906 24.421875 66.160156 24.09375 65.757812 23.710938 L 65.648438 23.605469 C 65.027344 22.992188 64.1875 22.253906 62.675781 21.367188 C 62.296875 21.148438 61.707031 20.8125 61.203125 20.875 C 60.796875 20.933594 60.382812 21.347656 60.152344 21.734375 C 60.066406 21.878906 59.941406 22.199219 59.789062 22.574219 L 59.757812 22.652344 C 59.71875 22.691406 59.683594 22.71875 59.640625 22.75 C 59.542969 22.816406 59.34375 22.703125 59.136719 22.59375 C 59.050781 22.542969 58.957031 22.496094 58.863281 22.453125 C 56.816406 21.527344 54.082031 21.351562 53.972656 21.34375 C 53.960938 21.34375 53.582031 21.3125 52.945312 21.3125 C 52.4375 21.3125 51.90625 21.328125 51.378906 21.375 C 48.738281 21.550781 46.917969 22.164062 46.425781 22.347656 C 45.875 22.554688 45.164062 22.828125 44.597656 23.113281 C 41.546875 24.582031 39.328125 26.867188 38.007812 29.917969 C 37.730469 30.652344 35.429688 37.226562 40.585938 41.460938 C 40.683594 41.539062 40.773438 41.617188 40.871094 41.691406 L 40.988281 41.777344 C 41.144531 41.894531 41.300781 42.003906 41.457031 42.105469 L 41.613281 42.210938 C 41.683594 42.253906 41.746094 42.292969 41.808594 42.328125 C 42.429688 42.710938 43.0625 43.03125 43.75 43.316406 L 44.144531 43.453125 L 44.136719 43.414062 C 45 43.734375 45.660156 43.894531 46.03125 43.984375 L 46.160156 44.015625 C 46.871094 44.207031 48.351562 44.28125 48.851562 44.28125 L 48.96875 44.28125 C 52.304688 44.175781 54.476562 43.367188 55.777344 42.636719 L 55.777344 42.640625 L 56.125 42.425781 C 56.910156 41.929688 57.402344 41.445312 57.683594 41.121094 L 57.710938 41.195312 L 57.730469 41.167969 C 57.78125 41.28125 57.820312 41.355469 57.855469 41.414062 L 57.851562 41.414062 C 58.300781 42.203125 59.863281 43.703125 62.542969 43.703125 C 62.867188 43.703125 63.199219 43.675781 63.539062 43.636719 C 65.027344 43.445312 67.652344 42.726562 68.460938 40.046875 C 68.570312 39.691406 68.710938 39.027344 68.441406 38.542969 C 68.324219 38.308594 68.105469 38.140625 67.8125 38.058594 Z M 67.8125 38.058594 " fill-opacity="1" fill-rule="evenodd"/></g></svg>