<?xml version="1.0" encoding="UTF-8"?><svg id="Layer_1" xmlns="http://www.w3.org/2000/svg" viewBox="0 0 400 400"><defs><style>.cls-1{fill:#005a96;}.cls-2{fill:#a7a8aa;}.cls-3{fill:#c4d82e;}.cls-4{fill:#35225e;}</style></defs><g><path class="cls-4" d="M62.72,226.7h12.68v37.29h17.83v11.19h-30.51v-48.48Z"/><path class="cls-4" d="M128.07,229.14v12.07c-3.19-2.51-8.14-4.14-12.68-4.14-3.73,0-5.97,1.15-5.97,3.32s2.24,3.12,6.58,4.75c6.71,2.44,15.05,5.42,15.05,15.25,0,9.09-6.92,15.59-18.85,15.59-6.1,0-11.73-1.69-15.25-4.2v-12.75c3.53,3.25,8.75,5.69,14.24,5.69,4.27,0,6.64-1.56,6.64-4,0-2.64-3.32-3.86-7.87-5.56-5.49-2.1-13.29-5.36-13.29-14.37,0-8.41,6.64-14.98,18.31-14.98,5.02,0,9.7,1.29,13.09,3.32Z"/><path class="cls-4" d="M153.36,226.7h20.54c10.37,0,17.29,6.85,17.29,16.07,0,5.9-3.73,11.32-9.49,13.56l12.48,18.85h-14.17l-10.03-16.27h-3.93v16.27h-12.68v-48.48Zm19.05,21.76c3.39,0,5.76-2.44,5.76-5.56s-2.37-5.56-5.76-5.56h-6.37v11.12h6.37Z"/><path class="cls-4" d="M228.81,256.33c0,1.36-.14,3.19-.27,4.07h-21.63c.61,3.93,4.61,5.42,9.02,5.42,4.14,0,8.54-1.49,10.37-2.78v10.85c-2.85,1.36-7.59,2.1-12,2.1-11.46,0-20.14-6.1-20.14-18.24,0-10.37,7.53-18.3,17.9-18.3,10.92,0,16.75,7.66,16.75,16.88Zm-22.1-2.37h10.51c-.2-2.71-2.1-4.68-5.22-4.68s-4.88,1.97-5.29,4.68Z"/><path class="cls-4" d="M257.02,274.37c-1.63,.81-4.41,1.63-8,1.63-7.87,0-12.88-4.61-12.88-12.88v-13.29h-4.34v-9.63h4.68v-7.53l12.2-2.58v10.1h7.53v9.63h-7.53v11.25c0,2.98,1.9,4.07,4.34,4.07,1.29,0,2.92-.41,4-1.15v10.37Z"/><path class="cls-4" d="M275.66,239.38c8.95,0,16.95,4.27,16.95,14.51v21.29h-11.66v-3.93c-1.69,2.58-5.02,4.75-9.29,4.75-6.64,0-11.39-4.07-11.39-9.76s4.34-9.76,12-10.85l8.27-1.15v-.41c0-2.44-2.51-3.73-5.97-3.73-4.75,0-9.09,1.69-11.66,3.59v-11.19c3.25-1.9,8.07-3.12,12.75-3.12Zm4.95,22.04v-.54l-5.15,.68c-2.24,.27-3.59,1.42-3.59,2.98s1.29,2.51,3.19,2.51c2.71,0,5.56-2.17,5.56-5.63Z"/><path class="cls-4" d="M312.74,230.5c0,3.73-2.85,6.37-6.64,6.37s-6.64-2.64-6.64-6.37,2.78-6.44,6.64-6.44,6.64,2.71,6.64,6.44Zm-12.95,9.7h12.54v34.98h-12.54v-34.98Z"/><path class="cls-4" d="M319.52,226.63h12.54v35.53c0,2.1,.75,3.12,2.92,3.12,.81,0,1.63-.2,2.31-.41v10.17c-1.36,.61-3.32,.95-5.83,.95-7.39,0-11.93-3.93-11.93-11.53v-37.83Z"/></g><g><path class="cls-4" d="M216.5,111.17c-6.72,0-11.11,2.11-11.11,8.98,0,3.78,2,6.58,11.15,6.96,5.54,.23,10.22,1.06,14.04,3.67,4.71,3.22,6.68,8.51,6.76,13.47,.1,6.41-2.78,14.51-14.27,18.41-6.5,2.2-14.03,2.39-21.81,2.39-.95,0-1.9-.08-2.85-.08-7.8-.04-13.14-1.48-13.14-1.48-5.27-1.06-12.32-3.4-16.54-8.85-6.91-8.91-7.1-20.98-6.91-27.44,.04-1.48,.14-3.02,.3-4.59,1.08-10.76,5.08-22.93,10.75-32.55-14.81,9.12-24.68,25.47-24.68,44.13,0,28.61,23.19,51.8,51.8,51.8s51.8-23.19,51.8-51.8c0-3.82-.42-7.54-1.2-11.13-.59-.38-17.32-11.89-34.1-11.89Z"/><path class="cls-4" d="M179.06,94.81c-3.18,7.97-5.35,15.31-6.52,23.83-1.28,9.29-.63,15.8,.15,18.66,3.66,13.34,8.81,16.78,28.57,16.78s25.12-2.48,25.12-10.2c0-2.1-1.51-6.48-11.9-6.54-6.58-.04-21.01-1.92-20.05-18.65,.58-10.12,8.68-16.8,18.1-16.77,20.58,.09,33.88,11.4,35.41,12.6-7.74-18.86-26.29-32.13-47.93-32.13-5.54,0-10.88,.87-15.89,2.49-.49,.7-2.61,3.8-5.06,9.93Z"/></g><g><g><path class="cls-2" d="M210.71,308.06c.39,0,.76-.06,1.12-.19s.67-.3,.95-.52,.5-.49,.67-.79,.27-.64,.3-1h2.09c-.03,.57-.19,1.12-.47,1.64-.28,.52-.65,.98-1.12,1.37-.46,.39-1,.71-1.6,.94-.61,.23-1.25,.35-1.94,.35-.97,0-1.82-.17-2.53-.52-.72-.35-1.32-.81-1.8-1.4s-.83-1.27-1.07-2.05c-.23-.78-.35-1.6-.35-2.47v-.5c0-.87,.12-1.69,.35-2.47,.23-.78,.59-1.46,1.07-2.05s1.07-1.06,1.79-1.4,1.56-.52,2.53-.52c.75,0,1.44,.12,2.06,.36,.62,.24,1.15,.57,1.6,.98s.8,.91,1.06,1.48c.25,.57,.4,1.19,.43,1.85h-2.09c-.03-.4-.13-.77-.28-1.12s-.36-.65-.63-.91-.57-.46-.94-.61-.77-.23-1.21-.23c-.68,0-1.25,.14-1.7,.41-.45,.27-.81,.63-1.09,1.07s-.47,.94-.58,1.49c-.11,.55-.17,1.11-.17,1.66v.5c0,.57,.06,1.13,.17,1.69,.11,.55,.3,1.05,.57,1.48s.63,.79,1.09,1.06c.45,.27,1.03,.41,1.72,.41Z"/><path class="cls-2" d="M217.73,303.05c0-.94,.14-1.81,.41-2.61,.27-.8,.66-1.49,1.17-2.08,.5-.59,1.12-1.05,1.84-1.38s1.54-.5,2.43-.5,1.74,.17,2.46,.5,1.35,.79,1.85,1.38,.9,1.28,1.17,2.08c.27,.8,.41,1.67,.41,2.61v.26c0,.94-.13,1.81-.41,2.61-.27,.8-.66,1.49-1.17,2.08s-1.12,1.04-1.85,1.37-1.54,.49-2.45,.49-1.72-.17-2.45-.49-1.34-.79-1.85-1.37c-.51-.58-.9-1.28-1.17-2.08-.27-.8-.41-1.67-.41-2.61v-.26Zm2.22,.26c0,.64,.08,1.25,.23,1.82,.15,.57,.38,1.08,.69,1.51s.69,.78,1.14,1.03,.99,.38,1.6,.38,1.14-.13,1.6-.38c.46-.25,.84-.6,1.14-1.03s.53-.94,.69-1.51c.16-.57,.23-1.18,.23-1.82v-.26c0-.64-.08-1.24-.23-1.82-.16-.58-.39-1.08-.69-1.51s-.69-.78-1.15-1.04-1-.39-1.61-.39-1.13,.13-1.59,.39-.83,.6-1.14,1.04-.53,.94-.69,1.51c-.15,.58-.23,1.18-.23,1.82v.26Z"/><path class="cls-2" d="M234.32,296.72l.06,1.43c.44-.52,.98-.93,1.62-1.23,.63-.29,1.37-.44,2.21-.44s1.57,.17,2.21,.49c.64,.33,1.13,.86,1.47,1.58,.43-.62,.99-1.12,1.68-1.5s1.5-.57,2.44-.57c.69,0,1.3,.09,1.84,.27s.98,.46,1.35,.84,.65,.87,.84,1.46,.29,1.29,.29,2.1v8.48h-2.21v-8.49c0-.54-.07-.99-.2-1.35s-.32-.64-.55-.86c-.24-.21-.53-.36-.87-.45s-.72-.13-1.13-.13c-.45,0-.86,.07-1.2,.21s-.65,.34-.9,.58c-.25,.24-.45,.53-.6,.86s-.24,.68-.28,1.06v8.56h-2.22v-8.48c0-.5-.07-.93-.2-1.28s-.32-.64-.55-.86-.53-.39-.86-.49-.72-.16-1.14-.16c-.79,0-1.42,.17-1.9,.51-.48,.34-.83,.79-1.07,1.34v9.42h-2.21v-12.9h2.09Z"/><path class="cls-2" d="M264.56,303.31c0,.95-.11,1.82-.33,2.62-.22,.8-.55,1.49-.97,2.08s-.95,1.04-1.57,1.37c-.62,.33-1.33,.49-2.12,.49s-1.52-.13-2.13-.38c-.61-.25-1.13-.62-1.57-1.11v6.21h-2.21v-17.87h2.02l.11,1.43c.44-.54,.97-.95,1.59-1.24s1.34-.43,2.16-.43,1.53,.16,2.15,.48c.62,.32,1.15,.77,1.58,1.34s.75,1.27,.97,2.08c.22,.81,.33,1.7,.33,2.69v.25Zm-2.21-.25c0-.64-.07-1.25-.2-1.82-.13-.57-.35-1.07-.63-1.5-.29-.43-.65-.77-1.09-1.02s-.96-.38-1.56-.38c-.37,0-.71,.04-1.02,.13s-.58,.21-.83,.37c-.25,.16-.47,.35-.66,.57s-.36,.46-.5,.71v6.17c.14,.25,.31,.49,.5,.71s.41,.41,.66,.56,.52,.28,.83,.36,.66,.13,1.04,.13c.6,0,1.11-.13,1.54-.38s.79-.6,1.08-1.03c.29-.43,.5-.93,.63-1.51,.13-.58,.2-1.19,.2-1.83v-.25Z"/><path class="cls-2" d="M275.33,309.62c-.08-.16-.14-.36-.19-.6s-.09-.49-.12-.76c-.21,.21-.44,.42-.7,.61s-.54,.37-.85,.51-.64,.26-1,.35-.74,.13-1.13,.13c-.66,0-1.26-.1-1.8-.3s-.99-.47-1.37-.81-.67-.75-.88-1.21c-.21-.47-.31-.96-.31-1.5,0-.69,.13-1.3,.41-1.83,.27-.53,.66-.97,1.16-1.33s1.12-.63,1.83-.81,1.51-.27,2.4-.27h2.19v-1.01c0-.77-.23-1.39-.69-1.84-.46-.46-1.14-.69-2.04-.69-.41,0-.79,.06-1.13,.17s-.63,.26-.88,.45-.43,.4-.57,.65-.2,.51-.2,.78h-2.22c0-.46,.12-.92,.36-1.37,.24-.45,.59-.86,1.03-1.22s.98-.66,1.62-.88c.63-.23,1.34-.34,2.12-.34,.7,0,1.35,.09,1.94,.27s1.1,.45,1.52,.81c.42,.36,.75,.81,.99,1.35s.36,1.17,.36,1.9v6c0,.44,.04,.9,.11,1.38s.19,.9,.34,1.25v.19h-2.31Zm-3.66-1.68c.4,0,.77-.06,1.12-.17s.67-.26,.95-.44,.53-.38,.75-.61,.38-.47,.49-.72v-2.65h-1.84c-1.26,0-2.24,.2-2.92,.59s-1.03,.99-1.03,1.78c0,.31,.05,.6,.16,.87s.26,.5,.47,.7,.47,.35,.78,.47,.66,.17,1.07,.17Z"/><path class="cls-2" d="M282.73,296.72l.07,1.62c.46-.58,1.02-1.04,1.67-1.37,.65-.33,1.38-.49,2.19-.49,.63,0,1.2,.09,1.71,.26s.94,.45,1.3,.82,.63,.86,.83,1.46,.29,1.31,.29,2.15v8.46h-2.21v-8.48c0-.5-.06-.93-.17-1.28-.11-.35-.28-.64-.49-.86s-.49-.39-.81-.49-.69-.16-1.12-.16c-.72,0-1.34,.19-1.88,.57s-.96,.88-1.26,1.5v9.2h-2.21v-12.9h2.09Z"/><g><path class="cls-2" d="M104.62,309.62c-.08-.16-.14-.36-.19-.6s-.09-.49-.12-.76c-.21,.21-.44,.42-.7,.61s-.54,.37-.85,.51-.64,.26-1,.35c-.36,.08-.74,.13-1.13,.13-.66,0-1.26-.1-1.8-.3s-.99-.47-1.37-.81-.67-.75-.88-1.21-.31-.96-.31-1.5c0-.69,.13-1.3,.41-1.83,.27-.53,.66-.97,1.16-1.33s1.12-.63,1.83-.81,1.51-.27,2.4-.27h2.19v-1.01c0-.77-.23-1.39-.69-1.84s-1.14-.69-2.04-.69c-.41,0-.79,.06-1.13,.17s-.63,.26-.88,.45-.43,.4-.57,.65-.2,.51-.2,.78h-2.22c0-.46,.12-.92,.36-1.37s.59-.86,1.03-1.22c.44-.36,.98-.66,1.62-.88,.63-.23,1.34-.34,2.12-.34,.7,0,1.35,.09,1.94,.27s1.1,.45,1.52,.81c.42,.36,.75,.81,.99,1.35,.24,.54,.36,1.17,.36,1.9v6c0,.44,.04,.9,.11,1.38s.19,.9,.34,1.25v.19h-2.31Zm-3.66-1.68c.4,0,.77-.06,1.12-.17s.67-.26,.95-.44,.53-.38,.75-.61,.38-.47,.49-.72v-2.65h-1.84c-1.26,0-2.24,.2-2.92,.59s-1.03,.99-1.03,1.78c0,.31,.05,.6,.16,.87s.26,.5,.47,.7,.47,.35,.78,.47,.66,.17,1.07,.17Z"/><path class="cls-2" d="M112.03,296.72l.07,1.62c.46-.58,1.02-1.04,1.67-1.37,.65-.33,1.38-.49,2.19-.49,.63,0,1.2,.09,1.71,.26s.94,.45,1.3,.82,.63,.86,.83,1.46c.19,.59,.29,1.31,.29,2.15v8.46h-2.21v-8.48c0-.5-.06-.93-.17-1.28s-.28-.64-.49-.86-.49-.39-.81-.49-.69-.16-1.12-.16c-.72,0-1.34,.19-1.88,.57s-.96,.88-1.26,1.5v9.2h-2.21v-12.9h2.09Z"/></g><path class="cls-2" d="M298.35,306.39l3.01-9.67h2.36l-5.19,14.9c-.12,.32-.27,.66-.47,1.04-.19,.37-.44,.72-.75,1.04s-.67,.59-1.1,.81-.93,.33-1.51,.33c-.09,0-.19,0-.31-.02s-.24-.03-.36-.05-.23-.04-.33-.06-.18-.04-.24-.05v-1.79s.08,.01,.13,.02,.11,0,.17,.01,.12,0,.17,.01,.09,0,.13,0c.37,0,.7-.04,.99-.11s.54-.19,.76-.35,.42-.38,.58-.65,.31-.6,.45-1l.49-1.31-4.6-12.76h2.41l3.22,9.67Z"/></g><g><g><path class="cls-1" d="M138.8,306.03c-.3,.4-.73,.78-1.28,1.12-.56,.35-1.2,.53-1.9,.53-.85,0-1.48-.2-1.88-.58-.4-.39-.6-.89-.6-1.54,0-.58,.22-1.02,.68-1.36,.48-.35,1.14-.52,1.98-.52,.73,0,1.35,.05,1.84,.16,.43,.09,.82,.22,1.15,.38v1.81Zm1.61-9.36c-1.01-.81-2.34-1.22-3.95-1.22-1.01,0-1.93,.11-2.71,.33-.78,.22-1.53,.55-2.22,.97-.1,.06-.14,.19-.08,.29l1.07,2.1c.03,.05,.07,.09,.13,.11,.02,0,.04,0,.06,0,.04,0,.07,0,.11-.03,.53-.29,1.08-.51,1.65-.65,.56-.14,1.2-.21,1.92-.21,.8,0,1.41,.19,1.82,.56,.41,.37,.61,.9,.61,1.61v.72c-.78-.29-1.76-.43-2.91-.43-.82,0-1.58,.09-2.28,.28-.7,.19-1.32,.48-1.84,.87-.53,.4-.94,.9-1.24,1.51-.3,.6-.45,1.33-.45,2.15,0,.89,.16,1.67,.46,2.31,.31,.64,.71,1.16,1.2,1.56,.49,.4,1.04,.69,1.64,.86,.6,.18,1.2,.27,1.79,.27,.8,0,1.55-.17,2.24-.51,.51-.25,.98-.56,1.39-.91v.89c0,.12,.1,.22,.22,.22h2.7c.12,0,.22-.1,.22-.22v-9.7c0-1.66-.52-2.92-1.54-3.74"/><path class="cls-1" d="M153.62,306.59c-.48,.68-1.16,1.02-2.08,1.02-.33,0-.64-.05-.94-.16-.3-.11-.6-.25-.87-.42-.27-.17-.52-.36-.74-.56-.2-.19-.37-.37-.52-.55v-5.77c.33-.42,.76-.8,1.26-1.14,.51-.34,1.08-.51,1.69-.51,.94,0,1.65,.36,2.15,1.11,.51,.76,.78,2.03,.78,3.76,0,1.45-.25,2.54-.73,3.24m2.35-9.28c-.51-.64-1.12-1.11-1.81-1.41-.69-.3-1.43-.45-2.2-.45s-1.49,.17-2.11,.5c-.46,.25-.91,.55-1.33,.9v-.88c0-.12-.1-.22-.22-.22h-2.73c-.12,0-.22,.1-.22,.22v21.4c0,.08,.04,.15,.11,.19,.04,.02,.07,.03,.11,.03,.04,0,.07,0,.1-.03l2.73-1.43c.07-.04,.12-.11,.12-.2v-6.63c.34,.3,.74,.57,1.2,.81,.65,.34,1.36,.51,2.11,.51s1.49-.15,2.19-.45c.7-.3,1.32-.76,1.85-1.38,.52-.61,.95-1.38,1.26-2.3,.31-.91,.47-2,.47-3.24,0-1.36-.14-2.55-.42-3.52-.28-.98-.68-1.81-1.19-2.44"/><path class="cls-1" d="M167.59,295.75h-3.26v-5.27c0-.08-.04-.15-.11-.19-.03-.02-.07-.03-.11-.03-.04,0-.07,0-.1,.03l-2.7,1.46c-.07,.04-.12,.11-.12,.2v3.82h-1.79c-.12,0-.22,.1-.22,.22v2.53c0,.12,.1,.22,.22,.22h1.79v7.94c0,1.33,.3,2.33,.9,2.98,.6,.66,1.44,.99,2.48,.99,.57,0,1.1-.06,1.57-.18,.47-.12,.89-.29,1.25-.49,.06-.04,.1-.1,.11-.16l.32-2.45c.01-.08-.03-.17-.1-.21-.04-.02-.08-.04-.12-.04-.04,0-.08,0-.11,.03-.23,.13-.53,.26-.89,.37-.35,.11-.7,.17-1.03,.17-.45,0-.77-.1-.95-.28-.12-.13-.27-.44-.27-1.19v-7.46h3.26c.12,0,.22-.1,.22-.22v-2.53c0-.12-.1-.22-.22-.22"/><path class="cls-1" d="M195.26,304.46c-.21-.5-.53-.94-.96-1.31-.41-.36-.93-.69-1.54-.98-.59-.28-1.29-.58-2.07-.88-.53-.21-.96-.41-1.28-.57-.31-.16-.57-.32-.75-.47-.17-.14-.28-.27-.34-.39-.06-.12-.09-.26-.09-.4,0-.31,.12-.56,.37-.75,.26-.21,.71-.32,1.33-.32s1.27,.1,1.83,.29c.57,.19,1.13,.49,1.68,.89,.05,.04,.12,.05,.18,.04,.06-.01,.11-.05,.15-.11l1.2-2.13c.06-.1,.03-.22-.06-.29-.64-.48-1.39-.87-2.24-1.16-.85-.29-1.74-.44-2.66-.44-.71,0-1.38,.08-1.99,.25-.61,.17-1.15,.43-1.6,.76-.46,.34-.81,.78-1.06,1.29-.25,.51-.37,1.11-.37,1.77,0,.58,.08,1.1,.23,1.54,.15,.45,.41,.87,.76,1.23,.34,.36,.79,.69,1.34,1,.53,.3,1.19,.6,1.94,.89,1,.39,1.8,.75,2.37,1.06,.51,.28,.76,.64,.76,1.1,0,.33,0,1.34-2.35,1.34-.63,0-1.3-.11-1.98-.34-.68-.23-1.35-.57-1.99-1.02-.05-.04-.11-.05-.17-.04-.06,.01-.11,.05-.14,.1l-1.26,2.1c-.06,.1-.03,.23,.06,.3,.73,.53,1.59,.98,2.56,1.32,.97,.35,1.97,.53,2.95,.53,.71,0,1.4-.07,2.04-.22,.66-.15,1.24-.4,1.75-.73,.51-.34,.92-.8,1.23-1.36,.31-.56,.47-1.26,.47-2.09,0-.69-.1-1.29-.31-1.78"/><path class="cls-1" d="M178.85,306.07c-.61,.95-1.58,1.5-2.59,1.5-.87,0-1.72-.38-2.31-1.12-.67-.83-1.04-2.09-1.04-3.41s.33-2.49,.96-3.31c.6-.78,1.49-1.21,2.39-1.21,.95,0,1.87,.47,2.48,1.33,.57,.81,.87,1.98,.87,3.19,0,1.14-.25,2.22-.76,3.02m-2.59-10.61c-1.74,0-3.46,.72-4.62,2.03-1.23,1.38-1.86,3.41-1.86,5.56s.71,4.33,2.01,5.72c1.15,1.24,2.79,1.87,4.48,1.87,1.95,0,3.83-.93,5.02-2.53,.99-1.33,1.47-3.16,1.47-5.07,0-2.03-.58-3.99-1.69-5.35-1.18-1.45-2.95-2.24-4.8-2.24"/></g><polygon class="cls-3" points="176.26 290.3 173.27 293.31 179.25 293.31 176.26 290.3"/></g></g></svg>
