<svg xmlns="http://www.w3.org/2000/svg" xmlns:xlink="http://www.w3.org/1999/xlink" width="380" zoomAndPan="magnify" viewBox="0 0 285 279.749983" height="373" preserveAspectRatio="xMidYMid meet" version="1.0"><defs><clipPath id="9e5bc12e51"><path d="M 1 26.886719 L 284 26.886719 L 284 251.6875 L 1 251.6875 Z M 1 26.886719 " clip-rule="nonzero"/></clipPath><clipPath id="029b5c5e60"><path d="M 261.421875 145.417969 L 261.421875 138.800781 C 261.421875 138.082031 261.386719 137.363281 261.316406 136.648438 C 261.246094 135.933594 261.140625 135.222656 261 134.519531 C 260.863281 133.8125 260.6875 133.117188 260.480469 132.429688 C 260.269531 131.742188 260.027344 131.066406 259.753906 130.402344 C 259.480469 129.738281 259.171875 129.089844 258.835938 128.457031 C 258.496094 127.820312 258.128906 127.207031 257.726562 126.609375 C 257.328125 126.011719 256.902344 125.433594 256.445312 124.878906 C 255.992188 124.324219 255.511719 123.789062 255.003906 123.28125 C 254.496094 122.773438 253.964844 122.292969 253.410156 121.835938 C 252.851562 121.378906 252.277344 120.953125 251.679688 120.550781 C 251.082031 120.152344 250.46875 119.785156 249.835938 119.445312 C 249.203125 119.105469 248.554688 118.800781 247.890625 118.523438 C 247.226562 118.25 246.550781 118.007812 245.863281 117.800781 C 245.179688 117.589844 244.480469 117.414062 243.777344 117.277344 C 243.074219 117.136719 242.363281 117.03125 241.648438 116.960938 C 240.9375 116.890625 240.21875 116.855469 239.5 116.855469 L 45.339844 116.855469 C 44.621094 116.855469 43.90625 116.890625 43.191406 116.960938 C 42.476562 117.03125 41.769531 117.136719 41.0625 117.277344 C 40.359375 117.414062 39.664062 117.589844 38.976562 117.800781 C 38.289062 118.007812 37.613281 118.25 36.953125 118.523438 C 36.289062 118.800781 35.640625 119.105469 35.007812 119.445312 C 34.375 119.785156 33.757812 120.152344 33.160156 120.550781 C 32.566406 120.953125 31.988281 121.378906 31.433594 121.835938 C 30.878906 122.292969 30.347656 122.773438 29.839844 123.28125 C 29.332031 123.789062 28.851562 124.324219 28.394531 124.878906 C 27.9375 125.433594 27.511719 126.011719 27.113281 126.609375 C 26.714844 127.207031 26.347656 127.820312 26.007812 128.457031 C 25.667969 129.089844 25.363281 129.738281 25.085938 130.402344 C 24.8125 131.066406 24.570312 131.742188 24.363281 132.429688 C 24.15625 133.117188 23.980469 133.8125 23.839844 134.519531 C 23.699219 135.222656 23.59375 135.933594 23.523438 136.648438 C 23.453125 137.363281 23.417969 138.082031 23.417969 138.800781 L 23.417969 145.417969 L 1.496094 145.417969 L 1.496094 216.273438 L 23.417969 216.273438 L 23.417969 229.722656 C 23.417969 230.441406 23.453125 231.160156 23.523438 231.875 C 23.59375 232.589844 23.699219 233.300781 23.839844 234.003906 C 23.980469 234.710938 24.15625 235.40625 24.363281 236.09375 C 24.570312 236.78125 24.8125 237.457031 25.085938 238.121094 C 25.363281 238.785156 25.667969 239.4375 26.007812 240.070312 C 26.347656 240.703125 26.714844 241.320312 27.113281 241.917969 C 27.511719 242.515625 27.9375 243.089844 28.394531 243.648438 C 28.851562 244.203125 29.332031 244.734375 29.839844 245.242188 C 30.347656 245.75 30.878906 246.234375 31.433594 246.6875 C 31.988281 247.144531 32.566406 247.574219 33.160156 247.972656 C 33.757812 248.371094 34.375 248.742188 35.007812 249.078125 C 35.640625 249.417969 36.289062 249.726562 36.953125 250 C 37.613281 250.273438 38.289062 250.515625 38.976562 250.726562 C 39.664062 250.933594 40.359375 251.109375 41.0625 251.25 C 41.769531 251.390625 42.476562 251.496094 43.191406 251.566406 C 43.90625 251.636719 44.621094 251.671875 45.339844 251.671875 L 103.746094 251.671875 C 104.828125 251.675781 105.90625 251.597656 106.980469 251.441406 C 108.050781 251.289062 109.105469 251.054688 110.144531 250.742188 C 111.179688 250.429688 112.191406 250.042969 113.171875 249.578125 C 114.152344 249.117188 115.09375 248.585938 115.992188 247.984375 C 116.894531 247.382812 117.746094 246.714844 118.550781 245.988281 C 119.351562 245.257812 120.097656 244.476562 120.785156 243.636719 C 121.472656 242.796875 122.09375 241.910156 122.648438 240.980469 C 123.203125 240.050781 123.6875 239.082031 124.101562 238.078125 L 127.074219 230.851562 C 127.429688 229.988281 127.902344 229.199219 128.492188 228.476562 C 129.082031 227.753906 129.761719 227.132812 130.535156 226.613281 C 131.308594 226.09375 132.140625 225.699219 133.03125 225.429688 C 133.921875 225.15625 134.835938 225.019531 135.765625 225.019531 L 149.230469 225.019531 C 150.164062 225.019531 151.074219 225.15625 151.964844 225.429688 C 152.855469 225.699219 153.691406 226.09375 154.464844 226.613281 C 155.238281 227.132812 155.917969 227.753906 156.507812 228.476562 C 157.097656 229.199219 157.570312 229.988281 157.921875 230.851562 L 160.898438 238.078125 C 161.308594 239.082031 161.792969 240.050781 162.351562 240.980469 C 162.90625 241.910156 163.527344 242.796875 164.214844 243.636719 C 164.902344 244.476562 165.644531 245.257812 166.449219 245.988281 C 167.25 246.714844 168.105469 247.382812 169.003906 247.984375 C 169.90625 248.585938 170.847656 249.117188 171.828125 249.578125 C 172.808594 250.042969 173.816406 250.429688 174.855469 250.742188 C 175.890625 251.054688 176.945312 251.289062 178.019531 251.441406 C 179.089844 251.597656 180.167969 251.675781 181.253906 251.671875 L 239.5 251.671875 C 240.21875 251.671875 240.9375 251.636719 241.648438 251.566406 C 242.363281 251.496094 243.074219 251.390625 243.777344 251.25 C 244.480469 251.109375 245.179688 250.933594 245.863281 250.726562 C 246.550781 250.515625 247.226562 250.273438 247.890625 250 C 248.554688 249.726562 249.203125 249.417969 249.835938 249.078125 C 250.46875 248.742188 251.082031 248.371094 251.679688 247.972656 C 252.277344 247.574219 252.851562 247.144531 253.410156 246.6875 C 253.964844 246.234375 254.496094 245.75 255.003906 245.242188 C 255.511719 244.734375 255.992188 244.203125 256.445312 243.648438 C 256.902344 243.089844 257.328125 242.515625 257.726562 241.917969 C 258.128906 241.320312 258.496094 240.703125 258.835938 240.070312 C 259.171875 239.4375 259.480469 238.785156 259.753906 238.121094 C 260.027344 237.457031 260.269531 236.78125 260.480469 236.09375 C 260.6875 235.40625 260.863281 234.710938 261 234.003906 C 261.140625 233.300781 261.246094 232.589844 261.316406 231.875 C 261.386719 231.160156 261.421875 230.441406 261.421875 229.722656 L 261.421875 216.273438 L 283.34375 216.273438 L 283.34375 145.417969 Z M 14.023438 203.730469 L 14.023438 157.957031 L 23.417969 157.957031 L 23.417969 203.730469 Z M 248.894531 229.722656 C 248.894531 230.339844 248.835938 230.953125 248.714844 231.558594 C 248.59375 232.164062 248.417969 232.753906 248.179688 233.324219 C 247.945312 233.894531 247.65625 234.4375 247.3125 234.949219 C 246.96875 235.464844 246.582031 235.9375 246.144531 236.375 C 245.707031 236.8125 245.234375 237.203125 244.722656 237.542969 C 244.207031 237.886719 243.667969 238.175781 243.097656 238.414062 C 242.527344 238.648438 241.9375 238.828125 241.335938 238.949219 C 240.730469 239.070312 240.117188 239.128906 239.5 239.128906 L 181.097656 239.128906 C 180.167969 239.128906 179.253906 238.996094 178.363281 238.726562 C 177.472656 238.457031 176.640625 238.0625 175.867188 237.542969 C 175.09375 237.027344 174.414062 236.40625 173.824219 235.6875 C 173.234375 234.964844 172.761719 234.175781 172.40625 233.3125 L 169.429688 226.070312 C 169.019531 225.066406 168.535156 224.101562 167.980469 223.167969 C 167.421875 222.238281 166.800781 221.351562 166.113281 220.515625 C 165.429688 219.675781 164.683594 218.890625 163.878906 218.164062 C 163.078125 217.433594 162.226562 216.769531 161.324219 216.167969 C 160.421875 215.566406 159.480469 215.035156 158.5 214.570312 C 157.519531 214.109375 156.511719 213.722656 155.472656 213.410156 C 154.4375 213.097656 153.382812 212.863281 152.308594 212.707031 C 151.238281 212.550781 150.160156 212.476562 149.074219 212.480469 L 135.6875 212.480469 C 134.605469 212.476562 133.527344 212.550781 132.453125 212.707031 C 131.382812 212.863281 130.328125 213.097656 129.289062 213.410156 C 128.25 213.722656 127.242188 214.109375 126.261719 214.570312 C 125.28125 215.035156 124.339844 215.566406 123.441406 216.167969 C 122.539062 216.769531 121.6875 217.433594 120.882812 218.164062 C 120.082031 218.890625 119.335938 219.675781 118.648438 220.515625 C 117.960938 221.351562 117.339844 222.238281 116.785156 223.167969 C 116.230469 224.101562 115.746094 225.066406 115.332031 226.070312 L 112.355469 233.3125 C 112.003906 234.175781 111.53125 234.964844 110.941406 235.6875 C 110.351562 236.40625 109.667969 237.027344 108.894531 237.542969 C 108.121094 238.0625 107.289062 238.457031 106.398438 238.726562 C 105.507812 238.996094 104.597656 239.128906 103.667969 239.128906 L 45.339844 239.128906 C 44.722656 239.128906 44.113281 239.070312 43.507812 238.949219 C 42.902344 238.828125 42.316406 238.648438 41.746094 238.414062 C 41.175781 238.175781 40.632812 237.886719 40.121094 237.542969 C 39.609375 237.203125 39.132812 236.8125 38.695312 236.375 C 38.261719 235.9375 37.871094 235.464844 37.527344 234.949219 C 37.1875 234.4375 36.898438 233.894531 36.660156 233.324219 C 36.425781 232.753906 36.246094 232.164062 36.125 231.558594 C 36.003906 230.953125 35.945312 230.339844 35.945312 229.722656 L 35.945312 138.800781 C 35.945312 138.183594 36.003906 137.570312 36.125 136.964844 C 36.246094 136.359375 36.425781 135.773438 36.660156 135.203125 C 36.898438 134.632812 37.1875 134.089844 37.527344 133.574219 C 37.871094 133.0625 38.261719 132.585938 38.695312 132.148438 C 39.132812 131.714844 39.609375 131.324219 40.121094 130.980469 C 40.632812 130.636719 41.175781 130.347656 41.746094 130.109375 C 42.316406 129.875 42.902344 129.695312 43.507812 129.574219 C 44.113281 129.457031 44.722656 129.394531 45.339844 129.394531 L 239.5 129.394531 C 240.117188 129.394531 240.730469 129.457031 241.335938 129.574219 C 241.9375 129.695312 242.527344 129.875 243.097656 130.109375 C 243.667969 130.347656 244.207031 130.636719 244.722656 130.980469 C 245.234375 131.324219 245.707031 131.714844 246.144531 132.148438 C 246.582031 132.585938 246.96875 133.0625 247.3125 133.574219 C 247.65625 134.089844 247.945312 134.628906 248.179688 135.203125 C 248.417969 135.773438 248.59375 136.359375 248.714844 136.964844 C 248.835938 137.570312 248.894531 138.183594 248.894531 138.800781 Z M 270.816406 203.730469 L 261.421875 203.730469 L 261.421875 157.957031 L 270.816406 157.957031 Z M 100.253906 82.726562 C 99.433594 81.058594 98.71875 79.347656 98.101562 77.597656 C 97.484375 75.84375 96.976562 74.058594 96.570312 72.246094 C 96.164062 70.433594 95.867188 68.601562 95.679688 66.753906 C 95.492188 64.90625 95.414062 63.050781 95.445312 61.195312 C 95.476562 59.335938 95.617188 57.488281 95.867188 55.644531 C 96.117188 53.804688 96.476562 51.984375 96.941406 50.1875 C 97.40625 48.386719 97.976562 46.621094 98.652344 44.890625 C 99.324219 43.160156 100.101562 41.476562 100.972656 39.835938 L 112.027344 45.699219 C 110.75 48.105469 109.769531 50.628906 109.089844 53.265625 C 108.40625 55.90625 108.042969 58.585938 107.996094 61.3125 C 107.949219 64.035156 108.222656 66.730469 108.816406 69.390625 C 109.40625 72.050781 110.300781 74.605469 111.496094 77.050781 Z M 176.867188 61.988281 C 176.867188 58.953125 176.46875 55.976562 175.671875 53.050781 C 174.875 50.125 173.707031 47.355469 172.171875 44.742188 L 182.976562 38.378906 C 183.984375 40.109375 184.878906 41.898438 185.660156 43.746094 C 186.441406 45.59375 187.101562 47.484375 187.640625 49.414062 C 188.179688 51.347656 188.59375 53.304688 188.882812 55.289062 C 189.171875 57.273438 189.332031 59.269531 189.367188 61.273438 C 189.402344 63.277344 189.308594 65.277344 189.085938 67.269531 C 188.867188 69.265625 188.519531 71.234375 188.042969 73.183594 C 187.570312 75.132812 186.976562 77.042969 186.257812 78.914062 C 185.542969 80.789062 184.707031 82.605469 183.757812 84.371094 L 172.796875 78.382812 C 174.160156 75.867188 175.1875 73.222656 175.875 70.445312 C 176.566406 67.667969 176.898438 64.847656 176.867188 61.988281 Z M 79.789062 94.296875 C 78.480469 91.75 77.328125 89.136719 76.335938 86.453125 C 75.34375 83.769531 74.519531 81.03125 73.859375 78.246094 C 73.199219 75.460938 72.710938 72.648438 72.394531 69.804688 C 72.078125 66.957031 71.933594 64.105469 71.964844 61.242188 C 71.996094 58.378906 72.199219 55.53125 72.574219 52.695312 C 72.949219 49.855469 73.496094 47.050781 74.214844 44.28125 C 74.933594 41.511719 75.8125 38.792969 76.863281 36.128906 C 77.910156 33.46875 79.113281 30.878906 80.476562 28.359375 L 91.4375 34.347656 C 89.148438 38.59375 87.417969 43.054688 86.238281 47.734375 C 85.0625 52.410156 84.476562 57.164062 84.484375 61.988281 C 84.46875 66.605469 85.003906 71.15625 86.089844 75.644531 C 87.175781 80.132812 88.78125 84.429688 90.90625 88.527344 Z M 200.355469 61.988281 C 200.355469 56.929688 199.707031 51.957031 198.410156 47.070312 C 197.113281 42.183594 195.207031 37.546875 192.699219 33.15625 L 203.566406 26.886719 C 205.054688 29.492188 206.375 32.183594 207.519531 34.957031 C 208.667969 37.730469 209.632812 40.566406 210.417969 43.464844 C 211.203125 46.363281 211.800781 49.296875 212.214844 52.269531 C 212.625 55.246094 212.847656 58.234375 212.878906 61.234375 C 212.910156 64.238281 212.75 67.226562 212.402344 70.210938 C 212.050781 73.191406 211.515625 76.140625 210.789062 79.050781 C 210.066406 81.964844 209.160156 84.820312 208.070312 87.617188 C 206.980469 90.414062 205.71875 93.132812 204.285156 95.769531 L 193.324219 89.75 C 195.636719 85.488281 197.390625 81.007812 198.578125 76.308594 C 199.769531 71.609375 200.363281 66.835938 200.355469 61.988281 Z M 125.980469 140.367188 L 158.863281 140.367188 L 158.863281 152.910156 L 125.980469 152.910156 Z M 142.421875 78.523438 C 142.984375 78.523438 143.546875 78.496094 144.109375 78.441406 C 144.671875 78.386719 145.226562 78.304688 145.78125 78.195312 C 146.335938 78.082031 146.882812 77.945312 147.421875 77.78125 C 147.960938 77.617188 148.492188 77.429688 149.011719 77.210938 C 149.535156 76.996094 150.042969 76.753906 150.539062 76.488281 C 151.039062 76.222656 151.519531 75.933594 151.988281 75.617188 C 152.460938 75.304688 152.910156 74.96875 153.347656 74.609375 C 153.785156 74.253906 154.203125 73.875 154.601562 73.476562 C 155 73.074219 155.378906 72.65625 155.734375 72.222656 C 156.09375 71.785156 156.429688 71.332031 156.742188 70.863281 C 157.054688 70.390625 157.34375 69.90625 157.609375 69.410156 C 157.878906 68.910156 158.117188 68.402344 158.332031 67.878906 C 158.550781 67.359375 158.738281 66.828125 158.902344 66.285156 C 159.066406 65.746094 159.203125 65.199219 159.3125 64.644531 C 159.425781 64.089844 159.507812 63.535156 159.5625 62.972656 C 159.617188 62.410156 159.644531 61.847656 159.644531 61.28125 C 159.644531 60.714844 159.617188 60.152344 159.5625 59.589844 C 159.507812 59.027344 159.425781 58.472656 159.3125 57.917969 C 159.203125 57.363281 159.066406 56.816406 158.902344 56.277344 C 158.738281 55.734375 158.550781 55.203125 158.332031 54.683594 C 158.117188 54.160156 157.878906 53.652344 157.609375 53.152344 C 157.34375 52.65625 157.054688 52.171875 156.742188 51.699219 C 156.429688 51.230469 156.09375 50.777344 155.734375 50.339844 C 155.378906 49.90625 155 49.488281 154.601562 49.089844 C 154.203125 48.6875 153.785156 48.308594 153.347656 47.953125 C 152.910156 47.59375 152.460938 47.257812 151.988281 46.945312 C 151.519531 46.628906 151.039062 46.339844 150.539062 46.074219 C 150.042969 45.808594 149.535156 45.566406 149.011719 45.351562 C 148.492188 45.132812 147.960938 44.945312 147.421875 44.78125 C 146.882812 44.617188 146.335938 44.480469 145.78125 44.367188 C 145.226562 44.257812 144.671875 44.175781 144.109375 44.121094 C 143.546875 44.066406 142.984375 44.039062 142.421875 44.039062 C 141.855469 44.039062 141.292969 44.066406 140.734375 44.121094 C 140.171875 44.175781 139.613281 44.257812 139.0625 44.367188 C 138.507812 44.480469 137.960938 44.617188 137.421875 44.78125 C 136.882812 44.945312 136.351562 45.132812 135.828125 45.351562 C 135.308594 45.566406 134.800781 45.808594 134.300781 46.074219 C 133.804688 46.339844 133.320312 46.628906 132.851562 46.945312 C 132.382812 47.257812 131.929688 47.59375 131.496094 47.953125 C 131.058594 48.308594 130.640625 48.6875 130.242188 49.089844 C 129.84375 49.488281 129.464844 49.90625 129.105469 50.339844 C 128.75 50.777344 128.414062 51.230469 128.101562 51.699219 C 127.785156 52.171875 127.496094 52.65625 127.230469 53.152344 C 126.964844 53.652344 126.722656 54.160156 126.507812 54.683594 C 126.292969 55.203125 126.101562 55.734375 125.9375 56.277344 C 125.773438 56.816406 125.636719 57.363281 125.527344 57.917969 C 125.417969 58.472656 125.335938 59.027344 125.28125 59.589844 C 125.226562 60.152344 125.195312 60.714844 125.195312 61.28125 C 125.195312 61.847656 125.226562 62.410156 125.28125 62.972656 C 125.335938 63.535156 125.417969 64.089844 125.527344 64.644531 C 125.636719 65.199219 125.773438 65.746094 125.9375 66.285156 C 126.101562 66.828125 126.292969 67.359375 126.507812 67.878906 C 126.722656 68.402344 126.964844 68.910156 127.230469 69.410156 C 127.496094 69.90625 127.785156 70.390625 128.101562 70.863281 C 128.414062 71.332031 128.75 71.785156 129.105469 72.222656 C 129.464844 72.65625 129.84375 73.074219 130.242188 73.476562 C 130.640625 73.875 131.058594 74.253906 131.496094 74.609375 C 131.929688 74.96875 132.382812 75.304688 132.851562 75.617188 C 133.320312 75.933594 133.804688 76.222656 134.300781 76.488281 C 134.800781 76.753906 135.308594 76.996094 135.828125 77.210938 C 136.351562 77.429688 136.882812 77.617188 137.421875 77.78125 C 137.960938 77.945312 138.507812 78.082031 139.0625 78.195312 C 139.613281 78.304688 140.171875 78.386719 140.734375 78.441406 C 141.292969 78.496094 141.855469 78.523438 142.421875 78.523438 Z M 142.421875 56.578125 C 142.730469 56.578125 143.035156 56.609375 143.335938 56.667969 C 143.640625 56.730469 143.933594 56.816406 144.21875 56.9375 C 144.503906 57.054688 144.773438 57.199219 145.03125 57.371094 C 145.289062 57.542969 145.523438 57.738281 145.742188 57.957031 C 145.960938 58.175781 146.15625 58.410156 146.328125 58.667969 C 146.5 58.925781 146.644531 59.195312 146.761719 59.480469 C 146.878906 59.765625 146.96875 60.0625 147.027344 60.363281 C 147.089844 60.667969 147.117188 60.972656 147.117188 61.28125 C 147.117188 61.589844 147.089844 61.894531 147.027344 62.199219 C 146.96875 62.5 146.878906 62.796875 146.761719 63.082031 C 146.644531 63.367188 146.5 63.636719 146.328125 63.894531 C 146.15625 64.152344 145.960938 64.386719 145.742188 64.605469 C 145.523438 64.824219 145.289062 65.019531 145.03125 65.191406 C 144.773438 65.363281 144.503906 65.507812 144.21875 65.625 C 143.933594 65.746094 143.640625 65.832031 143.335938 65.894531 C 143.035156 65.953125 142.730469 65.984375 142.421875 65.984375 C 142.113281 65.984375 141.808594 65.953125 141.503906 65.894531 C 141.203125 65.832031 140.910156 65.746094 140.625 65.625 C 140.339844 65.507812 140.066406 65.363281 139.8125 65.191406 C 139.554688 65.019531 139.316406 64.824219 139.097656 64.605469 C 138.882812 64.386719 138.6875 64.152344 138.515625 63.894531 C 138.34375 63.636719 138.199219 63.367188 138.082031 63.082031 C 137.964844 62.796875 137.875 62.5 137.8125 62.199219 C 137.753906 61.894531 137.722656 61.589844 137.722656 61.28125 C 137.722656 60.972656 137.753906 60.667969 137.8125 60.363281 C 137.875 60.0625 137.964844 59.765625 138.082031 59.480469 C 138.199219 59.195312 138.34375 58.925781 138.515625 58.667969 C 138.6875 58.410156 138.882812 58.175781 139.097656 57.957031 C 139.316406 57.738281 139.554688 57.542969 139.8125 57.371094 C 140.066406 57.199219 140.339844 57.054688 140.625 56.9375 C 140.910156 56.816406 141.203125 56.730469 141.503906 56.667969 C 141.808594 56.609375 142.113281 56.578125 142.421875 56.578125 Z M 142.421875 56.578125 " clip-rule="nonzero"/></clipPath><linearGradient x1="-0.00000000328423" gradientTransform="matrix(1.565815, 0, 0, 1.567637, 1.497546, 26.88731)" y1="71.699997" x2="180.000001" gradientUnits="userSpaceOnUse" y2="71.699997" id="9fe01d802b"><stop stop-opacity="1" stop-color="rgb(7.099915%, 76.098633%, 91.398621%)" offset="0"/><stop stop-opacity="1" stop-color="rgb(7.041931%, 75.654602%, 90.829468%)" offset="0.00390625"/><stop stop-opacity="1" stop-color="rgb(6.985474%, 75.210571%, 90.260315%)" offset="0.0078125"/><stop stop-opacity="1" stop-color="rgb(6.929016%, 74.766541%, 89.691162%)" offset="0.0117188"/><stop stop-opacity="1" stop-color="rgb(6.872559%, 74.32251%, 89.122009%)" offset="0.015625"/><stop stop-opacity="1" stop-color="rgb(6.816101%, 73.878479%, 88.552856%)" offset="0.0195312"/><stop stop-opacity="1" stop-color="rgb(6.759644%, 73.434448%, 87.983704%)" offset="0.0234375"/><stop stop-opacity="1" stop-color="rgb(6.703186%, 72.990417%, 87.414551%)" offset="0.0273438"/><stop stop-opacity="1" stop-color="rgb(6.646729%, 72.546387%, 86.845398%)" offset="0.03125"/><stop stop-opacity="1" stop-color="rgb(6.590271%, 72.102356%, 86.276245%)" offset="0.0351562"/><stop stop-opacity="1" stop-color="rgb(6.533813%, 71.658325%, 85.707092%)" offset="0.0390625"/><stop stop-opacity="1" stop-color="rgb(6.47583%, 71.214294%, 85.137939%)" offset="0.0429688"/><stop stop-opacity="1" stop-color="rgb(6.419373%, 70.770264%, 84.568787%)" offset="0.046875"/><stop stop-opacity="1" stop-color="rgb(6.362915%, 70.326233%, 83.999634%)" offset="0.0507812"/><stop stop-opacity="1" stop-color="rgb(6.306458%, 69.882202%, 83.430481%)" offset="0.0546875"/><stop stop-opacity="1" stop-color="rgb(6.25%, 69.438171%, 82.861328%)" offset="0.0585938"/><stop stop-opacity="1" stop-color="rgb(6.193542%, 68.994141%, 82.292175%)" offset="0.0625"/><stop stop-opacity="1" stop-color="rgb(6.137085%, 68.55011%, 81.723022%)" offset="0.0664063"/><stop stop-opacity="1" stop-color="rgb(6.080627%, 68.106079%, 81.15387%)" offset="0.0703125"/><stop stop-opacity="1" stop-color="rgb(6.02417%, 67.662048%, 80.584717%)" offset="0.0742188"/><stop stop-opacity="1" stop-color="rgb(5.967712%, 67.218018%, 80.015564%)" offset="0.078125"/><stop stop-opacity="1" stop-color="rgb(5.909729%, 66.773987%, 79.446411%)" offset="0.0820312"/><stop stop-opacity="1" stop-color="rgb(5.853271%, 66.329956%, 78.877258%)" offset="0.0859375"/><stop stop-opacity="1" stop-color="rgb(5.796814%, 65.885925%, 78.308105%)" offset="0.0898438"/><stop stop-opacity="1" stop-color="rgb(5.740356%, 65.441895%, 77.738953%)" offset="0.09375"/><stop stop-opacity="1" stop-color="rgb(5.683899%, 64.997864%, 77.1698%)" offset="0.0976563"/><stop stop-opacity="1" stop-color="rgb(5.627441%, 64.553833%, 76.600647%)" offset="0.101562"/><stop stop-opacity="1" stop-color="rgb(5.570984%, 64.109802%, 76.031494%)" offset="0.105469"/><stop stop-opacity="1" stop-color="rgb(5.514526%, 63.665771%, 75.462341%)" offset="0.109375"/><stop stop-opacity="1" stop-color="rgb(5.458069%, 63.221741%, 74.893188%)" offset="0.113281"/><stop stop-opacity="1" stop-color="rgb(5.401611%, 62.77771%, 74.324036%)" offset="0.117188"/><stop stop-opacity="1" stop-color="rgb(5.345154%, 62.333679%, 73.753357%)" offset="0.121094"/><stop stop-opacity="1" stop-color="rgb(5.288696%, 61.889648%, 73.184204%)" offset="0.125"/><stop stop-opacity="1" stop-color="rgb(5.230713%, 61.445618%, 72.615051%)" offset="0.128906"/><stop stop-opacity="1" stop-color="rgb(5.174255%, 61.001587%, 72.045898%)" offset="0.132813"/><stop stop-opacity="1" stop-color="rgb(5.117798%, 60.557556%, 71.476746%)" offset="0.136719"/><stop stop-opacity="1" stop-color="rgb(5.06134%, 60.113525%, 70.907593%)" offset="0.140625"/><stop stop-opacity="1" stop-color="rgb(5.004883%, 59.669495%, 70.33844%)" offset="0.144531"/><stop stop-opacity="1" stop-color="rgb(4.948425%, 59.225464%, 69.769287%)" offset="0.148438"/><stop stop-opacity="1" stop-color="rgb(4.891968%, 58.781433%, 69.200134%)" offset="0.152344"/><stop stop-opacity="1" stop-color="rgb(4.83551%, 58.337402%, 68.630981%)" offset="0.15625"/><stop stop-opacity="1" stop-color="rgb(4.779053%, 57.893372%, 68.061829%)" offset="0.160156"/><stop stop-opacity="1" stop-color="rgb(4.722595%, 57.449341%, 67.492676%)" offset="0.164063"/><stop stop-opacity="1" stop-color="rgb(4.664612%, 57.00531%, 66.923523%)" offset="0.167969"/><stop stop-opacity="1" stop-color="rgb(4.608154%, 56.561279%, 66.35437%)" offset="0.171875"/><stop stop-opacity="1" stop-color="rgb(4.551697%, 56.117249%, 65.785217%)" offset="0.175781"/><stop stop-opacity="1" stop-color="rgb(4.495239%, 55.673218%, 65.216064%)" offset="0.179688"/><stop stop-opacity="1" stop-color="rgb(4.438782%, 55.229187%, 64.646912%)" offset="0.183594"/><stop stop-opacity="1" stop-color="rgb(4.382324%, 54.785156%, 64.077759%)" offset="0.1875"/><stop stop-opacity="1" stop-color="rgb(4.325867%, 54.341125%, 63.508606%)" offset="0.191406"/><stop stop-opacity="1" stop-color="rgb(4.269409%, 53.897095%, 62.939453%)" offset="0.195313"/><stop stop-opacity="1" stop-color="rgb(4.212952%, 53.453064%, 62.3703%)" offset="0.199219"/><stop stop-opacity="1" stop-color="rgb(4.156494%, 53.009033%, 61.801147%)" offset="0.203125"/><stop stop-opacity="1" stop-color="rgb(4.098511%, 52.565002%, 61.231995%)" offset="0.207031"/><stop stop-opacity="1" stop-color="rgb(4.042053%, 52.120972%, 60.662842%)" offset="0.210938"/><stop stop-opacity="1" stop-color="rgb(3.985596%, 51.676941%, 60.093689%)" offset="0.214844"/><stop stop-opacity="1" stop-color="rgb(3.929138%, 51.23291%, 59.524536%)" offset="0.21875"/><stop stop-opacity="1" stop-color="rgb(3.872681%, 50.788879%, 58.955383%)" offset="0.222656"/><stop stop-opacity="1" stop-color="rgb(3.816223%, 50.344849%, 58.38623%)" offset="0.226563"/><stop stop-opacity="1" stop-color="rgb(3.759766%, 49.900818%, 57.817078%)" offset="0.230469"/><stop stop-opacity="1" stop-color="rgb(3.703308%, 49.456787%, 57.247925%)" offset="0.234375"/><stop stop-opacity="1" stop-color="rgb(3.646851%, 49.012756%, 56.678772%)" offset="0.238281"/><stop stop-opacity="1" stop-color="rgb(3.590393%, 48.568726%, 56.109619%)" offset="0.242188"/><stop stop-opacity="1" stop-color="rgb(3.533936%, 48.124695%, 55.540466%)" offset="0.246094"/><stop stop-opacity="1" stop-color="rgb(3.477478%, 47.680664%, 54.971313%)" offset="0.25"/><stop stop-opacity="1" stop-color="rgb(3.419495%, 47.236633%, 54.402161%)" offset="0.253906"/><stop stop-opacity="1" stop-color="rgb(3.363037%, 46.792603%, 53.833008%)" offset="0.257812"/><stop stop-opacity="1" stop-color="rgb(3.30658%, 46.348572%, 53.262329%)" offset="0.261719"/><stop stop-opacity="1" stop-color="rgb(3.250122%, 45.904541%, 52.693176%)" offset="0.265625"/><stop stop-opacity="1" stop-color="rgb(3.193665%, 45.46051%, 52.124023%)" offset="0.269531"/><stop stop-opacity="1" stop-color="rgb(3.137207%, 45.016479%, 51.554871%)" offset="0.273438"/><stop stop-opacity="1" stop-color="rgb(3.08075%, 44.572449%, 50.985718%)" offset="0.277344"/><stop stop-opacity="1" stop-color="rgb(3.024292%, 44.128418%, 50.416565%)" offset="0.28125"/><stop stop-opacity="1" stop-color="rgb(2.967834%, 43.684387%, 49.847412%)" offset="0.285156"/><stop stop-opacity="1" stop-color="rgb(2.911377%, 43.240356%, 49.278259%)" offset="0.289062"/><stop stop-opacity="1" stop-color="rgb(2.853394%, 42.796326%, 48.709106%)" offset="0.292969"/><stop stop-opacity="1" stop-color="rgb(2.796936%, 42.352295%, 48.139954%)" offset="0.296875"/><stop stop-opacity="1" stop-color="rgb(2.740479%, 41.908264%, 47.570801%)" offset="0.300781"/><stop stop-opacity="1" stop-color="rgb(2.684021%, 41.464233%, 47.001648%)" offset="0.304688"/><stop stop-opacity="1" stop-color="rgb(2.627563%, 41.020203%, 46.432495%)" offset="0.308594"/><stop stop-opacity="1" stop-color="rgb(2.571106%, 40.576172%, 45.863342%)" offset="0.3125"/><stop stop-opacity="1" stop-color="rgb(2.514648%, 40.132141%, 45.294189%)" offset="0.316406"/><stop stop-opacity="1" stop-color="rgb(2.458191%, 39.68811%, 44.725037%)" offset="0.320312"/><stop stop-opacity="1" stop-color="rgb(2.401733%, 39.24408%, 44.155884%)" offset="0.324219"/><stop stop-opacity="1" stop-color="rgb(2.345276%, 38.800049%, 43.586731%)" offset="0.328125"/><stop stop-opacity="1" stop-color="rgb(2.287292%, 38.356018%, 43.017578%)" offset="0.332031"/><stop stop-opacity="1" stop-color="rgb(2.230835%, 37.911987%, 42.448425%)" offset="0.335938"/><stop stop-opacity="1" stop-color="rgb(2.174377%, 37.467957%, 41.879272%)" offset="0.339844"/><stop stop-opacity="1" stop-color="rgb(2.11792%, 37.023926%, 41.31012%)" offset="0.34375"/><stop stop-opacity="1" stop-color="rgb(2.061462%, 36.579895%, 40.740967%)" offset="0.347656"/><stop stop-opacity="1" stop-color="rgb(2.005005%, 36.135864%, 40.171814%)" offset="0.351562"/><stop stop-opacity="1" stop-color="rgb(1.948547%, 35.691833%, 39.602661%)" offset="0.355469"/><stop stop-opacity="1" stop-color="rgb(1.89209%, 35.247803%, 39.033508%)" offset="0.359375"/><stop stop-opacity="1" stop-color="rgb(1.835632%, 34.803772%, 38.464355%)" offset="0.363281"/><stop stop-opacity="1" stop-color="rgb(1.779175%, 34.359741%, 37.895203%)" offset="0.367188"/><stop stop-opacity="1" stop-color="rgb(1.722717%, 33.91571%, 37.32605%)" offset="0.371094"/><stop stop-opacity="1" stop-color="rgb(1.66626%, 33.47168%, 36.756897%)" offset="0.375"/><stop stop-opacity="1" stop-color="rgb(1.608276%, 33.027649%, 36.187744%)" offset="0.378906"/><stop stop-opacity="1" stop-color="rgb(1.551819%, 32.583618%, 35.618591%)" offset="0.382813"/><stop stop-opacity="1" stop-color="rgb(1.495361%, 32.139587%, 35.049438%)" offset="0.386719"/><stop stop-opacity="1" stop-color="rgb(1.438904%, 31.695557%, 34.480286%)" offset="0.390625"/><stop stop-opacity="1" stop-color="rgb(1.382446%, 31.251526%, 33.909607%)" offset="0.394531"/><stop stop-opacity="1" stop-color="rgb(1.325989%, 30.807495%, 33.340454%)" offset="0.398438"/><stop stop-opacity="1" stop-color="rgb(1.269531%, 30.363464%, 32.771301%)" offset="0.402344"/><stop stop-opacity="1" stop-color="rgb(1.213074%, 29.919434%, 32.202148%)" offset="0.40625"/><stop stop-opacity="1" stop-color="rgb(1.156616%, 29.475403%, 31.632996%)" offset="0.410156"/><stop stop-opacity="1" stop-color="rgb(1.100159%, 29.031372%, 31.063843%)" offset="0.414062"/><stop stop-opacity="1" stop-color="rgb(1.042175%, 28.587341%, 30.49469%)" offset="0.417969"/><stop stop-opacity="1" stop-color="rgb(0.985718%, 28.143311%, 29.925537%)" offset="0.421875"/><stop stop-opacity="1" stop-color="rgb(0.92926%, 27.69928%, 29.356384%)" offset="0.425781"/><stop stop-opacity="1" stop-color="rgb(0.872803%, 27.255249%, 28.787231%)" offset="0.429688"/><stop stop-opacity="1" stop-color="rgb(0.816345%, 26.811218%, 28.218079%)" offset="0.433594"/><stop stop-opacity="1" stop-color="rgb(0.759888%, 26.367188%, 27.648926%)" offset="0.4375"/><stop stop-opacity="1" stop-color="rgb(0.70343%, 25.923157%, 27.079773%)" offset="0.441406"/><stop stop-opacity="1" stop-color="rgb(0.646973%, 25.479126%, 26.51062%)" offset="0.445313"/><stop stop-opacity="1" stop-color="rgb(0.590515%, 25.035095%, 25.941467%)" offset="0.449219"/><stop stop-opacity="1" stop-color="rgb(0.534058%, 24.591064%, 25.372314%)" offset="0.453125"/><stop stop-opacity="1" stop-color="rgb(0.476074%, 24.147034%, 24.803162%)" offset="0.457031"/><stop stop-opacity="1" stop-color="rgb(0.419617%, 23.703003%, 24.234009%)" offset="0.460938"/><stop stop-opacity="1" stop-color="rgb(0.363159%, 23.258972%, 23.664856%)" offset="0.464844"/><stop stop-opacity="1" stop-color="rgb(0.306702%, 22.814941%, 23.095703%)" offset="0.46875"/><stop stop-opacity="1" stop-color="rgb(0.250244%, 22.370911%, 22.52655%)" offset="0.472656"/><stop stop-opacity="1" stop-color="rgb(0.193787%, 21.92688%, 21.957397%)" offset="0.476563"/><stop stop-opacity="1" stop-color="rgb(0.137329%, 21.482849%, 21.388245%)" offset="0.480469"/><stop stop-opacity="1" stop-color="rgb(0.0808716%, 21.038818%, 20.819092%)" offset="0.484375"/><stop stop-opacity="1" stop-color="rgb(0.0427246%, 20.872498%, 20.457458%)" offset="0.488281"/><stop stop-opacity="1" stop-color="rgb(0.00610352%, 20.707703%, 20.097351%)" offset="0.492188"/><stop stop-opacity="1" stop-color="rgb(0.0183105%, 21.257019%, 20.269775%)" offset="0.496094"/><stop stop-opacity="1" stop-color="rgb(0.0305176%, 21.806335%, 20.443726%)" offset="0.5"/><stop stop-opacity="1" stop-color="rgb(0.0427246%, 22.355652%, 20.617676%)" offset="0.503906"/><stop stop-opacity="1" stop-color="rgb(0.0549316%, 22.906494%, 20.791626%)" offset="0.507812"/><stop stop-opacity="1" stop-color="rgb(0.0671387%, 23.455811%, 20.965576%)" offset="0.511719"/><stop stop-opacity="1" stop-color="rgb(0.0793457%, 24.006653%, 21.139526%)" offset="0.515625"/><stop stop-opacity="1" stop-color="rgb(0.0915527%, 24.555969%, 21.313477%)" offset="0.519531"/><stop stop-opacity="1" stop-color="rgb(0.10376%, 25.106812%, 21.487427%)" offset="0.523438"/><stop stop-opacity="1" stop-color="rgb(0.115967%, 25.656128%, 21.661377%)" offset="0.527344"/><stop stop-opacity="1" stop-color="rgb(0.128174%, 26.20697%, 21.835327%)" offset="0.53125"/><stop stop-opacity="1" stop-color="rgb(0.140381%, 26.756287%, 22.009277%)" offset="0.535156"/><stop stop-opacity="1" stop-color="rgb(0.152588%, 27.307129%, 22.183228%)" offset="0.539062"/><stop stop-opacity="1" stop-color="rgb(0.164795%, 27.856445%, 22.357178%)" offset="0.542969"/><stop stop-opacity="1" stop-color="rgb(0.177002%, 28.405762%, 22.531128%)" offset="0.546875"/><stop stop-opacity="1" stop-color="rgb(0.189209%, 28.955078%, 22.705078%)" offset="0.550781"/><stop stop-opacity="1" stop-color="rgb(0.201416%, 29.50592%, 22.879028%)" offset="0.554688"/><stop stop-opacity="1" stop-color="rgb(0.213623%, 30.055237%, 23.052979%)" offset="0.558594"/><stop stop-opacity="1" stop-color="rgb(0.227356%, 30.606079%, 23.226929%)" offset="0.5625"/><stop stop-opacity="1" stop-color="rgb(0.239563%, 31.155396%, 23.399353%)" offset="0.566406"/><stop stop-opacity="1" stop-color="rgb(0.25177%, 31.706238%, 23.573303%)" offset="0.570312"/><stop stop-opacity="1" stop-color="rgb(0.263977%, 32.255554%, 23.747253%)" offset="0.574219"/><stop stop-opacity="1" stop-color="rgb(0.276184%, 32.806396%, 23.921204%)" offset="0.578125"/><stop stop-opacity="1" stop-color="rgb(0.288391%, 33.355713%, 24.095154%)" offset="0.582031"/><stop stop-opacity="1" stop-color="rgb(0.300598%, 33.905029%, 24.269104%)" offset="0.585938"/><stop stop-opacity="1" stop-color="rgb(0.312805%, 34.454346%, 24.443054%)" offset="0.589844"/><stop stop-opacity="1" stop-color="rgb(0.325012%, 35.005188%, 24.617004%)" offset="0.59375"/><stop stop-opacity="1" stop-color="rgb(0.337219%, 35.554504%, 24.790955%)" offset="0.597656"/><stop stop-opacity="1" stop-color="rgb(0.349426%, 36.105347%, 24.964905%)" offset="0.601563"/><stop stop-opacity="1" stop-color="rgb(0.361633%, 36.654663%, 25.138855%)" offset="0.605469"/><stop stop-opacity="1" stop-color="rgb(0.37384%, 37.205505%, 25.312805%)" offset="0.609375"/><stop stop-opacity="1" stop-color="rgb(0.386047%, 37.754822%, 25.486755%)" offset="0.613281"/><stop stop-opacity="1" stop-color="rgb(0.398254%, 38.305664%, 25.660706%)" offset="0.617188"/><stop stop-opacity="1" stop-color="rgb(0.410461%, 38.85498%, 25.834656%)" offset="0.621094"/><stop stop-opacity="1" stop-color="rgb(0.422668%, 39.405823%, 26.008606%)" offset="0.625"/><stop stop-opacity="1" stop-color="rgb(0.434875%, 39.955139%, 26.182556%)" offset="0.628906"/><stop stop-opacity="1" stop-color="rgb(0.447083%, 40.504456%, 26.356506%)" offset="0.632813"/><stop stop-opacity="1" stop-color="rgb(0.45929%, 41.053772%, 26.528931%)" offset="0.636719"/><stop stop-opacity="1" stop-color="rgb(0.471497%, 41.604614%, 26.702881%)" offset="0.640625"/><stop stop-opacity="1" stop-color="rgb(0.483704%, 42.153931%, 26.876831%)" offset="0.644531"/><stop stop-opacity="1" stop-color="rgb(0.495911%, 42.704773%, 27.050781%)" offset="0.648438"/><stop stop-opacity="1" stop-color="rgb(0.508118%, 43.254089%, 27.224731%)" offset="0.652344"/><stop stop-opacity="1" stop-color="rgb(0.520325%, 43.804932%, 27.398682%)" offset="0.65625"/><stop stop-opacity="1" stop-color="rgb(0.532532%, 44.354248%, 27.572632%)" offset="0.660156"/><stop stop-opacity="1" stop-color="rgb(0.544739%, 44.90509%, 27.746582%)" offset="0.664063"/><stop stop-opacity="1" stop-color="rgb(0.556946%, 45.454407%, 27.920532%)" offset="0.667969"/><stop stop-opacity="1" stop-color="rgb(0.569153%, 46.003723%, 28.094482%)" offset="0.671875"/><stop stop-opacity="1" stop-color="rgb(0.58136%, 46.55304%, 28.268433%)" offset="0.675781"/><stop stop-opacity="1" stop-color="rgb(0.595093%, 47.103882%, 28.442383%)" offset="0.679688"/><stop stop-opacity="1" stop-color="rgb(0.6073%, 47.653198%, 28.616333%)" offset="0.683594"/><stop stop-opacity="1" stop-color="rgb(0.619507%, 48.204041%, 28.790283%)" offset="0.6875"/><stop stop-opacity="1" stop-color="rgb(0.631714%, 48.753357%, 28.964233%)" offset="0.691406"/><stop stop-opacity="1" stop-color="rgb(0.643921%, 49.304199%, 29.138184%)" offset="0.695313"/><stop stop-opacity="1" stop-color="rgb(0.656128%, 49.853516%, 29.312134%)" offset="0.699219"/><stop stop-opacity="1" stop-color="rgb(0.668335%, 50.404358%, 29.486084%)" offset="0.703125"/><stop stop-opacity="1" stop-color="rgb(0.680542%, 50.953674%, 29.658508%)" offset="0.707031"/><stop stop-opacity="1" stop-color="rgb(0.692749%, 51.504517%, 29.832458%)" offset="0.710938"/><stop stop-opacity="1" stop-color="rgb(0.704956%, 52.053833%, 30.006409%)" offset="0.714844"/><stop stop-opacity="1" stop-color="rgb(0.717163%, 52.603149%, 30.180359%)" offset="0.71875"/><stop stop-opacity="1" stop-color="rgb(0.72937%, 53.152466%, 30.354309%)" offset="0.722656"/><stop stop-opacity="1" stop-color="rgb(0.741577%, 53.703308%, 30.528259%)" offset="0.726563"/><stop stop-opacity="1" stop-color="rgb(0.753784%, 54.252625%, 30.702209%)" offset="0.730469"/><stop stop-opacity="1" stop-color="rgb(0.765991%, 54.803467%, 30.87616%)" offset="0.734375"/><stop stop-opacity="1" stop-color="rgb(0.778198%, 55.352783%, 31.05011%)" offset="0.738281"/><stop stop-opacity="1" stop-color="rgb(0.790405%, 55.903625%, 31.22406%)" offset="0.742188"/><stop stop-opacity="1" stop-color="rgb(0.802612%, 56.452942%, 31.39801%)" offset="0.746094"/><stop stop-opacity="1" stop-color="rgb(0.814819%, 57.003784%, 31.57196%)" offset="0.75"/><stop stop-opacity="1" stop-color="rgb(0.827026%, 57.553101%, 31.745911%)" offset="0.753906"/><stop stop-opacity="1" stop-color="rgb(0.839233%, 58.102417%, 31.919861%)" offset="0.757812"/><stop stop-opacity="1" stop-color="rgb(0.85144%, 58.651733%, 32.093811%)" offset="0.761719"/><stop stop-opacity="1" stop-color="rgb(0.863647%, 59.202576%, 32.267761%)" offset="0.765625"/><stop stop-opacity="1" stop-color="rgb(0.875854%, 59.751892%, 32.441711%)" offset="0.769531"/><stop stop-opacity="1" stop-color="rgb(0.888062%, 60.302734%, 32.615662%)" offset="0.773438"/><stop stop-opacity="1" stop-color="rgb(0.900269%, 60.852051%, 32.788086%)" offset="0.777344"/><stop stop-opacity="1" stop-color="rgb(0.912476%, 61.402893%, 32.962036%)" offset="0.78125"/><stop stop-opacity="1" stop-color="rgb(0.924683%, 61.952209%, 33.135986%)" offset="0.785156"/><stop stop-opacity="1" stop-color="rgb(0.93689%, 62.503052%, 33.309937%)" offset="0.789062"/><stop stop-opacity="1" stop-color="rgb(0.949097%, 63.052368%, 33.483887%)" offset="0.792969"/><stop stop-opacity="1" stop-color="rgb(0.961304%, 63.601685%, 33.657837%)" offset="0.796875"/><stop stop-opacity="1" stop-color="rgb(0.973511%, 64.151001%, 33.831787%)" offset="0.800781"/><stop stop-opacity="1" stop-color="rgb(0.987244%, 64.701843%, 34.005737%)" offset="0.804688"/><stop stop-opacity="1" stop-color="rgb(0.999451%, 65.25116%, 34.179688%)" offset="0.808594"/><stop stop-opacity="1" stop-color="rgb(1.011658%, 65.802002%, 34.353638%)" offset="0.8125"/><stop stop-opacity="1" stop-color="rgb(1.023865%, 66.351318%, 34.527588%)" offset="0.816406"/><stop stop-opacity="1" stop-color="rgb(1.036072%, 66.902161%, 34.701538%)" offset="0.820312"/><stop stop-opacity="1" stop-color="rgb(1.048279%, 67.451477%, 34.875488%)" offset="0.824219"/><stop stop-opacity="1" stop-color="rgb(1.060486%, 68.002319%, 35.049438%)" offset="0.828125"/><stop stop-opacity="1" stop-color="rgb(1.072693%, 68.551636%, 35.223389%)" offset="0.832031"/><stop stop-opacity="1" stop-color="rgb(1.0849%, 69.102478%, 35.397339%)" offset="0.835938"/><stop stop-opacity="1" stop-color="rgb(1.097107%, 69.651794%, 35.571289%)" offset="0.839844"/><stop stop-opacity="1" stop-color="rgb(1.109314%, 70.201111%, 35.745239%)" offset="0.84375"/><stop stop-opacity="1" stop-color="rgb(1.121521%, 70.750427%, 35.917664%)" offset="0.847656"/><stop stop-opacity="1" stop-color="rgb(1.133728%, 71.30127%, 36.091614%)" offset="0.851563"/><stop stop-opacity="1" stop-color="rgb(1.145935%, 71.850586%, 36.265564%)" offset="0.855469"/><stop stop-opacity="1" stop-color="rgb(1.158142%, 72.401428%, 36.439514%)" offset="0.859375"/><stop stop-opacity="1" stop-color="rgb(1.170349%, 72.950745%, 36.613464%)" offset="0.863281"/><stop stop-opacity="1" stop-color="rgb(1.182556%, 73.501587%, 36.787415%)" offset="0.867188"/><stop stop-opacity="1" stop-color="rgb(1.194763%, 74.050903%, 36.961365%)" offset="0.871094"/><stop stop-opacity="1" stop-color="rgb(1.20697%, 74.601746%, 37.135315%)" offset="0.875"/><stop stop-opacity="1" stop-color="rgb(1.219177%, 75.151062%, 37.309265%)" offset="0.878906"/><stop stop-opacity="1" stop-color="rgb(1.231384%, 75.700378%, 37.483215%)" offset="0.882813"/><stop stop-opacity="1" stop-color="rgb(1.243591%, 76.249695%, 37.657166%)" offset="0.886719"/><stop stop-opacity="1" stop-color="rgb(1.255798%, 76.800537%, 37.831116%)" offset="0.890625"/><stop stop-opacity="1" stop-color="rgb(1.268005%, 77.349854%, 38.005066%)" offset="0.894531"/><stop stop-opacity="1" stop-color="rgb(1.280212%, 77.900696%, 38.179016%)" offset="0.898438"/><stop stop-opacity="1" stop-color="rgb(1.292419%, 78.450012%, 38.352966%)" offset="0.902344"/><stop stop-opacity="1" stop-color="rgb(1.304626%, 79.000854%, 38.526917%)" offset="0.90625"/><stop stop-opacity="1" stop-color="rgb(1.316833%, 79.550171%, 38.700867%)" offset="0.910156"/><stop stop-opacity="1" stop-color="rgb(1.329041%, 80.101013%, 38.874817%)" offset="0.914063"/><stop stop-opacity="1" stop-color="rgb(1.341248%, 80.65033%, 39.047241%)" offset="0.917969"/><stop stop-opacity="1" stop-color="rgb(1.353455%, 81.201172%, 39.221191%)" offset="0.921875"/><stop stop-opacity="1" stop-color="rgb(1.365662%, 81.750488%, 39.395142%)" offset="0.925781"/><stop stop-opacity="1" stop-color="rgb(1.379395%, 82.299805%, 39.569092%)" offset="0.929688"/><stop stop-opacity="1" stop-color="rgb(1.391602%, 82.849121%, 39.743042%)" offset="0.933594"/><stop stop-opacity="1" stop-color="rgb(1.403809%, 83.399963%, 39.916992%)" offset="0.9375"/><stop stop-opacity="1" stop-color="rgb(1.416016%, 83.94928%, 40.090942%)" offset="0.941406"/><stop stop-opacity="1" stop-color="rgb(1.428223%, 84.500122%, 40.264893%)" offset="0.945313"/><stop stop-opacity="1" stop-color="rgb(1.44043%, 85.049438%, 40.438843%)" offset="0.949219"/><stop stop-opacity="1" stop-color="rgb(1.452637%, 85.600281%, 40.612793%)" offset="0.953125"/><stop stop-opacity="1" stop-color="rgb(1.464844%, 86.149597%, 40.786743%)" offset="0.957031"/><stop stop-opacity="1" stop-color="rgb(1.477051%, 86.700439%, 40.960693%)" offset="0.960938"/><stop stop-opacity="1" stop-color="rgb(1.489258%, 87.249756%, 41.134644%)" offset="0.964844"/><stop stop-opacity="1" stop-color="rgb(1.501465%, 87.799072%, 41.308594%)" offset="0.96875"/><stop stop-opacity="1" stop-color="rgb(1.513672%, 88.348389%, 41.482544%)" offset="0.972656"/><stop stop-opacity="1" stop-color="rgb(1.525879%, 88.899231%, 41.656494%)" offset="0.976563"/><stop stop-opacity="1" stop-color="rgb(1.538086%, 89.448547%, 41.830444%)" offset="0.980469"/><stop stop-opacity="1" stop-color="rgb(1.550293%, 89.99939%, 42.004395%)" offset="0.984375"/><stop stop-opacity="1" stop-color="rgb(1.5625%, 90.548706%, 42.176819%)" offset="0.988281"/><stop stop-opacity="1" stop-color="rgb(1.574707%, 91.099548%, 42.350769%)" offset="0.992188"/><stop stop-opacity="1" stop-color="rgb(1.586914%, 91.648865%, 42.524719%)" offset="0.996094"/><stop stop-opacity="1" stop-color="rgb(1.599121%, 92.199707%, 42.698669%)" offset="1"/></linearGradient></defs><g clip-path="url(#9e5bc12e51)"><g clip-path="url(#029b5c5e60)"><path fill="url(#9fe01d802b)" d="M 1.496094 26.886719 L 1.496094 251.675781 L 283.34375 251.675781 L 283.34375 26.886719 Z M 1.496094 26.886719 " fill-rule="nonzero"/></g></g></svg>