<svg xmlns="http://www.w3.org/2000/svg" xmlns:xlink="http://www.w3.org/1999/xlink" width="224" zoomAndPan="magnify" viewBox="0 0 168 167.999997" height="224" preserveAspectRatio="xMidYMid meet" version="1.0"><defs><clipPath id="644b7d023b"><path d="M 31.761719 35 L 136 35 L 136 133.144531 L 31.761719 133.144531 Z M 31.761719 35 " clip-rule="nonzero"/></clipPath><clipPath id="38f9f2cc43"><path d="M 62.496094 74.558594 L 63.300781 74.609375 L 64.105469 74.679688 L 64.898438 74.773438 L 65.691406 74.890625 L 66.476562 75.027344 L 67.253906 75.183594 L 68.027344 75.363281 L 68.796875 75.5625 L 69.554688 75.78125 L 70.308594 76.023438 L 71.050781 76.28125 L 71.789062 76.5625 L 72.515625 76.863281 L 73.234375 77.179688 L 73.945312 77.519531 L 74.648438 77.875 L 75.335938 78.25 L 76.015625 78.644531 L 76.6875 79.058594 L 77.34375 79.484375 L 77.988281 79.933594 L 78.625 80.398438 L 79.246094 80.878906 L 79.855469 81.378906 L 80.453125 81.894531 L 81.035156 82.425781 L 81.601562 82.976562 L 82.160156 83.542969 L 82.699219 84.121094 L 83.222656 84.71875 L 83.734375 85.332031 L 84.230469 85.960938 L 84.707031 86.601562 L 85.167969 87.257812 L 85.613281 87.929688 L 86.039062 88.617188 L 86.449219 89.316406 L 86.839844 90.03125 L 86.871094 90.085938 L 86.894531 90.144531 L 86.921875 90.199219 L 86.945312 90.257812 L 86.960938 90.316406 L 86.980469 90.375 L 86.992188 90.433594 L 87.007812 90.492188 L 87.015625 90.550781 L 87.027344 90.613281 L 87.035156 90.730469 L 87.035156 90.847656 L 87.027344 90.964844 L 87.019531 91.027344 L 87.011719 91.085938 L 87 91.140625 L 86.988281 91.199219 L 86.972656 91.253906 L 86.957031 91.3125 L 86.933594 91.371094 L 86.914062 91.425781 L 86.890625 91.480469 L 86.835938 91.582031 L 86.808594 91.636719 L 86.777344 91.6875 L 86.742188 91.734375 L 86.707031 91.785156 L 86.671875 91.832031 L 86.628906 91.875 L 86.589844 91.921875 L 86.503906 92.007812 L 86.457031 92.046875 L 86.40625 92.085938 L 86.359375 92.125 L 86.304688 92.160156 L 69.558594 103.34375 L 68.78125 103.863281 L 86.304688 115.554688 L 86.359375 115.589844 L 86.40625 115.625 L 86.457031 115.664062 L 86.503906 115.707031 L 86.546875 115.746094 L 86.589844 115.789062 L 86.628906 115.835938 L 86.671875 115.878906 L 86.707031 115.929688 L 86.742188 115.976562 L 86.777344 116.027344 L 86.808594 116.078125 L 86.863281 116.179688 L 86.890625 116.234375 L 86.914062 116.289062 L 86.933594 116.34375 L 86.957031 116.398438 L 86.972656 116.457031 L 86.988281 116.511719 L 87.011719 116.628906 L 87.027344 116.746094 L 87.035156 116.863281 L 87.035156 116.980469 L 87.03125 117.042969 L 87.027344 117.101562 L 87.015625 117.160156 L 87.007812 117.222656 L 86.992188 117.28125 L 86.980469 117.339844 L 86.960938 117.394531 L 86.945312 117.457031 L 86.921875 117.511719 L 86.894531 117.570312 L 86.871094 117.625 L 86.839844 117.683594 L 86.453125 118.382812 L 86.046875 119.070312 L 85.625 119.746094 L 85.1875 120.40625 L 84.730469 121.050781 L 84.257812 121.683594 L 83.769531 122.296875 L 83.269531 122.902344 L 82.75 123.488281 L 82.21875 124.058594 L 81.671875 124.617188 L 81.113281 125.15625 L 80.539062 125.683594 L 79.953125 126.191406 L 79.351562 126.683594 L 78.738281 127.160156 L 78.117188 127.621094 L 77.480469 128.0625 L 76.832031 128.484375 L 76.175781 128.890625 L 75.507812 129.285156 L 74.828125 129.652344 L 74.140625 130.007812 L 73.445312 130.34375 L 72.734375 130.660156 L 72.019531 130.957031 L 71.296875 131.238281 L 70.5625 131.496094 L 69.824219 131.738281 L 69.078125 131.960938 L 68.324219 132.164062 L 67.566406 132.34375 L 66.796875 132.503906 L 66.027344 132.644531 L 65.246094 132.761719 L 64.464844 132.863281 L 63.675781 132.941406 L 62.882812 132.996094 L 62.085938 133.03125 L 61.289062 133.046875 L 60.085938 133.03125 L 58.894531 132.964844 L 57.714844 132.855469 L 56.550781 132.695312 L 55.402344 132.492188 L 54.269531 132.246094 L 53.152344 131.953125 L 52.054688 131.617188 L 50.972656 131.242188 L 49.910156 130.828125 L 48.871094 130.367188 L 47.851562 129.875 L 46.855469 129.339844 L 45.886719 128.769531 L 44.9375 128.164062 L 44.011719 127.523438 L 43.117188 126.847656 L 42.246094 126.136719 L 41.402344 125.394531 L 40.589844 124.621094 L 39.808594 123.816406 L 39.058594 122.984375 L 38.335938 122.125 L 37.648438 121.234375 L 36.996094 120.316406 L 36.378906 119.375 L 35.796875 118.40625 L 35.25 117.414062 L 34.742188 116.402344 L 34.273438 115.363281 L 33.839844 114.308594 L 33.449219 113.230469 L 33.101562 112.132812 L 32.796875 111.015625 L 32.53125 109.882812 L 32.3125 108.734375 L 32.136719 107.570312 L 32.011719 106.390625 L 31.929688 105.199219 L 31.898438 103.992188 L 31.914062 102.785156 L 31.976562 101.589844 L 32.089844 100.410156 L 32.246094 99.242188 L 32.449219 98.089844 L 32.695312 96.953125 L 32.988281 95.835938 L 33.320312 94.734375 L 33.695312 93.648438 L 34.109375 92.585938 L 34.566406 91.542969 L 35.058594 90.523438 L 35.589844 89.523438 L 36.160156 88.546875 L 36.765625 87.597656 L 37.40625 86.667969 L 38.082031 85.769531 L 38.785156 84.898438 L 39.527344 84.054688 L 40.296875 83.238281 L 41.101562 82.453125 L 41.929688 81.703125 L 42.789062 80.980469 L 43.679688 80.292969 L 44.59375 79.636719 L 45.53125 79.015625 L 46.496094 78.433594 L 47.484375 77.882812 L 48.496094 77.375 L 49.53125 76.902344 L 50.585938 76.472656 L 51.660156 76.078125 L 52.753906 75.730469 L 53.867188 75.425781 L 54.996094 75.160156 L 56.144531 74.941406 L 57.304688 74.765625 L 58.480469 74.636719 L 59.671875 74.558594 L 60.875 74.523438 L 61.6875 74.527344 Z M 59.160156 78.011719 L 58.113281 78.113281 L 57.078125 78.253906 L 56.058594 78.433594 L 55.050781 78.660156 L 54.058594 78.921875 L 53.082031 79.21875 L 52.121094 79.554688 L 51.179688 79.925781 L 50.257812 80.332031 L 49.351562 80.773438 L 48.464844 81.25 L 47.601562 81.761719 L 46.761719 82.300781 L 45.941406 82.875 L 45.144531 83.472656 L 44.375 84.105469 L 43.625 84.765625 L 42.90625 85.457031 L 42.210938 86.171875 L 41.542969 86.914062 L 40.90625 87.683594 L 40.296875 88.472656 L 39.71875 89.289062 L 39.167969 90.125 L 38.652344 90.988281 L 38.167969 91.871094 L 37.71875 92.773438 L 37.300781 93.695312 L 36.921875 94.636719 L 36.574219 95.59375 L 36.265625 96.570312 L 35.996094 97.5625 L 35.761719 98.566406 L 35.570312 99.589844 L 35.417969 100.625 L 35.308594 101.675781 L 35.238281 102.734375 L 35.210938 103.808594 L 35.226562 104.878906 L 35.285156 105.941406 L 35.382812 106.992188 L 35.527344 108.027344 L 35.707031 109.054688 L 35.929688 110.0625 L 36.191406 111.058594 L 36.488281 112.035156 L 36.824219 112.996094 L 37.195312 113.945312 L 37.601562 114.871094 L 38.042969 115.777344 L 38.515625 116.664062 L 39.023438 117.527344 L 39.5625 118.371094 L 40.132812 119.195312 L 40.734375 119.992188 L 41.367188 120.765625 L 42.023438 121.515625 L 42.710938 122.238281 L 43.425781 122.9375 L 44.164062 123.605469 L 44.929688 124.246094 L 45.71875 124.855469 L 46.535156 125.4375 L 47.371094 125.984375 L 48.226562 126.503906 L 49.109375 126.988281 L 50.007812 127.441406 L 50.925781 127.859375 L 51.867188 128.238281 L 52.820312 128.585938 L 53.792969 128.894531 L 54.78125 129.167969 L 55.789062 129.398438 L 56.808594 129.59375 L 57.839844 129.746094 L 58.886719 129.855469 L 59.945312 129.925781 L 61.015625 129.953125 L 61.699219 129.949219 L 62.375 129.925781 L 63.054688 129.886719 L 63.730469 129.828125 L 64.398438 129.753906 L 65.066406 129.660156 L 65.726562 129.546875 L 66.386719 129.421875 L 67.039062 129.277344 L 67.683594 129.117188 L 68.328125 128.941406 L 68.964844 128.75 L 69.597656 128.539062 L 70.222656 128.3125 L 70.839844 128.074219 L 71.453125 127.816406 L 72.058594 127.546875 L 72.65625 127.261719 L 73.246094 126.957031 L 73.824219 126.640625 L 74.398438 126.308594 L 74.964844 125.960938 L 75.519531 125.601562 L 76.066406 125.226562 L 76.605469 124.839844 L 77.128906 124.4375 L 77.652344 124.019531 L 78.15625 123.589844 L 78.652344 123.144531 L 79.140625 122.6875 L 79.613281 122.214844 L 80.078125 121.734375 L 80.53125 121.238281 L 80.96875 120.730469 L 81.398438 120.210938 L 81.8125 119.675781 L 82.214844 119.128906 L 82.605469 118.574219 L 82.976562 118.003906 L 83.339844 117.421875 L 64.953125 105.164062 L 64.898438 105.128906 L 64.847656 105.089844 L 64.792969 105.046875 L 64.746094 105 L 64.699219 104.957031 L 64.652344 104.910156 L 64.613281 104.863281 L 64.570312 104.8125 L 64.53125 104.761719 L 64.496094 104.710938 L 64.460938 104.65625 L 64.429688 104.605469 L 64.375 104.488281 L 64.347656 104.433594 L 64.324219 104.375 L 64.304688 104.316406 L 64.289062 104.253906 L 64.273438 104.195312 L 64.257812 104.132812 L 64.246094 104.074219 L 64.230469 103.949219 L 64.222656 103.824219 L 64.222656 103.761719 L 64.226562 103.699219 L 64.234375 103.636719 L 64.238281 103.574219 L 64.261719 103.449219 L 64.277344 103.386719 L 64.296875 103.328125 L 64.316406 103.265625 L 64.339844 103.203125 L 64.363281 103.144531 L 64.390625 103.085938 L 64.421875 103.027344 L 64.457031 102.96875 L 64.492188 102.914062 L 64.5 102.898438 L 64.511719 102.886719 L 64.519531 102.871094 L 64.527344 102.859375 L 64.539062 102.84375 L 64.546875 102.832031 L 64.558594 102.820312 L 64.570312 102.804688 L 64.578125 102.792969 L 64.589844 102.78125 L 64.597656 102.765625 L 64.632812 102.730469 L 64.640625 102.71875 L 64.675781 102.683594 L 64.6875 102.667969 L 64.710938 102.644531 L 64.722656 102.636719 L 64.769531 102.589844 L 64.78125 102.582031 L 64.796875 102.570312 L 64.820312 102.546875 L 64.835938 102.535156 L 64.847656 102.527344 L 64.859375 102.515625 L 64.871094 102.507812 L 64.886719 102.5 L 64.910156 102.476562 L 64.925781 102.46875 L 64.9375 102.460938 L 64.953125 102.449219 L 83.257812 90.242188 L 82.898438 89.675781 L 82.523438 89.121094 L 82.136719 88.578125 L 81.738281 88.042969 L 81.328125 87.523438 L 80.902344 87.015625 L 80.46875 86.519531 L 80.023438 86.035156 L 79.5625 85.5625 L 79.09375 85.105469 L 78.617188 84.65625 L 78.125 84.226562 L 77.625 83.804688 L 77.113281 83.398438 L 76.59375 83.003906 L 76.066406 82.625 L 75.527344 82.257812 L 74.980469 81.902344 L 74.425781 81.566406 L 73.863281 81.238281 L 73.289062 80.925781 L 72.710938 80.632812 L 72.125 80.347656 L 71.53125 80.082031 L 70.929688 79.832031 L 70.324219 79.59375 L 69.710938 79.371094 L 69.089844 79.164062 L 68.464844 78.972656 L 67.835938 78.796875 L 67.199219 78.636719 L 66.558594 78.496094 L 65.914062 78.367188 L 65.261719 78.253906 L 64.609375 78.160156 L 63.953125 78.082031 L 63.289062 78.019531 L 62.625 77.972656 L 61.957031 77.945312 L 61.289062 77.933594 L 60.21875 77.949219 Z M 99.710938 96.8125 L 100.007812 96.859375 L 100.296875 96.921875 L 100.582031 97 L 100.859375 97.09375 L 101.132812 97.203125 L 101.390625 97.328125 L 101.644531 97.464844 L 101.890625 97.621094 L 102.125 97.789062 L 102.351562 97.96875 L 102.5625 98.160156 L 102.765625 98.359375 L 102.957031 98.574219 L 103.136719 98.800781 L 103.300781 99.035156 L 103.457031 99.28125 L 103.59375 99.535156 L 103.71875 99.800781 L 103.828125 100.070312 L 103.921875 100.347656 L 104 100.632812 L 104.0625 100.921875 L 104.105469 101.222656 L 104.132812 101.523438 L 104.144531 101.832031 L 104.144531 101.914062 L 104.128906 102.21875 L 104.097656 102.515625 L 104.046875 102.8125 L 103.980469 103.097656 L 103.902344 103.382812 L 103.804688 103.65625 L 103.695312 103.921875 L 103.566406 104.179688 L 103.429688 104.429688 L 103.273438 104.671875 L 103.105469 104.902344 L 102.929688 105.125 L 102.734375 105.335938 L 102.535156 105.535156 L 102.320312 105.722656 L 102.097656 105.898438 L 101.863281 106.0625 L 101.621094 106.210938 L 101.371094 106.347656 L 101.109375 106.472656 L 100.839844 106.578125 L 100.566406 106.671875 L 100.285156 106.746094 L 99.996094 106.808594 L 99.703125 106.851562 L 99.402344 106.878906 L 99.097656 106.886719 L 98.792969 106.878906 L 98.492188 106.851562 L 98.195312 106.808594 L 97.902344 106.746094 L 97.617188 106.664062 L 97.339844 106.570312 L 97.070312 106.460938 L 96.808594 106.335938 L 96.554688 106.195312 L 96.308594 106.042969 L 96.074219 105.878906 L 95.851562 105.699219 L 95.636719 105.507812 L 95.433594 105.304688 L 95.242188 105.089844 L 95.066406 104.863281 L 94.898438 104.628906 L 94.746094 104.382812 L 94.605469 104.128906 L 94.480469 103.867188 L 94.375 103.59375 L 94.277344 103.316406 L 94.199219 103.035156 L 94.140625 102.738281 L 94.09375 102.445312 L 94.066406 102.140625 L 94.058594 101.832031 L 94.066406 101.523438 L 94.09375 101.222656 L 94.140625 100.921875 L 94.199219 100.632812 L 94.28125 100.34375 L 94.375 100.066406 L 94.480469 99.796875 L 94.605469 99.535156 L 94.746094 99.28125 L 94.898438 99.035156 L 95.066406 98.800781 L 95.246094 98.574219 L 95.4375 98.359375 L 95.636719 98.15625 L 95.851562 97.964844 L 96.074219 97.789062 L 96.3125 97.617188 L 96.554688 97.464844 L 96.808594 97.328125 L 97.074219 97.203125 L 97.34375 97.09375 L 97.621094 96.996094 L 97.902344 96.921875 L 98.195312 96.859375 L 98.492188 96.8125 L 98.792969 96.785156 L 99.101562 96.777344 L 99.40625 96.785156 Z M 115.566406 96.8125 L 115.867188 96.859375 L 116.15625 96.921875 L 116.441406 97 L 116.71875 97.09375 L 116.988281 97.203125 L 117.25 97.328125 L 117.503906 97.464844 L 117.746094 97.621094 L 117.984375 97.789062 L 118.207031 97.96875 L 118.421875 98.160156 L 118.625 98.359375 L 118.8125 98.574219 L 118.992188 98.800781 L 119.160156 99.035156 L 119.3125 99.28125 L 119.453125 99.535156 L 119.574219 99.800781 L 119.6875 100.070312 L 119.777344 100.347656 L 119.859375 100.632812 L 119.917969 100.921875 L 119.964844 101.222656 L 119.992188 101.523438 L 120 101.832031 L 120 101.914062 L 119.988281 102.21875 L 119.957031 102.519531 L 119.90625 102.8125 L 119.84375 103.101562 L 119.761719 103.382812 L 119.667969 103.65625 L 119.554688 103.925781 L 119.429688 104.183594 L 119.289062 104.433594 L 119.136719 104.675781 L 118.96875 104.90625 L 118.789062 105.128906 L 118.597656 105.339844 L 118.394531 105.539062 L 118.183594 105.726562 L 117.957031 105.902344 L 117.722656 106.066406 L 117.480469 106.21875 L 117.230469 106.355469 L 116.96875 106.472656 L 116.699219 106.582031 L 116.425781 106.675781 L 116.144531 106.753906 L 115.855469 106.8125 L 115.5625 106.855469 L 115.261719 106.878906 L 114.957031 106.886719 L 114.652344 106.878906 L 114.347656 106.851562 L 114.050781 106.808594 L 113.757812 106.746094 L 113.476562 106.664062 L 113.199219 106.570312 L 112.929688 106.460938 L 112.664062 106.335938 L 112.414062 106.195312 L 112.167969 106.042969 L 111.933594 105.878906 L 111.707031 105.699219 L 111.492188 105.507812 L 111.292969 105.304688 L 111.101562 105.089844 L 110.921875 104.863281 L 110.753906 104.628906 L 110.601562 104.382812 L 110.464844 104.128906 L 110.339844 103.867188 L 110.230469 103.59375 L 110.136719 103.316406 L 110.058594 103.035156 L 109.996094 102.738281 L 109.953125 102.445312 L 109.925781 102.140625 L 109.914062 101.832031 L 109.925781 101.523438 L 109.953125 101.222656 L 109.996094 100.921875 L 110.058594 100.632812 L 110.136719 100.34375 L 110.230469 100.066406 L 110.339844 99.796875 L 110.464844 99.535156 L 110.601562 99.28125 L 110.753906 99.035156 L 110.921875 98.800781 L 111.101562 98.574219 L 111.292969 98.359375 L 111.496094 98.15625 L 111.707031 97.964844 L 111.933594 97.789062 L 112.167969 97.617188 L 112.414062 97.464844 L 112.667969 97.328125 L 112.929688 97.203125 L 113.199219 97.09375 L 113.476562 96.996094 L 113.761719 96.921875 L 114.050781 96.859375 L 114.347656 96.8125 L 114.652344 96.785156 L 114.957031 96.777344 L 115.265625 96.785156 Z M 131.441406 96.8125 L 131.738281 96.859375 L 132.03125 96.921875 L 132.3125 97 L 132.589844 97.09375 L 132.859375 97.203125 L 133.125 97.328125 L 133.375 97.464844 L 133.621094 97.621094 L 133.855469 97.789062 L 134.078125 97.96875 L 134.296875 98.160156 L 134.496094 98.359375 L 134.6875 98.574219 L 134.867188 98.800781 L 135.03125 99.035156 L 135.183594 99.28125 L 135.324219 99.535156 L 135.449219 99.800781 L 135.558594 100.070312 L 135.652344 100.347656 L 135.730469 100.632812 L 135.792969 100.921875 L 135.835938 101.222656 L 135.863281 101.523438 L 135.871094 101.832031 L 135.871094 101.914062 L 135.859375 102.21875 L 135.828125 102.515625 L 135.78125 102.8125 L 135.714844 103.097656 L 135.632812 103.382812 L 135.535156 103.65625 L 135.421875 103.921875 L 135.296875 104.179688 L 135.15625 104.429688 L 135.003906 104.671875 L 134.835938 104.902344 L 134.65625 105.125 L 134.46875 105.335938 L 134.265625 105.535156 L 134.050781 105.722656 L 133.828125 105.898438 L 133.59375 106.0625 L 133.351562 106.210938 L 133.101562 106.347656 L 132.839844 106.472656 L 132.570312 106.578125 L 132.296875 106.671875 L 132.015625 106.746094 L 131.726562 106.808594 L 131.433594 106.851562 L 131.136719 106.878906 L 130.832031 106.886719 L 130.523438 106.878906 L 130.21875 106.851562 L 129.921875 106.808594 L 129.632812 106.746094 L 129.347656 106.664062 L 129.070312 106.570312 L 128.800781 106.460938 L 128.539062 106.335938 L 128.285156 106.195312 L 128.042969 106.042969 L 127.804688 105.878906 L 127.582031 105.699219 L 127.367188 105.507812 L 127.164062 105.304688 L 126.972656 105.089844 L 126.796875 104.863281 L 126.628906 104.628906 L 126.476562 104.382812 L 126.339844 104.128906 L 126.214844 103.867188 L 126.101562 103.59375 L 126.007812 103.316406 L 125.933594 103.035156 L 125.867188 102.738281 L 125.824219 102.445312 L 125.796875 102.140625 L 125.789062 101.832031 L 125.796875 101.523438 L 125.824219 101.222656 L 125.867188 100.921875 L 125.933594 100.632812 L 126.007812 100.34375 L 126.105469 100.066406 L 126.214844 99.796875 L 126.339844 99.535156 L 126.476562 99.28125 L 126.628906 99.035156 L 126.796875 98.800781 L 126.972656 98.574219 L 127.164062 98.359375 L 127.371094 98.15625 L 127.582031 97.964844 L 127.808594 97.789062 L 128.042969 97.617188 L 128.285156 97.464844 L 128.539062 97.328125 L 128.800781 97.203125 L 129.070312 97.09375 L 129.347656 96.996094 L 129.636719 96.921875 L 129.925781 96.859375 L 130.222656 96.8125 L 130.523438 96.785156 L 130.832031 96.777344 L 131.140625 96.785156 Z M 98.472656 100.15625 L 98.191406 100.289062 L 97.9375 100.46875 L 97.722656 100.6875 L 97.546875 100.9375 L 97.414062 101.21875 L 97.328125 101.527344 L 97.300781 101.851562 L 97.332031 102.175781 L 97.414062 102.480469 L 97.546875 102.761719 L 97.726562 103.011719 L 97.941406 103.230469 L 98.195312 103.40625 L 98.472656 103.539062 L 98.78125 103.625 L 99.101562 103.652344 L 99.417969 103.625 L 99.714844 103.546875 L 99.992188 103.417969 L 100.238281 103.246094 L 100.453125 103.039062 L 100.632812 102.796875 L 100.769531 102.523438 L 100.859375 102.230469 L 100.898438 101.914062 L 100.882812 101.589844 L 100.808594 101.28125 L 100.6875 100.992188 L 100.519531 100.738281 L 100.308594 100.511719 L 100.0625 100.324219 L 99.789062 100.179688 L 99.488281 100.085938 L 99.164062 100.046875 L 99.097656 100.046875 L 98.777344 100.074219 Z M 114.328125 100.15625 L 114.050781 100.289062 L 113.796875 100.46875 L 113.582031 100.6875 L 113.40625 100.9375 L 113.269531 101.21875 L 113.1875 101.527344 L 113.160156 101.851562 L 113.1875 102.175781 L 113.269531 102.480469 L 113.40625 102.761719 L 113.582031 103.011719 L 113.800781 103.230469 L 114.050781 103.40625 L 114.332031 103.539062 L 114.636719 103.625 L 114.960938 103.652344 L 115.273438 103.625 L 115.574219 103.546875 L 115.847656 103.417969 L 116.097656 103.246094 L 116.3125 103.039062 L 116.488281 102.796875 L 116.628906 102.523438 L 116.71875 102.230469 L 116.757812 101.914062 L 116.738281 101.589844 L 116.667969 101.28125 L 116.542969 100.992188 L 116.375 100.738281 L 116.167969 100.511719 L 115.921875 100.324219 L 115.648438 100.179688 L 115.34375 100.085938 L 115.023438 100.046875 L 114.957031 100.046875 L 114.632812 100.074219 Z M 130.203125 100.15625 L 129.921875 100.289062 L 129.671875 100.46875 L 129.457031 100.6875 L 129.277344 100.9375 L 129.144531 101.21875 L 129.058594 101.527344 L 129.03125 101.851562 L 129.058594 102.175781 L 129.144531 102.480469 L 129.277344 102.761719 L 129.457031 103.011719 L 129.671875 103.230469 L 129.925781 103.40625 L 130.203125 103.539062 L 130.507812 103.625 L 130.832031 103.652344 L 131.148438 103.625 L 131.445312 103.546875 L 131.722656 103.417969 L 131.96875 103.246094 L 132.183594 103.039062 L 132.363281 102.796875 L 132.5 102.523438 L 132.589844 102.230469 L 132.632812 101.914062 L 132.613281 101.589844 L 132.539062 101.28125 L 132.417969 100.992188 L 132.25 100.738281 L 132.039062 100.511719 L 131.796875 100.324219 L 131.519531 100.179688 L 131.21875 100.085938 L 130.898438 100.046875 L 130.832031 100.046875 L 130.507812 100.074219 Z M 60.179688 84.75 L 60.476562 84.789062 L 60.765625 84.847656 L 61.050781 84.921875 L 61.332031 85.011719 L 61.605469 85.113281 L 61.871094 85.230469 L 62.128906 85.359375 L 62.378906 85.503906 L 62.617188 85.660156 L 62.851562 85.828125 L 63.074219 86.007812 L 63.285156 86.199219 L 63.488281 86.402344 L 63.679688 86.613281 L 63.859375 86.839844 L 64.027344 87.074219 L 64.183594 87.3125 L 64.324219 87.5625 L 64.457031 87.820312 L 64.574219 88.085938 L 64.675781 88.359375 L 64.765625 88.640625 L 64.835938 88.925781 L 64.894531 89.222656 L 64.9375 89.519531 L 64.960938 89.820312 L 64.96875 90.128906 L 64.96875 90.144531 L 64.960938 90.449219 L 64.9375 90.753906 L 64.894531 91.046875 L 64.835938 91.339844 L 64.765625 91.625 L 64.675781 91.90625 L 64.574219 92.175781 L 64.457031 92.445312 L 64.328125 92.699219 L 64.183594 92.949219 L 64.03125 93.191406 L 63.863281 93.425781 L 63.683594 93.644531 L 63.492188 93.859375 L 63.289062 94.058594 L 63.078125 94.25 L 62.855469 94.429688 L 62.625 94.597656 L 62.386719 94.753906 L 62.136719 94.898438 L 61.878906 95.027344 L 61.617188 95.144531 L 61.34375 95.246094 L 61.0625 95.335938 L 60.78125 95.410156 L 60.488281 95.464844 L 60.191406 95.507812 L 59.894531 95.53125 L 59.585938 95.542969 L 59.570312 95.542969 L 59.265625 95.53125 L 58.960938 95.507812 L 58.664062 95.464844 L 58.375 95.410156 L 58.089844 95.332031 L 57.808594 95.246094 L 57.535156 95.144531 L 57.269531 95.027344 L 57.011719 94.898438 L 56.761719 94.753906 L 56.523438 94.597656 L 56.289062 94.429688 L 56.066406 94.25 L 55.855469 94.054688 L 55.652344 93.851562 L 55.460938 93.640625 L 55.28125 93.417969 L 55.113281 93.183594 L 54.957031 92.941406 L 54.816406 92.691406 L 54.683594 92.433594 L 54.566406 92.167969 L 54.464844 91.894531 L 54.375 91.613281 L 54.304688 91.328125 L 54.246094 91.035156 L 54.203125 90.738281 L 54.179688 90.4375 L 54.171875 90.128906 L 54.179688 89.820312 L 54.203125 89.519531 L 54.246094 89.222656 L 54.304688 88.925781 L 54.375 88.640625 L 54.464844 88.359375 L 54.566406 88.085938 L 54.683594 87.820312 L 54.816406 87.5625 L 54.957031 87.3125 L 55.113281 87.074219 L 55.28125 86.839844 L 55.460938 86.613281 L 55.652344 86.402344 L 55.855469 86.199219 L 56.066406 86.007812 L 56.289062 85.828125 L 56.523438 85.660156 L 56.761719 85.503906 L 57.011719 85.359375 L 57.269531 85.230469 L 57.535156 85.113281 L 57.808594 85.011719 L 58.089844 84.921875 L 58.375 84.847656 L 58.664062 84.789062 L 58.960938 84.75 L 59.265625 84.722656 L 59.570312 84.714844 L 59.875 84.722656 Z M 58.945312 88.074219 L 58.660156 88.183594 L 58.398438 88.332031 L 58.15625 88.511719 L 57.941406 88.726562 L 57.761719 88.964844 L 57.613281 89.230469 L 57.503906 89.519531 L 57.4375 89.824219 L 57.414062 90.144531 L 57.4375 90.464844 L 57.503906 90.769531 L 57.613281 91.054688 L 57.761719 91.320312 L 57.941406 91.5625 L 58.15625 91.777344 L 58.398438 91.957031 L 58.660156 92.105469 L 58.945312 92.214844 L 59.25 92.28125 L 59.570312 92.308594 L 59.886719 92.28125 L 60.191406 92.214844 L 60.476562 92.105469 L 60.742188 91.957031 L 60.984375 91.777344 L 61.199219 91.5625 L 61.378906 91.320312 L 61.527344 91.054688 L 61.636719 90.769531 L 61.703125 90.464844 L 61.726562 90.144531 L 61.703125 89.824219 L 61.636719 89.519531 L 61.527344 89.230469 L 61.378906 88.964844 L 61.199219 88.726562 L 60.984375 88.511719 L 60.742188 88.332031 L 60.476562 88.183594 L 60.191406 88.074219 L 59.886719 88.003906 L 59.570312 87.984375 L 59.25 88.003906 Z M 131.4375 76.035156 L 131.738281 76.082031 L 132.027344 76.144531 L 132.3125 76.222656 L 132.589844 76.316406 L 132.859375 76.429688 L 133.121094 76.554688 L 133.375 76.691406 L 133.621094 76.84375 L 133.855469 77.011719 L 134.078125 77.191406 L 134.292969 77.382812 L 134.496094 77.585938 L 134.6875 77.800781 L 134.863281 78.027344 L 135.03125 78.261719 L 135.183594 78.507812 L 135.324219 78.757812 L 135.449219 79.023438 L 135.558594 79.292969 L 135.652344 79.570312 L 135.730469 79.855469 L 135.789062 80.148438 L 135.835938 80.445312 L 135.863281 80.75 L 135.871094 81.058594 L 135.863281 81.363281 L 135.835938 81.667969 L 135.789062 81.964844 L 135.726562 82.257812 L 135.648438 82.542969 L 135.550781 82.820312 L 135.445312 83.089844 L 135.320312 83.351562 L 135.179688 83.605469 L 135.027344 83.851562 L 134.859375 84.085938 L 134.683594 84.308594 L 134.488281 84.523438 L 134.289062 84.726562 L 134.074219 84.917969 L 133.851562 85.097656 L 133.617188 85.265625 L 133.371094 85.417969 L 133.121094 85.558594 L 132.859375 85.683594 L 132.589844 85.792969 L 132.3125 85.886719 L 132.023438 85.964844 L 131.734375 86.027344 L 131.4375 86.074219 L 131.136719 86.101562 L 130.832031 86.113281 L 130.523438 86.101562 L 130.21875 86.074219 L 129.921875 86.03125 L 129.632812 85.96875 L 129.347656 85.890625 L 129.070312 85.796875 L 128.800781 85.6875 L 128.539062 85.5625 L 128.285156 85.421875 L 128.042969 85.269531 L 127.804688 85.105469 L 127.582031 84.925781 L 127.367188 84.734375 L 127.164062 84.527344 L 126.972656 84.3125 L 126.796875 84.089844 L 126.628906 83.855469 L 126.476562 83.609375 L 126.335938 83.355469 L 126.214844 83.09375 L 126.101562 82.820312 L 126.007812 82.542969 L 125.929688 82.257812 L 125.867188 81.964844 L 125.824219 81.667969 L 125.796875 81.363281 L 125.789062 81.058594 L 125.796875 80.75 L 125.824219 80.445312 L 125.867188 80.148438 L 125.929688 79.855469 L 126.007812 79.570312 L 126.101562 79.292969 L 126.214844 79.023438 L 126.335938 78.757812 L 126.476562 78.507812 L 126.628906 78.261719 L 126.796875 78.027344 L 126.972656 77.800781 L 127.164062 77.585938 L 127.367188 77.382812 L 127.582031 77.191406 L 127.804688 77.011719 L 128.042969 76.84375 L 128.285156 76.691406 L 128.539062 76.554688 L 128.800781 76.429688 L 129.070312 76.316406 L 129.347656 76.222656 L 129.632812 76.144531 L 129.921875 76.082031 L 130.21875 76.035156 L 130.523438 76.007812 L 130.832031 76 L 131.136719 76.007812 Z M 130.203125 79.382812 L 129.921875 79.515625 L 129.671875 79.695312 L 129.453125 79.910156 L 129.277344 80.164062 L 129.140625 80.441406 L 129.058594 80.75 L 129.03125 81.074219 L 129.058594 81.398438 L 129.144531 81.703125 L 129.277344 81.984375 L 129.453125 82.234375 L 129.671875 82.453125 L 129.921875 82.632812 L 130.203125 82.765625 L 130.507812 82.847656 L 130.832031 82.878906 L 131.152344 82.847656 L 131.457031 82.765625 L 131.738281 82.632812 L 131.992188 82.453125 L 132.207031 82.234375 L 132.382812 81.984375 L 132.519531 81.703125 L 132.601562 81.394531 L 132.632812 81.074219 L 132.632812 81.058594 L 132.597656 80.734375 L 132.511719 80.429688 L 132.378906 80.152344 L 132.203125 79.902344 L 131.984375 79.691406 L 131.734375 79.511719 L 131.457031 79.378906 L 131.152344 79.296875 L 130.832031 79.269531 L 130.507812 79.296875 Z M 52.171875 55.261719 L 52.46875 55.308594 L 52.757812 55.371094 L 53.042969 55.445312 L 53.320312 55.542969 L 53.589844 55.652344 L 53.851562 55.777344 L 54.105469 55.914062 L 54.347656 56.066406 L 54.585938 56.238281 L 54.808594 56.414062 L 55.023438 56.605469 L 55.226562 56.808594 L 55.417969 57.023438 L 55.597656 57.25 L 55.761719 57.484375 L 55.914062 57.730469 L 56.054688 57.984375 L 56.175781 58.246094 L 56.289062 58.515625 L 56.382812 58.792969 L 56.460938 59.082031 L 56.523438 59.371094 L 56.566406 59.671875 L 56.59375 59.972656 L 56.605469 60.28125 L 56.59375 60.589844 L 56.566406 60.894531 L 56.523438 61.191406 L 56.460938 61.480469 L 56.382812 61.765625 L 56.289062 62.042969 L 56.175781 62.316406 L 56.054688 62.578125 L 55.914062 62.832031 L 55.761719 63.078125 L 55.597656 63.316406 L 55.417969 63.539062 L 55.226562 63.753906 L 55.023438 63.957031 L 54.808594 64.148438 L 54.585938 64.328125 L 54.347656 64.492188 L 54.105469 64.644531 L 53.851562 64.785156 L 53.589844 64.910156 L 53.320312 65.019531 L 53.042969 65.113281 L 52.757812 65.195312 L 52.46875 65.253906 L 52.171875 65.300781 L 51.867188 65.328125 L 51.558594 65.335938 L 51.253906 65.328125 L 50.953125 65.300781 L 50.652344 65.253906 L 50.363281 65.195312 L 50.078125 65.113281 L 49.800781 65.019531 L 49.53125 64.910156 L 49.269531 64.785156 L 49.015625 64.644531 L 48.769531 64.492188 L 48.535156 64.328125 L 48.3125 64.148438 L 48.097656 63.957031 L 47.894531 63.753906 L 47.703125 63.539062 L 47.527344 63.316406 L 47.359375 63.078125 L 47.207031 62.832031 L 47.066406 62.578125 L 46.941406 62.316406 L 46.832031 62.042969 L 46.738281 61.765625 L 46.660156 61.480469 L 46.601562 61.191406 L 46.554688 60.894531 L 46.527344 60.589844 L 46.519531 60.28125 L 46.527344 59.972656 L 46.554688 59.671875 L 46.601562 59.371094 L 46.660156 59.082031 L 46.738281 58.792969 L 46.832031 58.515625 L 46.941406 58.246094 L 47.066406 57.984375 L 47.207031 57.730469 L 47.359375 57.484375 L 47.527344 57.25 L 47.703125 57.023438 L 47.894531 56.808594 L 48.097656 56.605469 L 48.3125 56.414062 L 48.535156 56.238281 L 48.769531 56.066406 L 49.015625 55.914062 L 49.269531 55.777344 L 49.53125 55.652344 L 49.800781 55.542969 L 50.078125 55.445312 L 50.363281 55.371094 L 50.652344 55.308594 L 50.953125 55.261719 L 51.253906 55.234375 L 51.558594 55.226562 L 51.867188 55.234375 Z M 83.851562 55.261719 L 84.148438 55.308594 L 84.441406 55.371094 L 84.722656 55.445312 L 85.003906 55.542969 L 85.273438 55.652344 L 85.535156 55.777344 L 85.789062 55.914062 L 86.03125 56.066406 L 86.265625 56.238281 L 86.492188 56.414062 L 86.707031 56.605469 L 86.90625 56.808594 L 87.097656 57.023438 L 87.277344 57.25 L 87.441406 57.484375 L 87.597656 57.730469 L 87.734375 57.984375 L 87.859375 58.246094 L 87.96875 58.515625 L 88.0625 58.792969 L 88.140625 59.082031 L 88.203125 59.371094 L 88.25 59.671875 L 88.277344 59.972656 L 88.285156 60.28125 L 88.277344 60.589844 L 88.25 60.894531 L 88.203125 61.191406 L 88.140625 61.480469 L 88.0625 61.765625 L 87.96875 62.042969 L 87.859375 62.316406 L 87.734375 62.578125 L 87.597656 62.832031 L 87.441406 63.078125 L 87.277344 63.316406 L 87.097656 63.539062 L 86.90625 63.753906 L 86.707031 63.957031 L 86.492188 64.148438 L 86.265625 64.328125 L 86.03125 64.492188 L 85.789062 64.644531 L 85.535156 64.785156 L 85.273438 64.910156 L 85.003906 65.019531 L 84.722656 65.113281 L 84.441406 65.195312 L 84.148438 65.253906 L 83.851562 65.300781 L 83.550781 65.328125 L 83.242188 65.335938 L 82.933594 65.328125 L 82.632812 65.300781 L 82.335938 65.253906 L 82.046875 65.195312 L 81.761719 65.113281 L 81.480469 65.019531 L 81.210938 64.910156 L 80.949219 64.785156 L 80.695312 64.644531 L 80.453125 64.492188 L 80.21875 64.328125 L 79.992188 64.148438 L 79.78125 63.957031 L 79.578125 63.753906 L 79.386719 63.539062 L 79.207031 63.316406 L 79.042969 63.078125 L 78.886719 62.832031 L 78.75 62.578125 L 78.625 62.316406 L 78.515625 62.042969 L 78.421875 61.765625 L 78.34375 61.480469 L 78.28125 61.191406 L 78.234375 60.894531 L 78.210938 60.589844 L 78.199219 60.28125 L 78.210938 59.972656 L 78.234375 59.671875 L 78.28125 59.371094 L 78.34375 59.082031 L 78.421875 58.792969 L 78.515625 58.515625 L 78.625 58.246094 L 78.75 57.984375 L 78.886719 57.730469 L 79.042969 57.484375 L 79.207031 57.25 L 79.386719 57.023438 L 79.578125 56.808594 L 79.78125 56.605469 L 79.992188 56.414062 L 80.21875 56.238281 L 80.453125 56.066406 L 80.695312 55.914062 L 80.949219 55.777344 L 81.210938 55.652344 L 81.480469 55.542969 L 81.761719 55.445312 L 82.046875 55.371094 L 82.335938 55.308594 L 82.632812 55.261719 L 82.933594 55.234375 L 83.242188 55.226562 L 83.550781 55.234375 Z M 115.550781 55.261719 L 115.847656 55.304688 L 116.136719 55.363281 L 116.421875 55.441406 L 116.699219 55.535156 L 116.972656 55.644531 L 117.234375 55.769531 L 117.488281 55.910156 L 117.734375 56.058594 L 117.96875 56.226562 L 118.195312 56.40625 L 118.40625 56.597656 L 118.613281 56.796875 L 118.800781 57.011719 L 118.980469 57.234375 L 119.148438 57.46875 L 119.300781 57.714844 L 119.441406 57.96875 L 119.566406 58.234375 L 119.679688 58.5 L 119.773438 58.78125 L 119.855469 59.066406 L 119.914062 59.355469 L 119.960938 59.65625 L 119.988281 59.957031 L 120 60.265625 L 120 60.28125 L 119.988281 60.589844 L 119.960938 60.890625 L 119.917969 61.1875 L 119.855469 61.476562 L 119.777344 61.761719 L 119.679688 62.039062 L 119.570312 62.308594 L 119.445312 62.570312 L 119.308594 62.824219 L 119.15625 63.070312 L 118.992188 63.304688 L 118.8125 63.527344 L 118.625 63.742188 L 118.421875 63.945312 L 118.207031 64.136719 L 117.984375 64.316406 L 117.75 64.484375 L 117.507812 64.636719 L 117.253906 64.777344 L 116.992188 64.902344 L 116.726562 65.011719 L 116.449219 65.109375 L 116.164062 65.1875 L 115.875 65.25 L 115.578125 65.296875 L 115.28125 65.328125 L 114.972656 65.335938 L 114.667969 65.328125 L 114.363281 65.304688 L 114.066406 65.257812 L 113.773438 65.195312 L 113.492188 65.121094 L 113.210938 65.027344 L 112.941406 64.917969 L 112.679688 64.792969 L 112.425781 64.65625 L 112.179688 64.503906 L 111.945312 64.335938 L 111.71875 64.160156 L 111.507812 63.96875 L 111.300781 63.765625 L 111.109375 63.550781 L 110.929688 63.324219 L 110.765625 63.089844 L 110.609375 62.847656 L 110.472656 62.59375 L 110.347656 62.332031 L 110.234375 62.058594 L 110.140625 61.78125 L 110.0625 61.5 L 110 61.207031 L 109.953125 60.910156 L 109.925781 60.605469 L 109.914062 60.296875 L 109.921875 59.988281 L 109.949219 59.6875 L 109.992188 59.386719 L 110.054688 59.097656 L 110.132812 58.808594 L 110.222656 58.53125 L 110.332031 58.261719 L 110.457031 57.996094 L 110.59375 57.742188 L 110.746094 57.496094 L 110.914062 57.261719 L 111.089844 57.039062 L 111.28125 56.820312 L 111.480469 56.617188 L 111.695312 56.425781 L 111.921875 56.246094 L 112.152344 56.078125 L 112.398438 55.925781 L 112.652344 55.785156 L 112.910156 55.660156 L 113.183594 55.546875 L 113.460938 55.453125 L 113.742188 55.375 L 114.035156 55.308594 L 114.332031 55.265625 L 114.632812 55.234375 L 114.941406 55.226562 L 115.246094 55.234375 Z M 67.996094 55.261719 L 68.292969 55.308594 L 68.582031 55.371094 L 68.867188 55.445312 L 69.144531 55.542969 L 69.414062 55.652344 L 69.675781 55.777344 L 69.929688 55.914062 L 70.175781 56.066406 L 70.410156 56.238281 L 70.632812 56.414062 L 70.847656 56.605469 L 71.050781 56.808594 L 71.242188 57.023438 L 71.417969 57.25 L 71.585938 57.484375 L 71.738281 57.730469 L 71.878906 57.984375 L 72.003906 58.246094 L 72.113281 58.515625 L 72.207031 58.792969 L 72.285156 59.082031 L 72.347656 59.371094 L 72.390625 59.671875 L 72.417969 59.972656 L 72.425781 60.28125 L 72.417969 60.589844 L 72.390625 60.894531 L 72.347656 61.191406 L 72.285156 61.480469 L 72.207031 61.765625 L 72.113281 62.042969 L 72.003906 62.316406 L 71.878906 62.578125 L 71.738281 62.832031 L 71.585938 63.078125 L 71.417969 63.316406 L 71.242188 63.539062 L 71.050781 63.753906 L 70.847656 63.957031 L 70.632812 64.148438 L 70.410156 64.328125 L 70.175781 64.492188 L 69.929688 64.644531 L 69.675781 64.785156 L 69.414062 64.910156 L 69.144531 65.019531 L 68.867188 65.113281 L 68.582031 65.195312 L 68.292969 65.253906 L 67.996094 65.300781 L 67.691406 65.328125 L 67.386719 65.335938 L 67.078125 65.328125 L 66.773438 65.300781 L 66.476562 65.253906 L 66.1875 65.195312 L 65.902344 65.113281 L 65.625 65.019531 L 65.355469 64.910156 L 65.09375 64.785156 L 64.839844 64.644531 L 64.597656 64.492188 L 64.359375 64.328125 L 64.136719 64.148438 L 63.921875 63.957031 L 63.71875 63.753906 L 63.527344 63.539062 L 63.351562 63.316406 L 63.183594 63.078125 L 63.03125 62.832031 L 62.890625 62.578125 L 62.769531 62.316406 L 62.65625 62.042969 L 62.566406 61.765625 L 62.484375 61.480469 L 62.421875 61.191406 L 62.378906 60.894531 L 62.351562 60.589844 L 62.34375 60.28125 L 62.351562 59.972656 L 62.378906 59.671875 L 62.421875 59.371094 L 62.484375 59.082031 L 62.566406 58.792969 L 62.65625 58.515625 L 62.769531 58.246094 L 62.890625 57.984375 L 63.03125 57.730469 L 63.183594 57.484375 L 63.351562 57.25 L 63.527344 57.023438 L 63.71875 56.808594 L 63.921875 56.605469 L 64.136719 56.414062 L 64.359375 56.238281 L 64.597656 56.066406 L 64.839844 55.914062 L 65.09375 55.777344 L 65.355469 55.652344 L 65.625 55.542969 L 65.902344 55.445312 L 66.1875 55.371094 L 66.476562 55.308594 L 66.773438 55.261719 L 67.078125 55.234375 L 67.386719 55.226562 L 67.691406 55.234375 Z M 99.710938 55.261719 L 100.003906 55.308594 L 100.296875 55.371094 L 100.582031 55.445312 L 100.859375 55.542969 L 101.128906 55.652344 L 101.390625 55.777344 L 101.644531 55.914062 L 101.890625 56.066406 L 102.121094 56.238281 L 102.347656 56.414062 L 102.5625 56.605469 L 102.765625 56.808594 L 102.957031 57.023438 L 103.136719 57.25 L 103.300781 57.484375 L 103.453125 57.730469 L 103.589844 57.984375 L 103.714844 58.246094 L 103.828125 58.515625 L 103.921875 58.792969 L 104 59.082031 L 104.0625 59.371094 L 104.105469 59.671875 L 104.132812 59.972656 L 104.144531 60.28125 L 104.132812 60.589844 L 104.105469 60.890625 L 104.058594 61.1875 L 103.996094 61.480469 L 103.917969 61.765625 L 103.824219 62.042969 L 103.710938 62.3125 L 103.585938 62.574219 L 103.449219 62.828125 L 103.296875 63.074219 L 103.128906 63.308594 L 102.953125 63.535156 L 102.761719 63.75 L 102.558594 63.953125 L 102.34375 64.144531 L 102.121094 64.324219 L 101.882812 64.488281 L 101.640625 64.640625 L 101.386719 64.78125 L 101.125 64.90625 L 100.855469 65.015625 L 100.578125 65.113281 L 100.296875 65.191406 L 100.003906 65.253906 L 99.707031 65.300781 L 99.40625 65.328125 L 99.097656 65.335938 L 98.792969 65.328125 L 98.492188 65.300781 L 98.195312 65.253906 L 97.902344 65.195312 L 97.617188 65.113281 L 97.339844 65.019531 L 97.070312 64.910156 L 96.808594 64.785156 L 96.554688 64.644531 L 96.308594 64.492188 L 96.074219 64.328125 L 95.851562 64.148438 L 95.636719 63.957031 L 95.433594 63.753906 L 95.242188 63.539062 L 95.0625 63.316406 L 94.898438 63.078125 L 94.746094 62.832031 L 94.605469 62.578125 L 94.480469 62.316406 L 94.375 62.042969 L 94.277344 61.765625 L 94.199219 61.480469 L 94.140625 61.191406 L 94.09375 60.894531 L 94.066406 60.589844 L 94.058594 60.28125 L 94.066406 59.972656 L 94.09375 59.671875 L 94.140625 59.371094 L 94.199219 59.082031 L 94.277344 58.792969 L 94.375 58.515625 L 94.480469 58.246094 L 94.605469 57.984375 L 94.746094 57.730469 L 94.898438 57.484375 L 95.0625 57.25 L 95.242188 57.023438 L 95.433594 56.808594 L 95.636719 56.605469 L 95.851562 56.414062 L 96.074219 56.238281 L 96.308594 56.066406 L 96.554688 55.914062 L 96.808594 55.777344 L 97.070312 55.652344 L 97.339844 55.542969 L 97.617188 55.445312 L 97.902344 55.371094 L 98.195312 55.308594 L 98.492188 55.261719 L 98.792969 55.234375 L 99.097656 55.226562 L 99.40625 55.234375 Z M 131.4375 55.246094 L 131.738281 55.292969 L 132.027344 55.351562 L 132.3125 55.429688 L 132.589844 55.527344 L 132.859375 55.636719 L 133.121094 55.761719 L 133.375 55.898438 L 133.621094 56.050781 L 133.855469 56.21875 L 134.078125 56.398438 L 134.292969 56.589844 L 134.496094 56.792969 L 134.6875 57.007812 L 134.863281 57.234375 L 135.03125 57.46875 L 135.183594 57.714844 L 135.324219 57.96875 L 135.449219 58.230469 L 135.558594 58.5 L 135.652344 58.777344 L 135.730469 59.066406 L 135.789062 59.355469 L 135.835938 59.65625 L 135.863281 59.957031 L 135.871094 60.265625 L 135.863281 60.570312 L 135.835938 60.878906 L 135.789062 61.171875 L 135.730469 61.464844 L 135.652344 61.75 L 135.558594 62.027344 L 135.449219 62.300781 L 135.324219 62.5625 L 135.183594 62.816406 L 135.03125 63.0625 L 134.863281 63.296875 L 134.6875 63.523438 L 134.496094 63.738281 L 134.292969 63.941406 L 134.078125 64.132812 L 133.855469 64.3125 L 133.621094 64.476562 L 133.375 64.628906 L 133.121094 64.769531 L 132.859375 64.894531 L 132.589844 65.003906 L 132.3125 65.097656 L 132.027344 65.179688 L 131.738281 65.238281 L 131.4375 65.285156 L 131.136719 65.3125 L 130.832031 65.320312 L 130.523438 65.3125 L 130.21875 65.285156 L 129.921875 65.238281 L 129.632812 65.179688 L 129.347656 65.097656 L 129.070312 65.003906 L 128.800781 64.894531 L 128.539062 64.769531 L 128.285156 64.628906 L 128.042969 64.476562 L 127.804688 64.3125 L 127.582031 64.132812 L 127.367188 63.941406 L 127.164062 63.738281 L 126.972656 63.523438 L 126.796875 63.296875 L 126.628906 63.0625 L 126.476562 62.816406 L 126.335938 62.5625 L 126.214844 62.300781 L 126.101562 62.027344 L 126.007812 61.75 L 125.929688 61.464844 L 125.867188 61.171875 L 125.824219 60.878906 L 125.796875 60.570312 L 125.789062 60.265625 L 125.796875 59.957031 L 125.824219 59.65625 L 125.867188 59.355469 L 125.929688 59.066406 L 126.007812 58.777344 L 126.101562 58.5 L 126.214844 58.230469 L 126.335938 57.96875 L 126.476562 57.714844 L 126.628906 57.46875 L 126.796875 57.234375 L 126.972656 57.007812 L 127.164062 56.792969 L 127.367188 56.589844 L 127.582031 56.398438 L 127.804688 56.21875 L 128.042969 56.050781 L 128.285156 55.898438 L 128.539062 55.761719 L 128.800781 55.636719 L 129.070312 55.527344 L 129.347656 55.429688 L 129.632812 55.351562 L 129.921875 55.292969 L 130.21875 55.246094 L 130.523438 55.21875 L 130.832031 55.210938 L 131.136719 55.21875 Z M 50.933594 58.589844 L 50.652344 58.722656 L 50.398438 58.902344 L 50.183594 59.117188 L 50.007812 59.371094 L 49.875 59.652344 L 49.789062 59.957031 L 49.757812 60.28125 L 49.789062 60.605469 L 49.875 60.910156 L 50.007812 61.191406 L 50.183594 61.445312 L 50.398438 61.664062 L 50.652344 61.839844 L 50.933594 61.972656 L 51.238281 62.054688 L 51.558594 62.085938 L 51.882812 62.054688 L 52.1875 61.972656 L 52.46875 61.839844 L 52.71875 61.664062 L 52.9375 61.445312 L 53.113281 61.191406 L 53.25 60.910156 L 53.332031 60.605469 L 53.359375 60.28125 L 53.332031 59.957031 L 53.25 59.652344 L 53.113281 59.371094 L 52.9375 59.117188 L 52.71875 58.902344 L 52.46875 58.722656 L 52.1875 58.589844 L 51.882812 58.503906 L 51.558594 58.476562 L 51.238281 58.503906 Z M 82.613281 58.589844 L 82.332031 58.722656 L 82.082031 58.902344 L 81.867188 59.117188 L 81.6875 59.371094 L 81.554688 59.652344 L 81.472656 59.957031 L 81.445312 60.28125 L 81.472656 60.605469 L 81.554688 60.910156 L 81.6875 61.191406 L 81.867188 61.445312 L 82.082031 61.664062 L 82.332031 61.839844 L 82.613281 61.972656 L 82.917969 62.054688 L 83.242188 62.085938 L 83.566406 62.054688 L 83.871094 61.972656 L 84.152344 61.839844 L 84.402344 61.664062 L 84.621094 61.445312 L 84.796875 61.191406 L 84.929688 60.910156 L 85.015625 60.605469 L 85.042969 60.28125 L 85.015625 59.957031 L 84.929688 59.652344 L 84.796875 59.371094 L 84.621094 59.117188 L 84.402344 58.902344 L 84.152344 58.722656 L 83.871094 58.589844 L 83.566406 58.503906 L 83.242188 58.476562 L 82.917969 58.503906 Z M 98.46875 58.589844 L 98.191406 58.722656 L 97.9375 58.902344 L 97.722656 59.117188 L 97.546875 59.371094 L 97.414062 59.652344 L 97.328125 59.957031 L 97.300781 60.28125 L 97.328125 60.605469 L 97.414062 60.910156 L 97.546875 61.191406 L 97.722656 61.445312 L 97.9375 61.664062 L 98.191406 61.839844 L 98.46875 61.972656 L 98.777344 62.054688 L 99.097656 62.085938 L 99.425781 62.054688 L 99.726562 61.972656 L 100.007812 61.839844 L 100.257812 61.664062 L 100.476562 61.445312 L 100.652344 61.191406 L 100.785156 60.910156 L 100.871094 60.605469 L 100.898438 60.28125 L 100.871094 59.957031 L 100.785156 59.652344 L 100.652344 59.371094 L 100.476562 59.117188 L 100.257812 58.902344 L 100.007812 58.722656 L 99.726562 58.589844 L 99.425781 58.503906 L 99.097656 58.476562 L 98.777344 58.503906 Z M 66.757812 58.589844 L 66.476562 58.722656 L 66.226562 58.902344 L 66.007812 59.117188 L 65.832031 59.371094 L 65.695312 59.652344 L 65.617188 59.957031 L 65.585938 60.28125 L 65.617188 60.605469 L 65.695312 60.910156 L 65.832031 61.191406 L 66.007812 61.445312 L 66.226562 61.664062 L 66.476562 61.839844 L 66.757812 61.972656 L 67.0625 62.054688 L 67.386719 62.085938 L 67.707031 62.054688 L 68.011719 61.972656 L 68.292969 61.839844 L 68.546875 61.664062 L 68.761719 61.445312 L 68.9375 61.191406 L 69.074219 60.910156 L 69.15625 60.605469 L 69.1875 60.28125 L 69.15625 59.957031 L 69.074219 59.652344 L 68.9375 59.371094 L 68.761719 59.117188 L 68.546875 58.902344 L 68.292969 58.722656 L 68.011719 58.589844 L 67.707031 58.503906 L 67.386719 58.476562 L 67.0625 58.503906 Z M 129.921875 58.722656 L 129.671875 58.902344 L 129.453125 59.117188 L 129.277344 59.371094 L 129.140625 59.652344 L 129.058594 59.957031 L 129.03125 60.28125 L 129.058594 60.605469 L 129.144531 60.910156 L 129.277344 61.191406 L 129.453125 61.445312 L 129.671875 61.664062 L 129.921875 61.839844 L 130.203125 61.972656 L 130.507812 62.054688 L 130.832031 62.085938 L 131.152344 62.054688 L 131.457031 61.972656 L 131.738281 61.839844 L 131.992188 61.664062 L 132.207031 61.445312 L 132.382812 61.191406 L 132.519531 60.910156 L 132.601562 60.605469 L 132.632812 60.28125 L 132.632812 60.265625 L 132.597656 59.945312 L 132.511719 59.640625 L 132.378906 59.359375 L 132.203125 59.109375 L 131.984375 58.898438 L 131.734375 58.71875 L 131.457031 58.585938 L 131.152344 58.503906 L 130.832031 58.476562 L 130.507812 58.503906 L 130.203125 58.589844 Z M 114.34375 58.585938 L 114.0625 58.714844 L 113.8125 58.890625 L 113.589844 59.105469 L 113.410156 59.355469 L 113.273438 59.636719 L 113.1875 59.941406 L 113.15625 60.265625 L 113.183594 60.589844 L 113.265625 60.894531 L 113.394531 61.175781 L 113.570312 61.433594 L 113.785156 61.652344 L 114.035156 61.832031 L 114.316406 61.96875 L 114.617188 62.054688 L 114.941406 62.085938 L 115.265625 62.058594 L 115.570312 61.980469 L 115.851562 61.847656 L 116.105469 61.671875 L 116.324219 61.457031 L 116.503906 61.207031 L 116.640625 60.925781 L 116.726562 60.621094 L 116.757812 60.296875 L 116.757812 60.28125 L 116.726562 59.960938 L 116.644531 59.65625 L 116.515625 59.375 L 116.335938 59.125 L 116.125 58.90625 L 115.875 58.730469 L 115.597656 58.59375 L 115.296875 58.507812 L 114.972656 58.476562 L 114.648438 58.503906 Z M 52.105469 35.050781 L 52.402344 35.097656 L 52.695312 35.15625 L 52.980469 35.230469 L 53.257812 35.324219 L 53.527344 35.433594 L 53.792969 35.554688 L 54.046875 35.695312 L 54.289062 35.84375 L 54.527344 36.011719 L 54.753906 36.1875 L 54.96875 36.378906 L 55.171875 36.578125 L 55.363281 36.792969 L 55.542969 37.015625 L 55.710938 37.25 L 55.867188 37.496094 L 56.007812 37.75 L 56.132812 38.011719 L 56.246094 38.28125 L 56.339844 38.558594 L 56.417969 38.84375 L 56.484375 39.136719 L 56.53125 39.429688 L 56.558594 39.734375 L 56.570312 40.042969 L 56.570312 40.140625 L 56.558594 40.445312 L 56.527344 40.742188 L 56.484375 41.039062 L 56.417969 41.324219 L 56.339844 41.605469 L 56.246094 41.878906 L 56.132812 42.148438 L 56.007812 42.40625 L 55.871094 42.660156 L 55.71875 42.898438 L 55.550781 43.132812 L 55.375 43.351562 L 55.1875 43.5625 L 54.984375 43.765625 L 54.773438 43.953125 L 54.550781 44.132812 L 54.316406 44.292969 L 54.074219 44.445312 L 53.824219 44.582031 L 53.566406 44.707031 L 53.296875 44.8125 L 53.023438 44.910156 L 52.742188 44.988281 L 52.457031 45.046875 L 52.164062 45.09375 L 51.863281 45.121094 L 51.558594 45.128906 L 51.253906 45.125 L 50.953125 45.097656 L 50.652344 45.054688 L 50.359375 44.992188 L 50.078125 44.917969 L 49.796875 44.824219 L 49.527344 44.71875 L 49.265625 44.59375 L 49.011719 44.457031 L 48.765625 44.304688 L 48.53125 44.140625 L 48.304688 43.960938 L 48.089844 43.769531 L 47.882812 43.570312 L 47.691406 43.355469 L 47.511719 43.132812 L 47.34375 42.898438 L 47.191406 42.652344 L 47.050781 42.402344 L 46.925781 42.140625 L 46.8125 41.867188 L 46.714844 41.589844 L 46.636719 41.308594 L 46.574219 41.015625 L 46.527344 40.71875 L 46.496094 40.414062 L 46.488281 40.105469 L 46.492188 39.800781 L 46.519531 39.496094 L 46.5625 39.195312 L 46.621094 38.90625 L 46.699219 38.617188 L 46.789062 38.339844 L 46.898438 38.070312 L 47.023438 37.804688 L 47.160156 37.550781 L 47.308594 37.304688 L 47.472656 37.070312 L 47.652344 36.839844 L 47.839844 36.628906 L 48.042969 36.421875 L 48.253906 36.230469 L 48.480469 36.050781 L 48.714844 35.882812 L 48.957031 35.726562 L 49.207031 35.585938 L 49.46875 35.457031 L 49.738281 35.347656 L 50.015625 35.25 L 50.300781 35.171875 L 50.589844 35.105469 L 50.886719 35.058594 L 51.191406 35.03125 L 51.496094 35.019531 L 51.800781 35.027344 Z M 99.710938 35.054688 L 100.007812 35.101562 L 100.296875 35.160156 L 100.582031 35.242188 L 100.859375 35.335938 L 101.132812 35.445312 L 101.390625 35.570312 L 101.644531 35.710938 L 101.890625 35.863281 L 102.125 36.027344 L 102.351562 36.207031 L 102.5625 36.398438 L 102.765625 36.601562 L 102.957031 36.820312 L 103.136719 37.042969 L 103.300781 37.277344 L 103.457031 37.523438 L 103.59375 37.777344 L 103.71875 38.039062 L 103.828125 38.3125 L 103.921875 38.589844 L 104 38.875 L 104.0625 39.167969 L 104.105469 39.464844 L 104.132812 39.769531 L 104.144531 40.074219 L 104.144531 40.140625 L 104.128906 40.445312 L 104.097656 40.746094 L 104.050781 41.039062 L 103.988281 41.328125 L 103.90625 41.609375 L 103.808594 41.882812 L 103.699219 42.152344 L 103.574219 42.414062 L 103.433594 42.664062 L 103.277344 42.90625 L 103.113281 43.136719 L 102.933594 43.359375 L 102.742188 43.570312 L 102.539062 43.769531 L 102.328125 43.960938 L 102.101562 44.136719 L 101.867188 44.300781 L 101.625 44.453125 L 101.375 44.589844 L 101.113281 44.710938 L 100.84375 44.820312 L 100.570312 44.910156 L 100.285156 44.988281 L 100 45.050781 L 99.703125 45.09375 L 99.402344 45.121094 L 99.097656 45.128906 L 98.792969 45.121094 L 98.492188 45.09375 L 98.195312 45.046875 L 97.902344 44.988281 L 97.617188 44.910156 L 97.339844 44.8125 L 97.070312 44.703125 L 96.808594 44.578125 L 96.554688 44.441406 L 96.308594 44.285156 L 96.074219 44.121094 L 95.851562 43.941406 L 95.636719 43.75 L 95.433594 43.546875 L 95.242188 43.332031 L 95.0625 43.105469 L 94.898438 42.871094 L 94.746094 42.625 L 94.605469 42.371094 L 94.480469 42.109375 L 94.375 41.839844 L 94.277344 41.558594 L 94.199219 41.273438 L 94.140625 40.984375 L 94.09375 40.683594 L 94.066406 40.382812 L 94.058594 40.074219 L 94.066406 39.765625 L 94.09375 39.464844 L 94.140625 39.164062 L 94.199219 38.875 L 94.277344 38.589844 L 94.375 38.308594 L 94.480469 38.039062 L 94.605469 37.777344 L 94.746094 37.523438 L 94.898438 37.277344 L 95.066406 37.042969 L 95.242188 36.816406 L 95.4375 36.601562 L 95.636719 36.398438 L 95.851562 36.207031 L 96.074219 36.027344 L 96.3125 35.863281 L 96.554688 35.707031 L 96.808594 35.570312 L 97.070312 35.445312 L 97.339844 35.335938 L 97.621094 35.242188 L 97.902344 35.160156 L 98.195312 35.101562 L 98.492188 35.054688 L 98.792969 35.027344 L 99.101562 35.019531 L 99.40625 35.027344 Z M 67.996094 35.054688 L 68.292969 35.101562 L 68.585938 35.160156 L 68.867188 35.242188 L 69.144531 35.335938 L 69.414062 35.445312 L 69.679688 35.570312 L 69.929688 35.710938 L 70.175781 35.863281 L 70.410156 36.027344 L 70.632812 36.207031 L 70.851562 36.398438 L 71.050781 36.601562 L 71.242188 36.820312 L 71.421875 37.042969 L 71.585938 37.277344 L 71.738281 37.523438 L 71.878906 37.777344 L 72.003906 38.039062 L 72.113281 38.3125 L 72.207031 38.589844 L 72.285156 38.875 L 72.347656 39.167969 L 72.390625 39.464844 L 72.417969 39.769531 L 72.425781 40.074219 L 72.425781 40.140625 L 72.417969 40.445312 L 72.386719 40.746094 L 72.339844 41.039062 L 72.273438 41.328125 L 72.195312 41.613281 L 72.097656 41.886719 L 71.988281 42.15625 L 71.863281 42.414062 L 71.722656 42.667969 L 71.570312 42.910156 L 71.402344 43.140625 L 71.222656 43.363281 L 71.035156 43.574219 L 70.828125 43.777344 L 70.617188 43.964844 L 70.390625 44.140625 L 70.15625 44.304688 L 69.914062 44.457031 L 69.664062 44.59375 L 69.402344 44.714844 L 69.132812 44.824219 L 68.855469 44.917969 L 68.574219 44.992188 L 68.285156 45.054688 L 67.988281 45.097656 L 67.691406 45.125 L 67.386719 45.128906 L 67.078125 45.121094 L 66.773438 45.09375 L 66.476562 45.046875 L 66.1875 44.988281 L 65.902344 44.910156 L 65.625 44.8125 L 65.355469 44.703125 L 65.09375 44.578125 L 64.839844 44.441406 L 64.597656 44.285156 L 64.359375 44.121094 L 64.136719 43.941406 L 63.921875 43.75 L 63.71875 43.546875 L 63.527344 43.332031 L 63.351562 43.105469 L 63.183594 42.871094 L 63.03125 42.625 L 62.894531 42.371094 L 62.769531 42.109375 L 62.65625 41.839844 L 62.566406 41.558594 L 62.484375 41.273438 L 62.421875 40.984375 L 62.378906 40.683594 L 62.351562 40.382812 L 62.34375 40.074219 L 62.351562 39.765625 L 62.378906 39.464844 L 62.421875 39.164062 L 62.488281 38.875 L 62.566406 38.589844 L 62.660156 38.308594 L 62.769531 38.039062 L 62.894531 37.777344 L 63.03125 37.523438 L 63.183594 37.277344 L 63.351562 37.042969 L 63.527344 36.816406 L 63.71875 36.601562 L 63.925781 36.398438 L 64.136719 36.207031 L 64.363281 36.027344 L 64.597656 35.863281 L 64.839844 35.707031 L 65.09375 35.570312 L 65.355469 35.445312 L 65.625 35.335938 L 65.902344 35.242188 L 66.191406 35.160156 L 66.480469 35.101562 L 66.777344 35.054688 L 67.078125 35.027344 L 67.386719 35.019531 L 67.691406 35.027344 Z M 83.851562 35.054688 L 84.148438 35.101562 L 84.441406 35.160156 L 84.726562 35.242188 L 85.003906 35.335938 L 85.273438 35.445312 L 85.535156 35.570312 L 85.789062 35.710938 L 86.035156 35.863281 L 86.265625 36.027344 L 86.492188 36.207031 L 86.707031 36.398438 L 86.910156 36.601562 L 87.101562 36.820312 L 87.277344 37.042969 L 87.445312 37.277344 L 87.597656 37.523438 L 87.734375 37.777344 L 87.859375 38.039062 L 87.96875 38.3125 L 88.066406 38.589844 L 88.140625 38.875 L 88.203125 39.167969 L 88.25 39.464844 L 88.277344 39.769531 L 88.285156 40.074219 L 88.285156 40.140625 L 88.273438 40.445312 L 88.242188 40.746094 L 88.195312 41.039062 L 88.132812 41.328125 L 88.050781 41.613281 L 87.957031 41.886719 L 87.84375 42.15625 L 87.71875 42.414062 L 87.578125 42.667969 L 87.425781 42.910156 L 87.257812 43.140625 L 87.078125 43.363281 L 86.890625 43.574219 L 86.6875 43.777344 L 86.472656 43.964844 L 86.25 44.140625 L 86.015625 44.304688 L 85.773438 44.457031 L 85.519531 44.59375 L 85.257812 44.714844 L 84.988281 44.824219 L 84.714844 44.917969 L 84.429688 44.992188 L 84.144531 45.054688 L 83.847656 45.097656 L 83.546875 45.125 L 83.242188 45.128906 L 82.933594 45.121094 L 82.632812 45.09375 L 82.335938 45.046875 L 82.046875 44.988281 L 81.761719 44.910156 L 81.480469 44.8125 L 81.210938 44.703125 L 80.949219 44.578125 L 80.695312 44.441406 L 80.453125 44.285156 L 80.21875 44.121094 L 79.992188 43.941406 L 79.78125 43.75 L 79.578125 43.546875 L 79.386719 43.332031 L 79.207031 43.105469 L 79.042969 42.871094 L 78.886719 42.625 L 78.75 42.371094 L 78.625 42.109375 L 78.515625 41.839844 L 78.421875 41.558594 L 78.34375 41.273438 L 78.28125 40.984375 L 78.234375 40.683594 L 78.210938 40.382812 L 78.199219 40.074219 L 78.210938 39.765625 L 78.234375 39.464844 L 78.28125 39.164062 L 78.34375 38.875 L 78.421875 38.589844 L 78.515625 38.308594 L 78.625 38.039062 L 78.75 37.777344 L 78.890625 37.523438 L 79.042969 37.277344 L 79.207031 37.042969 L 79.386719 36.816406 L 79.578125 36.601562 L 79.78125 36.398438 L 79.996094 36.207031 L 80.21875 36.027344 L 80.453125 35.863281 L 80.699219 35.707031 L 80.949219 35.570312 L 81.214844 35.445312 L 81.484375 35.335938 L 81.761719 35.242188 L 82.046875 35.160156 L 82.335938 35.101562 L 82.632812 35.054688 L 82.933594 35.027344 L 83.242188 35.019531 L 83.550781 35.027344 Z M 98.472656 38.382812 L 98.191406 38.515625 L 97.9375 38.695312 L 97.722656 38.914062 L 97.546875 39.164062 L 97.414062 39.445312 L 97.328125 39.753906 L 97.300781 40.074219 L 97.332031 40.402344 L 97.414062 40.707031 L 97.546875 40.984375 L 97.726562 41.238281 L 97.941406 41.453125 L 98.195312 41.632812 L 98.472656 41.765625 L 98.78125 41.851562 L 99.101562 41.878906 L 99.417969 41.851562 L 99.714844 41.769531 L 99.992188 41.644531 L 100.238281 41.472656 L 100.453125 41.261719 L 100.632812 41.023438 L 100.769531 40.75 L 100.859375 40.457031 L 100.898438 40.140625 L 100.882812 39.8125 L 100.808594 39.507812 L 100.6875 39.21875 L 100.519531 38.960938 L 100.308594 38.738281 L 100.0625 38.550781 L 99.789062 38.40625 L 99.488281 38.3125 L 99.164062 38.269531 L 99.097656 38.269531 L 98.777344 38.300781 Z M 66.757812 38.382812 L 66.476562 38.515625 L 66.226562 38.695312 L 66.011719 38.914062 L 65.832031 39.164062 L 65.699219 39.445312 L 65.617188 39.753906 L 65.585938 40.074219 L 65.617188 40.402344 L 65.699219 40.707031 L 65.832031 40.984375 L 66.011719 41.238281 L 66.226562 41.453125 L 66.480469 41.632812 L 66.757812 41.765625 L 67.0625 41.851562 L 67.386719 41.878906 L 67.703125 41.851562 L 68 41.769531 L 68.277344 41.644531 L 68.523438 41.472656 L 68.738281 41.261719 L 68.917969 41.023438 L 69.054688 40.75 L 69.144531 40.457031 L 69.1875 40.140625 L 69.167969 39.8125 L 69.09375 39.507812 L 68.972656 39.21875 L 68.804688 38.960938 L 68.597656 38.738281 L 68.351562 38.550781 L 68.074219 38.40625 L 67.773438 38.3125 L 67.453125 38.269531 L 67.386719 38.269531 L 67.0625 38.300781 Z M 82.613281 38.382812 L 82.332031 38.515625 L 82.082031 38.695312 L 81.867188 38.914062 L 81.6875 39.164062 L 81.558594 39.445312 L 81.472656 39.753906 L 81.445312 40.074219 L 81.472656 40.402344 L 81.558594 40.707031 L 81.691406 40.984375 L 81.867188 41.238281 L 82.085938 41.453125 L 82.335938 41.632812 L 82.617188 41.765625 L 82.921875 41.851562 L 83.242188 41.878906 L 83.558594 41.851562 L 83.859375 41.769531 L 84.132812 41.644531 L 84.382812 41.472656 L 84.597656 41.261719 L 84.777344 41.023438 L 84.914062 40.75 L 85.003906 40.457031 L 85.042969 40.140625 L 85.027344 39.8125 L 84.953125 39.507812 L 84.832031 39.21875 L 84.660156 38.960938 L 84.453125 38.738281 L 84.207031 38.550781 L 83.929688 38.40625 L 83.628906 38.3125 L 83.308594 38.269531 L 83.242188 38.269531 L 82.917969 38.300781 Z M 50.929688 38.375 L 50.648438 38.5 L 50.394531 38.671875 L 50.171875 38.886719 L 49.992188 39.136719 L 49.851562 39.414062 L 49.765625 39.71875 L 49.730469 40.042969 L 49.753906 40.367188 L 49.832031 40.675781 L 49.960938 40.957031 L 50.132812 41.214844 L 50.34375 41.433594 L 50.59375 41.617188 L 50.871094 41.753906 L 51.175781 41.84375 L 51.5 41.878906 L 51.820312 41.855469 L 52.121094 41.78125 L 52.398438 41.65625 L 52.652344 41.484375 L 52.871094 41.273438 L 53.054688 41.03125 L 53.195312 40.757812 L 53.289062 40.457031 L 53.328125 40.140625 L 53.308594 39.8125 L 53.238281 39.507812 L 53.113281 39.21875 L 52.945312 38.960938 L 52.738281 38.738281 L 52.492188 38.550781 L 52.21875 38.40625 L 51.917969 38.3125 L 51.59375 38.269531 L 51.558594 38.269531 L 51.238281 38.292969 Z M 50.929688 38.375 " clip-rule="nonzero"/></clipPath><linearGradient x1="249.55" gradientTransform="matrix(0.226995, 0, 0, 0.227589, 27.239512, 27.134722)" y1="34.640008" x2="249.55" gradientUnits="userSpaceOnUse" y2="465.359986" id="454ee6c7d8"><stop stop-opacity="1" stop-color="rgb(17.298889%, 92.498779%, 100%)" offset="0"/><stop stop-opacity="1" stop-color="rgb(17.611694%, 92.3172%, 100%)" offset="0.00390625"/><stop stop-opacity="1" stop-color="rgb(17.926025%, 92.13562%, 100%)" offset="0.0078125"/><stop stop-opacity="1" stop-color="rgb(18.240356%, 91.952515%, 100%)" offset="0.0117187"/><stop stop-opacity="1" stop-color="rgb(18.554688%, 91.770935%, 100%)" offset="0.015625"/><stop stop-opacity="1" stop-color="rgb(18.867493%, 91.589355%, 100%)" offset="0.0195312"/><stop stop-opacity="1" stop-color="rgb(19.181824%, 91.407776%, 100%)" offset="0.0234375"/><stop stop-opacity="1" stop-color="rgb(19.494629%, 91.22467%, 100%)" offset="0.0273437"/><stop stop-opacity="1" stop-color="rgb(19.80896%, 91.043091%, 100%)" offset="0.03125"/><stop stop-opacity="1" stop-color="rgb(20.121765%, 90.859985%, 100%)" offset="0.0351562"/><stop stop-opacity="1" stop-color="rgb(20.436096%, 90.678406%, 100%)" offset="0.0390625"/><stop stop-opacity="1" stop-color="rgb(20.748901%, 90.496826%, 100%)" offset="0.0429687"/><stop stop-opacity="1" stop-color="rgb(21.063232%, 90.315247%, 100%)" offset="0.046875"/><stop stop-opacity="1" stop-color="rgb(21.376038%, 90.132141%, 100%)" offset="0.0507812"/><stop stop-opacity="1" stop-color="rgb(21.690369%, 89.950562%, 100%)" offset="0.0546875"/><stop stop-opacity="1" stop-color="rgb(22.003174%, 89.768982%, 100%)" offset="0.0585937"/><stop stop-opacity="1" stop-color="rgb(22.317505%, 89.587402%, 100%)" offset="0.0625"/><stop stop-opacity="1" stop-color="rgb(22.63031%, 89.404297%, 100%)" offset="0.0664062"/><stop stop-opacity="1" stop-color="rgb(22.944641%, 89.222717%, 100%)" offset="0.0703125"/><stop stop-opacity="1" stop-color="rgb(23.258972%, 89.039612%, 100%)" offset="0.0742187"/><stop stop-opacity="1" stop-color="rgb(23.573303%, 88.858032%, 100%)" offset="0.078125"/><stop stop-opacity="1" stop-color="rgb(23.886108%, 88.676453%, 100%)" offset="0.0820312"/><stop stop-opacity="1" stop-color="rgb(24.200439%, 88.494873%, 100%)" offset="0.0859375"/><stop stop-opacity="1" stop-color="rgb(24.513245%, 88.311768%, 100%)" offset="0.0898437"/><stop stop-opacity="1" stop-color="rgb(24.827576%, 88.130188%, 100%)" offset="0.09375"/><stop stop-opacity="1" stop-color="rgb(25.140381%, 87.948608%, 100%)" offset="0.0976562"/><stop stop-opacity="1" stop-color="rgb(25.454712%, 87.767029%, 100%)" offset="0.101562"/><stop stop-opacity="1" stop-color="rgb(25.767517%, 87.583923%, 100%)" offset="0.105469"/><stop stop-opacity="1" stop-color="rgb(26.081848%, 87.402344%, 100%)" offset="0.109375"/><stop stop-opacity="1" stop-color="rgb(26.394653%, 87.219238%, 100%)" offset="0.113281"/><stop stop-opacity="1" stop-color="rgb(26.708984%, 87.037659%, 100%)" offset="0.117187"/><stop stop-opacity="1" stop-color="rgb(27.02179%, 86.856079%, 100%)" offset="0.121094"/><stop stop-opacity="1" stop-color="rgb(27.336121%, 86.6745%, 100%)" offset="0.125"/><stop stop-opacity="1" stop-color="rgb(27.650452%, 86.491394%, 100%)" offset="0.128906"/><stop stop-opacity="1" stop-color="rgb(27.964783%, 86.309814%, 100%)" offset="0.132812"/><stop stop-opacity="1" stop-color="rgb(28.277588%, 86.128235%, 100%)" offset="0.136719"/><stop stop-opacity="1" stop-color="rgb(28.591919%, 85.946655%, 100%)" offset="0.140625"/><stop stop-opacity="1" stop-color="rgb(28.904724%, 85.76355%, 100%)" offset="0.144531"/><stop stop-opacity="1" stop-color="rgb(29.219055%, 85.58197%, 100%)" offset="0.148437"/><stop stop-opacity="1" stop-color="rgb(29.53186%, 85.398865%, 100%)" offset="0.152344"/><stop stop-opacity="1" stop-color="rgb(29.846191%, 85.217285%, 100%)" offset="0.15625"/><stop stop-opacity="1" stop-color="rgb(30.158997%, 85.035706%, 100%)" offset="0.160156"/><stop stop-opacity="1" stop-color="rgb(30.473328%, 84.854126%, 100%)" offset="0.164062"/><stop stop-opacity="1" stop-color="rgb(30.786133%, 84.671021%, 100%)" offset="0.167969"/><stop stop-opacity="1" stop-color="rgb(31.100464%, 84.489441%, 100%)" offset="0.171875"/><stop stop-opacity="1" stop-color="rgb(31.413269%, 84.307861%, 100%)" offset="0.175781"/><stop stop-opacity="1" stop-color="rgb(31.7276%, 84.126282%, 100%)" offset="0.179687"/><stop stop-opacity="1" stop-color="rgb(32.040405%, 83.943176%, 100%)" offset="0.183594"/><stop stop-opacity="1" stop-color="rgb(32.354736%, 83.761597%, 100%)" offset="0.1875"/><stop stop-opacity="1" stop-color="rgb(32.669067%, 83.578491%, 100%)" offset="0.191406"/><stop stop-opacity="1" stop-color="rgb(32.983398%, 83.396912%, 100%)" offset="0.195312"/><stop stop-opacity="1" stop-color="rgb(33.296204%, 83.215332%, 100%)" offset="0.199219"/><stop stop-opacity="1" stop-color="rgb(33.610535%, 83.033752%, 100%)" offset="0.203125"/><stop stop-opacity="1" stop-color="rgb(33.92334%, 82.850647%, 100%)" offset="0.207031"/><stop stop-opacity="1" stop-color="rgb(34.237671%, 82.669067%, 100%)" offset="0.210937"/><stop stop-opacity="1" stop-color="rgb(34.550476%, 82.487488%, 100%)" offset="0.214844"/><stop stop-opacity="1" stop-color="rgb(34.864807%, 82.305908%, 100%)" offset="0.21875"/><stop stop-opacity="1" stop-color="rgb(35.177612%, 82.122803%, 100%)" offset="0.222656"/><stop stop-opacity="1" stop-color="rgb(35.491943%, 81.941223%, 100%)" offset="0.226562"/><stop stop-opacity="1" stop-color="rgb(35.804749%, 81.759644%, 100%)" offset="0.230469"/><stop stop-opacity="1" stop-color="rgb(36.11908%, 81.578064%, 100%)" offset="0.234375"/><stop stop-opacity="1" stop-color="rgb(36.431885%, 81.394958%, 100%)" offset="0.238281"/><stop stop-opacity="1" stop-color="rgb(36.746216%, 81.213379%, 100%)" offset="0.242187"/><stop stop-opacity="1" stop-color="rgb(37.060547%, 81.030273%, 100%)" offset="0.246094"/><stop stop-opacity="1" stop-color="rgb(37.374878%, 80.848694%, 100%)" offset="0.25"/><stop stop-opacity="1" stop-color="rgb(37.687683%, 80.667114%, 100%)" offset="0.253906"/><stop stop-opacity="1" stop-color="rgb(38.002014%, 80.485535%, 100%)" offset="0.257812"/><stop stop-opacity="1" stop-color="rgb(38.314819%, 80.302429%, 100%)" offset="0.261719"/><stop stop-opacity="1" stop-color="rgb(38.62915%, 80.12085%, 100%)" offset="0.265625"/><stop stop-opacity="1" stop-color="rgb(38.941956%, 79.93927%, 100%)" offset="0.269531"/><stop stop-opacity="1" stop-color="rgb(39.256287%, 79.75769%, 100%)" offset="0.273437"/><stop stop-opacity="1" stop-color="rgb(39.569092%, 79.574585%, 100%)" offset="0.277344"/><stop stop-opacity="1" stop-color="rgb(39.883423%, 79.393005%, 100%)" offset="0.28125"/><stop stop-opacity="1" stop-color="rgb(40.196228%, 79.2099%, 100%)" offset="0.285156"/><stop stop-opacity="1" stop-color="rgb(40.510559%, 79.02832%, 100%)" offset="0.289062"/><stop stop-opacity="1" stop-color="rgb(40.823364%, 78.846741%, 100%)" offset="0.292969"/><stop stop-opacity="1" stop-color="rgb(41.137695%, 78.665161%, 100%)" offset="0.296875"/><stop stop-opacity="1" stop-color="rgb(41.452026%, 78.482056%, 100%)" offset="0.300781"/><stop stop-opacity="1" stop-color="rgb(41.766357%, 78.300476%, 100%)" offset="0.304687"/><stop stop-opacity="1" stop-color="rgb(42.079163%, 78.118896%, 100%)" offset="0.308594"/><stop stop-opacity="1" stop-color="rgb(42.393494%, 77.937317%, 100%)" offset="0.3125"/><stop stop-opacity="1" stop-color="rgb(42.706299%, 77.754211%, 100%)" offset="0.316406"/><stop stop-opacity="1" stop-color="rgb(43.02063%, 77.572632%, 100%)" offset="0.320312"/><stop stop-opacity="1" stop-color="rgb(43.333435%, 77.389526%, 100%)" offset="0.324219"/><stop stop-opacity="1" stop-color="rgb(43.647766%, 77.207947%, 100%)" offset="0.328125"/><stop stop-opacity="1" stop-color="rgb(43.960571%, 77.026367%, 100%)" offset="0.332031"/><stop stop-opacity="1" stop-color="rgb(44.274902%, 76.844788%, 100%)" offset="0.335938"/><stop stop-opacity="1" stop-color="rgb(44.587708%, 76.661682%, 100%)" offset="0.339844"/><stop stop-opacity="1" stop-color="rgb(44.902039%, 76.480103%, 100%)" offset="0.34375"/><stop stop-opacity="1" stop-color="rgb(45.214844%, 76.298523%, 100%)" offset="0.347656"/><stop stop-opacity="1" stop-color="rgb(45.529175%, 76.116943%, 100%)" offset="0.351562"/><stop stop-opacity="1" stop-color="rgb(45.84198%, 75.933838%, 100%)" offset="0.355469"/><stop stop-opacity="1" stop-color="rgb(46.156311%, 75.752258%, 100%)" offset="0.359375"/><stop stop-opacity="1" stop-color="rgb(46.470642%, 75.569153%, 100%)" offset="0.363281"/><stop stop-opacity="1" stop-color="rgb(46.784973%, 75.387573%, 100%)" offset="0.367188"/><stop stop-opacity="1" stop-color="rgb(47.097778%, 75.205994%, 100%)" offset="0.371094"/><stop stop-opacity="1" stop-color="rgb(47.412109%, 75.024414%, 100%)" offset="0.375"/><stop stop-opacity="1" stop-color="rgb(47.724915%, 74.841309%, 100%)" offset="0.378906"/><stop stop-opacity="1" stop-color="rgb(48.039246%, 74.659729%, 100%)" offset="0.382812"/><stop stop-opacity="1" stop-color="rgb(48.352051%, 74.478149%, 100%)" offset="0.386719"/><stop stop-opacity="1" stop-color="rgb(48.666382%, 74.29657%, 100%)" offset="0.390625"/><stop stop-opacity="1" stop-color="rgb(48.979187%, 74.113464%, 100%)" offset="0.394531"/><stop stop-opacity="1" stop-color="rgb(49.293518%, 73.931885%, 100%)" offset="0.398438"/><stop stop-opacity="1" stop-color="rgb(49.606323%, 73.750305%, 100%)" offset="0.402344"/><stop stop-opacity="1" stop-color="rgb(49.920654%, 73.568726%, 100%)" offset="0.40625"/><stop stop-opacity="1" stop-color="rgb(50.233459%, 73.38562%, 100%)" offset="0.410156"/><stop stop-opacity="1" stop-color="rgb(50.547791%, 73.204041%, 100%)" offset="0.414062"/><stop stop-opacity="1" stop-color="rgb(50.862122%, 73.020935%, 100%)" offset="0.417969"/><stop stop-opacity="1" stop-color="rgb(51.176453%, 72.839355%, 100%)" offset="0.421875"/><stop stop-opacity="1" stop-color="rgb(51.489258%, 72.657776%, 100%)" offset="0.425781"/><stop stop-opacity="1" stop-color="rgb(51.803589%, 72.476196%, 100%)" offset="0.429688"/><stop stop-opacity="1" stop-color="rgb(52.116394%, 72.293091%, 100%)" offset="0.433594"/><stop stop-opacity="1" stop-color="rgb(52.430725%, 72.111511%, 100%)" offset="0.4375"/><stop stop-opacity="1" stop-color="rgb(52.74353%, 71.929932%, 100%)" offset="0.441406"/><stop stop-opacity="1" stop-color="rgb(53.057861%, 71.748352%, 100%)" offset="0.445312"/><stop stop-opacity="1" stop-color="rgb(53.370667%, 71.565247%, 100%)" offset="0.449219"/><stop stop-opacity="1" stop-color="rgb(53.684998%, 71.383667%, 100%)" offset="0.453125"/><stop stop-opacity="1" stop-color="rgb(53.997803%, 71.200562%, 100%)" offset="0.457031"/><stop stop-opacity="1" stop-color="rgb(54.312134%, 71.018982%, 100%)" offset="0.460937"/><stop stop-opacity="1" stop-color="rgb(54.624939%, 70.837402%, 100%)" offset="0.464844"/><stop stop-opacity="1" stop-color="rgb(54.93927%, 70.655823%, 100%)" offset="0.46875"/><stop stop-opacity="1" stop-color="rgb(55.253601%, 70.472717%, 100%)" offset="0.472656"/><stop stop-opacity="1" stop-color="rgb(55.567932%, 70.291138%, 100%)" offset="0.476562"/><stop stop-opacity="1" stop-color="rgb(55.880737%, 70.109558%, 100%)" offset="0.480469"/><stop stop-opacity="1" stop-color="rgb(56.195068%, 69.927979%, 100%)" offset="0.484375"/><stop stop-opacity="1" stop-color="rgb(56.507874%, 69.744873%, 100%)" offset="0.488281"/><stop stop-opacity="1" stop-color="rgb(56.822205%, 69.563293%, 100%)" offset="0.492187"/><stop stop-opacity="1" stop-color="rgb(57.13501%, 69.380188%, 100%)" offset="0.496094"/><stop stop-opacity="1" stop-color="rgb(57.449341%, 69.198608%, 100%)" offset="0.5"/><stop stop-opacity="1" stop-color="rgb(57.762146%, 69.017029%, 100%)" offset="0.503906"/><stop stop-opacity="1" stop-color="rgb(58.076477%, 68.835449%, 100%)" offset="0.507812"/><stop stop-opacity="1" stop-color="rgb(58.389282%, 68.652344%, 100%)" offset="0.511719"/><stop stop-opacity="1" stop-color="rgb(58.703613%, 68.470764%, 100%)" offset="0.515625"/><stop stop-opacity="1" stop-color="rgb(59.016418%, 68.289185%, 100%)" offset="0.519531"/><stop stop-opacity="1" stop-color="rgb(59.33075%, 68.107605%, 100%)" offset="0.523437"/><stop stop-opacity="1" stop-color="rgb(59.643555%, 67.9245%, 100%)" offset="0.527344"/><stop stop-opacity="1" stop-color="rgb(59.957886%, 67.74292%, 100%)" offset="0.53125"/><stop stop-opacity="1" stop-color="rgb(60.272217%, 67.559814%, 100%)" offset="0.535156"/><stop stop-opacity="1" stop-color="rgb(60.586548%, 67.378235%, 100%)" offset="0.539062"/><stop stop-opacity="1" stop-color="rgb(60.899353%, 67.196655%, 100%)" offset="0.542969"/><stop stop-opacity="1" stop-color="rgb(61.213684%, 67.015076%, 100%)" offset="0.546875"/><stop stop-opacity="1" stop-color="rgb(61.526489%, 66.83197%, 100%)" offset="0.550781"/><stop stop-opacity="1" stop-color="rgb(61.84082%, 66.650391%, 100%)" offset="0.554688"/><stop stop-opacity="1" stop-color="rgb(62.153625%, 66.468811%, 100%)" offset="0.558594"/><stop stop-opacity="1" stop-color="rgb(62.467957%, 66.287231%, 100%)" offset="0.5625"/><stop stop-opacity="1" stop-color="rgb(62.780762%, 66.104126%, 100%)" offset="0.566406"/><stop stop-opacity="1" stop-color="rgb(63.095093%, 65.922546%, 100%)" offset="0.570312"/><stop stop-opacity="1" stop-color="rgb(63.407898%, 65.739441%, 100%)" offset="0.574219"/><stop stop-opacity="1" stop-color="rgb(63.722229%, 65.557861%, 100%)" offset="0.578125"/><stop stop-opacity="1" stop-color="rgb(64.035034%, 65.376282%, 100%)" offset="0.582031"/><stop stop-opacity="1" stop-color="rgb(64.349365%, 65.194702%, 100%)" offset="0.585938"/><stop stop-opacity="1" stop-color="rgb(64.663696%, 65.011597%, 100%)" offset="0.589844"/><stop stop-opacity="1" stop-color="rgb(64.978027%, 64.830017%, 100%)" offset="0.59375"/><stop stop-opacity="1" stop-color="rgb(65.290833%, 64.648438%, 100%)" offset="0.597656"/><stop stop-opacity="1" stop-color="rgb(65.605164%, 64.466858%, 100%)" offset="0.601563"/><stop stop-opacity="1" stop-color="rgb(65.917969%, 64.283752%, 100%)" offset="0.605469"/><stop stop-opacity="1" stop-color="rgb(66.2323%, 64.102173%, 100%)" offset="0.609375"/><stop stop-opacity="1" stop-color="rgb(66.545105%, 63.920593%, 100%)" offset="0.613281"/><stop stop-opacity="1" stop-color="rgb(66.859436%, 63.739014%, 100%)" offset="0.617187"/><stop stop-opacity="1" stop-color="rgb(67.172241%, 63.555908%, 100%)" offset="0.621094"/><stop stop-opacity="1" stop-color="rgb(67.486572%, 63.374329%, 100%)" offset="0.625"/><stop stop-opacity="1" stop-color="rgb(67.799377%, 63.191223%, 100%)" offset="0.628906"/><stop stop-opacity="1" stop-color="rgb(68.113708%, 63.009644%, 100%)" offset="0.632812"/><stop stop-opacity="1" stop-color="rgb(68.426514%, 62.828064%, 100%)" offset="0.636719"/><stop stop-opacity="1" stop-color="rgb(68.740845%, 62.646484%, 100%)" offset="0.640625"/><stop stop-opacity="1" stop-color="rgb(69.055176%, 62.463379%, 100%)" offset="0.644531"/><stop stop-opacity="1" stop-color="rgb(69.369507%, 62.281799%, 100%)" offset="0.648437"/><stop stop-opacity="1" stop-color="rgb(69.682312%, 62.10022%, 100%)" offset="0.652344"/><stop stop-opacity="1" stop-color="rgb(69.996643%, 61.91864%, 100%)" offset="0.65625"/><stop stop-opacity="1" stop-color="rgb(70.309448%, 61.735535%, 100%)" offset="0.660156"/><stop stop-opacity="1" stop-color="rgb(70.623779%, 61.553955%, 100%)" offset="0.664062"/><stop stop-opacity="1" stop-color="rgb(70.936584%, 61.37085%, 100%)" offset="0.667969"/><stop stop-opacity="1" stop-color="rgb(71.250916%, 61.18927%, 100%)" offset="0.671875"/><stop stop-opacity="1" stop-color="rgb(71.563721%, 61.00769%, 100%)" offset="0.675781"/><stop stop-opacity="1" stop-color="rgb(71.878052%, 60.826111%, 100%)" offset="0.679688"/><stop stop-opacity="1" stop-color="rgb(72.190857%, 60.643005%, 100%)" offset="0.683594"/><stop stop-opacity="1" stop-color="rgb(72.505188%, 60.461426%, 100%)" offset="0.6875"/><stop stop-opacity="1" stop-color="rgb(72.817993%, 60.279846%, 100%)" offset="0.691406"/><stop stop-opacity="1" stop-color="rgb(73.132324%, 60.098267%, 100%)" offset="0.695312"/><stop stop-opacity="1" stop-color="rgb(73.445129%, 59.915161%, 100%)" offset="0.699219"/><stop stop-opacity="1" stop-color="rgb(73.75946%, 59.733582%, 100%)" offset="0.703125"/><stop stop-opacity="1" stop-color="rgb(74.073792%, 59.550476%, 100%)" offset="0.707031"/><stop stop-opacity="1" stop-color="rgb(74.388123%, 59.368896%, 100%)" offset="0.710938"/><stop stop-opacity="1" stop-color="rgb(74.700928%, 59.187317%, 100%)" offset="0.714844"/><stop stop-opacity="1" stop-color="rgb(75.015259%, 59.005737%, 100%)" offset="0.71875"/><stop stop-opacity="1" stop-color="rgb(75.328064%, 58.822632%, 100%)" offset="0.722656"/><stop stop-opacity="1" stop-color="rgb(75.642395%, 58.641052%, 100%)" offset="0.726562"/><stop stop-opacity="1" stop-color="rgb(75.9552%, 58.459473%, 100%)" offset="0.730469"/><stop stop-opacity="1" stop-color="rgb(76.269531%, 58.277893%, 100%)" offset="0.734375"/><stop stop-opacity="1" stop-color="rgb(76.582336%, 58.094788%, 100%)" offset="0.738281"/><stop stop-opacity="1" stop-color="rgb(76.896667%, 57.913208%, 100%)" offset="0.742187"/><stop stop-opacity="1" stop-color="rgb(77.209473%, 57.730103%, 100%)" offset="0.746094"/><stop stop-opacity="1" stop-color="rgb(77.523804%, 57.548523%, 100%)" offset="0.75"/><stop stop-opacity="1" stop-color="rgb(77.836609%, 57.366943%, 100%)" offset="0.753906"/><stop stop-opacity="1" stop-color="rgb(78.15094%, 57.185364%, 100%)" offset="0.757812"/><stop stop-opacity="1" stop-color="rgb(78.465271%, 57.002258%, 100%)" offset="0.761719"/><stop stop-opacity="1" stop-color="rgb(78.779602%, 56.820679%, 100%)" offset="0.765625"/><stop stop-opacity="1" stop-color="rgb(79.092407%, 56.639099%, 100%)" offset="0.769531"/><stop stop-opacity="1" stop-color="rgb(79.406738%, 56.45752%, 100%)" offset="0.773437"/><stop stop-opacity="1" stop-color="rgb(79.719543%, 56.274414%, 100%)" offset="0.777344"/><stop stop-opacity="1" stop-color="rgb(80.033875%, 56.092834%, 100%)" offset="0.78125"/><stop stop-opacity="1" stop-color="rgb(80.34668%, 55.911255%, 100%)" offset="0.785156"/><stop stop-opacity="1" stop-color="rgb(80.661011%, 55.729675%, 100%)" offset="0.789062"/><stop stop-opacity="1" stop-color="rgb(80.973816%, 55.54657%, 100%)" offset="0.792969"/><stop stop-opacity="1" stop-color="rgb(81.288147%, 55.36499%, 100%)" offset="0.796875"/><stop stop-opacity="1" stop-color="rgb(81.600952%, 55.181885%, 100%)" offset="0.800781"/><stop stop-opacity="1" stop-color="rgb(81.915283%, 55.000305%, 100%)" offset="0.804688"/><stop stop-opacity="1" stop-color="rgb(82.228088%, 54.818726%, 100%)" offset="0.808594"/><stop stop-opacity="1" stop-color="rgb(82.542419%, 54.637146%, 100%)" offset="0.8125"/><stop stop-opacity="1" stop-color="rgb(82.85675%, 54.454041%, 100%)" offset="0.816406"/><stop stop-opacity="1" stop-color="rgb(83.171082%, 54.272461%, 100%)" offset="0.820312"/><stop stop-opacity="1" stop-color="rgb(83.483887%, 54.090881%, 100%)" offset="0.824219"/><stop stop-opacity="1" stop-color="rgb(83.798218%, 53.909302%, 100%)" offset="0.828125"/><stop stop-opacity="1" stop-color="rgb(84.111023%, 53.726196%, 100%)" offset="0.832031"/><stop stop-opacity="1" stop-color="rgb(84.425354%, 53.544617%, 100%)" offset="0.835937"/><stop stop-opacity="1" stop-color="rgb(84.738159%, 53.361511%, 100%)" offset="0.839844"/><stop stop-opacity="1" stop-color="rgb(85.05249%, 53.179932%, 100%)" offset="0.84375"/><stop stop-opacity="1" stop-color="rgb(85.365295%, 52.998352%, 100%)" offset="0.847656"/><stop stop-opacity="1" stop-color="rgb(85.679626%, 52.816772%, 100%)" offset="0.851562"/><stop stop-opacity="1" stop-color="rgb(85.992432%, 52.633667%, 100%)" offset="0.855469"/><stop stop-opacity="1" stop-color="rgb(86.306763%, 52.452087%, 100%)" offset="0.859375"/><stop stop-opacity="1" stop-color="rgb(86.619568%, 52.270508%, 100%)" offset="0.863281"/><stop stop-opacity="1" stop-color="rgb(86.933899%, 52.088928%, 100%)" offset="0.867187"/><stop stop-opacity="1" stop-color="rgb(87.246704%, 51.905823%, 100%)" offset="0.871094"/><stop stop-opacity="1" stop-color="rgb(87.561035%, 51.724243%, 100%)" offset="0.875"/><stop stop-opacity="1" stop-color="rgb(87.875366%, 51.541138%, 100%)" offset="0.878906"/><stop stop-opacity="1" stop-color="rgb(88.189697%, 51.359558%, 100%)" offset="0.882812"/><stop stop-opacity="1" stop-color="rgb(88.502502%, 51.177979%, 100%)" offset="0.886719"/><stop stop-opacity="1" stop-color="rgb(88.816833%, 50.996399%, 100%)" offset="0.890625"/><stop stop-opacity="1" stop-color="rgb(89.129639%, 50.813293%, 100%)" offset="0.894531"/><stop stop-opacity="1" stop-color="rgb(89.44397%, 50.631714%, 100%)" offset="0.898438"/><stop stop-opacity="1" stop-color="rgb(89.756775%, 50.450134%, 100%)" offset="0.902344"/><stop stop-opacity="1" stop-color="rgb(90.071106%, 50.268555%, 100%)" offset="0.90625"/><stop stop-opacity="1" stop-color="rgb(90.383911%, 50.085449%, 100%)" offset="0.910156"/><stop stop-opacity="1" stop-color="rgb(90.698242%, 49.90387%, 100%)" offset="0.914062"/><stop stop-opacity="1" stop-color="rgb(91.011047%, 49.720764%, 100%)" offset="0.917969"/><stop stop-opacity="1" stop-color="rgb(91.325378%, 49.539185%, 100%)" offset="0.921875"/><stop stop-opacity="1" stop-color="rgb(91.638184%, 49.357605%, 100%)" offset="0.925781"/><stop stop-opacity="1" stop-color="rgb(91.952515%, 49.176025%, 100%)" offset="0.929688"/><stop stop-opacity="1" stop-color="rgb(92.266846%, 48.99292%, 100%)" offset="0.933594"/><stop stop-opacity="1" stop-color="rgb(92.581177%, 48.81134%, 100%)" offset="0.9375"/><stop stop-opacity="1" stop-color="rgb(92.893982%, 48.629761%, 100%)" offset="0.941406"/><stop stop-opacity="1" stop-color="rgb(93.208313%, 48.448181%, 100%)" offset="0.945312"/><stop stop-opacity="1" stop-color="rgb(93.521118%, 48.265076%, 100%)" offset="0.949219"/><stop stop-opacity="1" stop-color="rgb(93.835449%, 48.083496%, 100%)" offset="0.953125"/><stop stop-opacity="1" stop-color="rgb(94.148254%, 47.900391%, 100%)" offset="0.957031"/><stop stop-opacity="1" stop-color="rgb(94.462585%, 47.718811%, 100%)" offset="0.960937"/><stop stop-opacity="1" stop-color="rgb(94.775391%, 47.537231%, 100%)" offset="0.964844"/><stop stop-opacity="1" stop-color="rgb(95.089722%, 47.355652%, 100%)" offset="0.96875"/><stop stop-opacity="1" stop-color="rgb(95.402527%, 47.172546%, 100%)" offset="0.972656"/><stop stop-opacity="1" stop-color="rgb(95.716858%, 46.990967%, 100%)" offset="0.976562"/><stop stop-opacity="1" stop-color="rgb(96.029663%, 46.809387%, 100%)" offset="0.980469"/><stop stop-opacity="1" stop-color="rgb(96.343994%, 46.627808%, 100%)" offset="0.984375"/><stop stop-opacity="1" stop-color="rgb(96.656799%, 46.444702%, 100%)" offset="0.988281"/><stop stop-opacity="1" stop-color="rgb(96.97113%, 46.263123%, 100%)" offset="0.992188"/><stop stop-opacity="1" stop-color="rgb(97.285461%, 46.081543%, 100%)" offset="0.996094"/><stop stop-opacity="1" stop-color="rgb(97.599792%, 45.899963%, 100%)" offset="1"/></linearGradient></defs><g clip-path="url(#644b7d023b)"><g clip-path="url(#38f9f2cc43)"><path fill="url(#454ee6c7d8)" d="M 31.898438 35.019531 L 31.898438 133.046875 L 135.871094 133.046875 L 135.871094 35.019531 Z M 31.898438 35.019531 " fill-rule="nonzero"/></g></g></svg>