<svg xmlns="http://www.w3.org/2000/svg" xmlns:xlink="http://www.w3.org/1999/xlink" width="224" zoomAndPan="magnify" viewBox="0 0 168 167.999997" height="224" preserveAspectRatio="xMidYMid meet" version="1.0"><defs><clipPath id="7b1b531ebd"><path d="M 41.648438 26.203125 L 126.398438 26.203125 L 126.398438 141.703125 L 41.648438 141.703125 Z M 41.648438 26.203125 " clip-rule="nonzero"/></clipPath><clipPath id="a227a921d4"><path d="M 113.054688 92.582031 L 101.714844 89.75 C 101.699219 89.746094 101.683594 89.742188 101.664062 89.738281 L 95.570312 88.21875 C 95.578125 88.078125 95.582031 87.941406 95.582031 87.800781 L 95.582031 79.078125 C 95.734375 78.953125 95.886719 78.828125 96.039062 78.695312 L 97.664062 79.019531 C 98.164062 79.121094 98.660156 79.167969 99.152344 79.167969 C 102.546875 79.167969 105.597656 76.875 106.453125 73.46875 L 107.679688 68.566406 L 107.734375 68.566406 C 110.59375 68.566406 112.917969 66.246094 112.917969 63.394531 L 112.917969 54.507812 C 112.917969 52.886719 112.164062 51.4375 110.992188 50.488281 L 110.992188 45.007812 C 110.992188 34.667969 102.566406 26.253906 92.210938 26.253906 L 75.839844 26.253906 C 65.484375 26.253906 57.058594 34.667969 57.058594 45.007812 L 57.058594 50.488281 C 55.886719 51.4375 55.132812 52.886719 55.132812 54.507812 L 55.132812 63.394531 C 55.132812 66.246094 57.457031 68.566406 60.316406 68.566406 L 64.4375 68.566406 C 64.820312 68.566406 65.191406 68.511719 65.546875 68.414062 C 66.324219 71.214844 67.675781 73.855469 69.53125 76.132812 C 70.414062 77.214844 71.402344 78.199219 72.46875 79.078125 L 72.46875 87.800781 C 72.46875 87.9375 72.472656 88.078125 72.480469 88.21875 L 66.386719 89.738281 C 66.367188 89.742188 66.351562 89.746094 66.335938 89.75 L 54.996094 92.582031 C 47.136719 94.542969 41.648438 101.5625 41.648438 109.648438 L 41.648438 139.726562 C 41.648438 140.789062 42.511719 141.648438 43.578125 141.648438 L 124.472656 141.648438 C 125.539062 141.648438 126.398438 140.789062 126.398438 139.726562 L 126.398438 109.648438 C 126.398438 101.5625 120.914062 94.542969 113.054688 92.582031 Z M 102.714844 72.535156 C 102.296875 74.199219 100.804688 75.320312 99.144531 75.320312 C 100.683594 73.238281 101.816406 70.890625 102.503906 68.414062 C 102.859375 68.511719 103.230469 68.566406 103.613281 68.566406 L 103.710938 68.566406 Z M 109.066406 54.507812 L 109.066406 63.394531 C 109.066406 64.125 108.46875 64.71875 107.734375 64.71875 L 103.613281 64.71875 C 103.433594 64.71875 103.285156 64.574219 103.285156 64.394531 L 103.285156 53.503906 C 103.285156 53.328125 103.433594 53.179688 103.613281 53.179688 L 107.734375 53.179688 C 108.46875 53.179688 109.066406 53.777344 109.066406 54.507812 Z M 64.765625 64.394531 C 64.765625 64.574219 64.617188 64.71875 64.4375 64.71875 L 60.316406 64.71875 C 59.582031 64.71875 58.984375 64.125 58.984375 63.394531 L 58.984375 54.507812 C 58.984375 53.777344 59.582031 53.179688 60.316406 53.179688 L 64.4375 53.179688 C 64.617188 53.179688 64.765625 53.328125 64.765625 53.503906 Z M 62.835938 44.566406 L 62.835938 49.335938 L 60.910156 49.335938 L 60.910156 45.007812 C 60.910156 36.789062 67.609375 30.101562 75.839844 30.101562 L 92.210938 30.101562 C 100.441406 30.101562 107.140625 36.789062 107.140625 45.007812 L 107.140625 49.335938 L 105.210938 49.335938 L 105.210938 44.566406 C 105.210938 38.710938 100.441406 33.949219 94.578125 33.949219 L 73.472656 33.949219 C 67.609375 33.949219 62.835938 38.710938 62.835938 44.566406 Z M 66.691406 49.996094 L 66.691406 44.566406 C 66.691406 40.832031 69.730469 37.792969 73.472656 37.792969 L 94.578125 37.792969 C 98.316406 37.792969 101.359375 40.832031 101.359375 44.566406 L 101.359375 49.996094 C 100.289062 50.683594 99.554688 51.84375 99.449219 53.179688 L 68.601562 53.179688 C 68.496094 51.84375 67.761719 50.683594 66.691406 49.996094 Z M 68.839844 64.71875 C 68.800781 64.71875 68.761719 64.707031 68.730469 64.6875 C 68.65625 64.046875 68.617188 63.398438 68.617188 62.746094 L 68.617188 57.25 C 68.617188 57.128906 68.714844 57.027344 68.839844 57.027344 L 99.210938 57.027344 C 99.335938 57.027344 99.433594 57.128906 99.433594 57.25 L 99.433594 62.746094 C 99.433594 63.398438 99.394531 64.046875 99.320312 64.6875 C 99.289062 64.707031 99.25 64.71875 99.210938 64.71875 L 89.464844 64.71875 C 89.21875 64.71875 89 64.585938 88.890625 64.367188 L 87.140625 60.875 C 86.546875 59.6875 85.351562 58.949219 84.023438 58.949219 C 82.695312 58.949219 81.503906 59.6875 80.910156 60.875 L 79.160156 64.367188 C 79.050781 64.585938 78.832031 64.71875 78.585938 64.71875 Z M 69.632812 68.566406 L 78.585938 68.566406 C 80.300781 68.566406 81.839844 67.617188 82.605469 66.085938 L 84.023438 63.25 L 85.445312 66.085938 C 86.210938 67.617188 87.75 68.566406 89.464844 68.566406 L 98.417969 68.566406 C 97.617188 70.785156 96.375 72.808594 94.789062 74.523438 L 84.402344 72.449219 C 83.359375 72.242188 82.34375 72.917969 82.136719 73.960938 C 81.925781 75 82.605469 76.015625 83.648438 76.222656 L 90.902344 77.671875 C 89.285156 78.632812 87.496094 79.347656 85.578125 79.742188 C 84.546875 79.957031 83.503906 79.957031 82.472656 79.742188 C 76.433594 78.492188 71.636719 74.136719 69.632812 68.566406 Z M 91.730469 81.613281 L 91.730469 87.800781 C 91.730469 92.039062 88.273438 95.492188 84.023438 95.492188 C 79.777344 95.492188 76.320312 92.039062 76.320312 87.800781 L 76.320312 81.613281 C 78.007812 82.476562 79.816406 83.121094 81.691406 83.511719 C 82.464844 83.671875 83.246094 83.75 84.023438 83.75 C 84.804688 83.75 85.585938 83.671875 86.359375 83.511719 C 88.234375 83.121094 90.039062 82.476562 91.730469 81.613281 Z M 73.261719 91.988281 C 74.941406 96.285156 79.132812 99.339844 84.023438 99.339844 C 88.917969 99.339844 93.109375 96.285156 94.789062 91.988281 L 98.960938 93.03125 C 97.261719 98.921875 91.152344 103.183594 84.023438 103.183594 C 76.898438 103.183594 70.789062 98.921875 69.085938 93.03125 Z M 58.984375 137.804688 L 47.929688 137.804688 L 58.984375 125.660156 L 58.984375 128.78125 C 58.984375 130.496094 59.828125 132.011719 61.117188 132.957031 Z M 64.433594 137.804688 L 65.316406 134.203125 C 66.609375 135.277344 68.265625 135.878906 70 135.878906 C 73.28125 135.878906 76.136719 133.746094 76.941406 130.695312 L 77.921875 126.984375 C 78 126.691406 78.320312 126.476562 78.683594 126.476562 L 89.367188 126.476562 C 89.730469 126.476562 90.050781 126.691406 90.128906 126.984375 L 91.109375 130.695312 C 91.914062 133.746094 94.769531 135.878906 98.050781 135.878906 C 99.785156 135.878906 101.441406 135.277344 102.734375 134.203125 L 103.617188 137.804688 Z M 95.582031 123.011719 L 95.582031 125.667969 C 95.582031 128.207031 96.730469 130.480469 98.535156 132 C 98.375 132.023438 98.214844 132.035156 98.050781 132.035156 C 96.515625 132.035156 95.195312 131.078125 94.832031 129.714844 L 93.851562 126 C 93.328125 124.015625 91.484375 122.632812 89.367188 122.632812 L 78.683594 122.632812 C 76.566406 122.632812 74.722656 124.015625 74.199219 126 L 73.21875 129.714844 C 72.855469 131.078125 71.535156 132.035156 70 132.035156 C 69.835938 132.035156 69.679688 132.019531 69.519531 132 C 71.320312 130.476562 72.46875 128.207031 72.46875 125.667969 L 72.46875 123.011719 C 72.46875 119.917969 70.761719 117.21875 68.242188 115.796875 C 68.421875 115.171875 69.054688 114.722656 69.800781 114.722656 L 98.25 114.722656 C 98.996094 114.722656 99.628906 115.171875 99.808594 115.796875 C 97.289062 117.21875 95.582031 119.917969 95.582031 123.011719 Z M 103.882812 118.570312 C 104.617188 118.570312 105.210938 119.167969 105.210938 119.898438 L 105.210938 128.78125 C 105.210938 129.515625 104.617188 130.109375 103.882812 130.109375 C 101.429688 130.109375 99.433594 128.117188 99.433594 125.667969 L 99.433594 123.011719 C 99.433594 120.5625 101.429688 118.570312 103.882812 118.570312 Z M 68.617188 123.011719 L 68.617188 125.667969 C 68.617188 128.117188 66.621094 130.109375 64.167969 130.109375 C 63.433594 130.109375 62.835938 129.515625 62.835938 128.78125 L 62.835938 119.898438 C 62.835938 119.167969 63.433594 118.570312 64.167969 118.570312 C 66.621094 118.570312 68.617188 120.5625 68.617188 123.011719 Z M 109.066406 137.804688 L 106.933594 132.957031 C 108.222656 132.011719 109.066406 130.496094 109.066406 128.78125 L 109.066406 125.660156 L 120.121094 137.804688 Z M 122.546875 134.75 L 114.84375 126.289062 L 114.84375 116.648438 C 114.84375 115.585938 113.980469 114.722656 112.917969 114.722656 C 111.855469 114.722656 110.992188 115.585938 110.992188 116.648438 L 110.992188 122.058594 L 109.066406 119.941406 L 109.066406 119.898438 C 109.066406 117.046875 106.738281 114.722656 103.882812 114.722656 C 103.757812 114.722656 103.632812 114.726562 103.507812 114.734375 C 102.863281 112.488281 100.738281 110.878906 98.25 110.878906 L 69.800781 110.878906 C 67.3125 110.878906 65.1875 112.488281 64.542969 114.734375 C 64.417969 114.726562 64.292969 114.722656 64.167969 114.722656 C 61.3125 114.722656 58.984375 117.046875 58.984375 119.898438 L 58.984375 119.941406 L 57.058594 122.058594 L 57.058594 116.648438 C 57.058594 115.585938 56.195312 114.722656 55.132812 114.722656 C 54.070312 114.722656 53.207031 115.585938 53.207031 116.648438 L 53.207031 126.289062 L 45.503906 134.75 L 45.503906 109.648438 C 45.503906 103.332031 49.789062 97.847656 55.929688 96.3125 L 65.351562 93.960938 C 67.472656 101.542969 75.121094 107.03125 84.023438 107.03125 C 92.929688 107.03125 100.578125 101.542969 102.699219 93.960938 L 112.121094 96.3125 C 118.261719 97.847656 122.546875 103.328125 122.546875 109.648438 Z M 101.058594 126.09375 C 101.195312 126.230469 101.324219 126.371094 101.453125 126.515625 C 101.335938 126.617188 101.226562 126.730469 101.125 126.851562 L 101.035156 126.0625 C 101.042969 126.074219 101.050781 126.082031 101.058594 126.09375 Z M 89.804688 41.640625 L 78.246094 41.640625 C 77.183594 41.640625 76.320312 42.503906 76.320312 43.5625 L 76.320312 49.335938 C 76.320312 50.394531 77.183594 51.257812 78.246094 51.257812 L 89.804688 51.257812 C 90.867188 51.257812 91.730469 50.394531 91.730469 49.335938 L 91.730469 43.5625 C 91.730469 42.503906 90.867188 41.640625 89.804688 41.640625 Z M 87.878906 47.410156 L 80.171875 47.410156 L 80.171875 45.488281 L 87.878906 45.488281 Z M 87.878906 47.410156 " clip-rule="nonzero"/></clipPath><linearGradient x1="74.265002" gradientTransform="matrix(0.240767, 0, 0, 0.240405, 22.388894, 22.40877)" y1="490.265" x2="490.264974" gradientUnits="userSpaceOnUse" y2="74.265026" id="9071bea576"><stop stop-opacity="1" stop-color="rgb(1.599121%, 92.199707%, 42.698669%)" offset="0"/><stop stop-opacity="1" stop-color="rgb(1.594543%, 92.019653%, 42.642212%)" offset="0.0078125"/><stop stop-opacity="1" stop-color="rgb(1.576233%, 91.19873%, 42.382812%)" offset="0.0117188"/><stop stop-opacity="1" stop-color="rgb(1.5625%, 90.557861%, 42.179871%)" offset="0.015625"/><stop stop-opacity="1" stop-color="rgb(1.547241%, 89.916992%, 41.976929%)" offset="0.0195312"/><stop stop-opacity="1" stop-color="rgb(1.533508%, 89.276123%, 41.775513%)" offset="0.0234375"/><stop stop-opacity="1" stop-color="rgb(1.519775%, 88.633728%, 41.572571%)" offset="0.0273438"/><stop stop-opacity="1" stop-color="rgb(1.506042%, 87.992859%, 41.369629%)" offset="0.03125"/><stop stop-opacity="1" stop-color="rgb(1.490784%, 87.350464%, 41.166687%)" offset="0.0351562"/><stop stop-opacity="1" stop-color="rgb(1.477051%, 86.709595%, 40.963745%)" offset="0.0390625"/><stop stop-opacity="1" stop-color="rgb(1.461792%, 86.068726%, 40.760803%)" offset="0.0429687"/><stop stop-opacity="1" stop-color="rgb(1.448059%, 85.427856%, 40.557861%)" offset="0.046875"/><stop stop-opacity="1" stop-color="rgb(1.4328%, 84.785461%, 40.354919%)" offset="0.0507812"/><stop stop-opacity="1" stop-color="rgb(1.419067%, 84.144592%, 40.151978%)" offset="0.0546875"/><stop stop-opacity="1" stop-color="rgb(1.405334%, 83.502197%, 39.949036%)" offset="0.0585937"/><stop stop-opacity="1" stop-color="rgb(1.391602%, 82.861328%, 39.74762%)" offset="0.0625"/><stop stop-opacity="1" stop-color="rgb(1.376343%, 82.218933%, 39.544678%)" offset="0.0664062"/><stop stop-opacity="1" stop-color="rgb(1.36261%, 81.578064%, 39.341736%)" offset="0.0703125"/><stop stop-opacity="1" stop-color="rgb(1.347351%, 80.937195%, 39.138794%)" offset="0.0742188"/><stop stop-opacity="1" stop-color="rgb(1.333618%, 80.296326%, 38.935852%)" offset="0.078125"/><stop stop-opacity="1" stop-color="rgb(1.319885%, 79.653931%, 38.73291%)" offset="0.0820312"/><stop stop-opacity="1" stop-color="rgb(1.306152%, 79.013062%, 38.529968%)" offset="0.0859375"/><stop stop-opacity="1" stop-color="rgb(1.290894%, 78.370667%, 38.327026%)" offset="0.0898437"/><stop stop-opacity="1" stop-color="rgb(1.277161%, 77.729797%, 38.124084%)" offset="0.09375"/><stop stop-opacity="1" stop-color="rgb(1.261902%, 77.088928%, 37.921143%)" offset="0.0976562"/><stop stop-opacity="1" stop-color="rgb(1.248169%, 76.448059%, 37.719727%)" offset="0.101562"/><stop stop-opacity="1" stop-color="rgb(1.23291%, 75.805664%, 37.516785%)" offset="0.105469"/><stop stop-opacity="1" stop-color="rgb(1.219177%, 75.164795%, 37.313843%)" offset="0.109375"/><stop stop-opacity="1" stop-color="rgb(1.205444%, 74.5224%, 37.110901%)" offset="0.113281"/><stop stop-opacity="1" stop-color="rgb(1.191711%, 73.881531%, 36.907959%)" offset="0.117187"/><stop stop-opacity="1" stop-color="rgb(1.176453%, 73.239136%, 36.705017%)" offset="0.121094"/><stop stop-opacity="1" stop-color="rgb(1.16272%, 72.598267%, 36.502075%)" offset="0.125"/><stop stop-opacity="1" stop-color="rgb(1.147461%, 71.957397%, 36.299133%)" offset="0.128906"/><stop stop-opacity="1" stop-color="rgb(1.133728%, 71.316528%, 36.096191%)" offset="0.132812"/><stop stop-opacity="1" stop-color="rgb(1.118469%, 70.674133%, 35.89325%)" offset="0.136719"/><stop stop-opacity="1" stop-color="rgb(1.104736%, 70.033264%, 35.691833%)" offset="0.140625"/><stop stop-opacity="1" stop-color="rgb(1.091003%, 69.390869%, 35.488892%)" offset="0.144531"/><stop stop-opacity="1" stop-color="rgb(1.077271%, 68.75%, 35.28595%)" offset="0.148438"/><stop stop-opacity="1" stop-color="rgb(1.062012%, 68.109131%, 35.083008%)" offset="0.152344"/><stop stop-opacity="1" stop-color="rgb(1.048279%, 67.468262%, 34.880066%)" offset="0.15625"/><stop stop-opacity="1" stop-color="rgb(1.03302%, 66.825867%, 34.677124%)" offset="0.160156"/><stop stop-opacity="1" stop-color="rgb(1.019287%, 66.184998%, 34.474182%)" offset="0.164062"/><stop stop-opacity="1" stop-color="rgb(1.004028%, 65.542603%, 34.27124%)" offset="0.167969"/><stop stop-opacity="1" stop-color="rgb(0.990295%, 64.901733%, 34.068298%)" offset="0.171875"/><stop stop-opacity="1" stop-color="rgb(0.976562%, 64.259338%, 33.865356%)" offset="0.175781"/><stop stop-opacity="1" stop-color="rgb(0.96283%, 63.618469%, 33.66394%)" offset="0.179688"/><stop stop-opacity="1" stop-color="rgb(0.947571%, 62.9776%, 33.460999%)" offset="0.183594"/><stop stop-opacity="1" stop-color="rgb(0.933838%, 62.336731%, 33.258057%)" offset="0.1875"/><stop stop-opacity="1" stop-color="rgb(0.918579%, 61.694336%, 33.055115%)" offset="0.191406"/><stop stop-opacity="1" stop-color="rgb(0.904846%, 61.053467%, 32.852173%)" offset="0.195312"/><stop stop-opacity="1" stop-color="rgb(0.889587%, 60.411072%, 32.649231%)" offset="0.199219"/><stop stop-opacity="1" stop-color="rgb(0.875854%, 59.770203%, 32.446289%)" offset="0.203125"/><stop stop-opacity="1" stop-color="rgb(0.862122%, 59.129333%, 32.243347%)" offset="0.207031"/><stop stop-opacity="1" stop-color="rgb(0.848389%, 58.488464%, 32.041931%)" offset="0.210937"/><stop stop-opacity="1" stop-color="rgb(0.83313%, 57.846069%, 31.838989%)" offset="0.214844"/><stop stop-opacity="1" stop-color="rgb(0.819397%, 57.2052%, 31.636047%)" offset="0.21875"/><stop stop-opacity="1" stop-color="rgb(0.804138%, 56.562805%, 31.433105%)" offset="0.222656"/><stop stop-opacity="1" stop-color="rgb(0.790405%, 55.921936%, 31.230164%)" offset="0.226562"/><stop stop-opacity="1" stop-color="rgb(0.776672%, 55.279541%, 31.027222%)" offset="0.230469"/><stop stop-opacity="1" stop-color="rgb(0.762939%, 54.638672%, 30.82428%)" offset="0.234375"/><stop stop-opacity="1" stop-color="rgb(0.747681%, 53.997803%, 30.621338%)" offset="0.238281"/><stop stop-opacity="1" stop-color="rgb(0.733948%, 53.356934%, 30.418396%)" offset="0.242188"/><stop stop-opacity="1" stop-color="rgb(0.718689%, 52.714539%, 30.215454%)" offset="0.246094"/><stop stop-opacity="1" stop-color="rgb(0.704956%, 52.073669%, 30.014038%)" offset="0.25"/><stop stop-opacity="1" stop-color="rgb(0.689697%, 51.431274%, 29.811096%)" offset="0.253906"/><stop stop-opacity="1" stop-color="rgb(0.675964%, 50.790405%, 29.608154%)" offset="0.257812"/><stop stop-opacity="1" stop-color="rgb(0.662231%, 50.149536%, 29.405212%)" offset="0.261719"/><stop stop-opacity="1" stop-color="rgb(0.648499%, 49.508667%, 29.202271%)" offset="0.265625"/><stop stop-opacity="1" stop-color="rgb(0.63324%, 48.866272%, 28.999329%)" offset="0.269531"/><stop stop-opacity="1" stop-color="rgb(0.619507%, 48.225403%, 28.796387%)" offset="0.273437"/><stop stop-opacity="1" stop-color="rgb(0.604248%, 47.583008%, 28.593445%)" offset="0.277344"/><stop stop-opacity="1" stop-color="rgb(0.590515%, 46.942139%, 28.390503%)" offset="0.28125"/><stop stop-opacity="1" stop-color="rgb(0.575256%, 46.299744%, 28.187561%)" offset="0.285156"/><stop stop-opacity="1" stop-color="rgb(0.561523%, 45.658875%, 27.986145%)" offset="0.289062"/><stop stop-opacity="1" stop-color="rgb(0.547791%, 45.018005%, 27.783203%)" offset="0.292969"/><stop stop-opacity="1" stop-color="rgb(0.534058%, 44.377136%, 27.580261%)" offset="0.296875"/><stop stop-opacity="1" stop-color="rgb(0.518799%, 43.734741%, 27.377319%)" offset="0.300781"/><stop stop-opacity="1" stop-color="rgb(0.505066%, 43.093872%, 27.174377%)" offset="0.304687"/><stop stop-opacity="1" stop-color="rgb(0.489807%, 42.451477%, 26.971436%)" offset="0.308594"/><stop stop-opacity="1" stop-color="rgb(0.476074%, 41.810608%, 26.768494%)" offset="0.3125"/><stop stop-opacity="1" stop-color="rgb(0.460815%, 41.169739%, 26.565552%)" offset="0.316406"/><stop stop-opacity="1" stop-color="rgb(0.447083%, 40.52887%, 26.36261%)" offset="0.320312"/><stop stop-opacity="1" stop-color="rgb(0.43335%, 39.886475%, 26.159668%)" offset="0.324219"/><stop stop-opacity="1" stop-color="rgb(0.419617%, 39.245605%, 25.958252%)" offset="0.328125"/><stop stop-opacity="1" stop-color="rgb(0.404358%, 38.60321%, 25.75531%)" offset="0.332031"/><stop stop-opacity="1" stop-color="rgb(0.390625%, 37.962341%, 25.552368%)" offset="0.335937"/><stop stop-opacity="1" stop-color="rgb(0.375366%, 37.321472%, 25.349426%)" offset="0.339844"/><stop stop-opacity="1" stop-color="rgb(0.361633%, 36.680603%, 25.146484%)" offset="0.34375"/><stop stop-opacity="1" stop-color="rgb(0.3479%, 36.038208%, 24.943542%)" offset="0.347656"/><stop stop-opacity="1" stop-color="rgb(0.334167%, 35.397339%, 24.740601%)" offset="0.351562"/><stop stop-opacity="1" stop-color="rgb(0.318909%, 34.754944%, 24.537659%)" offset="0.355469"/><stop stop-opacity="1" stop-color="rgb(0.305176%, 34.114075%, 24.334717%)" offset="0.359375"/><stop stop-opacity="1" stop-color="rgb(0.289917%, 33.47168%, 24.131775%)" offset="0.363281"/><stop stop-opacity="1" stop-color="rgb(0.276184%, 32.830811%, 23.930359%)" offset="0.367187"/><stop stop-opacity="1" stop-color="rgb(0.260925%, 32.189941%, 23.727417%)" offset="0.371094"/><stop stop-opacity="1" stop-color="rgb(0.247192%, 31.549072%, 23.524475%)" offset="0.375"/><stop stop-opacity="1" stop-color="rgb(0.233459%, 30.906677%, 23.321533%)" offset="0.378906"/><stop stop-opacity="1" stop-color="rgb(0.219727%, 30.265808%, 23.118591%)" offset="0.382812"/><stop stop-opacity="1" stop-color="rgb(0.204468%, 29.623413%, 22.915649%)" offset="0.386719"/><stop stop-opacity="1" stop-color="rgb(0.190735%, 28.982544%, 22.712708%)" offset="0.390625"/><stop stop-opacity="1" stop-color="rgb(0.175476%, 28.341675%, 22.509766%)" offset="0.394531"/><stop stop-opacity="1" stop-color="rgb(0.161743%, 27.700806%, 22.306824%)" offset="0.398437"/><stop stop-opacity="1" stop-color="rgb(0.146484%, 27.058411%, 22.103882%)" offset="0.402344"/><stop stop-opacity="1" stop-color="rgb(0.132751%, 26.417542%, 21.902466%)" offset="0.40625"/><stop stop-opacity="1" stop-color="rgb(0.119019%, 25.775146%, 21.699524%)" offset="0.410156"/><stop stop-opacity="1" stop-color="rgb(0.105286%, 25.134277%, 21.496582%)" offset="0.414062"/><stop stop-opacity="1" stop-color="rgb(0.0900269%, 24.491882%, 21.29364%)" offset="0.417969"/><stop stop-opacity="1" stop-color="rgb(0.0762939%, 23.851013%, 21.090698%)" offset="0.421875"/><stop stop-opacity="1" stop-color="rgb(0.0610352%, 23.210144%, 20.887756%)" offset="0.425781"/><stop stop-opacity="1" stop-color="rgb(0.0473022%, 22.569275%, 20.684814%)" offset="0.429687"/><stop stop-opacity="1" stop-color="rgb(0.0320435%, 21.92688%, 20.481873%)" offset="0.433594"/><stop stop-opacity="1" stop-color="rgb(0.0183105%, 21.286011%, 20.278931%)" offset="0.4375"/><stop stop-opacity="1" stop-color="rgb(0.0946045%, 21.034241%, 20.243835%)" offset="0.441406"/><stop stop-opacity="1" stop-color="rgb(0.172424%, 20.783997%, 20.20874%)" offset="0.445312"/><stop stop-opacity="1" stop-color="rgb(0.453186%, 21.406555%, 20.547485%)" offset="0.449219"/><stop stop-opacity="1" stop-color="rgb(0.735474%, 22.029114%, 20.88623%)" offset="0.453125"/><stop stop-opacity="1" stop-color="rgb(1.016235%, 22.651672%, 21.224976%)" offset="0.457031"/><stop stop-opacity="1" stop-color="rgb(1.296997%, 23.275757%, 21.565247%)" offset="0.460938"/><stop stop-opacity="1" stop-color="rgb(1.577759%, 23.898315%, 21.903992%)" offset="0.464844"/><stop stop-opacity="1" stop-color="rgb(1.860046%, 24.520874%, 22.242737%)" offset="0.46875"/><stop stop-opacity="1" stop-color="rgb(2.140808%, 25.143433%, 22.581482%)" offset="0.472656"/><stop stop-opacity="1" stop-color="rgb(2.42157%, 25.767517%, 22.920227%)" offset="0.476563"/><stop stop-opacity="1" stop-color="rgb(2.702332%, 26.390076%, 23.258972%)" offset="0.480469"/><stop stop-opacity="1" stop-color="rgb(2.984619%, 27.012634%, 23.599243%)" offset="0.484375"/><stop stop-opacity="1" stop-color="rgb(3.265381%, 27.635193%, 23.937988%)" offset="0.488281"/><stop stop-opacity="1" stop-color="rgb(3.546143%, 28.257751%, 24.276733%)" offset="0.492188"/><stop stop-opacity="1" stop-color="rgb(3.826904%, 28.88031%, 24.615479%)" offset="0.496094"/><stop stop-opacity="1" stop-color="rgb(4.109192%, 29.504395%, 24.954224%)" offset="0.5"/><stop stop-opacity="1" stop-color="rgb(4.389954%, 30.126953%, 25.292969%)" offset="0.503906"/><stop stop-opacity="1" stop-color="rgb(4.670715%, 30.749512%, 25.63324%)" offset="0.507812"/><stop stop-opacity="1" stop-color="rgb(4.951477%, 31.37207%, 25.971985%)" offset="0.511719"/><stop stop-opacity="1" stop-color="rgb(5.233765%, 31.996155%, 26.31073%)" offset="0.515625"/><stop stop-opacity="1" stop-color="rgb(5.514526%, 32.618713%, 26.649475%)" offset="0.519531"/><stop stop-opacity="1" stop-color="rgb(5.795288%, 33.241272%, 26.98822%)" offset="0.523438"/><stop stop-opacity="1" stop-color="rgb(6.07605%, 33.863831%, 27.326965%)" offset="0.527344"/><stop stop-opacity="1" stop-color="rgb(6.356812%, 34.487915%, 27.667236%)" offset="0.53125"/><stop stop-opacity="1" stop-color="rgb(6.637573%, 35.110474%, 28.005981%)" offset="0.535156"/><stop stop-opacity="1" stop-color="rgb(6.919861%, 35.733032%, 28.344727%)" offset="0.539062"/><stop stop-opacity="1" stop-color="rgb(7.200623%, 36.355591%, 28.683472%)" offset="0.542969"/><stop stop-opacity="1" stop-color="rgb(7.481384%, 36.978149%, 29.022217%)" offset="0.546875"/><stop stop-opacity="1" stop-color="rgb(7.762146%, 37.600708%, 29.360962%)" offset="0.550781"/><stop stop-opacity="1" stop-color="rgb(8.044434%, 38.224792%, 29.701233%)" offset="0.554688"/><stop stop-opacity="1" stop-color="rgb(8.325195%, 38.847351%, 30.039978%)" offset="0.558594"/><stop stop-opacity="1" stop-color="rgb(8.605957%, 39.46991%, 30.378723%)" offset="0.5625"/><stop stop-opacity="1" stop-color="rgb(8.886719%, 40.092468%, 30.717468%)" offset="0.566406"/><stop stop-opacity="1" stop-color="rgb(9.169006%, 40.716553%, 31.056213%)" offset="0.570312"/><stop stop-opacity="1" stop-color="rgb(9.449768%, 41.339111%, 31.394958%)" offset="0.574219"/><stop stop-opacity="1" stop-color="rgb(9.73053%, 41.96167%, 31.735229%)" offset="0.578125"/><stop stop-opacity="1" stop-color="rgb(10.011292%, 42.584229%, 32.073975%)" offset="0.582031"/><stop stop-opacity="1" stop-color="rgb(10.293579%, 43.206787%, 32.41272%)" offset="0.585938"/><stop stop-opacity="1" stop-color="rgb(10.574341%, 43.829346%, 32.751465%)" offset="0.589844"/><stop stop-opacity="1" stop-color="rgb(10.855103%, 44.45343%, 33.09021%)" offset="0.59375"/><stop stop-opacity="1" stop-color="rgb(11.135864%, 45.075989%, 33.428955%)" offset="0.597656"/><stop stop-opacity="1" stop-color="rgb(11.418152%, 45.698547%, 33.769226%)" offset="0.601562"/><stop stop-opacity="1" stop-color="rgb(11.698914%, 46.321106%, 34.107971%)" offset="0.605469"/><stop stop-opacity="1" stop-color="rgb(11.979675%, 46.94519%, 34.446716%)" offset="0.609375"/><stop stop-opacity="1" stop-color="rgb(12.260437%, 47.567749%, 34.785461%)" offset="0.613281"/><stop stop-opacity="1" stop-color="rgb(12.542725%, 48.190308%, 35.124207%)" offset="0.617187"/><stop stop-opacity="1" stop-color="rgb(12.823486%, 48.812866%, 35.462952%)" offset="0.621094"/><stop stop-opacity="1" stop-color="rgb(13.104248%, 49.436951%, 35.803223%)" offset="0.625"/><stop stop-opacity="1" stop-color="rgb(13.38501%, 50.059509%, 36.141968%)" offset="0.628906"/><stop stop-opacity="1" stop-color="rgb(13.667297%, 50.682068%, 36.480713%)" offset="0.632812"/><stop stop-opacity="1" stop-color="rgb(13.948059%, 51.304626%, 36.819458%)" offset="0.636719"/><stop stop-opacity="1" stop-color="rgb(14.228821%, 51.927185%, 37.158203%)" offset="0.640625"/><stop stop-opacity="1" stop-color="rgb(14.509583%, 52.549744%, 37.496948%)" offset="0.644531"/><stop stop-opacity="1" stop-color="rgb(14.79187%, 53.173828%, 37.837219%)" offset="0.648438"/><stop stop-opacity="1" stop-color="rgb(15.072632%, 53.796387%, 38.175964%)" offset="0.652344"/><stop stop-opacity="1" stop-color="rgb(15.353394%, 54.418945%, 38.514709%)" offset="0.65625"/><stop stop-opacity="1" stop-color="rgb(15.634155%, 55.041504%, 38.853455%)" offset="0.660156"/><stop stop-opacity="1" stop-color="rgb(15.914917%, 55.665588%, 39.1922%)" offset="0.664062"/><stop stop-opacity="1" stop-color="rgb(16.195679%, 56.288147%, 39.530945%)" offset="0.667969"/><stop stop-opacity="1" stop-color="rgb(16.477966%, 56.910706%, 39.871216%)" offset="0.671875"/><stop stop-opacity="1" stop-color="rgb(16.758728%, 57.533264%, 40.209961%)" offset="0.675781"/><stop stop-opacity="1" stop-color="rgb(17.03949%, 58.155823%, 40.548706%)" offset="0.679687"/><stop stop-opacity="1" stop-color="rgb(17.320251%, 58.778381%, 40.887451%)" offset="0.683594"/><stop stop-opacity="1" stop-color="rgb(17.602539%, 59.402466%, 41.226196%)" offset="0.6875"/><stop stop-opacity="1" stop-color="rgb(17.883301%, 60.025024%, 41.564941%)" offset="0.691406"/><stop stop-opacity="1" stop-color="rgb(18.164062%, 60.647583%, 41.905212%)" offset="0.695312"/><stop stop-opacity="1" stop-color="rgb(18.444824%, 61.270142%, 42.243958%)" offset="0.699219"/><stop stop-opacity="1" stop-color="rgb(18.727112%, 61.894226%, 42.582703%)" offset="0.703125"/><stop stop-opacity="1" stop-color="rgb(19.007874%, 62.516785%, 42.921448%)" offset="0.707031"/><stop stop-opacity="1" stop-color="rgb(19.288635%, 63.139343%, 43.260193%)" offset="0.710937"/><stop stop-opacity="1" stop-color="rgb(19.569397%, 63.761902%, 43.598938%)" offset="0.714844"/><stop stop-opacity="1" stop-color="rgb(19.851685%, 64.385986%, 43.939209%)" offset="0.71875"/><stop stop-opacity="1" stop-color="rgb(20.132446%, 65.008545%, 44.277954%)" offset="0.722656"/><stop stop-opacity="1" stop-color="rgb(20.413208%, 65.631104%, 44.616699%)" offset="0.726562"/><stop stop-opacity="1" stop-color="rgb(20.69397%, 66.253662%, 44.955444%)" offset="0.730469"/><stop stop-opacity="1" stop-color="rgb(20.976257%, 66.876221%, 45.294189%)" offset="0.734375"/><stop stop-opacity="1" stop-color="rgb(21.257019%, 67.498779%, 45.632935%)" offset="0.738281"/><stop stop-opacity="1" stop-color="rgb(21.537781%, 68.122864%, 45.973206%)" offset="0.742187"/><stop stop-opacity="1" stop-color="rgb(21.818542%, 68.745422%, 46.311951%)" offset="0.746094"/><stop stop-opacity="1" stop-color="rgb(22.10083%, 69.367981%, 46.650696%)" offset="0.75"/><stop stop-opacity="1" stop-color="rgb(22.381592%, 69.99054%, 46.989441%)" offset="0.753906"/><stop stop-opacity="1" stop-color="rgb(22.662354%, 70.614624%, 47.328186%)" offset="0.757812"/><stop stop-opacity="1" stop-color="rgb(22.943115%, 71.237183%, 47.666931%)" offset="0.761719"/><stop stop-opacity="1" stop-color="rgb(23.225403%, 71.859741%, 48.007202%)" offset="0.765625"/><stop stop-opacity="1" stop-color="rgb(23.506165%, 72.4823%, 48.345947%)" offset="0.769531"/><stop stop-opacity="1" stop-color="rgb(23.786926%, 73.106384%, 48.684692%)" offset="0.773438"/><stop stop-opacity="1" stop-color="rgb(24.067688%, 73.728943%, 49.023438%)" offset="0.777344"/><stop stop-opacity="1" stop-color="rgb(24.349976%, 74.351501%, 49.362183%)" offset="0.78125"/><stop stop-opacity="1" stop-color="rgb(24.630737%, 74.97406%, 49.700928%)" offset="0.785156"/><stop stop-opacity="1" stop-color="rgb(24.911499%, 75.596619%, 50.041199%)" offset="0.789062"/><stop stop-opacity="1" stop-color="rgb(25.192261%, 76.219177%, 50.379944%)" offset="0.792969"/><stop stop-opacity="1" stop-color="rgb(25.474548%, 76.843262%, 50.718689%)" offset="0.796875"/><stop stop-opacity="1" stop-color="rgb(25.75531%, 77.46582%, 51.057434%)" offset="0.800781"/><stop stop-opacity="1" stop-color="rgb(26.036072%, 78.088379%, 51.396179%)" offset="0.804688"/><stop stop-opacity="1" stop-color="rgb(26.316833%, 78.710938%, 51.734924%)" offset="0.808594"/><stop stop-opacity="1" stop-color="rgb(26.597595%, 79.335022%, 52.075195%)" offset="0.8125"/><stop stop-opacity="1" stop-color="rgb(26.878357%, 79.957581%, 52.41394%)" offset="0.816406"/><stop stop-opacity="1" stop-color="rgb(27.160645%, 80.580139%, 52.752686%)" offset="0.820312"/><stop stop-opacity="1" stop-color="rgb(27.441406%, 81.202698%, 53.091431%)" offset="0.824219"/><stop stop-opacity="1" stop-color="rgb(27.722168%, 81.825256%, 53.430176%)" offset="0.828125"/><stop stop-opacity="1" stop-color="rgb(28.00293%, 82.447815%, 53.768921%)" offset="0.832031"/><stop stop-opacity="1" stop-color="rgb(28.285217%, 83.071899%, 54.109192%)" offset="0.835937"/><stop stop-opacity="1" stop-color="rgb(28.565979%, 83.694458%, 54.447937%)" offset="0.839844"/><stop stop-opacity="1" stop-color="rgb(28.846741%, 84.317017%, 54.786682%)" offset="0.84375"/><stop stop-opacity="1" stop-color="rgb(29.127502%, 84.939575%, 55.125427%)" offset="0.847656"/><stop stop-opacity="1" stop-color="rgb(29.40979%, 85.56366%, 55.464172%)" offset="0.851562"/><stop stop-opacity="1" stop-color="rgb(29.690552%, 86.186218%, 55.802917%)" offset="0.855469"/><stop stop-opacity="1" stop-color="rgb(29.971313%, 86.808777%, 56.143188%)" offset="0.859375"/><stop stop-opacity="1" stop-color="rgb(30.252075%, 87.431335%, 56.481934%)" offset="0.863281"/><stop stop-opacity="1" stop-color="rgb(30.534363%, 88.05542%, 56.820679%)" offset="0.867187"/><stop stop-opacity="1" stop-color="rgb(30.566406%, 88.127136%, 56.858826%)" offset="0.875"/><stop stop-opacity="1" stop-color="rgb(30.599976%, 88.198853%, 56.898499%)" offset="1"/></linearGradient></defs><g clip-path="url(#7b1b531ebd)"><g clip-path="url(#a227a921d4)"><path fill="url(#9071bea576)" d="M 41.648438 26.253906 L 41.648438 141.648438 L 126.398438 141.648438 L 126.398438 26.253906 Z M 41.648438 26.253906 " fill-rule="nonzero"/></g></g></svg>